<?xml version="1.0" encoding="UTF-8" standalone="no"?>
<!-- Created with Inkscape (http://www.inkscape.org/) -->

<svg
   xmlns:dc="http://purl.org/dc/elements/1.1/"
   xmlns:cc="http://creativecommons.org/ns#"
   xmlns:rdf="http://www.w3.org/1999/02/22-rdf-syntax-ns#"
   xmlns:svg="http://www.w3.org/2000/svg"
   xmlns="http://www.w3.org/2000/svg"
   xmlns:sodipodi="http://sodipodi.sourceforge.net/DTD/sodipodi-0.dtd"
   xmlns:inkscape="http://www.inkscape.org/namespaces/inkscape"
   width="744.09448819"
   height="1052.3622047"
   id="svg2"
   inkscape:label="Pozadí"
   version="1.1"
   inkscape:version="0.48.3.1 r9886"
   sodipodi:docname="talkingclock_ir_signal.svg"
   inkscape:export-filename="/media/PORTABLELNX/Elektronika/Talking_Clock/doc/talkingclock_ir_signal.png"
   inkscape:export-xdpi="90"
   inkscape:export-ydpi="90">
  <defs
     id="defs3578">
    <marker
       inkscape:stockid="Arrow2Mend"
       orient="auto"
       refY="0.0"
       refX="0.0"
       id="Arrow2Mend"
       style="overflow:visible;">
      <path
         id="path4571"
         style="fill-rule:evenodd;stroke-width:0.62500000;stroke-linejoin:round;"
         d="M 8.7185878,4.0337352 L -2.2072895,0.016013256 L 8.7185884,-4.0017078 C 6.9730900,-1.6296469 6.9831476,1.6157441 8.7185878,4.0337352 z "
         transform="scale(0.6) rotate(180) translate(0,0)" />
    </marker>
    <marker
       inkscape:stockid="Arrow2Mstart"
       orient="auto"
       refY="0.0"
       refX="0.0"
       id="Arrow2Mstart"
       style="overflow:visible">
      <path
         id="path4568"
         style="fill-rule:evenodd;stroke-width:0.62500000;stroke-linejoin:round"
         d="M 8.7185878,4.0337352 L -2.2072895,0.016013256 L 8.7185884,-4.0017078 C 6.9730900,-1.6296469 6.9831476,1.6157441 8.7185878,4.0337352 z "
         transform="scale(0.6) translate(0,0)" />
    </marker>
  </defs>
  <sodipodi:namedview
     id="base"
     pagecolor="#ffffff"
     bordercolor="#666666"
     borderopacity="1.0"
     inkscape:pageopacity="0.0"
     inkscape:pageshadow="2"
     inkscape:zoom="0.77674346"
     inkscape:cx="331.89679"
     inkscape:cy="508.09055"
     inkscape:document-units="px"
     inkscape:current-layer="layer1"
     showgrid="true"
     inkscape:window-width="1231"
     inkscape:window-height="776"
     inkscape:window-x="49"
     inkscape:window-y="24"
     inkscape:window-maximized="1">
    <inkscape:grid
       type="xygrid"
       id="grid3584" />
  </sodipodi:namedview>
  <metadata
     id="metadata3581">
    <rdf:RDF>
      <cc:Work
         rdf:about="">
        <dc:format>image/svg+xml</dc:format>
        <dc:type
           rdf:resource="http://purl.org/dc/dcmitype/StillImage" />
        <dc:title></dc:title>
      </cc:Work>
    </rdf:RDF>
  </metadata>
  <g
     inkscape:label="Vrstva 1"
     inkscape:groupmode="layer"
     id="layer1">
    <path
       style="fill:none;stroke:#ff00ea;stroke-width:4;stroke-linecap:butt;stroke-linejoin:miter;stroke-opacity:1;stroke-miterlimit:4;stroke-dasharray:none"
       d="m 110,542.36218 110,0 0,-40 10,0 0,40 10,0 0,-40 10,0 0,40 10,0 0,-40 10,0 0,40 10,0 0,-40 10,0 0,40 70,0 0,-40 10,0 0,40 10,0 0,-40 10,0 0,40 10,0 0,-40 10,0 0,40 10,0 0,-40 10,0 0,40 10,0 0,-40 10,0 0,40 10,0 0,-40 10,0 0,40 10,0 0,-40 10,0 0,40 10,0 0,-40 10,0 0,40 70,0"
       id="path3586"
       inkscape:connector-curvature="0" />
    <g
       transform="translate(100,290)"
       id="g3690">
      <path
         transform="matrix(0,-1,1,0,-392.36218,77.362183)"
         sodipodi:open="true"
         sodipodi:end="3.1665979"
         sodipodi:start="0"
         d="m -160,357.36218 c 0,8.28427 -6.71573,15 -15,15 -8.28427,0 -15,-6.71573 -15,-15 0,-0.12503 0.002,-0.25005 0.005,-0.37504"
         sodipodi:ry="15"
         sodipodi:rx="15"
         sodipodi:cy="357.36218"
         sodipodi:cx="-175"
         id="path3091"
         style="fill:none;stroke:#000000;stroke-width:2;stroke-miterlimit:4;stroke-opacity:1;stroke-dasharray:none;stroke-dashoffset:0"
         sodipodi:type="arc" />
      <path
         transform="matrix(0,-1,1,0,-382.36218,77.362183)"
         sodipodi:open="true"
         sodipodi:end="2.6963961"
         sodipodi:start="0.31206252"
         d="m -160.72446,361.96752 c -2.54346,7.88416 -10.99671,12.21365 -18.88087,9.6702 -3.92551,-1.26638 -7.15631,-4.09334 -8.93256,-7.81601"
         sodipodi:ry="15"
         sodipodi:rx="15"
         sodipodi:cy="357.36218"
         sodipodi:cx="-175"
         id="path3091-1"
         style="fill:none;stroke:#000000;stroke-width:2;stroke-miterlimit:4;stroke-opacity:1;stroke-dasharray:none;stroke-dashoffset:0"
         sodipodi:type="arc" />
      <path
         transform="matrix(0,-1,1,0,-372.36218,77.362183)"
         sodipodi:open="true"
         sodipodi:end="2.4305714"
         sodipodi:start="0.70062962"
         d="m -163.53345,367.03267 c -5.34087,6.3328 -14.80424,7.13692 -21.13704,1.79606 -0.6086,-0.51328 -1.17537,-1.07419 -1.69495,-1.67743"
         sodipodi:ry="15"
         sodipodi:rx="15"
         sodipodi:cy="357.36218"
         sodipodi:cx="-175"
         id="path3091-1-3"
         style="fill:none;stroke:#000000;stroke-width:2;stroke-miterlimit:4;stroke-opacity:1;stroke-dasharray:none;stroke-dashoffset:0"
         sodipodi:type="arc" />
    </g>
    <text
       xml:space="preserve"
       style="font-size:18px;font-style:normal;font-variant:normal;font-weight:normal;font-stretch:normal;text-align:start;line-height:125%;letter-spacing:0px;word-spacing:0px;writing-mode:lr-tb;text-anchor:start;fill:#000000;fill-opacity:1;stroke:none;font-family:Sans;-inkscape-font-specification:Sans"
       x="-592.36218"
       y="10"
       id="text3085"
       sodipodi:linespacing="125%"
       transform="matrix(0,-1,1,0,0,0)"><tspan
         sodipodi:role="line"
         id="tspan3087"
         x="-592.36218"
         y="10">IR Remote</tspan></text>
    <rect
       style="fill:#ff8080;fill-opacity:1;stroke:#000000;stroke-width:1.5;stroke-miterlimit:4;stroke-opacity:1;stroke-dasharray:none;stroke-dashoffset:0"
       id="rect3083"
       width="30"
       height="60"
       x="20"
       y="512.36218" />
    <text
       xml:space="preserve"
       style="font-size:12px;font-style:normal;font-variant:normal;font-weight:normal;font-stretch:normal;text-align:start;line-height:125%;letter-spacing:0px;word-spacing:0px;writing-mode:lr-tb;text-anchor:start;fill:#000000;fill-opacity:1;stroke:none;font-family:Sans;-inkscape-font-specification:Sans"
       x="90"
       y="522.36218"
       id="text4518"
       sodipodi:linespacing="125%"><tspan
         sodipodi:role="line"
         id="tspan4520"
         x="90"
         y="522.36218">light pulses</tspan></text>
    <path
       style="fill:none;stroke:#0000ff;stroke-width:3;stroke-linecap:butt;stroke-linejoin:miter;stroke-opacity:1;stroke-miterlimit:4;stroke-dasharray:none"
       d="m 110,612.36218 120,0 0,-35 65,0 0,35 75,0 0,-35 150,0 0,35 70,0"
       id="path4522"
       inkscape:connector-curvature="0" />
    <text
       xml:space="preserve"
       style="font-size:14px;font-style:normal;font-variant:normal;font-weight:normal;font-stretch:normal;text-align:start;line-height:125%;letter-spacing:0px;word-spacing:0px;writing-mode:lr;text-anchor:start;fill:#000000;fill-opacity:1;stroke:none;font-family:Sans;-inkscape-font-specification:Sans"
       x="600"
       y="602.36218"
       id="text4524"
       sodipodi:linespacing="125%"><tspan
         sodipodi:role="line"
         id="tspan4526"
         x="600"
         y="602.36218">IR detector</tspan><tspan
         sodipodi:role="line"
         x="600"
         y="624.86218"
         id="tspan4528">output</tspan></text>
    <path
       style="fill:none;stroke:#000000;stroke-width:1px;stroke-linecap:butt;stroke-linejoin:miter;stroke-opacity:1"
       d="m 230,622.36218 0,30"
       id="path4530"
       inkscape:connector-curvature="0" />
    <path
       style="fill:none;stroke:#000000;stroke-width:1px;stroke-linecap:butt;stroke-linejoin:miter;stroke-opacity:1"
       d="m 295,622.36218 0,30"
       id="path4532"
       inkscape:connector-curvature="0" />
    <path
       style="fill:none;stroke:#000000;stroke-width:1px;stroke-linecap:butt;stroke-linejoin:miter;stroke-opacity:1"
       d="m 370,622.36218 0,30"
       id="path4534"
       inkscape:connector-curvature="0" />
    <path
       style="fill:none;stroke:#000000;stroke-width:1px;stroke-linecap:butt;stroke-linejoin:miter;stroke-opacity:1"
       d="m 520,622.36218 0,30"
       id="path4536"
       inkscape:connector-curvature="0" />
    <path
       style="fill:none;stroke:#000000;stroke-width:1px;stroke-linecap:butt;stroke-linejoin:miter;stroke-opacity:1;marker-start:url(#Arrow2Mstart);marker-end:url(#Arrow2Mend)"
       d="m 230,642.36218 65,0"
       id="path4538"
       inkscape:connector-curvature="0" />
    <path
       style="fill:none;stroke:#000000;stroke-width:1px;stroke-linecap:butt;stroke-linejoin:miter;stroke-opacity:1;marker-start:url(#Arrow2Mstart);marker-end:url(#Arrow2Mend)"
       d="m 370,642.36218 150,0"
       id="path5170"
       inkscape:connector-curvature="0" />
    <text
       xml:space="preserve"
       style="font-size:18px;font-style:normal;font-variant:normal;font-weight:normal;font-stretch:normal;text-align:start;line-height:125%;letter-spacing:0px;word-spacing:0px;writing-mode:lr-tb;text-anchor:start;fill:#000000;fill-opacity:1;stroke:none;font-family:Sans;-inkscape-font-specification:Sans"
       x="250"
       y="662.36218"
       id="text5540"
       sodipodi:linespacing="125%"><tspan
         sodipodi:role="line"
         id="tspan5542"
         x="250"
         y="662.36218">&quot;0&quot;</tspan></text>
    <text
       xml:space="preserve"
       style="font-size:18px;font-style:normal;font-variant:normal;font-weight:normal;font-stretch:normal;text-align:start;line-height:125%;letter-spacing:0px;word-spacing:0px;writing-mode:lr-tb;text-anchor:start;fill:#000000;fill-opacity:1;stroke:none;font-family:Sans;-inkscape-font-specification:Sans"
       x="430"
       y="662.36218"
       id="text5544"
       sodipodi:linespacing="125%"><tspan
         sodipodi:role="line"
         id="tspan5546"
         x="430"
         y="662.36218">&quot;1&quot;</tspan></text>
  </g>
</svg>
