G04 (created by PCBNEW (2013-june-11)-stable) date St 26. únor 2014, 21:47:00 CET*
%MOIN*%
G04 Gerber Fmt 3.4, Leading zero omitted, Abs format*
%FSLAX34Y34*%
G01*
G70*
G90*
G04 APERTURE LIST*
%ADD10C,0.00590551*%
%ADD11C,0.00584252*%
%ADD12R,0.055X0.055*%
%ADD13C,0.055*%
%ADD14C,0.06*%
%ADD15O,0.1575X0.0984*%
%ADD16R,0.09X0.062*%
%ADD17O,0.09X0.062*%
%ADD18R,0.062X0.09*%
%ADD19O,0.062X0.09*%
%ADD20C,0.07*%
%ADD21R,0.07X0.07*%
%ADD22C,0.0943*%
%ADD23R,0.0882X0.0882*%
%ADD24C,0.0882*%
%ADD25C,0.0590551*%
%ADD26R,0.0787402X0.0787402*%
%ADD27C,0.0787402*%
%ADD28R,0.06X0.06*%
%ADD29O,0.156X0.078*%
%ADD30O,0.078X0.156*%
%ADD31O,0.06X0.04*%
%ADD32O,0.04X0.06*%
%ADD33O,0.09X0.07*%
%ADD34O,0.07X0.13*%
%ADD35C,0.16*%
%ADD36C,0.045*%
%ADD37C,0.0170079*%
%ADD38C,0.0393701*%
G04 APERTURE END LIST*
G54D10*
G54D11*
X54296Y27746D02*
X54240Y27728D01*
X54221Y27709D01*
X54203Y27671D01*
X54203Y27615D01*
X54221Y27578D01*
X54240Y27559D01*
X54278Y27540D01*
X54427Y27540D01*
X54427Y27934D01*
X54296Y27934D01*
X54259Y27915D01*
X54240Y27896D01*
X54221Y27859D01*
X54221Y27821D01*
X54240Y27784D01*
X54259Y27765D01*
X54296Y27746D01*
X54427Y27746D01*
X53865Y27540D02*
X53865Y27746D01*
X53884Y27784D01*
X53921Y27803D01*
X53996Y27803D01*
X54034Y27784D01*
X53865Y27559D02*
X53903Y27540D01*
X53996Y27540D01*
X54034Y27559D01*
X54053Y27596D01*
X54053Y27634D01*
X54034Y27671D01*
X53996Y27690D01*
X53903Y27690D01*
X53865Y27709D01*
X53509Y27559D02*
X53546Y27540D01*
X53621Y27540D01*
X53659Y27559D01*
X53678Y27578D01*
X53696Y27615D01*
X53696Y27728D01*
X53678Y27765D01*
X53659Y27784D01*
X53621Y27803D01*
X53546Y27803D01*
X53509Y27784D01*
X53340Y27540D02*
X53340Y27934D01*
X53303Y27690D02*
X53190Y27540D01*
X53190Y27803D02*
X53340Y27653D01*
X53021Y27578D02*
X53003Y27559D01*
X53021Y27540D01*
X53040Y27559D01*
X53021Y27578D01*
X53021Y27540D01*
X52609Y27578D02*
X52628Y27559D01*
X52684Y27540D01*
X52721Y27540D01*
X52778Y27559D01*
X52815Y27596D01*
X52834Y27634D01*
X52853Y27709D01*
X52853Y27765D01*
X52834Y27840D01*
X52815Y27878D01*
X52778Y27915D01*
X52721Y27934D01*
X52684Y27934D01*
X52628Y27915D01*
X52609Y27896D01*
X52272Y27803D02*
X52272Y27540D01*
X52440Y27803D02*
X52440Y27596D01*
X52421Y27559D01*
X52384Y27540D01*
X52328Y27540D01*
X52290Y27559D01*
X52272Y27578D01*
G54D12*
X22500Y17750D03*
G54D13*
X21500Y17750D03*
X21500Y16750D03*
G54D12*
X62000Y11500D03*
G54D13*
X63000Y11500D03*
X63000Y10500D03*
G54D14*
X29750Y19500D03*
X33750Y19500D03*
X29100Y2800D03*
X29100Y6800D03*
X21300Y5000D03*
X21300Y1000D03*
X19250Y19250D03*
X19250Y15250D03*
X46000Y15000D03*
X46000Y19000D03*
X43250Y16500D03*
X39250Y16500D03*
X43250Y17750D03*
X39250Y17750D03*
X43250Y19000D03*
X39250Y19000D03*
X51000Y15000D03*
X51000Y19000D03*
X49750Y15000D03*
X49750Y19000D03*
X47250Y15000D03*
X47250Y19000D03*
X44750Y19000D03*
X44750Y15000D03*
X48500Y15000D03*
X48500Y19000D03*
X52250Y19000D03*
X52250Y15000D03*
X67000Y23550D03*
X67000Y27550D03*
X66000Y13500D03*
X66000Y17500D03*
X62250Y13500D03*
X62250Y17500D03*
X63500Y8750D03*
X67500Y8750D03*
X63500Y7500D03*
X67500Y7500D03*
X33750Y21250D03*
X29750Y21250D03*
X63500Y17500D03*
X63500Y13500D03*
X36500Y16000D03*
X36500Y20000D03*
X64750Y13500D03*
X64750Y17500D03*
G54D15*
X10381Y23700D03*
X1719Y23700D03*
G54D16*
X56000Y16000D03*
G54D17*
X56000Y15000D03*
X56000Y14000D03*
X56000Y13000D03*
X59000Y13000D03*
X59000Y14000D03*
X59000Y15000D03*
X59000Y16000D03*
G54D18*
X64500Y19250D03*
G54D19*
X65500Y19250D03*
X66500Y19250D03*
X67500Y19250D03*
X67500Y22250D03*
X66500Y22250D03*
X65500Y22250D03*
X64500Y22250D03*
G54D18*
X21500Y8500D03*
G54D19*
X22500Y8500D03*
X23500Y8500D03*
X24500Y8500D03*
X25500Y8500D03*
X26500Y8500D03*
X27500Y8500D03*
X28500Y8500D03*
X29500Y8500D03*
X30500Y8500D03*
X31500Y8500D03*
X32500Y8500D03*
X33500Y8500D03*
X34500Y8500D03*
X35500Y8500D03*
X36500Y8500D03*
X37500Y8500D03*
X38500Y8500D03*
X39500Y8500D03*
X40500Y8500D03*
X40500Y14500D03*
X39500Y14500D03*
X38500Y14500D03*
X37500Y14500D03*
X36500Y14500D03*
X35500Y14500D03*
X34500Y14500D03*
X33500Y14500D03*
X32500Y14500D03*
X31500Y14500D03*
X30500Y14500D03*
X29500Y14500D03*
X28500Y14500D03*
X27500Y14500D03*
X26500Y14500D03*
X25500Y14500D03*
X24500Y14500D03*
X23500Y14500D03*
X22500Y14500D03*
X21500Y14500D03*
G54D20*
X16750Y26750D03*
G54D21*
X16750Y21750D03*
G54D20*
X15250Y21750D03*
G54D21*
X15250Y26750D03*
G54D20*
X12250Y21750D03*
G54D21*
X12250Y26750D03*
G54D20*
X13750Y26750D03*
G54D21*
X13750Y21750D03*
X59750Y21750D03*
G54D20*
X59750Y19750D03*
G54D21*
X70500Y19000D03*
G54D20*
X72500Y19000D03*
G54D21*
X59750Y24750D03*
G54D20*
X59750Y26750D03*
G54D13*
X66000Y10250D03*
X66000Y12250D03*
X63000Y21750D03*
X63000Y19750D03*
X68250Y24500D03*
X68250Y26500D03*
X67250Y13750D03*
X67250Y15750D03*
X67250Y10250D03*
X67250Y12250D03*
X39000Y6800D03*
X39000Y4800D03*
X31700Y6800D03*
X31700Y4800D03*
X30300Y4800D03*
X30300Y6800D03*
X31000Y16250D03*
X29000Y16250D03*
G54D12*
X57900Y10200D03*
G54D13*
X56900Y10200D03*
G54D12*
X56100Y7400D03*
G54D13*
X56100Y8400D03*
G54D12*
X46000Y22750D03*
G54D13*
X46000Y23750D03*
G54D12*
X46000Y26000D03*
G54D13*
X46000Y25000D03*
X60750Y14500D03*
X60750Y16500D03*
G54D22*
X70500Y12000D03*
G54D23*
X70500Y10000D03*
G54D24*
X70500Y14000D03*
G54D13*
X65750Y24500D03*
X65750Y26500D03*
G54D12*
X59500Y8000D03*
G54D13*
X58500Y8000D03*
X58500Y7000D03*
G54D20*
X36300Y6000D03*
X34300Y6000D03*
G54D12*
X32500Y16500D03*
G54D13*
X33500Y16500D03*
G54D21*
X40250Y23250D03*
G54D20*
X40250Y25250D03*
X40250Y24250D03*
G54D12*
X49500Y22750D03*
G54D13*
X49500Y23750D03*
G54D12*
X49500Y26000D03*
G54D13*
X49500Y25000D03*
G54D21*
X52500Y23250D03*
G54D20*
X52500Y25250D03*
X52500Y24250D03*
G54D25*
X21500Y25600D03*
X21500Y22400D03*
G54D14*
X19700Y3700D03*
X15700Y3700D03*
G54D18*
X28250Y25250D03*
G54D19*
X27250Y25250D03*
X26250Y25250D03*
X26250Y22250D03*
X27250Y22250D03*
X28250Y22250D03*
G54D26*
X4562Y8528D03*
G54D27*
X6531Y8528D03*
X10468Y8528D03*
X12437Y8528D03*
X12437Y18371D03*
X10468Y18371D03*
X8500Y18371D03*
X6531Y18371D03*
X4562Y18371D03*
G54D28*
X32500Y24250D03*
G54D14*
X32500Y23250D03*
X31500Y24250D03*
X31500Y23250D03*
X30500Y24250D03*
X30500Y23250D03*
G54D29*
X71750Y22810D03*
X71750Y24780D03*
G54D30*
X9260Y3000D03*
X11230Y3000D03*
X4010Y3000D03*
X5980Y3000D03*
G54D14*
X27900Y5100D03*
X27900Y1100D03*
G54D28*
X34700Y2300D03*
G54D14*
X34700Y1300D03*
X33700Y2300D03*
X33700Y1300D03*
X32700Y2300D03*
X32700Y1300D03*
X31700Y2300D03*
X31700Y1300D03*
X30700Y2300D03*
X30700Y1300D03*
G54D28*
X40950Y2300D03*
G54D14*
X40950Y1300D03*
X39950Y2300D03*
X39950Y1300D03*
X38950Y2300D03*
X38950Y1300D03*
X37950Y2300D03*
X37950Y1300D03*
X36950Y2300D03*
X36950Y1300D03*
G54D13*
X58500Y17500D03*
X56500Y17500D03*
G54D31*
X44400Y11650D03*
G54D32*
X51000Y11850D03*
G54D33*
X53700Y12550D03*
G54D32*
X48000Y11850D03*
G54D33*
X43600Y1050D03*
G54D34*
X54400Y1150D03*
G54D13*
X25500Y17750D03*
X25500Y18750D03*
G54D14*
X19000Y1500D03*
G54D25*
X57900Y3550D03*
X56500Y2950D03*
X58900Y2550D03*
X62500Y3550D03*
X61100Y2950D03*
X63500Y2550D03*
X67100Y3550D03*
X65700Y2950D03*
X68100Y2550D03*
X71700Y3550D03*
X70300Y2950D03*
X72700Y2550D03*
G54D14*
X24600Y1050D03*
X26600Y2300D03*
X23500Y3750D03*
X22600Y4450D03*
X26350Y5800D03*
G54D35*
X1150Y1250D03*
X1150Y27250D03*
X73300Y27250D03*
X73300Y6100D03*
X18300Y6100D03*
G54D36*
X38000Y7400D03*
X42300Y14600D03*
X41600Y8000D03*
X44300Y13600D03*
X37200Y13300D03*
X37100Y10500D03*
X24500Y10500D03*
X40400Y10000D03*
X27500Y10000D03*
X30900Y7600D03*
X26500Y11500D03*
X34000Y11500D03*
X34000Y13300D03*
X28600Y11000D03*
X35000Y11000D03*
X35000Y13300D03*
X24600Y19500D03*
X25600Y13200D03*
X54100Y11400D03*
X54150Y9100D03*
X48500Y18100D03*
G54D25*
X35150Y22400D03*
G54D36*
X54700Y19800D03*
X59000Y11750D03*
X47900Y24000D03*
X29950Y13650D03*
G54D37*
X56000Y14000D02*
X55200Y14000D01*
X22500Y12600D02*
X22500Y14500D01*
X22800Y12400D02*
X22500Y12600D01*
X41600Y12400D02*
X22800Y12400D01*
X41800Y12100D02*
X41600Y12400D01*
X41800Y10200D02*
X41800Y12100D01*
X55100Y10200D02*
X41800Y10200D01*
X55100Y13900D02*
X55100Y10200D01*
X55200Y14000D02*
X55100Y13900D01*
X56000Y13000D02*
X56000Y11700D01*
X21500Y12300D02*
X21500Y14500D01*
X21800Y12000D02*
X21500Y12300D01*
X41100Y12000D02*
X21800Y12000D01*
X41100Y9900D02*
X41100Y12000D01*
X41200Y9800D02*
X41100Y9900D01*
X55600Y9800D02*
X41200Y9800D01*
X55600Y11300D02*
X55600Y9800D01*
X56000Y11700D02*
X55600Y11300D01*
X38950Y2300D02*
X38950Y2850D01*
X38000Y7400D02*
X38400Y7000D01*
X38400Y3400D02*
X38400Y7000D01*
X38950Y2850D02*
X38400Y3400D01*
X57200Y3750D02*
X57700Y3750D01*
X57700Y3750D02*
X57900Y3550D01*
X38500Y8500D02*
X38500Y8300D01*
X43050Y3750D02*
X57200Y3750D01*
X57200Y3750D02*
X57250Y3750D01*
X38500Y8300D02*
X43050Y3750D01*
X60550Y4700D02*
X61350Y4700D01*
X39500Y8200D02*
X43000Y4700D01*
X43000Y4700D02*
X60550Y4700D01*
X39500Y8500D02*
X39500Y8200D01*
X61350Y4700D02*
X62500Y3550D01*
X64200Y5300D02*
X65350Y5300D01*
X40500Y8200D02*
X43400Y5300D01*
X43400Y5300D02*
X64200Y5300D01*
X40500Y8500D02*
X40500Y8200D01*
X65350Y5300D02*
X67100Y3550D01*
X68600Y5800D02*
X69450Y5800D01*
X42300Y14600D02*
X42200Y14500D01*
X40500Y14500D02*
X42200Y14500D01*
X68600Y5800D02*
X43800Y5800D01*
X43800Y5800D02*
X41600Y8000D01*
X69450Y5800D02*
X71700Y3550D01*
X37500Y8500D02*
X37500Y9200D01*
X19250Y9750D02*
X19250Y15250D01*
X19700Y9450D02*
X19250Y9750D01*
X37350Y9450D02*
X19700Y9450D01*
X37500Y9200D02*
X37350Y9450D01*
X21500Y16750D02*
X20750Y16750D01*
X20750Y16750D02*
X19250Y15250D01*
X44100Y13400D02*
X44300Y13600D01*
X37300Y13400D02*
X44100Y13400D01*
X37200Y13300D02*
X37300Y13400D01*
X35600Y10500D02*
X37100Y10500D01*
X24500Y10500D02*
X35600Y10500D01*
X28250Y22250D02*
X28250Y14750D01*
X28250Y14750D02*
X28500Y14500D01*
X36500Y16000D02*
X36500Y14500D01*
X30700Y2300D02*
X30400Y2300D01*
X28600Y4500D02*
X28600Y5200D01*
X28600Y5200D02*
X27500Y6300D01*
X27500Y6300D02*
X27500Y8500D01*
X28600Y4100D02*
X28600Y4500D01*
X30400Y2300D02*
X28600Y4100D01*
X27500Y10000D02*
X40400Y10000D01*
X30900Y3650D02*
X34450Y3650D01*
X34700Y3400D02*
X34700Y2300D01*
X34450Y3650D02*
X34700Y3400D01*
X30900Y5900D02*
X30900Y7600D01*
X30900Y3643D02*
X30900Y3650D01*
X30900Y3650D02*
X30900Y5900D01*
X34000Y11500D02*
X26500Y11500D01*
X34000Y15500D02*
X34000Y13300D01*
X34500Y16000D02*
X34000Y15500D01*
X34500Y17500D02*
X34500Y16000D01*
X34750Y17750D02*
X34500Y17500D01*
X39250Y17750D02*
X34750Y17750D01*
X31700Y2300D02*
X31700Y2909D01*
X29000Y4581D02*
X29000Y5400D01*
X29000Y5400D02*
X28200Y6200D01*
X28200Y6200D02*
X28200Y8200D01*
X28200Y8200D02*
X28500Y8500D01*
X29000Y4200D02*
X29000Y4581D01*
X30250Y2950D02*
X29000Y4200D01*
X31659Y2950D02*
X30250Y2950D01*
X31700Y2909D02*
X31659Y2950D01*
X39250Y16500D02*
X38600Y16500D01*
X35000Y11000D02*
X28600Y11000D01*
X35000Y16600D02*
X35000Y13300D01*
X35400Y17000D02*
X35000Y16600D01*
X38100Y17000D02*
X35400Y17000D01*
X38600Y16500D02*
X38100Y17000D01*
X27250Y22250D02*
X27250Y14750D01*
X27250Y14750D02*
X27500Y14500D01*
X26250Y22250D02*
X26250Y14750D01*
X26250Y14750D02*
X26500Y14500D01*
X36950Y2300D02*
X36950Y6400D01*
X34500Y7800D02*
X35500Y6800D01*
X34500Y7800D02*
X34500Y8500D01*
X36550Y6800D02*
X35500Y6800D01*
X36950Y6400D02*
X36550Y6800D01*
X37800Y2700D02*
X37800Y2450D01*
X37800Y2700D02*
X37800Y6600D01*
X37800Y6600D02*
X36900Y7500D01*
X36900Y7500D02*
X36000Y7500D01*
X36000Y7500D02*
X35500Y8000D01*
X35500Y8500D02*
X35500Y8000D01*
X37800Y2450D02*
X37950Y2300D01*
X25500Y14500D02*
X25500Y17750D01*
X56000Y15000D02*
X54700Y15000D01*
X23500Y13300D02*
X23500Y14500D01*
X24000Y12800D02*
X23500Y13300D01*
X42100Y12800D02*
X24000Y12800D01*
X42300Y12600D02*
X42100Y12800D01*
X42300Y10800D02*
X42300Y12600D01*
X42200Y10700D02*
X42300Y10800D01*
X54700Y10700D02*
X42200Y10700D01*
X54700Y15000D02*
X54700Y10700D01*
X24500Y19400D02*
X24500Y14500D01*
X24600Y19500D02*
X24500Y19400D01*
X32700Y2300D02*
X32700Y3300D01*
X29400Y4662D02*
X29400Y6500D01*
X29400Y6500D02*
X29100Y6800D01*
X29400Y4400D02*
X29400Y4662D01*
X30500Y3300D02*
X29400Y4400D01*
X32700Y3300D02*
X30500Y3300D01*
X29100Y6800D02*
X29100Y8100D01*
X29100Y8100D02*
X29500Y8500D01*
X39250Y19000D02*
X38600Y18500D01*
X32000Y13200D02*
X25600Y13200D01*
X32000Y15800D02*
X32000Y13200D01*
X31700Y16100D02*
X32000Y15800D01*
X31700Y18400D02*
X31700Y16100D01*
X31800Y18500D02*
X31700Y18400D01*
X34200Y18500D02*
X31800Y18500D01*
X38600Y18500D02*
X34200Y18500D01*
X56100Y7400D02*
X55850Y7400D01*
X48500Y11900D02*
X48500Y15000D01*
X49100Y11300D02*
X48500Y11900D01*
X54000Y11300D02*
X49100Y11300D01*
X54100Y11400D02*
X54000Y11300D01*
X55850Y7400D02*
X54150Y9100D01*
X48500Y18100D02*
X45650Y18100D01*
X45650Y18100D02*
X44750Y19000D01*
X52250Y18250D02*
X52250Y19000D01*
X52100Y18100D02*
X52250Y18250D01*
X48500Y18100D02*
X52100Y18100D01*
X58500Y7000D02*
X56500Y7000D01*
X56500Y7000D02*
X56100Y7400D01*
X19700Y3700D02*
X19700Y4500D01*
X18300Y25200D02*
X16750Y26750D01*
X18300Y20600D02*
X18300Y25200D01*
X17600Y19900D02*
X18300Y20600D01*
X17600Y9200D02*
X17600Y19900D01*
X20100Y6700D02*
X17600Y9200D01*
X20100Y4900D02*
X20100Y6700D01*
X19700Y4500D02*
X20100Y4900D01*
X39950Y1300D02*
X39950Y1250D01*
X42350Y1050D02*
X42350Y2100D01*
X42350Y2100D02*
X42450Y2200D01*
X42450Y2200D02*
X55700Y2200D01*
X55750Y2200D02*
X56500Y2950D01*
X55700Y2200D02*
X55750Y2200D01*
X41800Y500D02*
X42350Y1050D01*
X40700Y500D02*
X41800Y500D01*
X39950Y1250D02*
X40700Y500D01*
X38950Y1300D02*
X39950Y1300D01*
X37950Y1300D02*
X38950Y1300D01*
X36950Y1300D02*
X37950Y1300D01*
X33700Y1300D02*
X33700Y900D01*
X36150Y500D02*
X36950Y1300D01*
X34100Y500D02*
X36150Y500D01*
X33700Y900D02*
X34100Y500D01*
X30700Y1300D02*
X30250Y1300D01*
X25150Y500D02*
X24600Y1050D01*
X29450Y500D02*
X25150Y500D01*
X30250Y1300D02*
X29450Y500D01*
X32700Y1300D02*
X33700Y1300D01*
X31700Y1300D02*
X32700Y1300D01*
X30700Y1300D02*
X31700Y1300D01*
X72700Y2550D02*
X70700Y2550D01*
X70700Y2550D02*
X70300Y2950D01*
X68100Y2550D02*
X69900Y2550D01*
X69900Y2550D02*
X70300Y2950D01*
X68100Y2550D02*
X66100Y2550D01*
X66100Y2550D02*
X65700Y2950D01*
X63500Y2550D02*
X65300Y2550D01*
X65300Y2550D02*
X65700Y2950D01*
X63500Y2550D02*
X61500Y2550D01*
X61500Y2550D02*
X61100Y2950D01*
X58900Y2550D02*
X60700Y2550D01*
X60700Y2550D02*
X61100Y2950D01*
X58900Y2550D02*
X56900Y2550D01*
X56900Y2550D02*
X56500Y2950D01*
G54D38*
X29000Y16250D02*
X29000Y20100D01*
X29000Y20100D02*
X29250Y20350D01*
X29250Y20350D02*
X30500Y20350D01*
X30500Y20350D02*
X30600Y20450D01*
X30600Y20450D02*
X30600Y22350D01*
X30600Y22350D02*
X31500Y23250D01*
X39400Y24250D02*
X40250Y24250D01*
X39100Y23950D02*
X39400Y24250D01*
X39100Y22400D02*
X39100Y23950D01*
X39050Y22350D02*
X39100Y22400D01*
X35200Y22350D02*
X39050Y22350D01*
X35150Y22400D02*
X35200Y22350D01*
X30500Y14500D02*
X30500Y14750D01*
X30500Y14750D02*
X29000Y16250D01*
G54D37*
X31700Y6800D02*
X31700Y8300D01*
X31700Y8300D02*
X31500Y8500D01*
X56900Y10200D02*
X56900Y9600D01*
X56900Y9600D02*
X58500Y8000D01*
X56100Y8400D02*
X58100Y8400D01*
X58100Y8400D02*
X58500Y8000D01*
X19000Y1500D02*
X17900Y1500D01*
X17900Y1500D02*
X15700Y3700D01*
X30500Y24250D02*
X29550Y24250D01*
X29300Y21700D02*
X29750Y21250D01*
X29300Y24000D02*
X29300Y21700D01*
X29550Y24250D02*
X29300Y24000D01*
X21300Y5000D02*
X21300Y6850D01*
X20300Y17750D02*
X21500Y17750D01*
X18600Y16050D02*
X20300Y17750D01*
X18600Y9550D02*
X18600Y16050D01*
X19150Y9000D02*
X18600Y9550D01*
X21300Y6850D02*
X19150Y9000D01*
X32500Y14500D02*
X32500Y16500D01*
X33500Y14500D02*
X33500Y16500D01*
X21300Y1000D02*
X21300Y3150D01*
X21300Y3150D02*
X22600Y4450D01*
X26600Y2250D02*
X26750Y2250D01*
X26750Y2250D02*
X27900Y1100D01*
X25500Y18750D02*
X25500Y24500D01*
X25500Y24500D02*
X26250Y25250D01*
X33500Y8500D02*
X33500Y8100D01*
X35600Y6000D02*
X36300Y6000D01*
X33500Y8100D02*
X35600Y6000D01*
X31700Y4800D02*
X34100Y4800D01*
X34300Y5000D02*
X34300Y6000D01*
X34100Y4800D02*
X34300Y5000D01*
X32500Y8500D02*
X32500Y7800D01*
X32500Y7800D02*
X34300Y6000D01*
X43250Y19000D02*
X43250Y18950D01*
X51000Y17000D02*
X51000Y15000D01*
X50600Y17400D02*
X51000Y17000D01*
X44800Y17400D02*
X50600Y17400D01*
X43250Y18950D02*
X44800Y17400D01*
X43250Y16500D02*
X46900Y16500D01*
X47250Y16150D02*
X47250Y15000D01*
X46900Y16500D02*
X47250Y16150D01*
X43250Y17750D02*
X43750Y17750D01*
X49750Y16550D02*
X49750Y15000D01*
X49400Y16900D02*
X49750Y16550D01*
X44600Y16900D02*
X49400Y16900D01*
X43750Y17750D02*
X44600Y16900D01*
G54D38*
X67000Y23550D02*
X67000Y25250D01*
X67000Y25250D02*
X68250Y26500D01*
G54D37*
X64750Y17500D02*
X64750Y15750D01*
X64100Y11600D02*
X63000Y10500D01*
X64100Y15100D02*
X64100Y11600D01*
X64750Y15750D02*
X64100Y15100D01*
X65500Y19250D02*
X65500Y18250D01*
X65500Y18250D02*
X64750Y17500D01*
G54D38*
X66500Y22250D02*
X66500Y22750D01*
X65750Y23500D02*
X65750Y24500D01*
X66500Y22750D02*
X65750Y23500D01*
X70500Y19000D02*
X70500Y20250D01*
X68500Y22250D02*
X67500Y22250D01*
X70500Y20250D02*
X68500Y22250D01*
G54D37*
X63000Y11500D02*
X61650Y10150D01*
X54650Y19800D02*
X54700Y19800D01*
X38750Y19800D02*
X54650Y19800D01*
X38050Y19100D02*
X38750Y19800D01*
X34550Y19100D02*
X38050Y19100D01*
X34150Y19500D02*
X34550Y19100D01*
X34150Y19500D02*
X33750Y19500D01*
X59000Y10450D02*
X59000Y11750D01*
X59300Y10150D02*
X59000Y10450D01*
X61650Y10150D02*
X59300Y10150D01*
G54D38*
X71750Y22810D02*
X69940Y22810D01*
X69940Y22810D02*
X68250Y24500D01*
X72500Y19000D02*
X72500Y22060D01*
X72500Y22060D02*
X71750Y22810D01*
G54D37*
X67250Y10250D02*
X67250Y9000D01*
X67250Y9000D02*
X67500Y8750D01*
X59000Y14000D02*
X60250Y14000D01*
X60250Y14000D02*
X60750Y14500D01*
X62250Y13500D02*
X61750Y13500D01*
X61750Y13500D02*
X60750Y14500D01*
X63500Y13500D02*
X62250Y13500D01*
X67250Y13750D02*
X68750Y13750D01*
X68750Y13750D02*
X70500Y12000D01*
X66000Y13500D02*
X66000Y14500D01*
X66000Y14500D02*
X67250Y15750D01*
X64500Y22250D02*
X64500Y21250D01*
X68500Y17000D02*
X67250Y15750D01*
X68500Y20250D02*
X68500Y17000D01*
X67750Y21000D02*
X68500Y20250D01*
X64750Y21000D02*
X67750Y21000D01*
X64500Y21250D02*
X64750Y21000D01*
X67500Y7500D02*
X68000Y7500D01*
X68000Y7500D02*
X70500Y10000D01*
X66000Y10250D02*
X66000Y8200D01*
X66700Y7500D02*
X67500Y7500D01*
X66000Y8200D02*
X66700Y7500D01*
X66000Y10250D02*
X65000Y10250D01*
X65000Y10250D02*
X63500Y8750D01*
G54D38*
X4010Y3000D02*
X4010Y1340D01*
X9260Y2060D02*
X9260Y3000D01*
X8400Y1200D02*
X9260Y2060D01*
X4150Y1200D02*
X8400Y1200D01*
X4010Y1340D02*
X4150Y1200D01*
X12437Y8528D02*
X12437Y7687D01*
X9260Y4510D02*
X9260Y3000D01*
X12437Y7687D02*
X9260Y4510D01*
X10468Y18371D02*
X10468Y19281D01*
X6050Y23700D02*
X1719Y23700D01*
X10468Y19281D02*
X6050Y23700D01*
X5980Y3000D02*
X5980Y5020D01*
X4562Y6437D02*
X4562Y8528D01*
X5980Y5020D02*
X4562Y6437D01*
X11230Y3000D02*
X11230Y4130D01*
X4562Y9762D02*
X4562Y8528D01*
X5450Y10650D02*
X4562Y9762D01*
X13000Y10650D02*
X5450Y10650D01*
X13950Y9700D02*
X13000Y10650D01*
X13950Y6850D02*
X13950Y9700D01*
X11230Y4130D02*
X13950Y6850D01*
X6531Y18371D02*
X6531Y17118D01*
X15250Y18100D02*
X15250Y21750D01*
X13750Y16600D02*
X15250Y18100D01*
X7050Y16600D02*
X13750Y16600D01*
X6531Y17118D02*
X7050Y16600D01*
X13750Y21750D02*
X15250Y21750D01*
X10381Y23700D02*
X10381Y23619D01*
X10381Y23619D02*
X12250Y21750D01*
X12250Y21750D02*
X12250Y23250D01*
X16750Y23250D02*
X16750Y21750D01*
X12250Y23250D02*
X16750Y23250D01*
X49500Y22750D02*
X52000Y22750D01*
X52000Y22750D02*
X52500Y23250D01*
X49500Y22750D02*
X46000Y22750D01*
X46000Y22750D02*
X40750Y22750D01*
X40750Y22750D02*
X40250Y23250D01*
G54D37*
X57350Y12250D02*
X57650Y12250D01*
X57350Y12250D02*
X57000Y12600D01*
X57000Y12600D02*
X57000Y15800D01*
X57000Y15800D02*
X56800Y16000D01*
X56000Y16000D02*
X56800Y16000D01*
X57900Y12000D02*
X57900Y10200D01*
X57650Y12250D02*
X57900Y12000D01*
X47850Y26000D02*
X46000Y26000D01*
X47900Y25950D02*
X47850Y26000D01*
X47900Y24000D02*
X47900Y25950D01*
G54D38*
X31500Y14500D02*
X31500Y14950D01*
X31000Y15450D02*
X31000Y16250D01*
X31500Y14950D02*
X31000Y15450D01*
X33700Y25250D02*
X40250Y25250D01*
G54D37*
X31500Y14500D02*
X31500Y13700D01*
X31450Y13650D02*
X29950Y13650D01*
X31500Y13700D02*
X31450Y13650D01*
G54D38*
X31000Y16250D02*
X31000Y19100D01*
X33150Y21250D02*
X33750Y21250D01*
X31000Y19100D02*
X33150Y21250D01*
X33750Y21250D02*
X33750Y23650D01*
X33750Y23650D02*
X33700Y23700D01*
X28250Y25250D02*
X33700Y25250D01*
X33700Y25250D02*
X33750Y25250D01*
X33750Y25250D02*
X33700Y25200D01*
X33700Y25200D02*
X33700Y23700D01*
X33250Y23250D02*
X32500Y23250D01*
X33700Y23700D02*
X33250Y23250D01*
G54D37*
X30500Y8500D02*
X30500Y8400D01*
X30500Y8400D02*
X29740Y7640D01*
X29740Y7640D02*
X29740Y5359D01*
X29740Y5359D02*
X30300Y4800D01*
X27900Y5100D02*
X27900Y4000D01*
X27900Y4000D02*
X29100Y2800D01*
X59500Y8000D02*
X59500Y8600D01*
X59500Y8600D02*
X57900Y10200D01*
G54D38*
X46000Y26000D02*
X41000Y26000D01*
X41000Y26000D02*
X40250Y25250D01*
G54D37*
X56500Y17500D02*
X56500Y16500D01*
X56500Y16500D02*
X56000Y16000D01*
X63500Y17500D02*
X63500Y18000D01*
X57400Y18400D02*
X56500Y17500D01*
X63100Y18400D02*
X57400Y18400D01*
X63500Y18000D02*
X63100Y18400D01*
X64750Y13500D02*
X64750Y14250D01*
X66500Y18500D02*
X66500Y19250D01*
X67250Y17750D02*
X66500Y18500D01*
X67250Y16750D02*
X67250Y17750D01*
X64750Y14250D02*
X67250Y16750D01*
G54D38*
X59750Y24750D02*
X60000Y24750D01*
X60000Y24750D02*
X63000Y21750D01*
X63000Y21750D02*
X64250Y20500D01*
X64250Y20500D02*
X66000Y20500D01*
X66000Y20500D02*
X66500Y20000D01*
X66500Y20000D02*
X66500Y19250D01*
X52500Y25250D02*
X59250Y25250D01*
X59250Y25250D02*
X59750Y24750D01*
X49500Y26000D02*
X51750Y26000D01*
X51750Y26000D02*
X52500Y25250D01*
M02*
