G04 (created by PCBNEW (2013-june-11)-stable) date St 26. únor 2014, 21:47:00 CET*
%MOIN*%
G04 Gerber Fmt 3.4, Leading zero omitted, Abs format*
%FSLAX34Y34*%
G01*
G70*
G90*
G04 APERTURE LIST*
%ADD10C,0.00590551*%
%ADD11C,0.00787402*%
%ADD12C,0.012*%
%ADD13C,0.015*%
%ADD14C,0.005*%
%ADD15C,0.006*%
%ADD16C,0.008*%
%ADD17C,0.0026*%
%ADD18C,0.0125*%
%ADD19C,0.01125*%
%ADD20C,0.01*%
%ADD21C,0.0075*%
%ADD22C,0.0107*%
%ADD23C,0.0035*%
G04 APERTURE END LIST*
G54D10*
X46390Y27984D02*
X46615Y27984D01*
X46503Y27590D02*
X46503Y27984D01*
X46915Y27590D02*
X46915Y27796D01*
X46897Y27834D01*
X46859Y27853D01*
X46784Y27853D01*
X46747Y27834D01*
X46915Y27609D02*
X46878Y27590D01*
X46784Y27590D01*
X46747Y27609D01*
X46728Y27646D01*
X46728Y27684D01*
X46747Y27721D01*
X46784Y27740D01*
X46878Y27740D01*
X46915Y27759D01*
X47159Y27590D02*
X47122Y27609D01*
X47103Y27646D01*
X47103Y27984D01*
X47309Y27590D02*
X47309Y27984D01*
X47346Y27740D02*
X47459Y27590D01*
X47459Y27853D02*
X47309Y27703D01*
X47628Y27590D02*
X47628Y27853D01*
X47628Y27984D02*
X47609Y27965D01*
X47628Y27946D01*
X47646Y27965D01*
X47628Y27984D01*
X47628Y27946D01*
X47815Y27853D02*
X47815Y27590D01*
X47815Y27815D02*
X47834Y27834D01*
X47871Y27853D01*
X47928Y27853D01*
X47965Y27834D01*
X47984Y27796D01*
X47984Y27590D01*
X48340Y27853D02*
X48340Y27534D01*
X48321Y27496D01*
X48303Y27478D01*
X48265Y27459D01*
X48209Y27459D01*
X48171Y27478D01*
X48340Y27609D02*
X48303Y27590D01*
X48228Y27590D01*
X48190Y27609D01*
X48171Y27628D01*
X48153Y27665D01*
X48153Y27778D01*
X48171Y27815D01*
X48190Y27834D01*
X48228Y27853D01*
X48303Y27853D01*
X48340Y27834D01*
X48753Y27628D02*
X48734Y27609D01*
X48678Y27590D01*
X48640Y27590D01*
X48584Y27609D01*
X48546Y27646D01*
X48528Y27684D01*
X48509Y27759D01*
X48509Y27815D01*
X48528Y27890D01*
X48546Y27928D01*
X48584Y27965D01*
X48640Y27984D01*
X48678Y27984D01*
X48734Y27965D01*
X48753Y27946D01*
X48978Y27590D02*
X48940Y27609D01*
X48921Y27646D01*
X48921Y27984D01*
X49184Y27590D02*
X49146Y27609D01*
X49128Y27628D01*
X49109Y27665D01*
X49109Y27778D01*
X49128Y27815D01*
X49146Y27834D01*
X49184Y27853D01*
X49240Y27853D01*
X49277Y27834D01*
X49296Y27815D01*
X49315Y27778D01*
X49315Y27665D01*
X49296Y27628D01*
X49277Y27609D01*
X49240Y27590D01*
X49184Y27590D01*
X49652Y27609D02*
X49615Y27590D01*
X49540Y27590D01*
X49502Y27609D01*
X49484Y27628D01*
X49465Y27665D01*
X49465Y27778D01*
X49484Y27815D01*
X49502Y27834D01*
X49540Y27853D01*
X49615Y27853D01*
X49652Y27834D01*
X49821Y27590D02*
X49821Y27984D01*
X49859Y27740D02*
X49971Y27590D01*
X49971Y27853D02*
X49821Y27703D01*
X46400Y26999D02*
X46456Y26980D01*
X46550Y26980D01*
X46587Y26999D01*
X46606Y27017D01*
X46625Y27055D01*
X46625Y27092D01*
X46606Y27130D01*
X46587Y27149D01*
X46550Y27167D01*
X46475Y27186D01*
X46437Y27205D01*
X46418Y27224D01*
X46400Y27261D01*
X46400Y27299D01*
X46418Y27336D01*
X46437Y27355D01*
X46475Y27374D01*
X46568Y27374D01*
X46625Y27355D01*
X46756Y27242D02*
X46850Y26980D01*
X46943Y27242D02*
X46850Y26980D01*
X46812Y26886D01*
X46793Y26867D01*
X46756Y26849D01*
X47093Y26980D02*
X47093Y27374D01*
X47131Y27130D02*
X47243Y26980D01*
X47243Y27242D02*
X47093Y27092D01*
X47468Y26980D02*
X47431Y26999D01*
X47412Y27017D01*
X47393Y27055D01*
X47393Y27167D01*
X47412Y27205D01*
X47431Y27224D01*
X47468Y27242D01*
X47525Y27242D01*
X47562Y27224D01*
X47581Y27205D01*
X47600Y27167D01*
X47600Y27055D01*
X47581Y27017D01*
X47562Y26999D01*
X47525Y26980D01*
X47468Y26980D01*
X47768Y26980D02*
X47768Y27242D01*
X47768Y27167D02*
X47787Y27205D01*
X47806Y27224D01*
X47843Y27242D01*
X47881Y27242D01*
X48181Y26980D02*
X48181Y27186D01*
X48162Y27224D01*
X48125Y27242D01*
X48050Y27242D01*
X48012Y27224D01*
X48181Y26999D02*
X48143Y26980D01*
X48050Y26980D01*
X48012Y26999D01*
X47993Y27036D01*
X47993Y27074D01*
X48012Y27111D01*
X48050Y27130D01*
X48143Y27130D01*
X48181Y27149D01*
X48649Y27336D02*
X48668Y27355D01*
X48706Y27374D01*
X48799Y27374D01*
X48837Y27355D01*
X48856Y27336D01*
X48874Y27299D01*
X48874Y27261D01*
X48856Y27205D01*
X48631Y26980D01*
X48874Y26980D01*
X49118Y27374D02*
X49156Y27374D01*
X49193Y27355D01*
X49212Y27336D01*
X49231Y27299D01*
X49249Y27224D01*
X49249Y27130D01*
X49231Y27055D01*
X49212Y27017D01*
X49193Y26999D01*
X49156Y26980D01*
X49118Y26980D01*
X49081Y26999D01*
X49062Y27017D01*
X49043Y27055D01*
X49024Y27130D01*
X49024Y27224D01*
X49043Y27299D01*
X49062Y27336D01*
X49081Y27355D01*
X49118Y27374D01*
X49624Y26980D02*
X49399Y26980D01*
X49512Y26980D02*
X49512Y27374D01*
X49474Y27317D01*
X49437Y27280D01*
X49399Y27261D01*
X49962Y27242D02*
X49962Y26980D01*
X49868Y27392D02*
X49774Y27111D01*
X50018Y27111D01*
G54D11*
X51000Y26750D02*
X56250Y26750D01*
X34500Y21250D02*
X34550Y21250D01*
X34500Y27250D02*
X34500Y21250D01*
X26265Y17537D02*
X26659Y17668D01*
X26265Y17800D01*
X26546Y17912D02*
X26546Y18100D01*
X26659Y17875D02*
X26265Y18006D01*
X26659Y18137D01*
X26659Y18268D02*
X26265Y18268D01*
X26659Y18493D01*
X26265Y18493D01*
X26265Y18756D02*
X26265Y18831D01*
X26284Y18868D01*
X26321Y18906D01*
X26396Y18924D01*
X26528Y18924D01*
X26603Y18906D01*
X26640Y18868D01*
X26659Y18831D01*
X26659Y18756D01*
X26640Y18718D01*
X26603Y18681D01*
X26528Y18662D01*
X26396Y18662D01*
X26321Y18681D01*
X26284Y18718D01*
X26265Y18756D01*
X55756Y5240D02*
X55625Y5428D01*
X55531Y5240D02*
X55531Y5634D01*
X55681Y5634D01*
X55719Y5615D01*
X55738Y5596D01*
X55756Y5559D01*
X55756Y5503D01*
X55738Y5465D01*
X55719Y5446D01*
X55681Y5428D01*
X55531Y5428D01*
X56075Y5259D02*
X56037Y5240D01*
X55962Y5240D01*
X55925Y5259D01*
X55906Y5296D01*
X55906Y5446D01*
X55925Y5484D01*
X55962Y5503D01*
X56037Y5503D01*
X56075Y5484D01*
X56094Y5446D01*
X56094Y5409D01*
X55906Y5371D01*
X56262Y5240D02*
X56262Y5503D01*
X56262Y5465D02*
X56281Y5484D01*
X56319Y5503D01*
X56375Y5503D01*
X56412Y5484D01*
X56431Y5446D01*
X56431Y5240D01*
X56431Y5446D02*
X56450Y5484D01*
X56487Y5503D01*
X56544Y5503D01*
X56581Y5484D01*
X56600Y5446D01*
X56600Y5240D01*
X56844Y5240D02*
X56806Y5259D01*
X56787Y5278D01*
X56769Y5315D01*
X56769Y5428D01*
X56787Y5465D01*
X56806Y5484D01*
X56844Y5503D01*
X56900Y5503D01*
X56937Y5484D01*
X56956Y5465D01*
X56975Y5428D01*
X56975Y5315D01*
X56956Y5278D01*
X56937Y5259D01*
X56900Y5240D01*
X56844Y5240D01*
X57106Y5503D02*
X57200Y5240D01*
X57294Y5503D01*
X57594Y5259D02*
X57556Y5240D01*
X57481Y5240D01*
X57444Y5259D01*
X57425Y5296D01*
X57425Y5446D01*
X57444Y5484D01*
X57481Y5503D01*
X57556Y5503D01*
X57594Y5484D01*
X57612Y5446D01*
X57612Y5409D01*
X57425Y5371D01*
X58250Y5259D02*
X58212Y5240D01*
X58137Y5240D01*
X58100Y5259D01*
X58081Y5278D01*
X58062Y5315D01*
X58062Y5428D01*
X58081Y5465D01*
X58100Y5484D01*
X58137Y5503D01*
X58212Y5503D01*
X58250Y5484D01*
X58587Y5240D02*
X58587Y5446D01*
X58568Y5484D01*
X58531Y5503D01*
X58456Y5503D01*
X58418Y5484D01*
X58587Y5259D02*
X58550Y5240D01*
X58456Y5240D01*
X58418Y5259D01*
X58400Y5296D01*
X58400Y5334D01*
X58418Y5371D01*
X58456Y5390D01*
X58550Y5390D01*
X58587Y5409D01*
X58775Y5240D02*
X58775Y5503D01*
X58775Y5428D02*
X58793Y5465D01*
X58812Y5484D01*
X58850Y5503D01*
X58887Y5503D01*
X59187Y5240D02*
X59187Y5634D01*
X59187Y5259D02*
X59150Y5240D01*
X59075Y5240D01*
X59037Y5259D01*
X59018Y5278D01*
X59000Y5315D01*
X59000Y5428D01*
X59018Y5465D01*
X59037Y5484D01*
X59075Y5503D01*
X59150Y5503D01*
X59187Y5484D01*
X59637Y5503D02*
X59712Y5240D01*
X59787Y5428D01*
X59862Y5240D01*
X59937Y5503D01*
X60087Y5240D02*
X60087Y5634D01*
X60256Y5240D02*
X60256Y5446D01*
X60237Y5484D01*
X60199Y5503D01*
X60143Y5503D01*
X60106Y5484D01*
X60087Y5465D01*
X60593Y5259D02*
X60556Y5240D01*
X60481Y5240D01*
X60443Y5259D01*
X60424Y5296D01*
X60424Y5446D01*
X60443Y5484D01*
X60481Y5503D01*
X60556Y5503D01*
X60593Y5484D01*
X60612Y5446D01*
X60612Y5409D01*
X60424Y5371D01*
X60781Y5503D02*
X60781Y5240D01*
X60781Y5465D02*
X60799Y5484D01*
X60837Y5503D01*
X60893Y5503D01*
X60931Y5484D01*
X60949Y5446D01*
X60949Y5240D01*
X61606Y5503D02*
X61606Y5240D01*
X61437Y5503D02*
X61437Y5296D01*
X61456Y5259D01*
X61493Y5240D01*
X61549Y5240D01*
X61587Y5259D01*
X61606Y5278D01*
X61774Y5259D02*
X61812Y5240D01*
X61887Y5240D01*
X61924Y5259D01*
X61943Y5296D01*
X61943Y5315D01*
X61924Y5353D01*
X61887Y5371D01*
X61831Y5371D01*
X61793Y5390D01*
X61774Y5428D01*
X61774Y5446D01*
X61793Y5484D01*
X61831Y5503D01*
X61887Y5503D01*
X61924Y5484D01*
X62112Y5240D02*
X62112Y5503D01*
X62112Y5634D02*
X62093Y5615D01*
X62112Y5596D01*
X62130Y5615D01*
X62112Y5634D01*
X62112Y5596D01*
X62299Y5503D02*
X62299Y5240D01*
X62299Y5465D02*
X62318Y5484D01*
X62355Y5503D01*
X62412Y5503D01*
X62449Y5484D01*
X62468Y5446D01*
X62468Y5240D01*
X62824Y5503D02*
X62824Y5184D01*
X62805Y5146D01*
X62787Y5128D01*
X62749Y5109D01*
X62693Y5109D01*
X62655Y5128D01*
X62824Y5259D02*
X62787Y5240D01*
X62712Y5240D01*
X62674Y5259D01*
X62655Y5278D01*
X62637Y5315D01*
X62637Y5428D01*
X62655Y5465D01*
X62674Y5484D01*
X62712Y5503D01*
X62787Y5503D01*
X62824Y5484D01*
X63312Y5240D02*
X63312Y5634D01*
X63480Y5259D02*
X63537Y5240D01*
X63630Y5240D01*
X63668Y5259D01*
X63687Y5278D01*
X63705Y5315D01*
X63705Y5353D01*
X63687Y5390D01*
X63668Y5409D01*
X63630Y5428D01*
X63555Y5446D01*
X63518Y5465D01*
X63499Y5484D01*
X63480Y5521D01*
X63480Y5559D01*
X63499Y5596D01*
X63518Y5615D01*
X63555Y5634D01*
X63649Y5634D01*
X63705Y5615D01*
X63874Y5240D02*
X63874Y5634D01*
X64024Y5634D01*
X64061Y5615D01*
X64080Y5596D01*
X64099Y5559D01*
X64099Y5503D01*
X64080Y5465D01*
X64061Y5446D01*
X64024Y5428D01*
X63874Y5428D01*
X64268Y5278D02*
X64286Y5259D01*
X64268Y5240D01*
X64249Y5259D01*
X64268Y5278D01*
X64268Y5240D01*
X64268Y5390D02*
X64249Y5615D01*
X64268Y5634D01*
X64286Y5615D01*
X64268Y5390D01*
X64268Y5634D01*
X15218Y1415D02*
X15181Y1434D01*
X15125Y1434D01*
X15068Y1415D01*
X15031Y1378D01*
X15012Y1340D01*
X14993Y1265D01*
X14993Y1209D01*
X15012Y1134D01*
X15031Y1096D01*
X15068Y1059D01*
X15125Y1040D01*
X15162Y1040D01*
X15218Y1059D01*
X15237Y1078D01*
X15237Y1209D01*
X15162Y1209D01*
X15406Y1040D02*
X15406Y1303D01*
X15406Y1228D02*
X15425Y1265D01*
X15443Y1284D01*
X15481Y1303D01*
X15518Y1303D01*
X15706Y1040D02*
X15668Y1059D01*
X15650Y1078D01*
X15631Y1115D01*
X15631Y1228D01*
X15650Y1265D01*
X15668Y1284D01*
X15706Y1303D01*
X15762Y1303D01*
X15800Y1284D01*
X15818Y1265D01*
X15837Y1228D01*
X15837Y1115D01*
X15818Y1078D01*
X15800Y1059D01*
X15762Y1040D01*
X15706Y1040D01*
X16175Y1303D02*
X16175Y1040D01*
X16006Y1303D02*
X16006Y1096D01*
X16025Y1059D01*
X16062Y1040D01*
X16118Y1040D01*
X16156Y1059D01*
X16175Y1078D01*
X16362Y1303D02*
X16362Y1040D01*
X16362Y1265D02*
X16381Y1284D01*
X16418Y1303D01*
X16474Y1303D01*
X16512Y1284D01*
X16531Y1246D01*
X16531Y1040D01*
X16887Y1040D02*
X16887Y1434D01*
X16887Y1059D02*
X16849Y1040D01*
X16774Y1040D01*
X16737Y1059D01*
X16718Y1078D01*
X16699Y1115D01*
X16699Y1228D01*
X16718Y1265D01*
X16737Y1284D01*
X16774Y1303D01*
X16849Y1303D01*
X16887Y1284D01*
X17074Y1040D02*
X17074Y1303D01*
X17074Y1434D02*
X17056Y1415D01*
X17074Y1396D01*
X17093Y1415D01*
X17074Y1434D01*
X17074Y1396D01*
X17262Y1303D02*
X17262Y1040D01*
X17262Y1265D02*
X17281Y1284D01*
X17318Y1303D01*
X17374Y1303D01*
X17412Y1284D01*
X17431Y1246D01*
X17431Y1040D01*
X17787Y1303D02*
X17787Y984D01*
X17768Y946D01*
X17749Y928D01*
X17712Y909D01*
X17656Y909D01*
X17618Y928D01*
X17787Y1059D02*
X17749Y1040D01*
X17674Y1040D01*
X17637Y1059D01*
X17618Y1078D01*
X17599Y1115D01*
X17599Y1228D01*
X17618Y1265D01*
X17637Y1284D01*
X17674Y1303D01*
X17749Y1303D01*
X17787Y1284D01*
X31356Y3190D02*
X31356Y3584D01*
X31525Y3209D02*
X31581Y3190D01*
X31675Y3190D01*
X31712Y3209D01*
X31731Y3228D01*
X31750Y3265D01*
X31750Y3303D01*
X31731Y3340D01*
X31712Y3359D01*
X31675Y3378D01*
X31600Y3396D01*
X31562Y3415D01*
X31543Y3434D01*
X31525Y3471D01*
X31525Y3509D01*
X31543Y3546D01*
X31562Y3565D01*
X31600Y3584D01*
X31693Y3584D01*
X31750Y3565D01*
X31918Y3190D02*
X31918Y3584D01*
X32068Y3584D01*
X32106Y3565D01*
X32125Y3546D01*
X32143Y3509D01*
X32143Y3453D01*
X32125Y3415D01*
X32106Y3396D01*
X32068Y3378D01*
X31918Y3378D01*
X32612Y3190D02*
X32612Y3584D01*
X32837Y3190D02*
X32668Y3415D01*
X32837Y3584D02*
X32612Y3359D01*
X33174Y3190D02*
X33174Y3396D01*
X33156Y3434D01*
X33118Y3453D01*
X33043Y3453D01*
X33006Y3434D01*
X33174Y3209D02*
X33137Y3190D01*
X33043Y3190D01*
X33006Y3209D01*
X32987Y3246D01*
X32987Y3284D01*
X33006Y3321D01*
X33043Y3340D01*
X33137Y3340D01*
X33174Y3359D01*
X33362Y3453D02*
X33362Y3190D01*
X33362Y3415D02*
X33381Y3434D01*
X33418Y3453D01*
X33474Y3453D01*
X33512Y3434D01*
X33531Y3396D01*
X33531Y3190D01*
X33887Y3190D02*
X33887Y3584D01*
X33887Y3209D02*
X33849Y3190D01*
X33774Y3190D01*
X33737Y3209D01*
X33718Y3228D01*
X33699Y3265D01*
X33699Y3378D01*
X33718Y3415D01*
X33737Y3434D01*
X33774Y3453D01*
X33849Y3453D01*
X33887Y3434D01*
X34243Y3190D02*
X34243Y3396D01*
X34224Y3434D01*
X34187Y3453D01*
X34112Y3453D01*
X34074Y3434D01*
X34243Y3209D02*
X34206Y3190D01*
X34112Y3190D01*
X34074Y3209D01*
X34056Y3246D01*
X34056Y3284D01*
X34074Y3321D01*
X34112Y3340D01*
X34206Y3340D01*
X34243Y3359D01*
X37650Y3584D02*
X37650Y3265D01*
X37668Y3228D01*
X37687Y3209D01*
X37725Y3190D01*
X37800Y3190D01*
X37837Y3209D01*
X37856Y3228D01*
X37875Y3265D01*
X37875Y3584D01*
X38043Y3303D02*
X38231Y3303D01*
X38006Y3190D02*
X38137Y3584D01*
X38268Y3190D01*
X38625Y3190D02*
X38493Y3378D01*
X38400Y3190D02*
X38400Y3584D01*
X38550Y3584D01*
X38587Y3565D01*
X38606Y3546D01*
X38625Y3509D01*
X38625Y3453D01*
X38606Y3415D01*
X38587Y3396D01*
X38550Y3378D01*
X38400Y3378D01*
X38737Y3584D02*
X38962Y3584D01*
X38850Y3190D02*
X38850Y3584D01*
X39093Y3340D02*
X39393Y3340D01*
X39243Y3190D02*
X39243Y3490D01*
X39581Y3190D02*
X39581Y3584D01*
X39749Y3546D02*
X39768Y3565D01*
X39806Y3584D01*
X39899Y3584D01*
X39937Y3565D01*
X39956Y3546D01*
X39974Y3509D01*
X39974Y3471D01*
X39956Y3415D01*
X39731Y3190D01*
X39974Y3190D01*
X40368Y3228D02*
X40349Y3209D01*
X40293Y3190D01*
X40256Y3190D01*
X40199Y3209D01*
X40162Y3246D01*
X40143Y3284D01*
X40124Y3359D01*
X40124Y3415D01*
X40143Y3490D01*
X40162Y3528D01*
X40199Y3565D01*
X40256Y3584D01*
X40293Y3584D01*
X40349Y3565D01*
X40368Y3546D01*
X23981Y6390D02*
X23981Y6784D01*
X24075Y6784D01*
X24131Y6765D01*
X24168Y6728D01*
X24187Y6690D01*
X24206Y6615D01*
X24206Y6559D01*
X24187Y6484D01*
X24168Y6446D01*
X24131Y6409D01*
X24075Y6390D01*
X23981Y6390D01*
X24599Y6428D02*
X24581Y6409D01*
X24524Y6390D01*
X24487Y6390D01*
X24431Y6409D01*
X24393Y6446D01*
X24375Y6484D01*
X24356Y6559D01*
X24356Y6615D01*
X24375Y6690D01*
X24393Y6728D01*
X24431Y6765D01*
X24487Y6784D01*
X24524Y6784D01*
X24581Y6765D01*
X24599Y6746D01*
X24899Y6596D02*
X24768Y6596D01*
X24768Y6390D02*
X24768Y6784D01*
X24956Y6784D01*
X51000Y21750D02*
X51000Y26750D01*
X56250Y21750D02*
X51000Y21750D01*
X56250Y26750D02*
X56250Y21750D01*
X44250Y21250D02*
X34500Y21250D01*
X44250Y27250D02*
X44250Y21250D01*
X34500Y27250D02*
X44250Y27250D01*
G54D12*
X21500Y16250D02*
X23000Y17750D01*
X23000Y17750D02*
X23000Y18250D01*
X23000Y18250D02*
X22500Y18750D01*
X22500Y18750D02*
X21500Y18750D01*
X21500Y18750D02*
X20500Y17750D01*
X20500Y17750D02*
X20500Y16750D01*
X20500Y16750D02*
X21000Y16250D01*
X21000Y16250D02*
X21500Y16250D01*
X61500Y11500D02*
X63000Y10000D01*
X63000Y10000D02*
X63500Y10000D01*
X63500Y10000D02*
X64000Y10500D01*
X64000Y10500D02*
X64000Y11500D01*
X64000Y11500D02*
X63000Y12500D01*
X63000Y12500D02*
X62000Y12500D01*
X62000Y12500D02*
X61500Y12000D01*
X61500Y12000D02*
X61500Y11500D01*
X29750Y19500D02*
X30150Y19500D01*
X30150Y19500D02*
X30150Y19900D01*
X30150Y19900D02*
X33350Y19900D01*
X33350Y19900D02*
X33350Y19100D01*
X33350Y19100D02*
X30150Y19100D01*
X30150Y19100D02*
X30150Y19500D01*
X30150Y19700D02*
X30350Y19900D01*
X33750Y19500D02*
X33350Y19500D01*
X29100Y2800D02*
X29100Y3200D01*
X29100Y3200D02*
X28700Y3200D01*
X28700Y3200D02*
X28700Y6400D01*
X28700Y6400D02*
X29500Y6400D01*
X29500Y6400D02*
X29500Y3200D01*
X29500Y3200D02*
X29100Y3200D01*
X28900Y3200D02*
X28700Y3400D01*
X29100Y6800D02*
X29100Y6400D01*
X21300Y5000D02*
X21300Y4600D01*
X21300Y4600D02*
X21700Y4600D01*
X21700Y4600D02*
X21700Y1400D01*
X21700Y1400D02*
X20900Y1400D01*
X20900Y1400D02*
X20900Y4600D01*
X20900Y4600D02*
X21300Y4600D01*
X21500Y4600D02*
X21700Y4400D01*
X21300Y1000D02*
X21300Y1400D01*
X19250Y19250D02*
X19250Y18850D01*
X19250Y18850D02*
X19650Y18850D01*
X19650Y18850D02*
X19650Y15650D01*
X19650Y15650D02*
X18850Y15650D01*
X18850Y15650D02*
X18850Y18850D01*
X18850Y18850D02*
X19250Y18850D01*
X19450Y18850D02*
X19650Y18650D01*
X19250Y15250D02*
X19250Y15650D01*
X46000Y15000D02*
X46000Y15400D01*
X46000Y15400D02*
X45600Y15400D01*
X45600Y15400D02*
X45600Y18600D01*
X45600Y18600D02*
X46400Y18600D01*
X46400Y18600D02*
X46400Y15400D01*
X46400Y15400D02*
X46000Y15400D01*
X45800Y15400D02*
X45600Y15600D01*
X46000Y19000D02*
X46000Y18600D01*
X43250Y16500D02*
X42850Y16500D01*
X42850Y16500D02*
X42850Y16100D01*
X42850Y16100D02*
X39650Y16100D01*
X39650Y16100D02*
X39650Y16900D01*
X39650Y16900D02*
X42850Y16900D01*
X42850Y16900D02*
X42850Y16500D01*
X42850Y16300D02*
X42650Y16100D01*
X39250Y16500D02*
X39650Y16500D01*
X43250Y17750D02*
X42850Y17750D01*
X42850Y17750D02*
X42850Y17350D01*
X42850Y17350D02*
X39650Y17350D01*
X39650Y17350D02*
X39650Y18150D01*
X39650Y18150D02*
X42850Y18150D01*
X42850Y18150D02*
X42850Y17750D01*
X42850Y17550D02*
X42650Y17350D01*
X39250Y17750D02*
X39650Y17750D01*
X43250Y19000D02*
X42850Y19000D01*
X42850Y19000D02*
X42850Y18600D01*
X42850Y18600D02*
X39650Y18600D01*
X39650Y18600D02*
X39650Y19400D01*
X39650Y19400D02*
X42850Y19400D01*
X42850Y19400D02*
X42850Y19000D01*
X42850Y18800D02*
X42650Y18600D01*
X39250Y19000D02*
X39650Y19000D01*
X51000Y15000D02*
X51000Y15400D01*
X51000Y15400D02*
X50600Y15400D01*
X50600Y15400D02*
X50600Y18600D01*
X50600Y18600D02*
X51400Y18600D01*
X51400Y18600D02*
X51400Y15400D01*
X51400Y15400D02*
X51000Y15400D01*
X50800Y15400D02*
X50600Y15600D01*
X51000Y19000D02*
X51000Y18600D01*
X49750Y15000D02*
X49750Y15400D01*
X49750Y15400D02*
X49350Y15400D01*
X49350Y15400D02*
X49350Y18600D01*
X49350Y18600D02*
X50150Y18600D01*
X50150Y18600D02*
X50150Y15400D01*
X50150Y15400D02*
X49750Y15400D01*
X49550Y15400D02*
X49350Y15600D01*
X49750Y19000D02*
X49750Y18600D01*
X47250Y15000D02*
X47250Y15400D01*
X47250Y15400D02*
X46850Y15400D01*
X46850Y15400D02*
X46850Y18600D01*
X46850Y18600D02*
X47650Y18600D01*
X47650Y18600D02*
X47650Y15400D01*
X47650Y15400D02*
X47250Y15400D01*
X47050Y15400D02*
X46850Y15600D01*
X47250Y19000D02*
X47250Y18600D01*
X44750Y19000D02*
X44750Y18600D01*
X44750Y18600D02*
X45150Y18600D01*
X45150Y18600D02*
X45150Y15400D01*
X45150Y15400D02*
X44350Y15400D01*
X44350Y15400D02*
X44350Y18600D01*
X44350Y18600D02*
X44750Y18600D01*
X44950Y18600D02*
X45150Y18400D01*
X44750Y15000D02*
X44750Y15400D01*
X48500Y15000D02*
X48500Y15400D01*
X48500Y15400D02*
X48100Y15400D01*
X48100Y15400D02*
X48100Y18600D01*
X48100Y18600D02*
X48900Y18600D01*
X48900Y18600D02*
X48900Y15400D01*
X48900Y15400D02*
X48500Y15400D01*
X48300Y15400D02*
X48100Y15600D01*
X48500Y19000D02*
X48500Y18600D01*
X52250Y19000D02*
X52250Y18600D01*
X52250Y18600D02*
X52650Y18600D01*
X52650Y18600D02*
X52650Y15400D01*
X52650Y15400D02*
X51850Y15400D01*
X51850Y15400D02*
X51850Y18600D01*
X51850Y18600D02*
X52250Y18600D01*
X52450Y18600D02*
X52650Y18400D01*
X52250Y15000D02*
X52250Y15400D01*
X67000Y23550D02*
X67000Y23950D01*
X67000Y23950D02*
X66600Y23950D01*
X66600Y23950D02*
X66600Y27150D01*
X66600Y27150D02*
X67400Y27150D01*
X67400Y27150D02*
X67400Y23950D01*
X67400Y23950D02*
X67000Y23950D01*
X66800Y23950D02*
X66600Y24150D01*
X67000Y27550D02*
X67000Y27150D01*
X66000Y13500D02*
X66000Y13900D01*
X66000Y13900D02*
X65600Y13900D01*
X65600Y13900D02*
X65600Y17100D01*
X65600Y17100D02*
X66400Y17100D01*
X66400Y17100D02*
X66400Y13900D01*
X66400Y13900D02*
X66000Y13900D01*
X65800Y13900D02*
X65600Y14100D01*
X66000Y17500D02*
X66000Y17100D01*
X62250Y13500D02*
X62250Y13900D01*
X62250Y13900D02*
X61850Y13900D01*
X61850Y13900D02*
X61850Y17100D01*
X61850Y17100D02*
X62650Y17100D01*
X62650Y17100D02*
X62650Y13900D01*
X62650Y13900D02*
X62250Y13900D01*
X62050Y13900D02*
X61850Y14100D01*
X62250Y17500D02*
X62250Y17100D01*
X63500Y8750D02*
X63900Y8750D01*
X63900Y8750D02*
X63900Y9150D01*
X63900Y9150D02*
X67100Y9150D01*
X67100Y9150D02*
X67100Y8350D01*
X67100Y8350D02*
X63900Y8350D01*
X63900Y8350D02*
X63900Y8750D01*
X63900Y8950D02*
X64100Y9150D01*
X67500Y8750D02*
X67100Y8750D01*
X63500Y7500D02*
X63900Y7500D01*
X63900Y7500D02*
X63900Y7900D01*
X63900Y7900D02*
X67100Y7900D01*
X67100Y7900D02*
X67100Y7100D01*
X67100Y7100D02*
X63900Y7100D01*
X63900Y7100D02*
X63900Y7500D01*
X63900Y7700D02*
X64100Y7900D01*
X67500Y7500D02*
X67100Y7500D01*
X33750Y21250D02*
X33350Y21250D01*
X33350Y21250D02*
X33350Y20850D01*
X33350Y20850D02*
X30150Y20850D01*
X30150Y20850D02*
X30150Y21650D01*
X30150Y21650D02*
X33350Y21650D01*
X33350Y21650D02*
X33350Y21250D01*
X33350Y21050D02*
X33150Y20850D01*
X29750Y21250D02*
X30150Y21250D01*
X63500Y17500D02*
X63500Y17100D01*
X63500Y17100D02*
X63900Y17100D01*
X63900Y17100D02*
X63900Y13900D01*
X63900Y13900D02*
X63100Y13900D01*
X63100Y13900D02*
X63100Y17100D01*
X63100Y17100D02*
X63500Y17100D01*
X63700Y17100D02*
X63900Y16900D01*
X63500Y13500D02*
X63500Y13900D01*
X36500Y16000D02*
X36500Y16400D01*
X36500Y16400D02*
X36100Y16400D01*
X36100Y16400D02*
X36100Y19600D01*
X36100Y19600D02*
X36900Y19600D01*
X36900Y19600D02*
X36900Y16400D01*
X36900Y16400D02*
X36500Y16400D01*
X36300Y16400D02*
X36100Y16600D01*
X36500Y20000D02*
X36500Y19600D01*
X64750Y13500D02*
X64750Y13900D01*
X64750Y13900D02*
X64350Y13900D01*
X64350Y13900D02*
X64350Y17100D01*
X64350Y17100D02*
X65150Y17100D01*
X65150Y17100D02*
X65150Y13900D01*
X65150Y13900D02*
X64750Y13900D01*
X64550Y13900D02*
X64350Y14100D01*
X64750Y17500D02*
X64750Y17100D01*
G54D13*
X3688Y24684D02*
X3688Y25669D01*
X3688Y21731D02*
X3688Y22716D01*
X8412Y21731D02*
X8412Y22716D01*
X8412Y25669D02*
X8412Y24684D01*
X4278Y23700D02*
X7822Y23700D01*
X4278Y24684D02*
X4278Y22716D01*
X7822Y24684D02*
X7822Y22716D01*
X9987Y24448D02*
X9987Y24684D01*
X2113Y22952D02*
X2113Y22716D01*
X2113Y22716D02*
X9987Y22716D01*
X9987Y22716D02*
X9987Y22952D01*
X9987Y24684D02*
X2113Y24684D01*
X2113Y24684D02*
X2113Y24448D01*
X10774Y24448D02*
X10774Y25669D01*
X1326Y22952D02*
X1326Y21731D01*
X1326Y21731D02*
X10774Y21731D01*
X10774Y21731D02*
X10774Y22952D01*
X10774Y25669D02*
X1326Y25669D01*
X1326Y25669D02*
X1326Y24448D01*
X58000Y16500D02*
X58000Y16000D01*
X58000Y16000D02*
X57000Y16000D01*
X57000Y16000D02*
X57000Y16500D01*
X58500Y16500D02*
X58500Y12500D01*
X58500Y12500D02*
X56500Y12500D01*
X56500Y12500D02*
X56500Y16500D01*
X56500Y16500D02*
X58500Y16500D01*
X64000Y21250D02*
X64500Y21250D01*
X64500Y21250D02*
X64500Y20250D01*
X64500Y20250D02*
X64000Y20250D01*
X64000Y21750D02*
X68000Y21750D01*
X68000Y21750D02*
X68000Y19750D01*
X68000Y19750D02*
X64000Y19750D01*
X64000Y19750D02*
X64000Y21750D01*
X20500Y12000D02*
X21000Y12000D01*
X21000Y12000D02*
X21000Y11000D01*
X21000Y11000D02*
X20500Y11000D01*
X20500Y14000D02*
X41500Y14000D01*
X41500Y14000D02*
X41500Y9000D01*
X41500Y9000D02*
X20500Y9000D01*
X20500Y9000D02*
X20500Y14000D01*
G54D12*
X16750Y21750D02*
X16750Y22250D01*
X16750Y22250D02*
X17250Y22250D01*
X17250Y22250D02*
X17250Y26250D01*
X17250Y26250D02*
X16750Y26250D01*
X16750Y26250D02*
X16750Y26750D01*
X16750Y26250D02*
X16250Y26250D01*
X16250Y26250D02*
X16250Y22250D01*
X16250Y22250D02*
X16750Y22250D01*
X17250Y22750D02*
X16250Y22750D01*
X17250Y22650D02*
X16250Y22650D01*
X15250Y26750D02*
X15250Y26250D01*
X15250Y26250D02*
X14750Y26250D01*
X14750Y26250D02*
X14750Y22250D01*
X14750Y22250D02*
X15250Y22250D01*
X15250Y22250D02*
X15250Y21750D01*
X15250Y22250D02*
X15750Y22250D01*
X15750Y22250D02*
X15750Y26250D01*
X15750Y26250D02*
X15250Y26250D01*
X14750Y25750D02*
X15750Y25750D01*
X14750Y25850D02*
X15750Y25850D01*
X12250Y26750D02*
X12250Y26250D01*
X12250Y26250D02*
X11750Y26250D01*
X11750Y26250D02*
X11750Y22250D01*
X11750Y22250D02*
X12250Y22250D01*
X12250Y22250D02*
X12250Y21750D01*
X12250Y22250D02*
X12750Y22250D01*
X12750Y22250D02*
X12750Y26250D01*
X12750Y26250D02*
X12250Y26250D01*
X11750Y25750D02*
X12750Y25750D01*
X11750Y25850D02*
X12750Y25850D01*
X13750Y21750D02*
X13750Y22250D01*
X13750Y22250D02*
X14250Y22250D01*
X14250Y22250D02*
X14250Y26250D01*
X14250Y26250D02*
X13750Y26250D01*
X13750Y26250D02*
X13750Y26750D01*
X13750Y26250D02*
X13250Y26250D01*
X13250Y26250D02*
X13250Y22250D01*
X13250Y22250D02*
X13750Y22250D01*
X14250Y22750D02*
X13250Y22750D01*
X14250Y22650D02*
X13250Y22650D01*
X61945Y20750D02*
G75*
G03X61945Y20750I-2195J0D01*
G74*
G01*
X73695Y19000D02*
G75*
G03X73695Y19000I-2195J0D01*
G74*
G01*
X61945Y25750D02*
G75*
G03X61945Y25750I-2195J0D01*
G74*
G01*
X65600Y9850D02*
X65600Y12650D01*
X65600Y12650D02*
X66400Y12650D01*
X66400Y12650D02*
X66400Y9850D01*
X66400Y9850D02*
X65600Y9850D01*
X65800Y9850D02*
X65600Y10050D01*
X63400Y22150D02*
X63400Y19350D01*
X63400Y19350D02*
X62600Y19350D01*
X62600Y19350D02*
X62600Y22150D01*
X62600Y22150D02*
X63400Y22150D01*
X63200Y22150D02*
X63400Y21950D01*
X67850Y24100D02*
X67850Y26900D01*
X67850Y26900D02*
X68650Y26900D01*
X68650Y26900D02*
X68650Y24100D01*
X68650Y24100D02*
X67850Y24100D01*
X68050Y24100D02*
X67850Y24300D01*
X66850Y13350D02*
X66850Y16150D01*
X66850Y16150D02*
X67650Y16150D01*
X67650Y16150D02*
X67650Y13350D01*
X67650Y13350D02*
X66850Y13350D01*
X67050Y13350D02*
X66850Y13550D01*
X66850Y9850D02*
X66850Y12650D01*
X66850Y12650D02*
X67650Y12650D01*
X67650Y12650D02*
X67650Y9850D01*
X67650Y9850D02*
X66850Y9850D01*
X67050Y9850D02*
X66850Y10050D01*
X39400Y7200D02*
X39400Y4400D01*
X39400Y4400D02*
X38600Y4400D01*
X38600Y4400D02*
X38600Y7200D01*
X38600Y7200D02*
X39400Y7200D01*
X39200Y7200D02*
X39400Y7000D01*
X32100Y7200D02*
X32100Y4400D01*
X32100Y4400D02*
X31300Y4400D01*
X31300Y4400D02*
X31300Y7200D01*
X31300Y7200D02*
X32100Y7200D01*
X31900Y7200D02*
X32100Y7000D01*
X29900Y4400D02*
X29900Y7200D01*
X29900Y7200D02*
X30700Y7200D01*
X30700Y7200D02*
X30700Y4400D01*
X30700Y4400D02*
X29900Y4400D01*
X30100Y4400D02*
X29900Y4600D01*
X31400Y15850D02*
X28600Y15850D01*
X28600Y15850D02*
X28600Y16650D01*
X28600Y16650D02*
X31400Y16650D01*
X31400Y16650D02*
X31400Y15850D01*
X31400Y16050D02*
X31200Y15850D01*
G54D14*
X58401Y10200D02*
G75*
G03X58401Y10200I-1001J0D01*
G74*
G01*
X57101Y7900D02*
G75*
G03X57101Y7900I-1001J0D01*
G74*
G01*
X47001Y23250D02*
G75*
G03X47001Y23250I-1001J0D01*
G74*
G01*
X47001Y25500D02*
G75*
G03X47001Y25500I-1001J0D01*
G74*
G01*
G54D12*
X60350Y14100D02*
X60350Y16900D01*
X60350Y16900D02*
X61150Y16900D01*
X61150Y16900D02*
X61150Y14100D01*
X61150Y14100D02*
X60350Y14100D01*
X60550Y14100D02*
X60350Y14300D01*
G54D13*
X76500Y11000D02*
X83500Y11000D01*
X83500Y11000D02*
X83500Y13000D01*
X83500Y13000D02*
X76500Y13000D01*
X73500Y10000D02*
X76500Y10000D01*
X76500Y10000D02*
X76500Y14000D01*
X76500Y14000D02*
X73500Y14000D01*
X69500Y8000D02*
X69500Y16000D01*
X69500Y16000D02*
X72500Y16000D01*
X72500Y16000D02*
X73500Y16000D01*
X73500Y16000D02*
X73500Y8000D01*
X73500Y8000D02*
X69500Y8000D01*
G54D12*
X65350Y24100D02*
X65350Y26900D01*
X65350Y26900D02*
X66150Y26900D01*
X66150Y26900D02*
X66150Y24100D01*
X66150Y24100D02*
X65350Y24100D01*
X65550Y24100D02*
X65350Y24300D01*
X58500Y6500D02*
X60000Y8000D01*
X60000Y8000D02*
X60000Y8500D01*
X60000Y8500D02*
X59500Y9000D01*
X59500Y9000D02*
X58500Y9000D01*
X58500Y9000D02*
X57500Y8000D01*
X57500Y8000D02*
X57500Y7000D01*
X57500Y7000D02*
X58000Y6500D01*
X58000Y6500D02*
X58500Y6500D01*
G54D15*
X38050Y5500D02*
X37550Y5000D01*
X33050Y5000D02*
X32550Y5500D01*
X32550Y6500D02*
X33050Y7000D01*
X38050Y6500D02*
X37550Y7000D01*
X37550Y5000D02*
X33050Y5000D01*
X38050Y5500D02*
X38050Y6500D01*
X37550Y7000D02*
X33050Y7000D01*
X32550Y6500D02*
X32550Y5500D01*
G54D12*
X32000Y16000D02*
X32000Y17000D01*
X32000Y17000D02*
X34000Y17000D01*
X34000Y17000D02*
X34000Y16000D01*
X34000Y16000D02*
X32000Y16000D01*
G54D13*
X39250Y25750D02*
X39750Y25750D01*
X39250Y25750D02*
X39250Y22750D01*
X39750Y22750D02*
X39250Y22750D01*
X39750Y25750D02*
X39750Y22750D01*
X39750Y22750D02*
X40750Y22750D01*
X40750Y22750D02*
X40750Y25750D01*
X40750Y25750D02*
X39750Y25750D01*
G54D14*
X50501Y23250D02*
G75*
G03X50501Y23250I-1001J0D01*
G74*
G01*
X50501Y25500D02*
G75*
G03X50501Y25500I-1001J0D01*
G74*
G01*
G54D13*
X51500Y25750D02*
X52000Y25750D01*
X51500Y25750D02*
X51500Y22750D01*
X52000Y22750D02*
X51500Y22750D01*
X52000Y25750D02*
X52000Y22750D01*
X52000Y22750D02*
X53000Y22750D01*
X53000Y22750D02*
X53000Y25750D01*
X53000Y25750D02*
X52000Y25750D01*
G54D10*
X24700Y24000D02*
G75*
G03X24700Y24000I-3200J0D01*
G74*
G01*
G54D12*
X19700Y3700D02*
X19300Y3700D01*
X19300Y3700D02*
X19300Y3300D01*
X19300Y3300D02*
X16100Y3300D01*
X16100Y3300D02*
X16100Y4100D01*
X16100Y4100D02*
X19300Y4100D01*
X19300Y4100D02*
X19300Y3700D01*
X19300Y3500D02*
X19100Y3300D01*
X15700Y3700D02*
X16100Y3700D01*
G54D13*
X29000Y22750D02*
X25500Y22750D01*
X25500Y22750D02*
X25500Y24750D01*
X25500Y24750D02*
X29000Y24750D01*
X29000Y24750D02*
X29000Y22750D01*
X29000Y23500D02*
X28500Y23500D01*
X28500Y23500D02*
X28500Y24000D01*
X28500Y24000D02*
X29000Y24000D01*
X2003Y18961D02*
X14996Y18961D01*
X14996Y18961D02*
X14996Y7938D01*
X14996Y7938D02*
X2003Y7938D01*
X2003Y7938D02*
X2003Y18961D01*
X232Y20339D02*
X16767Y20339D01*
X16767Y20339D02*
X16767Y6560D01*
X16767Y6560D02*
X232Y6560D01*
X232Y6560D02*
X232Y20339D01*
G54D16*
X30000Y24750D02*
X33000Y24750D01*
X33000Y22750D02*
X30000Y22750D01*
X30000Y22750D02*
X30000Y24750D01*
X33000Y24750D02*
X33000Y22750D01*
G54D17*
X72750Y22310D02*
X72750Y23310D01*
X72750Y23310D02*
X71650Y23310D01*
X71650Y22310D02*
X71650Y23310D01*
X72750Y22310D02*
X71650Y22310D01*
X72750Y24280D02*
X72750Y25280D01*
X72750Y25280D02*
X71650Y25280D01*
X71650Y24280D02*
X71650Y25280D01*
X72750Y24280D02*
X71650Y24280D01*
G54D15*
X69300Y25800D02*
X70500Y25800D01*
X69300Y25800D02*
X69300Y21800D01*
X69300Y25800D02*
X69300Y26000D01*
X69300Y26000D02*
X71200Y26000D01*
X71200Y26000D02*
X71100Y25800D01*
X73900Y26000D02*
X73800Y25800D01*
X73800Y25800D02*
X74200Y25800D01*
X73250Y26000D02*
X73350Y25800D01*
X73350Y25800D02*
X73800Y25800D01*
X73250Y26000D02*
X73900Y26000D01*
X74200Y23980D02*
X73450Y23980D01*
X71650Y25580D02*
X73450Y25580D01*
X74200Y23980D02*
X74200Y25580D01*
X74200Y25580D02*
X74200Y25800D01*
X74200Y23610D02*
X73450Y23610D01*
X74200Y23610D02*
X74200Y23980D01*
X71650Y22010D02*
X73450Y22010D01*
X74200Y21800D02*
X74200Y22010D01*
X74200Y22010D02*
X74200Y23610D01*
X73450Y23980D02*
X73450Y25580D01*
X73450Y23980D02*
X71650Y23980D01*
X73450Y25580D02*
X74200Y25580D01*
X73450Y23610D02*
X73450Y22010D01*
X73450Y23610D02*
X71650Y23610D01*
X73450Y22010D02*
X74200Y22010D01*
X73200Y25430D02*
X71950Y25430D01*
X73200Y25430D02*
X73200Y24130D01*
X73200Y24130D02*
X71950Y24130D01*
X73200Y23460D02*
X71950Y23460D01*
X73200Y23460D02*
X73200Y22160D01*
X73200Y22160D02*
X71950Y22160D01*
X71950Y22160D02*
X71950Y22310D01*
X71950Y23460D02*
X71950Y23310D01*
X71950Y24130D02*
X71950Y24280D01*
X71950Y25430D02*
X71950Y25280D01*
X74200Y21800D02*
X71500Y21800D01*
X71500Y21800D02*
X70500Y21800D01*
X71100Y25800D02*
X71500Y25800D01*
X71500Y25800D02*
X73350Y25800D01*
X70500Y21800D02*
X70500Y25800D01*
X70500Y21800D02*
X69300Y21800D01*
X70500Y25800D02*
X71100Y25800D01*
X70400Y23980D02*
X69400Y23980D01*
X69400Y23980D02*
X69400Y25580D01*
X69400Y25580D02*
X70400Y25580D01*
X70400Y25580D02*
X70400Y23980D01*
X70400Y23610D02*
X69400Y23610D01*
X70400Y23610D02*
X70400Y22010D01*
X70400Y22010D02*
X69400Y22010D01*
X69400Y23610D02*
X69400Y22010D01*
X70000Y24140D02*
X69750Y25340D01*
X70050Y24190D02*
X69800Y25390D01*
X70000Y22170D02*
X69750Y23371D01*
X70050Y22220D02*
X69800Y23420D01*
X71650Y22010D02*
X71650Y22160D01*
X71650Y23610D02*
X71650Y23460D01*
X71650Y23460D02*
X71650Y22160D01*
X71500Y21800D02*
X71500Y22160D01*
X71500Y22160D02*
X71500Y23460D01*
X71500Y23460D02*
X71500Y24130D01*
X71500Y25800D02*
X71500Y25430D01*
X71500Y25430D02*
X71500Y24130D01*
X71650Y25580D02*
X71650Y25430D01*
X71650Y23980D02*
X71650Y24130D01*
X71650Y24130D02*
X71650Y25430D01*
X70141Y25358D02*
G75*
G03X69761Y25379I-200J-178D01*
G74*
G01*
X70109Y24199D02*
G75*
G03X70129Y25375I-749J600D01*
G74*
G01*
X69758Y25380D02*
G75*
G03X69780Y24139I531J-611D01*
G74*
G01*
X69760Y24160D02*
G75*
G03X70124Y24215I160J169D01*
G74*
G01*
X70142Y23388D02*
G75*
G03X69760Y23409I-201J-178D01*
G74*
G01*
X70109Y22230D02*
G75*
G03X70129Y23406I-749J600D01*
G74*
G01*
X69756Y23412D02*
G75*
G03X69780Y22169I533J-611D01*
G74*
G01*
X69761Y22190D02*
G75*
G03X70124Y22246I159J169D01*
G74*
G01*
G54D17*
X8760Y2000D02*
X9760Y2000D01*
X9760Y2000D02*
X9760Y3100D01*
X8760Y3100D02*
X9760Y3100D01*
X8760Y2000D02*
X8760Y3100D01*
X10730Y2000D02*
X11730Y2000D01*
X11730Y2000D02*
X11730Y3100D01*
X10730Y3100D02*
X11730Y3100D01*
X10730Y2000D02*
X10730Y3100D01*
G54D15*
X12250Y5450D02*
X12250Y4250D01*
X12250Y5450D02*
X8250Y5450D01*
X12250Y5450D02*
X12450Y5450D01*
X12450Y5450D02*
X12450Y3550D01*
X12450Y3550D02*
X12250Y3650D01*
X12450Y850D02*
X12250Y950D01*
X12250Y950D02*
X12250Y550D01*
X12450Y1500D02*
X12250Y1400D01*
X12250Y1400D02*
X12250Y950D01*
X12450Y1500D02*
X12450Y850D01*
X10430Y550D02*
X10430Y1300D01*
X12030Y3100D02*
X12030Y1300D01*
X10430Y550D02*
X12030Y550D01*
X12030Y550D02*
X12250Y550D01*
X10060Y550D02*
X10060Y1300D01*
X10060Y550D02*
X10430Y550D01*
X8460Y3100D02*
X8460Y1300D01*
X8250Y550D02*
X8460Y550D01*
X8460Y550D02*
X10060Y550D01*
X10430Y1300D02*
X12030Y1300D01*
X10430Y1300D02*
X10430Y3100D01*
X12030Y1300D02*
X12030Y550D01*
X10060Y1300D02*
X8460Y1300D01*
X10060Y1300D02*
X10060Y3100D01*
X8460Y1300D02*
X8460Y550D01*
X11880Y1550D02*
X11880Y2800D01*
X11880Y1550D02*
X10580Y1550D01*
X10580Y1550D02*
X10580Y2800D01*
X9910Y1550D02*
X9910Y2800D01*
X9910Y1550D02*
X8610Y1550D01*
X8610Y1550D02*
X8610Y2800D01*
X8610Y2800D02*
X8760Y2800D01*
X9910Y2800D02*
X9760Y2800D01*
X10580Y2800D02*
X10730Y2800D01*
X11880Y2800D02*
X11730Y2800D01*
X8250Y550D02*
X8250Y3250D01*
X8250Y3250D02*
X8250Y4250D01*
X12250Y3650D02*
X12250Y3250D01*
X12250Y3250D02*
X12250Y1400D01*
X8250Y4250D02*
X12250Y4250D01*
X8250Y4250D02*
X8250Y5450D01*
X12250Y4250D02*
X12250Y3650D01*
X10430Y4350D02*
X10430Y5350D01*
X10430Y5350D02*
X12030Y5350D01*
X12030Y5350D02*
X12030Y4350D01*
X12030Y4350D02*
X10430Y4350D01*
X10060Y4350D02*
X10060Y5350D01*
X10060Y4350D02*
X8460Y4350D01*
X8460Y4350D02*
X8460Y5350D01*
X10060Y5350D02*
X8460Y5350D01*
X10590Y4750D02*
X11790Y5000D01*
X10640Y4700D02*
X11840Y4950D01*
X8620Y4750D02*
X9821Y5000D01*
X8670Y4700D02*
X9870Y4950D01*
X8460Y3100D02*
X8610Y3100D01*
X10060Y3100D02*
X9910Y3100D01*
X9910Y3100D02*
X8610Y3100D01*
X8250Y3250D02*
X8610Y3250D01*
X8610Y3250D02*
X9910Y3250D01*
X9910Y3250D02*
X10580Y3250D01*
X12250Y3250D02*
X11880Y3250D01*
X11880Y3250D02*
X10580Y3250D01*
X12030Y3100D02*
X11880Y3100D01*
X10430Y3100D02*
X10580Y3100D01*
X10580Y3100D02*
X11880Y3100D01*
X11808Y4608D02*
G75*
G03X11829Y4988I-178J200D01*
G74*
G01*
X10649Y4640D02*
G75*
G03X11825Y4620I600J749D01*
G74*
G01*
X11830Y4991D02*
G75*
G03X10589Y4969I-611J-531D01*
G74*
G01*
X10610Y4989D02*
G75*
G03X10665Y4625I169J-160D01*
G74*
G01*
X9838Y4607D02*
G75*
G03X9859Y4989I-178J201D01*
G74*
G01*
X8680Y4640D02*
G75*
G03X9856Y4620I600J749D01*
G74*
G01*
X9862Y4993D02*
G75*
G03X8619Y4969I-611J-533D01*
G74*
G01*
X8640Y4988D02*
G75*
G03X8696Y4625I169J-159D01*
G74*
G01*
G54D17*
X3510Y2000D02*
X4510Y2000D01*
X4510Y2000D02*
X4510Y3100D01*
X3510Y3100D02*
X4510Y3100D01*
X3510Y2000D02*
X3510Y3100D01*
X5480Y2000D02*
X6480Y2000D01*
X6480Y2000D02*
X6480Y3100D01*
X5480Y3100D02*
X6480Y3100D01*
X5480Y2000D02*
X5480Y3100D01*
G54D15*
X7000Y5450D02*
X7000Y4250D01*
X7000Y5450D02*
X3000Y5450D01*
X7000Y5450D02*
X7200Y5450D01*
X7200Y5450D02*
X7200Y3550D01*
X7200Y3550D02*
X7000Y3650D01*
X7200Y850D02*
X7000Y950D01*
X7000Y950D02*
X7000Y550D01*
X7200Y1500D02*
X7000Y1400D01*
X7000Y1400D02*
X7000Y950D01*
X7200Y1500D02*
X7200Y850D01*
X5180Y550D02*
X5180Y1300D01*
X6780Y3100D02*
X6780Y1300D01*
X5180Y550D02*
X6780Y550D01*
X6780Y550D02*
X7000Y550D01*
X4810Y550D02*
X4810Y1300D01*
X4810Y550D02*
X5180Y550D01*
X3210Y3100D02*
X3210Y1300D01*
X3000Y550D02*
X3210Y550D01*
X3210Y550D02*
X4810Y550D01*
X5180Y1300D02*
X6780Y1300D01*
X5180Y1300D02*
X5180Y3100D01*
X6780Y1300D02*
X6780Y550D01*
X4810Y1300D02*
X3210Y1300D01*
X4810Y1300D02*
X4810Y3100D01*
X3210Y1300D02*
X3210Y550D01*
X6630Y1550D02*
X6630Y2800D01*
X6630Y1550D02*
X5330Y1550D01*
X5330Y1550D02*
X5330Y2800D01*
X4660Y1550D02*
X4660Y2800D01*
X4660Y1550D02*
X3360Y1550D01*
X3360Y1550D02*
X3360Y2800D01*
X3360Y2800D02*
X3510Y2800D01*
X4660Y2800D02*
X4510Y2800D01*
X5330Y2800D02*
X5480Y2800D01*
X6630Y2800D02*
X6480Y2800D01*
X3000Y550D02*
X3000Y3250D01*
X3000Y3250D02*
X3000Y4250D01*
X7000Y3650D02*
X7000Y3250D01*
X7000Y3250D02*
X7000Y1400D01*
X3000Y4250D02*
X7000Y4250D01*
X3000Y4250D02*
X3000Y5450D01*
X7000Y4250D02*
X7000Y3650D01*
X5180Y4350D02*
X5180Y5350D01*
X5180Y5350D02*
X6780Y5350D01*
X6780Y5350D02*
X6780Y4350D01*
X6780Y4350D02*
X5180Y4350D01*
X4810Y4350D02*
X4810Y5350D01*
X4810Y4350D02*
X3210Y4350D01*
X3210Y4350D02*
X3210Y5350D01*
X4810Y5350D02*
X3210Y5350D01*
X5340Y4750D02*
X6540Y5000D01*
X5390Y4700D02*
X6590Y4950D01*
X3370Y4750D02*
X4571Y5000D01*
X3420Y4700D02*
X4620Y4950D01*
X3210Y3100D02*
X3360Y3100D01*
X4810Y3100D02*
X4660Y3100D01*
X4660Y3100D02*
X3360Y3100D01*
X3000Y3250D02*
X3360Y3250D01*
X3360Y3250D02*
X4660Y3250D01*
X4660Y3250D02*
X5330Y3250D01*
X7000Y3250D02*
X6630Y3250D01*
X6630Y3250D02*
X5330Y3250D01*
X6780Y3100D02*
X6630Y3100D01*
X5180Y3100D02*
X5330Y3100D01*
X5330Y3100D02*
X6630Y3100D01*
X6558Y4608D02*
G75*
G03X6579Y4988I-178J200D01*
G74*
G01*
X5399Y4640D02*
G75*
G03X6575Y4620I600J749D01*
G74*
G01*
X6580Y4991D02*
G75*
G03X5339Y4969I-611J-531D01*
G74*
G01*
X5360Y4989D02*
G75*
G03X5415Y4625I169J-160D01*
G74*
G01*
X4588Y4607D02*
G75*
G03X4609Y4989I-178J201D01*
G74*
G01*
X3430Y4640D02*
G75*
G03X4606Y4620I600J749D01*
G74*
G01*
X4612Y4993D02*
G75*
G03X3369Y4969I-611J-533D01*
G74*
G01*
X3390Y4988D02*
G75*
G03X3446Y4625I169J-159D01*
G74*
G01*
G54D12*
X27900Y5100D02*
X27900Y4700D01*
X27900Y4700D02*
X28300Y4700D01*
X28300Y4700D02*
X28300Y1500D01*
X28300Y1500D02*
X27500Y1500D01*
X27500Y1500D02*
X27500Y4700D01*
X27500Y4700D02*
X27900Y4700D01*
X28100Y4700D02*
X28300Y4500D01*
X27900Y1100D02*
X27900Y1500D01*
X35200Y800D02*
X30200Y800D01*
X30200Y800D02*
X30200Y2800D01*
X30200Y2800D02*
X35200Y2800D01*
X35200Y2800D02*
X35200Y800D01*
X41450Y800D02*
X36450Y800D01*
X36450Y800D02*
X36450Y2800D01*
X36450Y2800D02*
X41450Y2800D01*
X41450Y2800D02*
X41450Y800D01*
X58900Y17100D02*
X56100Y17100D01*
X56100Y17100D02*
X56100Y17900D01*
X56100Y17900D02*
X58900Y17900D01*
X58900Y17900D02*
X58900Y17100D01*
X58900Y17300D02*
X58700Y17100D01*
G54D18*
X43000Y12250D02*
X43000Y13750D01*
X43000Y13750D02*
X54500Y13750D01*
X54500Y13750D02*
X54500Y12250D01*
X43000Y750D02*
X43000Y12250D01*
X43000Y12250D02*
X54500Y12250D01*
X54500Y750D02*
X54500Y12250D01*
X43000Y750D02*
X54500Y750D01*
G54D12*
X25000Y17270D02*
X25000Y19250D01*
X25000Y19250D02*
X26000Y19250D01*
X26000Y19250D02*
X26000Y17250D01*
X26000Y17250D02*
X25000Y17250D01*
X25250Y17250D02*
X25000Y17500D01*
G54D18*
X18500Y1000D02*
X19500Y1000D01*
X18500Y2000D02*
X19500Y2000D01*
G54D12*
X18500Y1000D02*
X18500Y2000D01*
X19500Y2000D02*
X19500Y1000D01*
G54D10*
X55700Y750D02*
X59700Y750D01*
X59700Y750D02*
X59700Y4750D01*
X59700Y4750D02*
X55700Y4750D01*
X55700Y4750D02*
X55700Y750D01*
X60300Y750D02*
X64300Y750D01*
X64300Y750D02*
X64300Y4750D01*
X64300Y4750D02*
X60300Y4750D01*
X60300Y4750D02*
X60300Y750D01*
X64900Y750D02*
X68900Y750D01*
X68900Y750D02*
X68900Y4750D01*
X68900Y4750D02*
X64900Y4750D01*
X64900Y4750D02*
X64900Y750D01*
X69500Y750D02*
X73500Y750D01*
X73500Y750D02*
X73500Y4750D01*
X73500Y4750D02*
X69500Y4750D01*
X69500Y4750D02*
X69500Y750D01*
X25100Y550D02*
X25100Y-200D01*
X25100Y-200D02*
X24100Y-200D01*
X24100Y-200D02*
X24100Y550D01*
X22350Y6050D02*
X22350Y550D01*
X22350Y550D02*
X26850Y550D01*
X26850Y550D02*
X26850Y6050D01*
X26850Y6050D02*
X22350Y6050D01*
G54D13*
X2050Y1250D02*
G75*
G03X2050Y1250I-900J0D01*
G74*
G01*
X2050Y27250D02*
G75*
G03X2050Y27250I-900J0D01*
G74*
G01*
X74200Y27250D02*
G75*
G03X74200Y27250I-900J0D01*
G74*
G01*
X74200Y6100D02*
G75*
G03X74200Y6100I-900J0D01*
G74*
G01*
X19200Y6100D02*
G75*
G03X19200Y6100I-900J0D01*
G74*
G01*
G54D16*
X22811Y16500D02*
X22773Y16519D01*
X22735Y16557D01*
X22678Y16614D01*
X22640Y16633D01*
X22602Y16633D01*
X22621Y16538D02*
X22583Y16557D01*
X22545Y16595D01*
X22526Y16671D01*
X22526Y16804D01*
X22545Y16880D01*
X22583Y16919D01*
X22621Y16938D01*
X22697Y16938D01*
X22735Y16919D01*
X22773Y16880D01*
X22792Y16804D01*
X22792Y16671D01*
X22773Y16595D01*
X22735Y16557D01*
X22697Y16538D01*
X22621Y16538D01*
X23173Y16538D02*
X22945Y16538D01*
X23059Y16538D02*
X23059Y16938D01*
X23021Y16880D01*
X22983Y16842D01*
X22945Y16823D01*
X20507Y18947D02*
X20564Y18928D01*
X20583Y18909D01*
X20602Y18871D01*
X20602Y18814D01*
X20583Y18776D01*
X20564Y18757D01*
X20526Y18738D01*
X20373Y18738D01*
X20373Y19138D01*
X20507Y19138D01*
X20545Y19119D01*
X20564Y19100D01*
X20583Y19061D01*
X20583Y19023D01*
X20564Y18985D01*
X20545Y18966D01*
X20507Y18947D01*
X20373Y18947D01*
X21002Y18776D02*
X20983Y18757D01*
X20926Y18738D01*
X20888Y18738D01*
X20830Y18757D01*
X20792Y18795D01*
X20773Y18833D01*
X20754Y18909D01*
X20754Y18966D01*
X20773Y19042D01*
X20792Y19080D01*
X20830Y19119D01*
X20888Y19138D01*
X20926Y19138D01*
X20983Y19119D01*
X21002Y19100D01*
X21154Y19100D02*
X21173Y19119D01*
X21211Y19138D01*
X21307Y19138D01*
X21345Y19119D01*
X21364Y19100D01*
X21383Y19061D01*
X21383Y19023D01*
X21364Y18966D01*
X21135Y18738D01*
X21383Y18738D01*
X21516Y19138D02*
X21764Y19138D01*
X21630Y18985D01*
X21688Y18985D01*
X21726Y18966D01*
X21745Y18947D01*
X21764Y18909D01*
X21764Y18814D01*
X21745Y18776D01*
X21726Y18757D01*
X21688Y18738D01*
X21573Y18738D01*
X21535Y18757D01*
X21516Y18776D01*
X21897Y19138D02*
X22164Y19138D01*
X21992Y18738D01*
X60961Y11600D02*
X60923Y11619D01*
X60885Y11657D01*
X60828Y11714D01*
X60790Y11733D01*
X60752Y11733D01*
X60771Y11638D02*
X60733Y11657D01*
X60695Y11695D01*
X60676Y11771D01*
X60676Y11904D01*
X60695Y11980D01*
X60733Y12019D01*
X60771Y12038D01*
X60847Y12038D01*
X60885Y12019D01*
X60923Y11980D01*
X60942Y11904D01*
X60942Y11771D01*
X60923Y11695D01*
X60885Y11657D01*
X60847Y11638D01*
X60771Y11638D01*
X61095Y12000D02*
X61114Y12019D01*
X61152Y12038D01*
X61247Y12038D01*
X61285Y12019D01*
X61304Y12000D01*
X61323Y11961D01*
X61323Y11923D01*
X61304Y11866D01*
X61076Y11638D01*
X61323Y11638D01*
X60973Y9438D02*
X60973Y9838D01*
X61107Y9552D01*
X61240Y9838D01*
X61240Y9438D01*
X61430Y9438D02*
X61430Y9838D01*
X61583Y9838D01*
X61621Y9819D01*
X61640Y9800D01*
X61659Y9761D01*
X61659Y9704D01*
X61640Y9666D01*
X61621Y9647D01*
X61583Y9628D01*
X61430Y9628D01*
X61811Y9457D02*
X61869Y9438D01*
X61964Y9438D01*
X62002Y9457D01*
X62021Y9476D01*
X62040Y9514D01*
X62040Y9552D01*
X62021Y9590D01*
X62002Y9609D01*
X61964Y9628D01*
X61888Y9647D01*
X61850Y9666D01*
X61830Y9685D01*
X61811Y9723D01*
X61811Y9761D01*
X61830Y9800D01*
X61850Y9819D01*
X61888Y9838D01*
X61983Y9838D01*
X62040Y9819D01*
X62192Y9552D02*
X62383Y9552D01*
X62154Y9438D02*
X62288Y9838D01*
X62421Y9438D01*
X62726Y9704D02*
X62726Y9438D01*
X62630Y9857D02*
X62535Y9571D01*
X62783Y9571D01*
X62916Y9800D02*
X62935Y9819D01*
X62973Y9838D01*
X63069Y9838D01*
X63107Y9819D01*
X63126Y9800D01*
X63145Y9761D01*
X63145Y9723D01*
X63126Y9666D01*
X62897Y9438D01*
X63145Y9438D01*
X31428Y19277D02*
X31261Y19539D01*
X31142Y19277D02*
X31142Y19827D01*
X31333Y19827D01*
X31380Y19801D01*
X31404Y19775D01*
X31428Y19722D01*
X31428Y19644D01*
X31404Y19591D01*
X31380Y19565D01*
X31333Y19539D01*
X31142Y19539D01*
X31619Y19775D02*
X31642Y19801D01*
X31690Y19827D01*
X31809Y19827D01*
X31857Y19801D01*
X31880Y19775D01*
X31904Y19722D01*
X31904Y19670D01*
X31880Y19591D01*
X31595Y19277D01*
X31904Y19277D01*
X32190Y19591D02*
X32142Y19617D01*
X32119Y19644D01*
X32095Y19696D01*
X32095Y19722D01*
X32119Y19775D01*
X32142Y19801D01*
X32190Y19827D01*
X32285Y19827D01*
X32333Y19801D01*
X32357Y19775D01*
X32380Y19722D01*
X32380Y19696D01*
X32357Y19644D01*
X32333Y19617D01*
X32285Y19591D01*
X32190Y19591D01*
X32142Y19565D01*
X32119Y19539D01*
X32095Y19486D01*
X32095Y19382D01*
X32119Y19329D01*
X32142Y19303D01*
X32190Y19277D01*
X32285Y19277D01*
X32333Y19303D01*
X32357Y19329D01*
X32380Y19382D01*
X32380Y19486D01*
X32357Y19539D01*
X32333Y19565D01*
X32285Y19591D01*
X29322Y4716D02*
X29060Y4550D01*
X29322Y4430D02*
X28772Y4430D01*
X28772Y4621D01*
X28798Y4669D01*
X28825Y4692D01*
X28877Y4716D01*
X28955Y4716D01*
X29008Y4692D01*
X29034Y4669D01*
X29060Y4621D01*
X29060Y4430D01*
X29322Y5192D02*
X29322Y4907D01*
X29322Y5050D02*
X28772Y5050D01*
X28851Y5002D01*
X28903Y4954D01*
X28929Y4907D01*
X21522Y2916D02*
X21260Y2750D01*
X21522Y2630D02*
X20972Y2630D01*
X20972Y2821D01*
X20998Y2869D01*
X21025Y2892D01*
X21077Y2916D01*
X21155Y2916D01*
X21208Y2892D01*
X21234Y2869D01*
X21260Y2821D01*
X21260Y2630D01*
X20972Y3083D02*
X20972Y3392D01*
X21182Y3226D01*
X21182Y3297D01*
X21208Y3345D01*
X21234Y3369D01*
X21286Y3392D01*
X21417Y3392D01*
X21470Y3369D01*
X21496Y3345D01*
X21522Y3297D01*
X21522Y3154D01*
X21496Y3107D01*
X21470Y3083D01*
X19472Y17166D02*
X19210Y17000D01*
X19472Y16880D02*
X18922Y16880D01*
X18922Y17071D01*
X18948Y17119D01*
X18975Y17142D01*
X19027Y17166D01*
X19105Y17166D01*
X19158Y17142D01*
X19184Y17119D01*
X19210Y17071D01*
X19210Y16880D01*
X18975Y17357D02*
X18948Y17380D01*
X18922Y17428D01*
X18922Y17547D01*
X18948Y17595D01*
X18975Y17619D01*
X19027Y17642D01*
X19079Y17642D01*
X19158Y17619D01*
X19472Y17333D01*
X19472Y17642D01*
X46222Y16678D02*
X45960Y16511D01*
X46222Y16392D02*
X45672Y16392D01*
X45672Y16583D01*
X45698Y16630D01*
X45725Y16654D01*
X45777Y16678D01*
X45855Y16678D01*
X45908Y16654D01*
X45934Y16630D01*
X45960Y16583D01*
X45960Y16392D01*
X45672Y16845D02*
X45672Y17154D01*
X45882Y16988D01*
X45882Y17059D01*
X45908Y17107D01*
X45934Y17130D01*
X45986Y17154D01*
X46117Y17154D01*
X46170Y17130D01*
X46196Y17107D01*
X46222Y17059D01*
X46222Y16916D01*
X46196Y16869D01*
X46170Y16845D01*
X45672Y17607D02*
X45672Y17369D01*
X45934Y17345D01*
X45908Y17369D01*
X45882Y17416D01*
X45882Y17535D01*
X45908Y17583D01*
X45934Y17607D01*
X45986Y17630D01*
X46117Y17630D01*
X46170Y17607D01*
X46196Y17583D01*
X46222Y17535D01*
X46222Y17416D01*
X46196Y17369D01*
X46170Y17345D01*
X40928Y16277D02*
X40761Y16539D01*
X40642Y16277D02*
X40642Y16827D01*
X40833Y16827D01*
X40880Y16801D01*
X40904Y16775D01*
X40928Y16722D01*
X40928Y16644D01*
X40904Y16591D01*
X40880Y16565D01*
X40833Y16539D01*
X40642Y16539D01*
X41404Y16277D02*
X41119Y16277D01*
X41261Y16277D02*
X41261Y16827D01*
X41214Y16748D01*
X41166Y16696D01*
X41119Y16670D01*
X41833Y16827D02*
X41738Y16827D01*
X41690Y16801D01*
X41666Y16775D01*
X41619Y16696D01*
X41595Y16591D01*
X41595Y16382D01*
X41619Y16329D01*
X41642Y16303D01*
X41690Y16277D01*
X41785Y16277D01*
X41833Y16303D01*
X41857Y16329D01*
X41880Y16382D01*
X41880Y16513D01*
X41857Y16565D01*
X41833Y16591D01*
X41785Y16617D01*
X41690Y16617D01*
X41642Y16591D01*
X41619Y16565D01*
X41595Y16513D01*
X40928Y17527D02*
X40761Y17789D01*
X40642Y17527D02*
X40642Y18077D01*
X40833Y18077D01*
X40880Y18051D01*
X40904Y18025D01*
X40928Y17972D01*
X40928Y17894D01*
X40904Y17841D01*
X40880Y17815D01*
X40833Y17789D01*
X40642Y17789D01*
X41404Y17527D02*
X41119Y17527D01*
X41261Y17527D02*
X41261Y18077D01*
X41214Y17998D01*
X41166Y17946D01*
X41119Y17920D01*
X41857Y18077D02*
X41619Y18077D01*
X41595Y17815D01*
X41619Y17841D01*
X41666Y17867D01*
X41785Y17867D01*
X41833Y17841D01*
X41857Y17815D01*
X41880Y17763D01*
X41880Y17632D01*
X41857Y17579D01*
X41833Y17553D01*
X41785Y17527D01*
X41666Y17527D01*
X41619Y17553D01*
X41595Y17579D01*
X40928Y18777D02*
X40761Y19039D01*
X40642Y18777D02*
X40642Y19327D01*
X40833Y19327D01*
X40880Y19301D01*
X40904Y19275D01*
X40928Y19222D01*
X40928Y19144D01*
X40904Y19091D01*
X40880Y19065D01*
X40833Y19039D01*
X40642Y19039D01*
X41404Y18777D02*
X41119Y18777D01*
X41261Y18777D02*
X41261Y19327D01*
X41214Y19248D01*
X41166Y19196D01*
X41119Y19170D01*
X41833Y19144D02*
X41833Y18777D01*
X41714Y19353D02*
X41595Y18960D01*
X41904Y18960D01*
X51222Y16678D02*
X50960Y16511D01*
X51222Y16392D02*
X50672Y16392D01*
X50672Y16583D01*
X50698Y16630D01*
X50725Y16654D01*
X50777Y16678D01*
X50855Y16678D01*
X50908Y16654D01*
X50934Y16630D01*
X50960Y16583D01*
X50960Y16392D01*
X51222Y17154D02*
X51222Y16869D01*
X51222Y17011D02*
X50672Y17011D01*
X50751Y16964D01*
X50803Y16916D01*
X50829Y16869D01*
X50672Y17321D02*
X50672Y17630D01*
X50882Y17464D01*
X50882Y17535D01*
X50908Y17583D01*
X50934Y17607D01*
X50986Y17630D01*
X51117Y17630D01*
X51170Y17607D01*
X51196Y17583D01*
X51222Y17535D01*
X51222Y17392D01*
X51196Y17345D01*
X51170Y17321D01*
X49972Y16678D02*
X49710Y16511D01*
X49972Y16392D02*
X49422Y16392D01*
X49422Y16583D01*
X49448Y16630D01*
X49475Y16654D01*
X49527Y16678D01*
X49605Y16678D01*
X49658Y16654D01*
X49684Y16630D01*
X49710Y16583D01*
X49710Y16392D01*
X49972Y17154D02*
X49972Y16869D01*
X49972Y17011D02*
X49422Y17011D01*
X49501Y16964D01*
X49553Y16916D01*
X49579Y16869D01*
X49475Y17345D02*
X49448Y17369D01*
X49422Y17416D01*
X49422Y17535D01*
X49448Y17583D01*
X49475Y17607D01*
X49527Y17630D01*
X49579Y17630D01*
X49658Y17607D01*
X49972Y17321D01*
X49972Y17630D01*
X47472Y16678D02*
X47210Y16511D01*
X47472Y16392D02*
X46922Y16392D01*
X46922Y16583D01*
X46948Y16630D01*
X46975Y16654D01*
X47027Y16678D01*
X47105Y16678D01*
X47158Y16654D01*
X47184Y16630D01*
X47210Y16583D01*
X47210Y16392D01*
X47472Y17154D02*
X47472Y16869D01*
X47472Y17011D02*
X46922Y17011D01*
X47001Y16964D01*
X47053Y16916D01*
X47079Y16869D01*
X47472Y17630D02*
X47472Y17345D01*
X47472Y17488D02*
X46922Y17488D01*
X47001Y17440D01*
X47053Y17392D01*
X47079Y17345D01*
X44972Y16678D02*
X44710Y16511D01*
X44972Y16392D02*
X44422Y16392D01*
X44422Y16583D01*
X44448Y16630D01*
X44475Y16654D01*
X44527Y16678D01*
X44605Y16678D01*
X44658Y16654D01*
X44684Y16630D01*
X44710Y16583D01*
X44710Y16392D01*
X44972Y17154D02*
X44972Y16869D01*
X44972Y17011D02*
X44422Y17011D01*
X44501Y16964D01*
X44553Y16916D01*
X44579Y16869D01*
X44422Y17464D02*
X44422Y17511D01*
X44448Y17559D01*
X44475Y17583D01*
X44527Y17607D01*
X44632Y17630D01*
X44763Y17630D01*
X44867Y17607D01*
X44920Y17583D01*
X44946Y17559D01*
X44972Y17511D01*
X44972Y17464D01*
X44946Y17416D01*
X44920Y17392D01*
X44867Y17369D01*
X44763Y17345D01*
X44632Y17345D01*
X44527Y17369D01*
X44475Y17392D01*
X44448Y17416D01*
X44422Y17464D01*
X48722Y16916D02*
X48460Y16750D01*
X48722Y16630D02*
X48172Y16630D01*
X48172Y16821D01*
X48198Y16869D01*
X48225Y16892D01*
X48277Y16916D01*
X48355Y16916D01*
X48408Y16892D01*
X48434Y16869D01*
X48460Y16821D01*
X48460Y16630D01*
X48722Y17154D02*
X48722Y17250D01*
X48696Y17297D01*
X48670Y17321D01*
X48591Y17369D01*
X48486Y17392D01*
X48277Y17392D01*
X48225Y17369D01*
X48198Y17345D01*
X48172Y17297D01*
X48172Y17202D01*
X48198Y17154D01*
X48225Y17130D01*
X48277Y17107D01*
X48408Y17107D01*
X48460Y17130D01*
X48486Y17154D01*
X48513Y17202D01*
X48513Y17297D01*
X48486Y17345D01*
X48460Y17369D01*
X48408Y17392D01*
X52472Y16916D02*
X52210Y16750D01*
X52472Y16630D02*
X51922Y16630D01*
X51922Y16821D01*
X51948Y16869D01*
X51975Y16892D01*
X52027Y16916D01*
X52105Y16916D01*
X52158Y16892D01*
X52184Y16869D01*
X52210Y16821D01*
X52210Y16630D01*
X52158Y17202D02*
X52132Y17154D01*
X52105Y17130D01*
X52053Y17107D01*
X52027Y17107D01*
X51975Y17130D01*
X51948Y17154D01*
X51922Y17202D01*
X51922Y17297D01*
X51948Y17345D01*
X51975Y17369D01*
X52027Y17392D01*
X52053Y17392D01*
X52105Y17369D01*
X52132Y17345D01*
X52158Y17297D01*
X52158Y17202D01*
X52184Y17154D01*
X52210Y17130D01*
X52263Y17107D01*
X52367Y17107D01*
X52420Y17130D01*
X52446Y17154D01*
X52472Y17202D01*
X52472Y17297D01*
X52446Y17345D01*
X52420Y17369D01*
X52367Y17392D01*
X52263Y17392D01*
X52210Y17369D01*
X52184Y17345D01*
X52158Y17297D01*
X67222Y25228D02*
X66960Y25061D01*
X67222Y24942D02*
X66672Y24942D01*
X66672Y25133D01*
X66698Y25180D01*
X66725Y25204D01*
X66777Y25228D01*
X66855Y25228D01*
X66908Y25204D01*
X66934Y25180D01*
X66960Y25133D01*
X66960Y24942D01*
X66672Y25395D02*
X66672Y25704D01*
X66882Y25538D01*
X66882Y25609D01*
X66908Y25657D01*
X66934Y25680D01*
X66986Y25704D01*
X67117Y25704D01*
X67170Y25680D01*
X67196Y25657D01*
X67222Y25609D01*
X67222Y25466D01*
X67196Y25419D01*
X67170Y25395D01*
X66672Y26014D02*
X66672Y26061D01*
X66698Y26109D01*
X66725Y26133D01*
X66777Y26157D01*
X66882Y26180D01*
X67013Y26180D01*
X67117Y26157D01*
X67170Y26133D01*
X67196Y26109D01*
X67222Y26061D01*
X67222Y26014D01*
X67196Y25966D01*
X67170Y25942D01*
X67117Y25919D01*
X67013Y25895D01*
X66882Y25895D01*
X66777Y25919D01*
X66725Y25942D01*
X66698Y25966D01*
X66672Y26014D01*
X66222Y15178D02*
X65960Y15011D01*
X66222Y14892D02*
X65672Y14892D01*
X65672Y15083D01*
X65698Y15130D01*
X65725Y15154D01*
X65777Y15178D01*
X65855Y15178D01*
X65908Y15154D01*
X65934Y15130D01*
X65960Y15083D01*
X65960Y14892D01*
X65725Y15369D02*
X65698Y15392D01*
X65672Y15440D01*
X65672Y15559D01*
X65698Y15607D01*
X65725Y15630D01*
X65777Y15654D01*
X65829Y15654D01*
X65908Y15630D01*
X66222Y15345D01*
X66222Y15654D01*
X66222Y15892D02*
X66222Y15988D01*
X66196Y16035D01*
X66170Y16059D01*
X66091Y16107D01*
X65986Y16130D01*
X65777Y16130D01*
X65725Y16107D01*
X65698Y16083D01*
X65672Y16035D01*
X65672Y15940D01*
X65698Y15892D01*
X65725Y15869D01*
X65777Y15845D01*
X65908Y15845D01*
X65960Y15869D01*
X65986Y15892D01*
X66013Y15940D01*
X66013Y16035D01*
X65986Y16083D01*
X65960Y16107D01*
X65908Y16130D01*
X62472Y15416D02*
X62210Y15250D01*
X62472Y15130D02*
X61922Y15130D01*
X61922Y15321D01*
X61948Y15369D01*
X61975Y15392D01*
X62027Y15416D01*
X62105Y15416D01*
X62158Y15392D01*
X62184Y15369D01*
X62210Y15321D01*
X62210Y15130D01*
X62105Y15845D02*
X62472Y15845D01*
X61896Y15726D02*
X62289Y15607D01*
X62289Y15916D01*
X65178Y8527D02*
X65011Y8789D01*
X64892Y8527D02*
X64892Y9077D01*
X65083Y9077D01*
X65130Y9051D01*
X65154Y9025D01*
X65178Y8972D01*
X65178Y8894D01*
X65154Y8841D01*
X65130Y8815D01*
X65083Y8789D01*
X64892Y8789D01*
X65345Y9077D02*
X65654Y9077D01*
X65488Y8867D01*
X65559Y8867D01*
X65607Y8841D01*
X65630Y8815D01*
X65654Y8763D01*
X65654Y8632D01*
X65630Y8579D01*
X65607Y8553D01*
X65559Y8527D01*
X65416Y8527D01*
X65369Y8553D01*
X65345Y8579D01*
X65821Y9077D02*
X66130Y9077D01*
X65964Y8867D01*
X66035Y8867D01*
X66083Y8841D01*
X66107Y8815D01*
X66130Y8763D01*
X66130Y8632D01*
X66107Y8579D01*
X66083Y8553D01*
X66035Y8527D01*
X65892Y8527D01*
X65845Y8553D01*
X65821Y8579D01*
X65178Y7277D02*
X65011Y7539D01*
X64892Y7277D02*
X64892Y7827D01*
X65083Y7827D01*
X65130Y7801D01*
X65154Y7775D01*
X65178Y7722D01*
X65178Y7644D01*
X65154Y7591D01*
X65130Y7565D01*
X65083Y7539D01*
X64892Y7539D01*
X65345Y7827D02*
X65654Y7827D01*
X65488Y7617D01*
X65559Y7617D01*
X65607Y7591D01*
X65630Y7565D01*
X65654Y7513D01*
X65654Y7382D01*
X65630Y7329D01*
X65607Y7303D01*
X65559Y7277D01*
X65416Y7277D01*
X65369Y7303D01*
X65345Y7329D01*
X65845Y7775D02*
X65869Y7801D01*
X65916Y7827D01*
X66035Y7827D01*
X66083Y7801D01*
X66107Y7775D01*
X66130Y7722D01*
X66130Y7670D01*
X66107Y7591D01*
X65821Y7277D01*
X66130Y7277D01*
X31666Y21027D02*
X31500Y21289D01*
X31380Y21027D02*
X31380Y21577D01*
X31571Y21577D01*
X31619Y21551D01*
X31642Y21525D01*
X31666Y21472D01*
X31666Y21394D01*
X31642Y21341D01*
X31619Y21315D01*
X31571Y21289D01*
X31380Y21289D01*
X32119Y21577D02*
X31880Y21577D01*
X31857Y21315D01*
X31880Y21341D01*
X31928Y21367D01*
X32047Y21367D01*
X32095Y21341D01*
X32119Y21315D01*
X32142Y21263D01*
X32142Y21132D01*
X32119Y21079D01*
X32095Y21053D01*
X32047Y21027D01*
X31928Y21027D01*
X31880Y21053D01*
X31857Y21079D01*
X63722Y15178D02*
X63460Y15011D01*
X63722Y14892D02*
X63172Y14892D01*
X63172Y15083D01*
X63198Y15130D01*
X63225Y15154D01*
X63277Y15178D01*
X63355Y15178D01*
X63408Y15154D01*
X63434Y15130D01*
X63460Y15083D01*
X63460Y14892D01*
X63172Y15345D02*
X63172Y15654D01*
X63382Y15488D01*
X63382Y15559D01*
X63408Y15607D01*
X63434Y15630D01*
X63486Y15654D01*
X63617Y15654D01*
X63670Y15630D01*
X63696Y15607D01*
X63722Y15559D01*
X63722Y15416D01*
X63696Y15369D01*
X63670Y15345D01*
X63722Y16130D02*
X63722Y15845D01*
X63722Y15988D02*
X63172Y15988D01*
X63251Y15940D01*
X63303Y15892D01*
X63329Y15845D01*
X36722Y17916D02*
X36460Y17750D01*
X36722Y17630D02*
X36172Y17630D01*
X36172Y17821D01*
X36198Y17869D01*
X36225Y17892D01*
X36277Y17916D01*
X36355Y17916D01*
X36408Y17892D01*
X36434Y17869D01*
X36460Y17821D01*
X36460Y17630D01*
X36172Y18345D02*
X36172Y18250D01*
X36198Y18202D01*
X36225Y18178D01*
X36303Y18130D01*
X36408Y18107D01*
X36617Y18107D01*
X36670Y18130D01*
X36696Y18154D01*
X36722Y18202D01*
X36722Y18297D01*
X36696Y18345D01*
X36670Y18369D01*
X36617Y18392D01*
X36486Y18392D01*
X36434Y18369D01*
X36408Y18345D01*
X36382Y18297D01*
X36382Y18202D01*
X36408Y18154D01*
X36434Y18130D01*
X36486Y18107D01*
X64972Y15178D02*
X64710Y15011D01*
X64972Y14892D02*
X64422Y14892D01*
X64422Y15083D01*
X64448Y15130D01*
X64475Y15154D01*
X64527Y15178D01*
X64605Y15178D01*
X64658Y15154D01*
X64684Y15130D01*
X64710Y15083D01*
X64710Y14892D01*
X64422Y15345D02*
X64422Y15654D01*
X64632Y15488D01*
X64632Y15559D01*
X64658Y15607D01*
X64684Y15630D01*
X64736Y15654D01*
X64867Y15654D01*
X64920Y15630D01*
X64946Y15607D01*
X64972Y15559D01*
X64972Y15416D01*
X64946Y15369D01*
X64920Y15345D01*
X64605Y16083D02*
X64972Y16083D01*
X64396Y15964D02*
X64789Y15845D01*
X64789Y16154D01*
G54D12*
X5850Y26771D02*
X5650Y26771D01*
X5650Y26457D02*
X5650Y27057D01*
X5935Y27057D01*
X6478Y26457D02*
X6135Y26457D01*
X6307Y26457D02*
X6307Y27057D01*
X6250Y26971D01*
X6192Y26914D01*
X6135Y26885D01*
G54D19*
X53860Y15666D02*
X53860Y16366D01*
X54332Y15733D02*
X54310Y15700D01*
X54246Y15666D01*
X54203Y15666D01*
X54139Y15700D01*
X54096Y15766D01*
X54075Y15833D01*
X54053Y15966D01*
X54053Y16066D01*
X54075Y16200D01*
X54096Y16266D01*
X54139Y16333D01*
X54203Y16366D01*
X54246Y16366D01*
X54310Y16333D01*
X54332Y16300D01*
X54482Y16366D02*
X54760Y16366D01*
X54610Y16100D01*
X54675Y16100D01*
X54717Y16066D01*
X54739Y16033D01*
X54760Y15966D01*
X54760Y15800D01*
X54739Y15733D01*
X54717Y15700D01*
X54675Y15666D01*
X54546Y15666D01*
X54503Y15700D01*
X54482Y15733D01*
G54D12*
G54D20*
X55066Y11466D02*
X55066Y12166D01*
X55200Y11666D01*
X55333Y12166D01*
X55333Y11466D01*
X55752Y11533D02*
X55733Y11500D01*
X55676Y11466D01*
X55638Y11466D01*
X55580Y11500D01*
X55542Y11566D01*
X55523Y11633D01*
X55504Y11766D01*
X55504Y11866D01*
X55523Y12000D01*
X55542Y12066D01*
X55580Y12133D01*
X55638Y12166D01*
X55676Y12166D01*
X55733Y12133D01*
X55752Y12100D01*
X55923Y11466D02*
X55923Y12166D01*
X56076Y12166D01*
X56114Y12133D01*
X56133Y12100D01*
X56152Y12033D01*
X56152Y11933D01*
X56133Y11866D01*
X56114Y11833D01*
X56076Y11800D01*
X55923Y11800D01*
X56495Y11933D02*
X56495Y11466D01*
X56400Y12200D02*
X56304Y11700D01*
X56552Y11700D01*
X56723Y11466D02*
X56800Y11466D01*
X56838Y11500D01*
X56857Y11533D01*
X56895Y11633D01*
X56914Y11766D01*
X56914Y12033D01*
X56895Y12100D01*
X56876Y12133D01*
X56838Y12166D01*
X56761Y12166D01*
X56723Y12133D01*
X56704Y12100D01*
X56685Y12033D01*
X56685Y11866D01*
X56704Y11800D01*
X56723Y11766D01*
X56761Y11733D01*
X56838Y11733D01*
X56876Y11766D01*
X56895Y11800D01*
X56914Y11866D01*
X57066Y12100D02*
X57085Y12133D01*
X57123Y12166D01*
X57219Y12166D01*
X57257Y12133D01*
X57276Y12100D01*
X57295Y12033D01*
X57295Y11966D01*
X57276Y11866D01*
X57047Y11466D01*
X57295Y11466D01*
X57676Y11466D02*
X57447Y11466D01*
X57561Y11466D02*
X57561Y12166D01*
X57523Y12066D01*
X57485Y12000D01*
X57447Y11966D01*
X57847Y11733D02*
X58152Y11733D01*
X58342Y11833D02*
X58476Y11833D01*
X58533Y11466D02*
X58342Y11466D01*
X58342Y12166D01*
X58533Y12166D01*
X58990Y12200D02*
X58647Y11300D01*
X59123Y11466D02*
X59123Y12166D01*
X59276Y12166D01*
X59314Y12133D01*
X59333Y12100D01*
X59352Y12033D01*
X59352Y11933D01*
X59333Y11866D01*
X59314Y11833D01*
X59276Y11800D01*
X59123Y11800D01*
G54D12*
G54D19*
X68310Y20416D02*
X68310Y21116D01*
X68782Y20483D02*
X68760Y20450D01*
X68696Y20416D01*
X68653Y20416D01*
X68589Y20450D01*
X68546Y20516D01*
X68525Y20583D01*
X68503Y20716D01*
X68503Y20816D01*
X68525Y20950D01*
X68546Y21016D01*
X68589Y21083D01*
X68653Y21116D01*
X68696Y21116D01*
X68760Y21083D01*
X68782Y21050D01*
X68953Y21050D02*
X68975Y21083D01*
X69017Y21116D01*
X69125Y21116D01*
X69167Y21083D01*
X69189Y21050D01*
X69210Y20983D01*
X69210Y20916D01*
X69189Y20816D01*
X68932Y20416D01*
X69210Y20416D01*
G54D12*
G54D20*
X66552Y18466D02*
X66780Y18466D01*
X66666Y17766D02*
X66666Y18466D01*
X66914Y17766D02*
X66914Y18466D01*
X67009Y18466D01*
X67066Y18433D01*
X67104Y18366D01*
X67123Y18300D01*
X67142Y18166D01*
X67142Y18066D01*
X67123Y17933D01*
X67104Y17866D01*
X67066Y17800D01*
X67009Y17766D01*
X66914Y17766D01*
X67295Y17966D02*
X67485Y17966D01*
X67257Y17766D02*
X67390Y18466D01*
X67523Y17766D01*
X67619Y18466D02*
X67885Y18466D01*
X67714Y17766D01*
X68019Y18400D02*
X68038Y18433D01*
X68076Y18466D01*
X68171Y18466D01*
X68209Y18433D01*
X68228Y18400D01*
X68247Y18333D01*
X68247Y18266D01*
X68228Y18166D01*
X68000Y17766D01*
X68247Y17766D01*
X68380Y18466D02*
X68628Y18466D01*
X68495Y18200D01*
X68552Y18200D01*
X68590Y18166D01*
X68609Y18133D01*
X68628Y18066D01*
X68628Y17900D01*
X68609Y17833D01*
X68590Y17800D01*
X68552Y17766D01*
X68438Y17766D01*
X68400Y17800D01*
X68380Y17833D01*
X68761Y18466D02*
X69009Y18466D01*
X68876Y18200D01*
X68933Y18200D01*
X68971Y18166D01*
X68990Y18133D01*
X69009Y18066D01*
X69009Y17900D01*
X68990Y17833D01*
X68971Y17800D01*
X68933Y17766D01*
X68819Y17766D01*
X68780Y17800D01*
X68761Y17833D01*
G54D12*
G54D19*
X19310Y11216D02*
X19310Y11916D01*
X19782Y11283D02*
X19760Y11250D01*
X19696Y11216D01*
X19653Y11216D01*
X19589Y11250D01*
X19546Y11316D01*
X19525Y11383D01*
X19503Y11516D01*
X19503Y11616D01*
X19525Y11750D01*
X19546Y11816D01*
X19589Y11883D01*
X19653Y11916D01*
X19696Y11916D01*
X19760Y11883D01*
X19782Y11850D01*
X20210Y11216D02*
X19953Y11216D01*
X20082Y11216D02*
X20082Y11916D01*
X20039Y11816D01*
X19996Y11750D01*
X19953Y11716D01*
G54D12*
X21800Y15716D02*
X22133Y15716D01*
X21733Y15516D02*
X21966Y16216D01*
X22200Y15516D01*
X22333Y16216D02*
X22733Y16216D01*
X22533Y15516D02*
X22533Y16216D01*
X22966Y15516D02*
X22966Y16216D01*
X23200Y15716D01*
X23433Y16216D01*
X23433Y15516D01*
X23766Y15883D02*
X24000Y15883D01*
X24100Y15516D02*
X23766Y15516D01*
X23766Y16216D01*
X24100Y16216D01*
X24766Y16183D02*
X24700Y16216D01*
X24600Y16216D01*
X24500Y16183D01*
X24433Y16116D01*
X24400Y16050D01*
X24366Y15916D01*
X24366Y15816D01*
X24400Y15683D01*
X24433Y15616D01*
X24500Y15550D01*
X24600Y15516D01*
X24666Y15516D01*
X24766Y15550D01*
X24800Y15583D01*
X24800Y15816D01*
X24666Y15816D01*
X25066Y15716D02*
X25400Y15716D01*
X25000Y15516D02*
X25233Y16216D01*
X25466Y15516D01*
X25633Y16216D02*
X26066Y16216D01*
X25833Y15950D01*
X25933Y15950D01*
X26000Y15916D01*
X26033Y15883D01*
X26066Y15816D01*
X26066Y15650D01*
X26033Y15583D01*
X26000Y15550D01*
X25933Y15516D01*
X25733Y15516D01*
X25666Y15550D01*
X25633Y15583D01*
X26333Y16150D02*
X26366Y16183D01*
X26433Y16216D01*
X26600Y16216D01*
X26666Y16183D01*
X26700Y16150D01*
X26733Y16083D01*
X26733Y16016D01*
X26700Y15916D01*
X26300Y15516D01*
X26733Y15516D01*
X27033Y15783D02*
X27566Y15783D01*
X27900Y15516D02*
X27900Y16216D01*
X28166Y16216D01*
X28233Y16183D01*
X28266Y16150D01*
X28300Y16083D01*
X28300Y15983D01*
X28266Y15916D01*
X28233Y15883D01*
X28166Y15850D01*
X27900Y15850D01*
G54D20*
X16992Y23954D02*
X16392Y23954D01*
X16392Y24050D01*
X16421Y24107D01*
X16478Y24145D01*
X16535Y24164D01*
X16650Y24183D01*
X16735Y24183D01*
X16850Y24164D01*
X16907Y24145D01*
X16964Y24107D01*
X16992Y24050D01*
X16992Y23954D01*
X16392Y24316D02*
X16392Y24564D01*
X16621Y24430D01*
X16621Y24488D01*
X16650Y24526D01*
X16678Y24545D01*
X16735Y24564D01*
X16878Y24564D01*
X16935Y24545D01*
X16964Y24526D01*
X16992Y24488D01*
X16992Y24373D01*
X16964Y24335D01*
X16935Y24316D01*
G54D12*
G54D20*
X15492Y23954D02*
X14892Y23954D01*
X14892Y24050D01*
X14921Y24107D01*
X14978Y24145D01*
X15035Y24164D01*
X15150Y24183D01*
X15235Y24183D01*
X15350Y24164D01*
X15407Y24145D01*
X15464Y24107D01*
X15492Y24050D01*
X15492Y23954D01*
X14950Y24335D02*
X14921Y24354D01*
X14892Y24392D01*
X14892Y24488D01*
X14921Y24526D01*
X14950Y24545D01*
X15007Y24564D01*
X15064Y24564D01*
X15150Y24545D01*
X15492Y24316D01*
X15492Y24564D01*
G54D12*
G54D20*
X12492Y23954D02*
X11892Y23954D01*
X11892Y24050D01*
X11921Y24107D01*
X11978Y24145D01*
X12035Y24164D01*
X12150Y24183D01*
X12235Y24183D01*
X12350Y24164D01*
X12407Y24145D01*
X12464Y24107D01*
X12492Y24050D01*
X12492Y23954D01*
X12492Y24564D02*
X12492Y24335D01*
X12492Y24450D02*
X11892Y24450D01*
X11978Y24411D01*
X12035Y24373D01*
X12064Y24335D01*
G54D12*
G54D20*
X13992Y23954D02*
X13392Y23954D01*
X13392Y24050D01*
X13421Y24107D01*
X13478Y24145D01*
X13535Y24164D01*
X13650Y24183D01*
X13735Y24183D01*
X13850Y24164D01*
X13907Y24145D01*
X13964Y24107D01*
X13992Y24050D01*
X13992Y23954D01*
X13592Y24526D02*
X13992Y24526D01*
X13364Y24430D02*
X13792Y24335D01*
X13792Y24583D01*
G54D12*
G54D20*
X58904Y20428D02*
X58928Y20404D01*
X58952Y20333D01*
X58952Y20285D01*
X58928Y20214D01*
X58880Y20166D01*
X58833Y20142D01*
X58738Y20119D01*
X58666Y20119D01*
X58571Y20142D01*
X58523Y20166D01*
X58476Y20214D01*
X58452Y20285D01*
X58452Y20333D01*
X58476Y20404D01*
X58500Y20428D01*
X58952Y20904D02*
X58952Y20619D01*
X58952Y20761D02*
X58452Y20761D01*
X58523Y20714D01*
X58571Y20666D01*
X58595Y20619D01*
X58452Y21214D02*
X58452Y21261D01*
X58476Y21309D01*
X58500Y21333D01*
X58547Y21357D01*
X58642Y21380D01*
X58761Y21380D01*
X58857Y21357D01*
X58904Y21333D01*
X58928Y21309D01*
X58952Y21261D01*
X58952Y21214D01*
X58928Y21166D01*
X58904Y21142D01*
X58857Y21119D01*
X58761Y21095D01*
X58642Y21095D01*
X58547Y21119D01*
X58500Y21142D01*
X58476Y21166D01*
X58452Y21214D01*
X60952Y20190D02*
X60952Y19904D01*
X60952Y20047D02*
X60452Y20047D01*
X60523Y20000D01*
X60571Y19952D01*
X60595Y19904D01*
X60452Y20500D02*
X60452Y20547D01*
X60476Y20595D01*
X60500Y20619D01*
X60547Y20642D01*
X60642Y20666D01*
X60761Y20666D01*
X60857Y20642D01*
X60904Y20619D01*
X60928Y20595D01*
X60952Y20547D01*
X60952Y20500D01*
X60928Y20452D01*
X60904Y20428D01*
X60857Y20404D01*
X60761Y20380D01*
X60642Y20380D01*
X60547Y20404D01*
X60500Y20428D01*
X60476Y20452D01*
X60452Y20500D01*
X60452Y20976D02*
X60452Y21023D01*
X60476Y21071D01*
X60500Y21095D01*
X60547Y21119D01*
X60642Y21142D01*
X60761Y21142D01*
X60857Y21119D01*
X60904Y21095D01*
X60928Y21071D01*
X60952Y21023D01*
X60952Y20976D01*
X60928Y20928D01*
X60904Y20904D01*
X60857Y20880D01*
X60761Y20857D01*
X60642Y20857D01*
X60547Y20880D01*
X60500Y20904D01*
X60476Y20928D01*
X60452Y20976D01*
X60619Y21571D02*
X60952Y21571D01*
X60619Y21357D02*
X60880Y21357D01*
X60928Y21380D01*
X60952Y21428D01*
X60952Y21500D01*
X60928Y21547D01*
X60904Y21571D01*
X71178Y17845D02*
X71154Y17821D01*
X71083Y17797D01*
X71035Y17797D01*
X70964Y17821D01*
X70916Y17869D01*
X70892Y17916D01*
X70869Y18011D01*
X70869Y18083D01*
X70892Y18178D01*
X70916Y18226D01*
X70964Y18273D01*
X71035Y18297D01*
X71083Y18297D01*
X71154Y18273D01*
X71178Y18250D01*
X71654Y17797D02*
X71369Y17797D01*
X71511Y17797D02*
X71511Y18297D01*
X71464Y18226D01*
X71416Y18178D01*
X71369Y18154D01*
X72130Y17797D02*
X71845Y17797D01*
X71988Y17797D02*
X71988Y18297D01*
X71940Y18226D01*
X71892Y18178D01*
X71845Y18154D01*
X70892Y20130D02*
X70892Y19797D01*
X70773Y20321D02*
X70654Y19964D01*
X70964Y19964D01*
X71107Y20297D02*
X71440Y20297D01*
X71226Y19797D01*
X71726Y20297D02*
X71773Y20297D01*
X71821Y20273D01*
X71845Y20250D01*
X71869Y20202D01*
X71892Y20107D01*
X71892Y19988D01*
X71869Y19892D01*
X71845Y19845D01*
X71821Y19821D01*
X71773Y19797D01*
X71726Y19797D01*
X71678Y19821D01*
X71654Y19845D01*
X71630Y19892D01*
X71607Y19988D01*
X71607Y20107D01*
X71630Y20202D01*
X71654Y20250D01*
X71678Y20273D01*
X71726Y20297D01*
X72321Y20130D02*
X72321Y19797D01*
X72107Y20130D02*
X72107Y19869D01*
X72130Y19821D01*
X72178Y19797D01*
X72250Y19797D01*
X72297Y19821D01*
X72321Y19845D01*
X60904Y25666D02*
X60928Y25642D01*
X60952Y25571D01*
X60952Y25523D01*
X60928Y25452D01*
X60880Y25404D01*
X60833Y25380D01*
X60738Y25357D01*
X60666Y25357D01*
X60571Y25380D01*
X60523Y25404D01*
X60476Y25452D01*
X60452Y25523D01*
X60452Y25571D01*
X60476Y25642D01*
X60500Y25666D01*
X60666Y25952D02*
X60642Y25904D01*
X60619Y25880D01*
X60571Y25857D01*
X60547Y25857D01*
X60500Y25880D01*
X60476Y25904D01*
X60452Y25952D01*
X60452Y26047D01*
X60476Y26095D01*
X60500Y26119D01*
X60547Y26142D01*
X60571Y26142D01*
X60619Y26119D01*
X60642Y26095D01*
X60666Y26047D01*
X60666Y25952D01*
X60690Y25904D01*
X60714Y25880D01*
X60761Y25857D01*
X60857Y25857D01*
X60904Y25880D01*
X60928Y25904D01*
X60952Y25952D01*
X60952Y26047D01*
X60928Y26095D01*
X60904Y26119D01*
X60857Y26142D01*
X60761Y26142D01*
X60714Y26119D01*
X60690Y26095D01*
X60666Y26047D01*
X58500Y24904D02*
X58476Y24928D01*
X58452Y24976D01*
X58452Y25095D01*
X58476Y25142D01*
X58500Y25166D01*
X58547Y25190D01*
X58595Y25190D01*
X58666Y25166D01*
X58952Y24880D01*
X58952Y25190D01*
X58500Y25380D02*
X58476Y25404D01*
X58452Y25452D01*
X58452Y25571D01*
X58476Y25619D01*
X58500Y25642D01*
X58547Y25666D01*
X58595Y25666D01*
X58666Y25642D01*
X58952Y25357D01*
X58952Y25666D01*
X58452Y25976D02*
X58452Y26023D01*
X58476Y26071D01*
X58500Y26095D01*
X58547Y26119D01*
X58642Y26142D01*
X58761Y26142D01*
X58857Y26119D01*
X58904Y26095D01*
X58928Y26071D01*
X58952Y26023D01*
X58952Y25976D01*
X58928Y25928D01*
X58904Y25904D01*
X58857Y25880D01*
X58761Y25857D01*
X58642Y25857D01*
X58547Y25880D01*
X58500Y25904D01*
X58476Y25928D01*
X58452Y25976D01*
X58619Y26571D02*
X58952Y26571D01*
X58619Y26357D02*
X58880Y26357D01*
X58928Y26380D01*
X58952Y26428D01*
X58952Y26500D01*
X58928Y26547D01*
X58904Y26571D01*
G54D16*
X66123Y10992D02*
X66142Y10973D01*
X66161Y10916D01*
X66161Y10878D01*
X66142Y10821D01*
X66104Y10783D01*
X66066Y10764D01*
X65990Y10745D01*
X65933Y10745D01*
X65857Y10764D01*
X65819Y10783D01*
X65780Y10821D01*
X65761Y10878D01*
X65761Y10916D01*
X65780Y10973D01*
X65800Y10992D01*
X66161Y11373D02*
X66161Y11145D01*
X66161Y11259D02*
X65761Y11259D01*
X65819Y11221D01*
X65857Y11183D01*
X65876Y11145D01*
X65761Y11716D02*
X65761Y11640D01*
X65780Y11602D01*
X65800Y11583D01*
X65857Y11545D01*
X65933Y11526D01*
X66085Y11526D01*
X66123Y11545D01*
X66142Y11564D01*
X66161Y11602D01*
X66161Y11678D01*
X66142Y11716D01*
X66123Y11735D01*
X66085Y11754D01*
X65990Y11754D01*
X65952Y11735D01*
X65933Y11716D01*
X65914Y11678D01*
X65914Y11602D01*
X65933Y11564D01*
X65952Y11545D01*
X65990Y11526D01*
X63123Y20683D02*
X63142Y20664D01*
X63161Y20607D01*
X63161Y20569D01*
X63142Y20511D01*
X63104Y20473D01*
X63066Y20454D01*
X62990Y20435D01*
X62933Y20435D01*
X62857Y20454D01*
X62819Y20473D01*
X62780Y20511D01*
X62761Y20569D01*
X62761Y20607D01*
X62780Y20664D01*
X62800Y20683D01*
X62761Y20816D02*
X62761Y21083D01*
X63161Y20911D01*
X68373Y25242D02*
X68392Y25223D01*
X68411Y25166D01*
X68411Y25128D01*
X68392Y25071D01*
X68354Y25033D01*
X68316Y25014D01*
X68240Y24995D01*
X68183Y24995D01*
X68107Y25014D01*
X68069Y25033D01*
X68030Y25071D01*
X68011Y25128D01*
X68011Y25166D01*
X68030Y25223D01*
X68050Y25242D01*
X68411Y25623D02*
X68411Y25395D01*
X68411Y25509D02*
X68011Y25509D01*
X68069Y25471D01*
X68107Y25433D01*
X68126Y25395D01*
X68050Y25776D02*
X68030Y25795D01*
X68011Y25833D01*
X68011Y25928D01*
X68030Y25966D01*
X68050Y25985D01*
X68088Y26004D01*
X68126Y26004D01*
X68183Y25985D01*
X68411Y25757D01*
X68411Y26004D01*
X67373Y14492D02*
X67392Y14473D01*
X67411Y14416D01*
X67411Y14378D01*
X67392Y14321D01*
X67354Y14283D01*
X67316Y14264D01*
X67240Y14245D01*
X67183Y14245D01*
X67107Y14264D01*
X67069Y14283D01*
X67030Y14321D01*
X67011Y14378D01*
X67011Y14416D01*
X67030Y14473D01*
X67050Y14492D01*
X67411Y14873D02*
X67411Y14645D01*
X67411Y14759D02*
X67011Y14759D01*
X67069Y14721D01*
X67107Y14683D01*
X67126Y14645D01*
X67183Y15102D02*
X67164Y15064D01*
X67145Y15045D01*
X67107Y15026D01*
X67088Y15026D01*
X67050Y15045D01*
X67030Y15064D01*
X67011Y15102D01*
X67011Y15178D01*
X67030Y15216D01*
X67050Y15235D01*
X67088Y15254D01*
X67107Y15254D01*
X67145Y15235D01*
X67164Y15216D01*
X67183Y15178D01*
X67183Y15102D01*
X67202Y15064D01*
X67221Y15045D01*
X67259Y15026D01*
X67335Y15026D01*
X67373Y15045D01*
X67392Y15064D01*
X67411Y15102D01*
X67411Y15178D01*
X67392Y15216D01*
X67373Y15235D01*
X67335Y15254D01*
X67259Y15254D01*
X67221Y15235D01*
X67202Y15216D01*
X67183Y15178D01*
X67373Y10992D02*
X67392Y10973D01*
X67411Y10916D01*
X67411Y10878D01*
X67392Y10821D01*
X67354Y10783D01*
X67316Y10764D01*
X67240Y10745D01*
X67183Y10745D01*
X67107Y10764D01*
X67069Y10783D01*
X67030Y10821D01*
X67011Y10878D01*
X67011Y10916D01*
X67030Y10973D01*
X67050Y10992D01*
X67411Y11373D02*
X67411Y11145D01*
X67411Y11259D02*
X67011Y11259D01*
X67069Y11221D01*
X67107Y11183D01*
X67126Y11145D01*
X67011Y11507D02*
X67011Y11773D01*
X67411Y11602D01*
X39223Y5833D02*
X39242Y5814D01*
X39261Y5757D01*
X39261Y5719D01*
X39242Y5661D01*
X39204Y5623D01*
X39166Y5604D01*
X39090Y5585D01*
X39033Y5585D01*
X38957Y5604D01*
X38919Y5623D01*
X38880Y5661D01*
X38861Y5719D01*
X38861Y5757D01*
X38880Y5814D01*
X38900Y5833D01*
X38900Y5985D02*
X38880Y6004D01*
X38861Y6042D01*
X38861Y6138D01*
X38880Y6176D01*
X38900Y6195D01*
X38938Y6214D01*
X38976Y6214D01*
X39033Y6195D01*
X39261Y5966D01*
X39261Y6214D01*
X31823Y5733D02*
X31842Y5714D01*
X31861Y5657D01*
X31861Y5619D01*
X31842Y5561D01*
X31804Y5523D01*
X31766Y5504D01*
X31690Y5485D01*
X31633Y5485D01*
X31557Y5504D01*
X31519Y5523D01*
X31480Y5561D01*
X31461Y5619D01*
X31461Y5657D01*
X31480Y5714D01*
X31500Y5733D01*
X31861Y6114D02*
X31861Y5885D01*
X31861Y6000D02*
X31461Y6000D01*
X31519Y5961D01*
X31557Y5923D01*
X31576Y5885D01*
X30423Y5733D02*
X30442Y5714D01*
X30461Y5657D01*
X30461Y5619D01*
X30442Y5561D01*
X30404Y5523D01*
X30366Y5504D01*
X30290Y5485D01*
X30233Y5485D01*
X30157Y5504D01*
X30119Y5523D01*
X30080Y5561D01*
X30061Y5619D01*
X30061Y5657D01*
X30080Y5714D01*
X30100Y5733D01*
X30195Y6076D02*
X30461Y6076D01*
X30042Y5980D02*
X30328Y5885D01*
X30328Y6133D01*
X29933Y16126D02*
X29914Y16107D01*
X29857Y16088D01*
X29819Y16088D01*
X29761Y16107D01*
X29723Y16145D01*
X29704Y16183D01*
X29685Y16259D01*
X29685Y16316D01*
X29704Y16392D01*
X29723Y16430D01*
X29761Y16469D01*
X29819Y16488D01*
X29857Y16488D01*
X29914Y16469D01*
X29933Y16450D01*
X30066Y16488D02*
X30314Y16488D01*
X30180Y16335D01*
X30238Y16335D01*
X30276Y16316D01*
X30295Y16297D01*
X30314Y16259D01*
X30314Y16164D01*
X30295Y16126D01*
X30276Y16107D01*
X30238Y16088D01*
X30123Y16088D01*
X30085Y16107D01*
X30066Y16126D01*
G54D14*
X56300Y9407D02*
X56285Y9392D01*
X56242Y9378D01*
X56214Y9378D01*
X56171Y9392D01*
X56142Y9421D01*
X56128Y9450D01*
X56114Y9507D01*
X56114Y9550D01*
X56128Y9607D01*
X56142Y9635D01*
X56171Y9664D01*
X56214Y9678D01*
X56242Y9678D01*
X56285Y9664D01*
X56300Y9650D01*
X56571Y9678D02*
X56428Y9678D01*
X56414Y9535D01*
X56428Y9550D01*
X56457Y9564D01*
X56528Y9564D01*
X56557Y9550D01*
X56571Y9535D01*
X56585Y9507D01*
X56585Y9435D01*
X56571Y9407D01*
X56557Y9392D01*
X56528Y9378D01*
X56457Y9378D01*
X56428Y9392D01*
X56414Y9407D01*
X57239Y10578D02*
X57096Y10578D01*
X57167Y10578D02*
X57167Y10878D01*
X57144Y10835D01*
X57120Y10807D01*
X57096Y10792D01*
X57394Y10878D02*
X57417Y10878D01*
X57441Y10864D01*
X57453Y10850D01*
X57465Y10821D01*
X57477Y10764D01*
X57477Y10692D01*
X57465Y10635D01*
X57453Y10607D01*
X57441Y10592D01*
X57417Y10578D01*
X57394Y10578D01*
X57370Y10592D01*
X57358Y10607D01*
X57346Y10635D01*
X57334Y10692D01*
X57334Y10764D01*
X57346Y10821D01*
X57358Y10850D01*
X57370Y10864D01*
X57394Y10878D01*
X57691Y10778D02*
X57691Y10578D01*
X57584Y10778D02*
X57584Y10621D01*
X57596Y10592D01*
X57620Y10578D01*
X57655Y10578D01*
X57679Y10592D01*
X57691Y10607D01*
G54D21*
X58307Y10085D02*
X58307Y10314D01*
X58421Y10200D02*
X58192Y10200D01*
G54D16*
G54D14*
X55042Y7250D02*
X55057Y7235D01*
X55071Y7192D01*
X55071Y7164D01*
X55057Y7121D01*
X55028Y7092D01*
X55000Y7078D01*
X54942Y7064D01*
X54900Y7064D01*
X54842Y7078D01*
X54814Y7092D01*
X54785Y7121D01*
X54771Y7164D01*
X54771Y7192D01*
X54785Y7235D01*
X54800Y7250D01*
X54771Y7507D02*
X54771Y7450D01*
X54785Y7421D01*
X54800Y7407D01*
X54842Y7378D01*
X54900Y7364D01*
X55014Y7364D01*
X55042Y7378D01*
X55057Y7392D01*
X55071Y7421D01*
X55071Y7478D01*
X55057Y7507D01*
X55042Y7521D01*
X55014Y7535D01*
X54942Y7535D01*
X54914Y7521D01*
X54900Y7507D01*
X54885Y7478D01*
X54885Y7421D01*
X54900Y7392D01*
X54914Y7378D01*
X54942Y7364D01*
X56721Y7739D02*
X56721Y7596D01*
X56721Y7667D02*
X56421Y7667D01*
X56464Y7644D01*
X56492Y7620D01*
X56507Y7596D01*
X56421Y7894D02*
X56421Y7917D01*
X56435Y7941D01*
X56450Y7953D01*
X56478Y7965D01*
X56535Y7977D01*
X56607Y7977D01*
X56664Y7965D01*
X56692Y7953D01*
X56707Y7941D01*
X56721Y7917D01*
X56721Y7894D01*
X56707Y7870D01*
X56692Y7858D01*
X56664Y7846D01*
X56607Y7834D01*
X56535Y7834D01*
X56478Y7846D01*
X56450Y7858D01*
X56435Y7870D01*
X56421Y7894D01*
X56521Y8191D02*
X56721Y8191D01*
X56521Y8084D02*
X56678Y8084D01*
X56707Y8096D01*
X56721Y8120D01*
X56721Y8155D01*
X56707Y8179D01*
X56692Y8191D01*
G54D21*
X56107Y6885D02*
X56107Y7114D01*
X56221Y7000D02*
X55992Y7000D01*
G54D16*
G54D14*
X45592Y23057D02*
X45607Y23042D01*
X45621Y23000D01*
X45621Y22971D01*
X45607Y22928D01*
X45578Y22900D01*
X45550Y22885D01*
X45492Y22871D01*
X45450Y22871D01*
X45392Y22885D01*
X45364Y22900D01*
X45335Y22928D01*
X45321Y22971D01*
X45321Y23000D01*
X45335Y23042D01*
X45350Y23057D01*
X45621Y23342D02*
X45621Y23171D01*
X45621Y23257D02*
X45321Y23257D01*
X45364Y23228D01*
X45392Y23200D01*
X45407Y23171D01*
X45421Y23600D02*
X45621Y23600D01*
X45307Y23528D02*
X45521Y23457D01*
X45521Y23642D01*
X46621Y23089D02*
X46621Y22946D01*
X46621Y23017D02*
X46321Y23017D01*
X46364Y22994D01*
X46392Y22970D01*
X46407Y22946D01*
X46321Y23244D02*
X46321Y23267D01*
X46335Y23291D01*
X46350Y23303D01*
X46378Y23315D01*
X46435Y23327D01*
X46507Y23327D01*
X46564Y23315D01*
X46592Y23303D01*
X46607Y23291D01*
X46621Y23267D01*
X46621Y23244D01*
X46607Y23220D01*
X46592Y23208D01*
X46564Y23196D01*
X46507Y23184D01*
X46435Y23184D01*
X46378Y23196D01*
X46350Y23208D01*
X46335Y23220D01*
X46321Y23244D01*
X46421Y23541D02*
X46621Y23541D01*
X46421Y23434D02*
X46578Y23434D01*
X46607Y23446D01*
X46621Y23470D01*
X46621Y23505D01*
X46607Y23529D01*
X46592Y23541D01*
G54D21*
X46007Y22235D02*
X46007Y22464D01*
X46121Y22350D02*
X45892Y22350D01*
G54D16*
G54D14*
X46591Y25307D02*
X46606Y25292D01*
X46620Y25250D01*
X46620Y25221D01*
X46606Y25178D01*
X46577Y25150D01*
X46549Y25135D01*
X46491Y25121D01*
X46449Y25121D01*
X46391Y25135D01*
X46363Y25150D01*
X46334Y25178D01*
X46320Y25221D01*
X46320Y25250D01*
X46334Y25292D01*
X46349Y25307D01*
X46620Y25592D02*
X46620Y25421D01*
X46620Y25507D02*
X46320Y25507D01*
X46363Y25478D01*
X46391Y25450D01*
X46406Y25421D01*
X46620Y25735D02*
X46620Y25792D01*
X46606Y25821D01*
X46591Y25835D01*
X46549Y25864D01*
X46491Y25878D01*
X46377Y25878D01*
X46349Y25864D01*
X46334Y25850D01*
X46320Y25821D01*
X46320Y25764D01*
X46334Y25735D01*
X46349Y25721D01*
X46377Y25707D01*
X46449Y25707D01*
X46477Y25721D01*
X46491Y25735D01*
X46506Y25764D01*
X46506Y25821D01*
X46491Y25850D01*
X46477Y25864D01*
X46449Y25878D01*
X45621Y25339D02*
X45621Y25196D01*
X45621Y25267D02*
X45321Y25267D01*
X45364Y25244D01*
X45392Y25220D01*
X45407Y25196D01*
X45321Y25494D02*
X45321Y25517D01*
X45335Y25541D01*
X45350Y25553D01*
X45378Y25565D01*
X45435Y25577D01*
X45507Y25577D01*
X45564Y25565D01*
X45592Y25553D01*
X45607Y25541D01*
X45621Y25517D01*
X45621Y25494D01*
X45607Y25470D01*
X45592Y25458D01*
X45564Y25446D01*
X45507Y25434D01*
X45435Y25434D01*
X45378Y25446D01*
X45350Y25458D01*
X45335Y25470D01*
X45321Y25494D01*
X45421Y25791D02*
X45621Y25791D01*
X45421Y25684D02*
X45578Y25684D01*
X45607Y25696D01*
X45621Y25720D01*
X45621Y25755D01*
X45607Y25779D01*
X45592Y25791D01*
G54D21*
X46007Y26285D02*
X46007Y26514D01*
X46121Y26400D02*
X45892Y26400D01*
G54D16*
X60873Y15242D02*
X60892Y15223D01*
X60911Y15166D01*
X60911Y15128D01*
X60892Y15071D01*
X60854Y15033D01*
X60816Y15014D01*
X60740Y14995D01*
X60683Y14995D01*
X60607Y15014D01*
X60569Y15033D01*
X60530Y15071D01*
X60511Y15128D01*
X60511Y15166D01*
X60530Y15223D01*
X60550Y15242D01*
X60911Y15623D02*
X60911Y15395D01*
X60911Y15509D02*
X60511Y15509D01*
X60569Y15471D01*
X60607Y15433D01*
X60626Y15395D01*
X60511Y15985D02*
X60511Y15795D01*
X60702Y15776D01*
X60683Y15795D01*
X60664Y15833D01*
X60664Y15928D01*
X60683Y15966D01*
X60702Y15985D01*
X60740Y16004D01*
X60835Y16004D01*
X60873Y15985D01*
X60892Y15966D01*
X60911Y15928D01*
X60911Y15833D01*
X60892Y15795D01*
X60873Y15776D01*
G54D12*
X70142Y6757D02*
X69942Y7042D01*
X69800Y6757D02*
X69800Y7357D01*
X70028Y7357D01*
X70085Y7328D01*
X70114Y7300D01*
X70142Y7242D01*
X70142Y7157D01*
X70114Y7100D01*
X70085Y7071D01*
X70028Y7042D01*
X69800Y7042D01*
X70314Y7357D02*
X70514Y6757D01*
X70714Y7357D01*
X70885Y7300D02*
X70914Y7328D01*
X70971Y7357D01*
X71114Y7357D01*
X71171Y7328D01*
X71200Y7300D01*
X71228Y7242D01*
X71228Y7185D01*
X71200Y7100D01*
X70857Y6757D01*
X71228Y6757D01*
X78242Y11757D02*
X77900Y11757D01*
X78071Y11757D02*
X78071Y12357D01*
X78014Y12271D01*
X77957Y12214D01*
X77900Y12185D01*
X78614Y12357D02*
X78671Y12357D01*
X78728Y12328D01*
X78757Y12300D01*
X78785Y12242D01*
X78814Y12128D01*
X78814Y11985D01*
X78785Y11871D01*
X78757Y11814D01*
X78728Y11785D01*
X78671Y11757D01*
X78614Y11757D01*
X78557Y11785D01*
X78528Y11814D01*
X78500Y11871D01*
X78471Y11985D01*
X78471Y12128D01*
X78500Y12242D01*
X78528Y12300D01*
X78557Y12328D01*
X78614Y12357D01*
X79185Y12357D02*
X79242Y12357D01*
X79300Y12328D01*
X79328Y12300D01*
X79357Y12242D01*
X79385Y12128D01*
X79385Y11985D01*
X79357Y11871D01*
X79328Y11814D01*
X79300Y11785D01*
X79242Y11757D01*
X79185Y11757D01*
X79128Y11785D01*
X79100Y11814D01*
X79071Y11871D01*
X79042Y11985D01*
X79042Y12128D01*
X79071Y12242D01*
X79100Y12300D01*
X79128Y12328D01*
X79185Y12357D01*
X79642Y11757D02*
X79642Y12357D01*
X79700Y11985D02*
X79871Y11757D01*
X79871Y12157D02*
X79642Y11928D01*
X80557Y12385D02*
X80042Y11614D01*
X81071Y12328D02*
X81014Y12357D01*
X80928Y12357D01*
X80842Y12328D01*
X80785Y12271D01*
X80757Y12214D01*
X80728Y12100D01*
X80728Y12014D01*
X80757Y11900D01*
X80785Y11842D01*
X80842Y11785D01*
X80928Y11757D01*
X80985Y11757D01*
X81071Y11785D01*
X81100Y11814D01*
X81100Y12014D01*
X80985Y12014D01*
G54D16*
X65873Y25433D02*
X65892Y25414D01*
X65911Y25357D01*
X65911Y25319D01*
X65892Y25261D01*
X65854Y25223D01*
X65816Y25204D01*
X65740Y25185D01*
X65683Y25185D01*
X65607Y25204D01*
X65569Y25223D01*
X65530Y25261D01*
X65511Y25319D01*
X65511Y25357D01*
X65530Y25414D01*
X65550Y25433D01*
X65911Y25623D02*
X65911Y25700D01*
X65892Y25738D01*
X65873Y25757D01*
X65816Y25795D01*
X65740Y25814D01*
X65588Y25814D01*
X65550Y25795D01*
X65530Y25776D01*
X65511Y25738D01*
X65511Y25661D01*
X65530Y25623D01*
X65550Y25604D01*
X65588Y25585D01*
X65683Y25585D01*
X65721Y25604D01*
X65740Y25623D01*
X65759Y25661D01*
X65759Y25738D01*
X65740Y25776D01*
X65721Y25795D01*
X65683Y25814D01*
X58195Y6238D02*
X58195Y5914D01*
X58214Y5876D01*
X58233Y5857D01*
X58271Y5838D01*
X58347Y5838D01*
X58385Y5857D01*
X58404Y5876D01*
X58423Y5914D01*
X58423Y6238D01*
X58823Y5838D02*
X58595Y5838D01*
X58709Y5838D02*
X58709Y6238D01*
X58671Y6180D01*
X58633Y6142D01*
X58595Y6123D01*
X59571Y6588D02*
X59380Y6588D01*
X59380Y6988D01*
X59704Y6797D02*
X59838Y6797D01*
X59895Y6588D02*
X59704Y6588D01*
X59704Y6988D01*
X59895Y6988D01*
X60028Y6988D02*
X60276Y6988D01*
X60142Y6835D01*
X60200Y6835D01*
X60238Y6816D01*
X60257Y6797D01*
X60276Y6759D01*
X60276Y6664D01*
X60257Y6626D01*
X60238Y6607D01*
X60200Y6588D01*
X60085Y6588D01*
X60047Y6607D01*
X60028Y6626D01*
X60409Y6988D02*
X60657Y6988D01*
X60523Y6835D01*
X60580Y6835D01*
X60619Y6816D01*
X60638Y6797D01*
X60657Y6759D01*
X60657Y6664D01*
X60638Y6626D01*
X60619Y6607D01*
X60580Y6588D01*
X60466Y6588D01*
X60428Y6607D01*
X60409Y6626D01*
X61057Y6626D02*
X61038Y6607D01*
X60980Y6588D01*
X60942Y6588D01*
X60885Y6607D01*
X60847Y6645D01*
X60828Y6683D01*
X60809Y6759D01*
X60809Y6816D01*
X60828Y6892D01*
X60847Y6930D01*
X60885Y6969D01*
X60942Y6988D01*
X60980Y6988D01*
X61038Y6969D01*
X61057Y6950D01*
X61190Y6988D02*
X61457Y6988D01*
X61190Y6588D01*
X61457Y6588D01*
G54D15*
X34895Y5767D02*
X35228Y5317D01*
X35228Y5767D02*
X34895Y5317D01*
X35680Y5317D02*
X35395Y5317D01*
X35538Y5317D02*
X35538Y5767D01*
X35490Y5703D01*
X35442Y5660D01*
X35395Y5639D01*
X34454Y6317D02*
X34169Y6317D01*
X34311Y6317D02*
X34311Y6767D01*
X34264Y6703D01*
X34216Y6660D01*
X34169Y6639D01*
X34883Y6767D02*
X34788Y6767D01*
X34740Y6746D01*
X34716Y6725D01*
X34669Y6660D01*
X34645Y6575D01*
X34645Y6403D01*
X34669Y6360D01*
X34692Y6339D01*
X34740Y6317D01*
X34835Y6317D01*
X34883Y6339D01*
X34907Y6360D01*
X34930Y6403D01*
X34930Y6510D01*
X34907Y6553D01*
X34883Y6575D01*
X34835Y6596D01*
X34740Y6596D01*
X34692Y6575D01*
X34669Y6553D01*
X34645Y6510D01*
X35145Y6317D02*
X35145Y6767D01*
X35311Y6446D01*
X35478Y6767D01*
X35478Y6317D01*
X35716Y6317D02*
X35716Y6767D01*
X35716Y6553D02*
X36002Y6553D01*
X36002Y6317D02*
X36002Y6767D01*
X36192Y6617D02*
X36454Y6617D01*
X36192Y6317D01*
X36454Y6317D01*
G54D22*
X32653Y17905D02*
X32938Y17224D01*
X32938Y17905D02*
X32653Y17224D01*
X33081Y17840D02*
X33101Y17872D01*
X33142Y17905D01*
X33244Y17905D01*
X33285Y17872D01*
X33305Y17840D01*
X33326Y17775D01*
X33326Y17710D01*
X33305Y17613D01*
X33061Y17224D01*
X33326Y17224D01*
G54D12*
G54D16*
X37511Y23945D02*
X37835Y23945D01*
X37873Y23964D01*
X37892Y23983D01*
X37911Y24021D01*
X37911Y24097D01*
X37892Y24135D01*
X37873Y24154D01*
X37835Y24173D01*
X37511Y24173D01*
X37511Y24326D02*
X37511Y24573D01*
X37664Y24440D01*
X37664Y24497D01*
X37683Y24535D01*
X37702Y24554D01*
X37740Y24573D01*
X37835Y24573D01*
X37873Y24554D01*
X37892Y24535D01*
X37911Y24497D01*
X37911Y24383D01*
X37892Y24345D01*
X37873Y24326D01*
X38911Y23611D02*
X38911Y23421D01*
X38511Y23421D01*
X38511Y23707D02*
X38511Y23973D01*
X38911Y23802D01*
X38683Y24183D02*
X38664Y24145D01*
X38645Y24126D01*
X38607Y24107D01*
X38588Y24107D01*
X38550Y24126D01*
X38530Y24145D01*
X38511Y24183D01*
X38511Y24259D01*
X38530Y24297D01*
X38550Y24316D01*
X38588Y24335D01*
X38607Y24335D01*
X38645Y24316D01*
X38664Y24297D01*
X38683Y24259D01*
X38683Y24183D01*
X38702Y24145D01*
X38721Y24126D01*
X38759Y24107D01*
X38835Y24107D01*
X38873Y24126D01*
X38892Y24145D01*
X38911Y24183D01*
X38911Y24259D01*
X38892Y24297D01*
X38873Y24316D01*
X38835Y24335D01*
X38759Y24335D01*
X38721Y24316D01*
X38702Y24297D01*
X38683Y24259D01*
X38511Y24583D02*
X38511Y24621D01*
X38530Y24659D01*
X38550Y24678D01*
X38588Y24697D01*
X38664Y24716D01*
X38759Y24716D01*
X38835Y24697D01*
X38873Y24678D01*
X38892Y24659D01*
X38911Y24621D01*
X38911Y24583D01*
X38892Y24545D01*
X38873Y24526D01*
X38835Y24507D01*
X38759Y24488D01*
X38664Y24488D01*
X38588Y24507D01*
X38550Y24526D01*
X38530Y24545D01*
X38511Y24583D01*
X38511Y25078D02*
X38511Y24888D01*
X38702Y24869D01*
X38683Y24888D01*
X38664Y24926D01*
X38664Y25021D01*
X38683Y25059D01*
X38702Y25078D01*
X38740Y25097D01*
X38835Y25097D01*
X38873Y25078D01*
X38892Y25059D01*
X38911Y25021D01*
X38911Y24926D01*
X38892Y24888D01*
X38873Y24869D01*
G54D14*
X49092Y23057D02*
X49107Y23042D01*
X49121Y23000D01*
X49121Y22971D01*
X49107Y22928D01*
X49078Y22900D01*
X49050Y22885D01*
X48992Y22871D01*
X48950Y22871D01*
X48892Y22885D01*
X48864Y22900D01*
X48835Y22928D01*
X48821Y22971D01*
X48821Y23000D01*
X48835Y23042D01*
X48850Y23057D01*
X48850Y23171D02*
X48835Y23185D01*
X48821Y23214D01*
X48821Y23285D01*
X48835Y23314D01*
X48850Y23328D01*
X48878Y23342D01*
X48907Y23342D01*
X48950Y23328D01*
X49121Y23157D01*
X49121Y23342D01*
X48821Y23528D02*
X48821Y23557D01*
X48835Y23585D01*
X48850Y23600D01*
X48878Y23614D01*
X48935Y23628D01*
X49007Y23628D01*
X49064Y23614D01*
X49092Y23600D01*
X49107Y23585D01*
X49121Y23557D01*
X49121Y23528D01*
X49107Y23500D01*
X49092Y23485D01*
X49064Y23471D01*
X49007Y23457D01*
X48935Y23457D01*
X48878Y23471D01*
X48850Y23485D01*
X48835Y23500D01*
X48821Y23528D01*
X50371Y23089D02*
X50371Y22946D01*
X50371Y23017D02*
X50071Y23017D01*
X50114Y22994D01*
X50142Y22970D01*
X50157Y22946D01*
X50071Y23244D02*
X50071Y23267D01*
X50085Y23291D01*
X50100Y23303D01*
X50128Y23315D01*
X50185Y23327D01*
X50257Y23327D01*
X50314Y23315D01*
X50342Y23303D01*
X50357Y23291D01*
X50371Y23267D01*
X50371Y23244D01*
X50357Y23220D01*
X50342Y23208D01*
X50314Y23196D01*
X50257Y23184D01*
X50185Y23184D01*
X50128Y23196D01*
X50100Y23208D01*
X50085Y23220D01*
X50071Y23244D01*
X50171Y23541D02*
X50371Y23541D01*
X50171Y23434D02*
X50328Y23434D01*
X50357Y23446D01*
X50371Y23470D01*
X50371Y23505D01*
X50357Y23529D01*
X50342Y23541D01*
G54D21*
X49507Y22235D02*
X49507Y22464D01*
X49621Y22350D02*
X49392Y22350D01*
G54D16*
G54D14*
X50092Y25307D02*
X50107Y25292D01*
X50121Y25250D01*
X50121Y25221D01*
X50107Y25178D01*
X50078Y25150D01*
X50050Y25135D01*
X49992Y25121D01*
X49950Y25121D01*
X49892Y25135D01*
X49864Y25150D01*
X49835Y25178D01*
X49821Y25221D01*
X49821Y25250D01*
X49835Y25292D01*
X49850Y25307D01*
X49850Y25421D02*
X49835Y25435D01*
X49821Y25464D01*
X49821Y25535D01*
X49835Y25564D01*
X49850Y25578D01*
X49878Y25592D01*
X49907Y25592D01*
X49950Y25578D01*
X50121Y25407D01*
X50121Y25592D01*
X50121Y25878D02*
X50121Y25707D01*
X50121Y25792D02*
X49821Y25792D01*
X49864Y25764D01*
X49892Y25735D01*
X49907Y25707D01*
X49121Y25339D02*
X49121Y25196D01*
X49121Y25267D02*
X48821Y25267D01*
X48864Y25244D01*
X48892Y25220D01*
X48907Y25196D01*
X48821Y25494D02*
X48821Y25517D01*
X48835Y25541D01*
X48850Y25553D01*
X48878Y25565D01*
X48935Y25577D01*
X49007Y25577D01*
X49064Y25565D01*
X49092Y25553D01*
X49107Y25541D01*
X49121Y25517D01*
X49121Y25494D01*
X49107Y25470D01*
X49092Y25458D01*
X49064Y25446D01*
X49007Y25434D01*
X48935Y25434D01*
X48878Y25446D01*
X48850Y25458D01*
X48835Y25470D01*
X48821Y25494D01*
X48921Y25791D02*
X49121Y25791D01*
X48921Y25684D02*
X49078Y25684D01*
X49107Y25696D01*
X49121Y25720D01*
X49121Y25755D01*
X49107Y25779D01*
X49092Y25791D01*
G54D21*
X49507Y26285D02*
X49507Y26514D01*
X49621Y26400D02*
X49392Y26400D01*
G54D16*
X53461Y22795D02*
X53785Y22795D01*
X53823Y22814D01*
X53842Y22833D01*
X53861Y22871D01*
X53861Y22947D01*
X53842Y22985D01*
X53823Y23004D01*
X53785Y23023D01*
X53461Y23023D01*
X53500Y23195D02*
X53480Y23214D01*
X53461Y23252D01*
X53461Y23347D01*
X53480Y23385D01*
X53500Y23404D01*
X53538Y23423D01*
X53576Y23423D01*
X53633Y23404D01*
X53861Y23176D01*
X53861Y23423D01*
X53811Y24361D02*
X53811Y24171D01*
X53411Y24171D01*
X53411Y24457D02*
X53411Y24723D01*
X53811Y24552D01*
X53583Y24933D02*
X53564Y24895D01*
X53545Y24876D01*
X53507Y24857D01*
X53488Y24857D01*
X53450Y24876D01*
X53430Y24895D01*
X53411Y24933D01*
X53411Y25009D01*
X53430Y25047D01*
X53450Y25066D01*
X53488Y25085D01*
X53507Y25085D01*
X53545Y25066D01*
X53564Y25047D01*
X53583Y25009D01*
X53583Y24933D01*
X53602Y24895D01*
X53621Y24876D01*
X53659Y24857D01*
X53735Y24857D01*
X53773Y24876D01*
X53792Y24895D01*
X53811Y24933D01*
X53811Y25009D01*
X53792Y25047D01*
X53773Y25066D01*
X53735Y25085D01*
X53659Y25085D01*
X53621Y25066D01*
X53602Y25047D01*
X53583Y25009D01*
X53411Y25333D02*
X53411Y25371D01*
X53430Y25409D01*
X53450Y25428D01*
X53488Y25447D01*
X53564Y25466D01*
X53659Y25466D01*
X53735Y25447D01*
X53773Y25428D01*
X53792Y25409D01*
X53811Y25371D01*
X53811Y25333D01*
X53792Y25295D01*
X53773Y25276D01*
X53735Y25257D01*
X53659Y25238D01*
X53564Y25238D01*
X53488Y25257D01*
X53450Y25276D01*
X53430Y25295D01*
X53411Y25333D01*
X53811Y25657D02*
X53811Y25733D01*
X53792Y25771D01*
X53773Y25790D01*
X53716Y25828D01*
X53640Y25847D01*
X53488Y25847D01*
X53450Y25828D01*
X53430Y25809D01*
X53411Y25771D01*
X53411Y25695D01*
X53430Y25657D01*
X53450Y25638D01*
X53488Y25619D01*
X53583Y25619D01*
X53621Y25638D01*
X53640Y25657D01*
X53659Y25695D01*
X53659Y25771D01*
X53640Y25809D01*
X53621Y25828D01*
X53583Y25847D01*
G54D10*
X21871Y23746D02*
X21890Y23728D01*
X21909Y23671D01*
X21909Y23634D01*
X21890Y23578D01*
X21853Y23540D01*
X21815Y23521D01*
X21740Y23503D01*
X21684Y23503D01*
X21609Y23521D01*
X21571Y23540D01*
X21534Y23578D01*
X21515Y23634D01*
X21515Y23671D01*
X21534Y23728D01*
X21553Y23746D01*
X21909Y24121D02*
X21909Y23896D01*
X21909Y24009D02*
X21515Y24009D01*
X21571Y23971D01*
X21609Y23934D01*
X21628Y23896D01*
X21515Y24253D02*
X21515Y24496D01*
X21665Y24365D01*
X21665Y24421D01*
X21684Y24459D01*
X21703Y24478D01*
X21740Y24496D01*
X21834Y24496D01*
X21871Y24478D01*
X21890Y24459D01*
X21909Y24421D01*
X21909Y24309D01*
X21890Y24271D01*
X21871Y24253D01*
X18903Y22687D02*
X18884Y22706D01*
X18865Y22743D01*
X18865Y22837D01*
X18884Y22875D01*
X18903Y22893D01*
X18940Y22912D01*
X18978Y22912D01*
X19034Y22893D01*
X19259Y22668D01*
X19259Y22912D01*
X19259Y23081D02*
X18996Y23081D01*
X19034Y23081D02*
X19015Y23100D01*
X18996Y23137D01*
X18996Y23193D01*
X19015Y23231D01*
X19053Y23250D01*
X19259Y23250D01*
X19053Y23250D02*
X19015Y23268D01*
X18996Y23306D01*
X18996Y23362D01*
X19015Y23400D01*
X19053Y23418D01*
X19259Y23418D01*
X18903Y23587D02*
X18884Y23606D01*
X18865Y23643D01*
X18865Y23737D01*
X18884Y23775D01*
X18903Y23793D01*
X18940Y23812D01*
X18978Y23812D01*
X19034Y23793D01*
X19259Y23568D01*
X19259Y23812D01*
X18846Y24262D02*
X19353Y23925D01*
X18903Y24374D02*
X18884Y24393D01*
X18865Y24431D01*
X18865Y24524D01*
X18884Y24562D01*
X18903Y24581D01*
X18940Y24599D01*
X18978Y24599D01*
X19034Y24581D01*
X19259Y24356D01*
X19259Y24599D01*
X18865Y24956D02*
X18865Y24768D01*
X19053Y24749D01*
X19034Y24768D01*
X19015Y24806D01*
X19015Y24899D01*
X19034Y24937D01*
X19053Y24956D01*
X19090Y24974D01*
X19184Y24974D01*
X19221Y24956D01*
X19240Y24937D01*
X19259Y24899D01*
X19259Y24806D01*
X19240Y24768D01*
X19221Y24749D01*
X18865Y25087D02*
X19259Y25218D01*
X18865Y25349D01*
G54D16*
X17616Y3477D02*
X17450Y3739D01*
X17330Y3477D02*
X17330Y4027D01*
X17521Y4027D01*
X17569Y4001D01*
X17592Y3975D01*
X17616Y3922D01*
X17616Y3844D01*
X17592Y3791D01*
X17569Y3765D01*
X17521Y3739D01*
X17330Y3739D01*
X17783Y4027D02*
X18116Y4027D01*
X17902Y3477D01*
G54D15*
X29204Y24257D02*
X29204Y24857D01*
X29357Y24857D01*
X29395Y24828D01*
X29414Y24800D01*
X29433Y24742D01*
X29433Y24657D01*
X29414Y24600D01*
X29395Y24571D01*
X29357Y24542D01*
X29204Y24542D01*
X29814Y24257D02*
X29585Y24257D01*
X29700Y24257D02*
X29700Y24857D01*
X29661Y24771D01*
X29623Y24714D01*
X29585Y24685D01*
X26175Y24095D02*
X26158Y24071D01*
X26108Y24047D01*
X26075Y24047D01*
X26025Y24071D01*
X25991Y24119D01*
X25975Y24166D01*
X25958Y24261D01*
X25958Y24333D01*
X25975Y24428D01*
X25991Y24476D01*
X26025Y24523D01*
X26075Y24547D01*
X26108Y24547D01*
X26158Y24523D01*
X26175Y24500D01*
X26391Y24547D02*
X26458Y24547D01*
X26491Y24523D01*
X26525Y24476D01*
X26541Y24380D01*
X26541Y24214D01*
X26525Y24119D01*
X26491Y24071D01*
X26458Y24047D01*
X26391Y24047D01*
X26358Y24071D01*
X26325Y24119D01*
X26308Y24214D01*
X26308Y24380D01*
X26325Y24476D01*
X26358Y24523D01*
X26391Y24547D01*
X26691Y24047D02*
X26691Y24547D01*
X26891Y24047D01*
X26891Y24547D01*
X27058Y24047D02*
X27058Y24547D01*
X27258Y24047D01*
X27258Y24547D01*
X27341Y24000D02*
X27608Y24000D01*
X27658Y24547D02*
X27874Y24547D01*
X27758Y24357D01*
X27808Y24357D01*
X27841Y24333D01*
X27858Y24309D01*
X27874Y24261D01*
X27874Y24142D01*
X27858Y24095D01*
X27841Y24071D01*
X27808Y24047D01*
X27708Y24047D01*
X27674Y24071D01*
X27658Y24095D01*
X27991Y24547D02*
X28225Y24047D01*
X28225Y24547D02*
X27991Y24047D01*
X28341Y24500D02*
X28358Y24523D01*
X28391Y24547D01*
X28475Y24547D01*
X28508Y24523D01*
X28525Y24500D01*
X28541Y24452D01*
X28541Y24404D01*
X28525Y24333D01*
X28325Y24047D01*
X28541Y24047D01*
G54D12*
X8042Y21287D02*
X8385Y21287D01*
X8214Y20687D02*
X8214Y21287D01*
X8900Y20687D02*
X8557Y20687D01*
X8728Y20687D02*
X8728Y21287D01*
X8671Y21201D01*
X8614Y21144D01*
X8557Y21116D01*
X4448Y19506D02*
X4105Y19506D01*
X4277Y19506D02*
X4277Y20106D01*
X4220Y20020D01*
X4162Y19963D01*
X4105Y19934D01*
X4820Y20106D02*
X4877Y20106D01*
X4934Y20077D01*
X4962Y20049D01*
X4991Y19992D01*
X5020Y19877D01*
X5020Y19734D01*
X4991Y19620D01*
X4962Y19563D01*
X4934Y19534D01*
X4877Y19506D01*
X4820Y19506D01*
X4762Y19534D01*
X4734Y19563D01*
X4705Y19620D01*
X4677Y19734D01*
X4677Y19877D01*
X4705Y19992D01*
X4734Y20049D01*
X4762Y20077D01*
X4820Y20106D01*
X6417Y19506D02*
X6531Y19506D01*
X6588Y19534D01*
X6617Y19563D01*
X6674Y19649D01*
X6702Y19763D01*
X6702Y19992D01*
X6674Y20049D01*
X6645Y20077D01*
X6588Y20106D01*
X6474Y20106D01*
X6417Y20077D01*
X6388Y20049D01*
X6360Y19992D01*
X6360Y19849D01*
X6388Y19792D01*
X6417Y19763D01*
X6474Y19734D01*
X6588Y19734D01*
X6645Y19763D01*
X6674Y19792D01*
X6702Y19849D01*
X8442Y19849D02*
X8385Y19877D01*
X8357Y19906D01*
X8328Y19963D01*
X8328Y19992D01*
X8357Y20049D01*
X8385Y20077D01*
X8442Y20106D01*
X8557Y20106D01*
X8614Y20077D01*
X8642Y20049D01*
X8671Y19992D01*
X8671Y19963D01*
X8642Y19906D01*
X8614Y19877D01*
X8557Y19849D01*
X8442Y19849D01*
X8385Y19820D01*
X8357Y19792D01*
X8328Y19734D01*
X8328Y19620D01*
X8357Y19563D01*
X8385Y19534D01*
X8442Y19506D01*
X8557Y19506D01*
X8614Y19534D01*
X8642Y19563D01*
X8671Y19620D01*
X8671Y19734D01*
X8642Y19792D01*
X8614Y19820D01*
X8557Y19849D01*
X10268Y20106D02*
X10668Y20106D01*
X10411Y19506D01*
X12551Y20106D02*
X12437Y20106D01*
X12379Y20077D01*
X12351Y20049D01*
X12294Y19963D01*
X12265Y19849D01*
X12265Y19620D01*
X12294Y19563D01*
X12322Y19534D01*
X12379Y19506D01*
X12494Y19506D01*
X12551Y19534D01*
X12579Y19563D01*
X12608Y19620D01*
X12608Y19763D01*
X12579Y19820D01*
X12551Y19849D01*
X12494Y19877D01*
X12379Y19877D01*
X12322Y19849D01*
X12294Y19820D01*
X12265Y19763D01*
X12579Y7311D02*
X12294Y7311D01*
X12265Y7025D01*
X12294Y7053D01*
X12351Y7082D01*
X12494Y7082D01*
X12551Y7053D01*
X12579Y7025D01*
X12608Y6968D01*
X12608Y6825D01*
X12579Y6768D01*
X12551Y6739D01*
X12494Y6711D01*
X12351Y6711D01*
X12294Y6739D01*
X12265Y6768D01*
X10582Y7111D02*
X10582Y6711D01*
X10439Y7339D02*
X10297Y6911D01*
X10668Y6911D01*
X8103Y7311D02*
X8474Y7311D01*
X8274Y7082D01*
X8360Y7082D01*
X8417Y7053D01*
X8446Y7025D01*
X8474Y6968D01*
X8474Y6825D01*
X8446Y6768D01*
X8417Y6739D01*
X8360Y6711D01*
X8188Y6711D01*
X8131Y6739D01*
X8103Y6768D01*
X6360Y7253D02*
X6388Y7282D01*
X6445Y7311D01*
X6588Y7311D01*
X6645Y7282D01*
X6674Y7253D01*
X6702Y7196D01*
X6702Y7139D01*
X6674Y7053D01*
X6331Y6711D01*
X6702Y6711D01*
X4734Y6711D02*
X4391Y6711D01*
X4562Y6711D02*
X4562Y7311D01*
X4505Y7225D01*
X4448Y7168D01*
X4391Y7139D01*
G54D16*
X33214Y24438D02*
X33214Y24838D01*
X33366Y24838D01*
X33404Y24819D01*
X33423Y24800D01*
X33442Y24761D01*
X33442Y24704D01*
X33423Y24666D01*
X33404Y24647D01*
X33366Y24628D01*
X33214Y24628D01*
X33823Y24438D02*
X33595Y24438D01*
X33709Y24438D02*
X33709Y24838D01*
X33671Y24780D01*
X33633Y24742D01*
X33595Y24723D01*
X34071Y24838D02*
X34109Y24838D01*
X34147Y24819D01*
X34166Y24800D01*
X34185Y24761D01*
X34204Y24685D01*
X34204Y24590D01*
X34185Y24514D01*
X34166Y24476D01*
X34147Y24457D01*
X34109Y24438D01*
X34071Y24438D01*
X34033Y24457D01*
X34014Y24476D01*
X33995Y24514D01*
X33976Y24590D01*
X33976Y24685D01*
X33995Y24761D01*
X34014Y24800D01*
X34033Y24819D01*
X34071Y24838D01*
G54D23*
X69083Y22233D02*
X68383Y22233D01*
X68383Y22500D01*
X68416Y22566D01*
X68450Y22600D01*
X68516Y22633D01*
X68616Y22633D01*
X68683Y22600D01*
X68716Y22566D01*
X68750Y22500D01*
X68750Y22233D01*
X68383Y23233D02*
X68383Y23100D01*
X68416Y23033D01*
X68450Y23000D01*
X68550Y22933D01*
X68683Y22900D01*
X68950Y22900D01*
X69016Y22933D01*
X69050Y22966D01*
X69083Y23033D01*
X69083Y23166D01*
X69050Y23233D01*
X69016Y23266D01*
X68950Y23300D01*
X68783Y23300D01*
X68716Y23266D01*
X68683Y23233D01*
X68650Y23166D01*
X68650Y23033D01*
X68683Y22966D01*
X68716Y22933D01*
X68783Y22900D01*
X70266Y21183D02*
X70233Y21150D01*
X70133Y21116D01*
X70066Y21116D01*
X69966Y21150D01*
X69900Y21216D01*
X69866Y21283D01*
X69833Y21416D01*
X69833Y21516D01*
X69866Y21650D01*
X69900Y21716D01*
X69966Y21783D01*
X70066Y21816D01*
X70133Y21816D01*
X70233Y21783D01*
X70266Y21750D01*
X70700Y21816D02*
X70833Y21816D01*
X70900Y21783D01*
X70966Y21716D01*
X71000Y21583D01*
X71000Y21350D01*
X70966Y21216D01*
X70900Y21150D01*
X70833Y21116D01*
X70700Y21116D01*
X70633Y21150D01*
X70566Y21216D01*
X70533Y21350D01*
X70533Y21583D01*
X70566Y21716D01*
X70633Y21783D01*
X70700Y21816D01*
X71300Y21116D02*
X71300Y21816D01*
X71700Y21116D01*
X71700Y21816D01*
X72033Y21116D02*
X72033Y21816D01*
X72433Y21116D01*
X72433Y21816D01*
X72600Y21050D02*
X73133Y21050D01*
X73266Y21750D02*
X73300Y21783D01*
X73366Y21816D01*
X73533Y21816D01*
X73600Y21783D01*
X73633Y21750D01*
X73666Y21683D01*
X73666Y21616D01*
X73633Y21516D01*
X73233Y21116D01*
X73666Y21116D01*
X7433Y5516D02*
X7433Y6216D01*
X7700Y6216D01*
X7766Y6183D01*
X7800Y6150D01*
X7833Y6083D01*
X7833Y5983D01*
X7800Y5916D01*
X7766Y5883D01*
X7700Y5850D01*
X7433Y5850D01*
X8166Y5516D02*
X8300Y5516D01*
X8366Y5550D01*
X8400Y5583D01*
X8466Y5683D01*
X8500Y5816D01*
X8500Y6083D01*
X8466Y6150D01*
X8433Y6183D01*
X8366Y6216D01*
X8233Y6216D01*
X8166Y6183D01*
X8133Y6150D01*
X8100Y6083D01*
X8100Y5916D01*
X8133Y5850D01*
X8166Y5816D01*
X8233Y5783D01*
X8366Y5783D01*
X8433Y5816D01*
X8466Y5850D01*
X8500Y5916D01*
X13366Y1166D02*
X13400Y1133D01*
X13433Y1033D01*
X13433Y966D01*
X13400Y866D01*
X13333Y800D01*
X13266Y766D01*
X13133Y733D01*
X13033Y733D01*
X12900Y766D01*
X12833Y800D01*
X12766Y866D01*
X12733Y966D01*
X12733Y1033D01*
X12766Y1133D01*
X12800Y1166D01*
X12733Y1600D02*
X12733Y1733D01*
X12766Y1800D01*
X12833Y1866D01*
X12966Y1900D01*
X13200Y1900D01*
X13333Y1866D01*
X13400Y1800D01*
X13433Y1733D01*
X13433Y1600D01*
X13400Y1533D01*
X13333Y1466D01*
X13200Y1433D01*
X12966Y1433D01*
X12833Y1466D01*
X12766Y1533D01*
X12733Y1600D01*
X13433Y2200D02*
X12733Y2200D01*
X13433Y2600D01*
X12733Y2600D01*
X13433Y2933D02*
X12733Y2933D01*
X13433Y3333D01*
X12733Y3333D01*
X13500Y3500D02*
X13500Y4033D01*
X12800Y4166D02*
X12766Y4200D01*
X12733Y4266D01*
X12733Y4433D01*
X12766Y4500D01*
X12800Y4533D01*
X12866Y4566D01*
X12933Y4566D01*
X13033Y4533D01*
X13433Y4133D01*
X13433Y4566D01*
X1833Y5466D02*
X1833Y6166D01*
X2100Y6166D01*
X2166Y6133D01*
X2200Y6100D01*
X2233Y6033D01*
X2233Y5933D01*
X2200Y5866D01*
X2166Y5833D01*
X2100Y5800D01*
X1833Y5800D01*
X2633Y5866D02*
X2566Y5900D01*
X2533Y5933D01*
X2500Y6000D01*
X2500Y6033D01*
X2533Y6100D01*
X2566Y6133D01*
X2633Y6166D01*
X2766Y6166D01*
X2833Y6133D01*
X2866Y6100D01*
X2900Y6033D01*
X2900Y6000D01*
X2866Y5933D01*
X2833Y5900D01*
X2766Y5866D01*
X2633Y5866D01*
X2566Y5833D01*
X2533Y5800D01*
X2500Y5733D01*
X2500Y5600D01*
X2533Y5533D01*
X2566Y5500D01*
X2633Y5466D01*
X2766Y5466D01*
X2833Y5500D01*
X2866Y5533D01*
X2900Y5600D01*
X2900Y5733D01*
X2866Y5800D01*
X2833Y5833D01*
X2766Y5866D01*
X2566Y1066D02*
X2600Y1033D01*
X2633Y933D01*
X2633Y866D01*
X2600Y766D01*
X2533Y700D01*
X2466Y666D01*
X2333Y633D01*
X2233Y633D01*
X2100Y666D01*
X2033Y700D01*
X1966Y766D01*
X1933Y866D01*
X1933Y933D01*
X1966Y1033D01*
X2000Y1066D01*
X1933Y1500D02*
X1933Y1633D01*
X1966Y1700D01*
X2033Y1766D01*
X2166Y1800D01*
X2400Y1800D01*
X2533Y1766D01*
X2600Y1700D01*
X2633Y1633D01*
X2633Y1500D01*
X2600Y1433D01*
X2533Y1366D01*
X2400Y1333D01*
X2166Y1333D01*
X2033Y1366D01*
X1966Y1433D01*
X1933Y1500D01*
X2633Y2100D02*
X1933Y2100D01*
X2633Y2500D01*
X1933Y2500D01*
X2633Y2833D02*
X1933Y2833D01*
X2633Y3233D01*
X1933Y3233D01*
X2700Y3400D02*
X2700Y3933D01*
X2000Y4066D02*
X1966Y4100D01*
X1933Y4166D01*
X1933Y4333D01*
X1966Y4400D01*
X2000Y4433D01*
X2066Y4466D01*
X2133Y4466D01*
X2233Y4433D01*
X2633Y4033D01*
X2633Y4466D01*
G54D16*
X28122Y2778D02*
X27860Y2611D01*
X28122Y2492D02*
X27572Y2492D01*
X27572Y2683D01*
X27598Y2730D01*
X27625Y2754D01*
X27677Y2778D01*
X27755Y2778D01*
X27808Y2754D01*
X27834Y2730D01*
X27860Y2683D01*
X27860Y2492D01*
X28122Y3254D02*
X28122Y2969D01*
X28122Y3111D02*
X27572Y3111D01*
X27651Y3064D01*
X27703Y3016D01*
X27729Y2969D01*
X27572Y3421D02*
X27572Y3754D01*
X28122Y3540D01*
X29961Y1404D02*
X29561Y1404D01*
X29561Y1557D01*
X29580Y1595D01*
X29600Y1614D01*
X29638Y1633D01*
X29695Y1633D01*
X29733Y1614D01*
X29752Y1595D01*
X29771Y1557D01*
X29771Y1404D01*
X29600Y1785D02*
X29580Y1804D01*
X29561Y1842D01*
X29561Y1938D01*
X29580Y1976D01*
X29600Y1995D01*
X29638Y2014D01*
X29676Y2014D01*
X29733Y1995D01*
X29961Y1766D01*
X29961Y2014D01*
X42111Y1504D02*
X41711Y1504D01*
X41711Y1657D01*
X41730Y1695D01*
X41750Y1714D01*
X41788Y1733D01*
X41845Y1733D01*
X41883Y1714D01*
X41902Y1695D01*
X41921Y1657D01*
X41921Y1504D01*
X41845Y2076D02*
X42111Y2076D01*
X41692Y1980D02*
X41978Y1885D01*
X41978Y2133D01*
X57242Y17376D02*
X57223Y17357D01*
X57166Y17338D01*
X57128Y17338D01*
X57071Y17357D01*
X57033Y17395D01*
X57014Y17433D01*
X56995Y17509D01*
X56995Y17566D01*
X57014Y17642D01*
X57033Y17680D01*
X57071Y17719D01*
X57128Y17738D01*
X57166Y17738D01*
X57223Y17719D01*
X57242Y17700D01*
X57395Y17700D02*
X57414Y17719D01*
X57452Y17738D01*
X57547Y17738D01*
X57585Y17719D01*
X57604Y17700D01*
X57623Y17661D01*
X57623Y17623D01*
X57604Y17566D01*
X57376Y17338D01*
X57623Y17338D01*
X57776Y17700D02*
X57795Y17719D01*
X57833Y17738D01*
X57928Y17738D01*
X57966Y17719D01*
X57985Y17700D01*
X58004Y17661D01*
X58004Y17623D01*
X57985Y17566D01*
X57757Y17338D01*
X58004Y17338D01*
G54D12*
X48157Y6657D02*
X48157Y7257D01*
X48385Y7257D01*
X48442Y7228D01*
X48471Y7200D01*
X48500Y7142D01*
X48500Y7057D01*
X48471Y7000D01*
X48442Y6971D01*
X48385Y6942D01*
X48157Y6942D01*
X49042Y7257D02*
X48757Y7257D01*
X48728Y6971D01*
X48757Y7000D01*
X48814Y7028D01*
X48957Y7028D01*
X49014Y7000D01*
X49042Y6971D01*
X49071Y6914D01*
X49071Y6771D01*
X49042Y6714D01*
X49014Y6685D01*
X48957Y6657D01*
X48814Y6657D01*
X48757Y6685D01*
X48728Y6714D01*
X42464Y3871D02*
X42492Y3957D01*
X42492Y4100D01*
X42464Y4157D01*
X42435Y4185D01*
X42378Y4214D01*
X42321Y4214D01*
X42264Y4185D01*
X42235Y4157D01*
X42207Y4100D01*
X42178Y3985D01*
X42150Y3928D01*
X42121Y3900D01*
X42064Y3871D01*
X42007Y3871D01*
X41950Y3900D01*
X41921Y3928D01*
X41892Y3985D01*
X41892Y4128D01*
X41921Y4214D01*
X42492Y4471D02*
X41892Y4471D01*
X41892Y4614D01*
X41921Y4700D01*
X41978Y4757D01*
X42035Y4785D01*
X42150Y4814D01*
X42235Y4814D01*
X42350Y4785D01*
X42407Y4757D01*
X42464Y4700D01*
X42492Y4614D01*
X42492Y4471D01*
X42435Y5414D02*
X42464Y5385D01*
X42492Y5300D01*
X42492Y5242D01*
X42464Y5157D01*
X42407Y5100D01*
X42350Y5071D01*
X42235Y5042D01*
X42150Y5042D01*
X42035Y5071D01*
X41978Y5100D01*
X41921Y5157D01*
X41892Y5242D01*
X41892Y5300D01*
X41921Y5385D01*
X41950Y5414D01*
X42321Y5642D02*
X42321Y5928D01*
X42492Y5585D02*
X41892Y5785D01*
X42492Y5985D01*
X42492Y6528D02*
X42207Y6328D01*
X42492Y6185D02*
X41892Y6185D01*
X41892Y6414D01*
X41921Y6471D01*
X41950Y6500D01*
X42007Y6528D01*
X42092Y6528D01*
X42150Y6500D01*
X42178Y6471D01*
X42207Y6414D01*
X42207Y6185D01*
X42492Y6785D02*
X41892Y6785D01*
X41892Y6928D01*
X41921Y7014D01*
X41978Y7071D01*
X42035Y7100D01*
X42150Y7128D01*
X42235Y7128D01*
X42350Y7100D01*
X42407Y7071D01*
X42464Y7014D01*
X42492Y6928D01*
X42492Y6785D01*
G54D16*
X24361Y18016D02*
X24647Y18016D01*
X24704Y17997D01*
X24742Y17959D01*
X24761Y17902D01*
X24761Y17864D01*
X24761Y18207D02*
X24361Y18207D01*
X24361Y18359D01*
X24380Y18397D01*
X24400Y18416D01*
X24438Y18435D01*
X24495Y18435D01*
X24533Y18416D01*
X24552Y18397D01*
X24571Y18359D01*
X24571Y18207D01*
X24761Y18816D02*
X24761Y18588D01*
X24761Y18702D02*
X24361Y18702D01*
X24419Y18664D01*
X24457Y18626D01*
X24476Y18588D01*
G54D22*
X17184Y1824D02*
X17184Y2505D01*
X17347Y2505D01*
X17387Y2472D01*
X17408Y2440D01*
X17428Y2375D01*
X17428Y2278D01*
X17408Y2213D01*
X17387Y2181D01*
X17347Y2148D01*
X17184Y2148D01*
X17571Y2505D02*
X17856Y2505D01*
X17673Y1824D01*
G54D10*
X57175Y309D02*
X57231Y290D01*
X57325Y290D01*
X57362Y309D01*
X57381Y328D01*
X57400Y365D01*
X57400Y403D01*
X57381Y440D01*
X57362Y459D01*
X57325Y478D01*
X57250Y496D01*
X57212Y515D01*
X57193Y534D01*
X57175Y571D01*
X57175Y609D01*
X57193Y646D01*
X57212Y665D01*
X57250Y684D01*
X57343Y684D01*
X57400Y665D01*
X57531Y684D02*
X57625Y290D01*
X57700Y571D01*
X57774Y290D01*
X57868Y684D01*
X58224Y290D02*
X57999Y290D01*
X58112Y290D02*
X58112Y684D01*
X58074Y628D01*
X58037Y590D01*
X57999Y571D01*
X56415Y1859D02*
X56472Y1840D01*
X56565Y1840D01*
X56603Y1859D01*
X56622Y1878D01*
X56640Y1915D01*
X56640Y1953D01*
X56622Y1990D01*
X56603Y2009D01*
X56565Y2028D01*
X56490Y2046D01*
X56453Y2065D01*
X56434Y2084D01*
X56415Y2121D01*
X56415Y2159D01*
X56434Y2196D01*
X56453Y2215D01*
X56490Y2234D01*
X56584Y2234D01*
X56640Y2215D01*
X56771Y2234D02*
X56865Y1840D01*
X56940Y2121D01*
X57015Y1840D01*
X57109Y2234D01*
X57165Y1803D02*
X57465Y1803D01*
X57559Y1840D02*
X57559Y2234D01*
X57709Y2234D01*
X57746Y2215D01*
X57765Y2196D01*
X57784Y2159D01*
X57784Y2103D01*
X57765Y2065D01*
X57746Y2046D01*
X57709Y2028D01*
X57559Y2028D01*
X57953Y2234D02*
X57953Y1915D01*
X57971Y1878D01*
X57990Y1859D01*
X58028Y1840D01*
X58103Y1840D01*
X58140Y1859D01*
X58159Y1878D01*
X58178Y1915D01*
X58178Y2234D01*
X58346Y1859D02*
X58403Y1840D01*
X58496Y1840D01*
X58534Y1859D01*
X58553Y1878D01*
X58571Y1915D01*
X58571Y1953D01*
X58553Y1990D01*
X58534Y2009D01*
X58496Y2028D01*
X58421Y2046D01*
X58384Y2065D01*
X58365Y2084D01*
X58346Y2121D01*
X58346Y2159D01*
X58365Y2196D01*
X58384Y2215D01*
X58421Y2234D01*
X58515Y2234D01*
X58571Y2215D01*
X58740Y1840D02*
X58740Y2234D01*
X58740Y2046D02*
X58965Y2046D01*
X58965Y1840D02*
X58965Y2234D01*
X61775Y309D02*
X61831Y290D01*
X61925Y290D01*
X61962Y309D01*
X61981Y328D01*
X62000Y365D01*
X62000Y403D01*
X61981Y440D01*
X61962Y459D01*
X61925Y478D01*
X61850Y496D01*
X61812Y515D01*
X61793Y534D01*
X61775Y571D01*
X61775Y609D01*
X61793Y646D01*
X61812Y665D01*
X61850Y684D01*
X61943Y684D01*
X62000Y665D01*
X62131Y684D02*
X62225Y290D01*
X62300Y571D01*
X62374Y290D01*
X62468Y684D01*
X62599Y646D02*
X62618Y665D01*
X62656Y684D01*
X62749Y684D01*
X62787Y665D01*
X62806Y646D01*
X62824Y609D01*
X62824Y571D01*
X62806Y515D01*
X62581Y290D01*
X62824Y290D01*
X60915Y1909D02*
X60972Y1890D01*
X61065Y1890D01*
X61103Y1909D01*
X61122Y1928D01*
X61140Y1965D01*
X61140Y2003D01*
X61122Y2040D01*
X61103Y2059D01*
X61065Y2078D01*
X60990Y2096D01*
X60953Y2115D01*
X60934Y2134D01*
X60915Y2171D01*
X60915Y2209D01*
X60934Y2246D01*
X60953Y2265D01*
X60990Y2284D01*
X61084Y2284D01*
X61140Y2265D01*
X61271Y2284D02*
X61365Y1890D01*
X61440Y2171D01*
X61515Y1890D01*
X61609Y2284D01*
X61665Y1853D02*
X61965Y1853D01*
X62059Y1890D02*
X62059Y2284D01*
X62209Y2284D01*
X62246Y2265D01*
X62265Y2246D01*
X62284Y2209D01*
X62284Y2153D01*
X62265Y2115D01*
X62246Y2096D01*
X62209Y2078D01*
X62059Y2078D01*
X62453Y2284D02*
X62453Y1965D01*
X62471Y1928D01*
X62490Y1909D01*
X62528Y1890D01*
X62603Y1890D01*
X62640Y1909D01*
X62659Y1928D01*
X62678Y1965D01*
X62678Y2284D01*
X62846Y1909D02*
X62903Y1890D01*
X62996Y1890D01*
X63034Y1909D01*
X63053Y1928D01*
X63071Y1965D01*
X63071Y2003D01*
X63053Y2040D01*
X63034Y2059D01*
X62996Y2078D01*
X62921Y2096D01*
X62884Y2115D01*
X62865Y2134D01*
X62846Y2171D01*
X62846Y2209D01*
X62865Y2246D01*
X62884Y2265D01*
X62921Y2284D01*
X63015Y2284D01*
X63071Y2265D01*
X63240Y1890D02*
X63240Y2284D01*
X63240Y2096D02*
X63465Y2096D01*
X63465Y1890D02*
X63465Y2284D01*
X66375Y309D02*
X66431Y290D01*
X66525Y290D01*
X66562Y309D01*
X66581Y328D01*
X66600Y365D01*
X66600Y403D01*
X66581Y440D01*
X66562Y459D01*
X66525Y478D01*
X66450Y496D01*
X66412Y515D01*
X66393Y534D01*
X66375Y571D01*
X66375Y609D01*
X66393Y646D01*
X66412Y665D01*
X66450Y684D01*
X66543Y684D01*
X66600Y665D01*
X66731Y684D02*
X66825Y290D01*
X66900Y571D01*
X66974Y290D01*
X67068Y684D01*
X67181Y684D02*
X67424Y684D01*
X67293Y534D01*
X67349Y534D01*
X67387Y515D01*
X67406Y496D01*
X67424Y459D01*
X67424Y365D01*
X67406Y328D01*
X67387Y309D01*
X67349Y290D01*
X67237Y290D01*
X67199Y309D01*
X67181Y328D01*
X65615Y1859D02*
X65672Y1840D01*
X65765Y1840D01*
X65803Y1859D01*
X65822Y1878D01*
X65840Y1915D01*
X65840Y1953D01*
X65822Y1990D01*
X65803Y2009D01*
X65765Y2028D01*
X65690Y2046D01*
X65653Y2065D01*
X65634Y2084D01*
X65615Y2121D01*
X65615Y2159D01*
X65634Y2196D01*
X65653Y2215D01*
X65690Y2234D01*
X65784Y2234D01*
X65840Y2215D01*
X65971Y2234D02*
X66065Y1840D01*
X66140Y2121D01*
X66215Y1840D01*
X66309Y2234D01*
X66365Y1803D02*
X66665Y1803D01*
X66759Y1840D02*
X66759Y2234D01*
X66909Y2234D01*
X66946Y2215D01*
X66965Y2196D01*
X66984Y2159D01*
X66984Y2103D01*
X66965Y2065D01*
X66946Y2046D01*
X66909Y2028D01*
X66759Y2028D01*
X67153Y2234D02*
X67153Y1915D01*
X67171Y1878D01*
X67190Y1859D01*
X67228Y1840D01*
X67303Y1840D01*
X67340Y1859D01*
X67359Y1878D01*
X67378Y1915D01*
X67378Y2234D01*
X67546Y1859D02*
X67603Y1840D01*
X67696Y1840D01*
X67734Y1859D01*
X67753Y1878D01*
X67771Y1915D01*
X67771Y1953D01*
X67753Y1990D01*
X67734Y2009D01*
X67696Y2028D01*
X67621Y2046D01*
X67584Y2065D01*
X67565Y2084D01*
X67546Y2121D01*
X67546Y2159D01*
X67565Y2196D01*
X67584Y2215D01*
X67621Y2234D01*
X67715Y2234D01*
X67771Y2215D01*
X67940Y1840D02*
X67940Y2234D01*
X67940Y2046D02*
X68165Y2046D01*
X68165Y1840D02*
X68165Y2234D01*
X70975Y309D02*
X71031Y290D01*
X71125Y290D01*
X71162Y309D01*
X71181Y328D01*
X71200Y365D01*
X71200Y403D01*
X71181Y440D01*
X71162Y459D01*
X71125Y478D01*
X71050Y496D01*
X71012Y515D01*
X70993Y534D01*
X70975Y571D01*
X70975Y609D01*
X70993Y646D01*
X71012Y665D01*
X71050Y684D01*
X71143Y684D01*
X71200Y665D01*
X71331Y684D02*
X71425Y290D01*
X71500Y571D01*
X71574Y290D01*
X71668Y684D01*
X71987Y553D02*
X71987Y290D01*
X71893Y703D02*
X71799Y421D01*
X72043Y421D01*
X70215Y1859D02*
X70272Y1840D01*
X70365Y1840D01*
X70403Y1859D01*
X70422Y1878D01*
X70440Y1915D01*
X70440Y1953D01*
X70422Y1990D01*
X70403Y2009D01*
X70365Y2028D01*
X70290Y2046D01*
X70253Y2065D01*
X70234Y2084D01*
X70215Y2121D01*
X70215Y2159D01*
X70234Y2196D01*
X70253Y2215D01*
X70290Y2234D01*
X70384Y2234D01*
X70440Y2215D01*
X70571Y2234D02*
X70665Y1840D01*
X70740Y2121D01*
X70815Y1840D01*
X70909Y2234D01*
X70965Y1803D02*
X71265Y1803D01*
X71359Y1840D02*
X71359Y2234D01*
X71509Y2234D01*
X71546Y2215D01*
X71565Y2196D01*
X71584Y2159D01*
X71584Y2103D01*
X71565Y2065D01*
X71546Y2046D01*
X71509Y2028D01*
X71359Y2028D01*
X71753Y2234D02*
X71753Y1915D01*
X71771Y1878D01*
X71790Y1859D01*
X71828Y1840D01*
X71903Y1840D01*
X71940Y1859D01*
X71959Y1878D01*
X71978Y1915D01*
X71978Y2234D01*
X72146Y1859D02*
X72203Y1840D01*
X72296Y1840D01*
X72334Y1859D01*
X72353Y1878D01*
X72371Y1915D01*
X72371Y1953D01*
X72353Y1990D01*
X72334Y2009D01*
X72296Y2028D01*
X72221Y2046D01*
X72184Y2065D01*
X72165Y2084D01*
X72146Y2121D01*
X72146Y2159D01*
X72165Y2196D01*
X72184Y2215D01*
X72221Y2234D01*
X72315Y2234D01*
X72371Y2215D01*
X72540Y1840D02*
X72540Y2234D01*
X72540Y2046D02*
X72765Y2046D01*
X72765Y1840D02*
X72765Y2234D01*
X24759Y3259D02*
X24365Y3259D01*
X24365Y3409D01*
X24384Y3446D01*
X24403Y3465D01*
X24440Y3484D01*
X24496Y3484D01*
X24534Y3465D01*
X24553Y3446D01*
X24571Y3409D01*
X24571Y3259D01*
X24365Y3615D02*
X24365Y3859D01*
X24515Y3728D01*
X24515Y3784D01*
X24534Y3821D01*
X24553Y3840D01*
X24590Y3859D01*
X24684Y3859D01*
X24721Y3840D01*
X24740Y3821D01*
X24759Y3784D01*
X24759Y3671D01*
X24740Y3634D01*
X24721Y3615D01*
X23971Y2465D02*
X23990Y2446D01*
X24009Y2390D01*
X24009Y2353D01*
X23990Y2297D01*
X23953Y2259D01*
X23915Y2240D01*
X23840Y2222D01*
X23784Y2222D01*
X23709Y2240D01*
X23671Y2259D01*
X23634Y2297D01*
X23615Y2353D01*
X23615Y2390D01*
X23634Y2446D01*
X23653Y2465D01*
X23615Y2709D02*
X23615Y2784D01*
X23634Y2821D01*
X23671Y2859D01*
X23746Y2878D01*
X23878Y2878D01*
X23953Y2859D01*
X23990Y2821D01*
X24009Y2784D01*
X24009Y2709D01*
X23990Y2671D01*
X23953Y2634D01*
X23878Y2615D01*
X23746Y2615D01*
X23671Y2634D01*
X23634Y2671D01*
X23615Y2709D01*
X24009Y3046D02*
X23615Y3046D01*
X24009Y3271D01*
X23615Y3271D01*
X24009Y3459D02*
X23615Y3459D01*
X24009Y3684D01*
X23615Y3684D01*
X24046Y3778D02*
X24046Y4078D01*
X23615Y4359D02*
X23615Y4171D01*
X23803Y4153D01*
X23784Y4171D01*
X23765Y4209D01*
X23765Y4303D01*
X23784Y4340D01*
X23803Y4359D01*
X23840Y4377D01*
X23934Y4377D01*
X23971Y4359D01*
X23990Y4340D01*
X24009Y4303D01*
X24009Y4209D01*
X23990Y4171D01*
X23971Y4153D01*
X484Y2684D02*
X615Y2290D01*
X746Y2684D01*
X1103Y2290D02*
X971Y2478D01*
X878Y2290D02*
X878Y2684D01*
X1028Y2684D01*
X1065Y2665D01*
X1084Y2646D01*
X1103Y2609D01*
X1103Y2553D01*
X1084Y2515D01*
X1065Y2496D01*
X1028Y2478D01*
X878Y2478D01*
X1215Y2684D02*
X1440Y2684D01*
X1328Y2290D02*
X1328Y2684D01*
X1778Y2290D02*
X1553Y2290D01*
X1665Y2290D02*
X1665Y2684D01*
X1628Y2628D01*
X1590Y2590D01*
X1553Y2571D01*
G54D20*
X2373Y27438D02*
X2507Y27038D01*
X2640Y27438D01*
X3002Y27038D02*
X2869Y27228D01*
X2773Y27038D02*
X2773Y27438D01*
X2926Y27438D01*
X2964Y27419D01*
X2983Y27400D01*
X3002Y27361D01*
X3002Y27304D01*
X2983Y27266D01*
X2964Y27247D01*
X2926Y27228D01*
X2773Y27228D01*
X3116Y27438D02*
X3345Y27438D01*
X3230Y27038D02*
X3230Y27438D01*
X3459Y27400D02*
X3478Y27419D01*
X3516Y27438D01*
X3611Y27438D01*
X3650Y27419D01*
X3669Y27400D01*
X3688Y27361D01*
X3688Y27323D01*
X3669Y27266D01*
X3440Y27038D01*
X3688Y27038D01*
X72623Y28688D02*
X72757Y28288D01*
X72890Y28688D01*
X73252Y28288D02*
X73119Y28478D01*
X73023Y28288D02*
X73023Y28688D01*
X73176Y28688D01*
X73214Y28669D01*
X73233Y28650D01*
X73252Y28611D01*
X73252Y28554D01*
X73233Y28516D01*
X73214Y28497D01*
X73176Y28478D01*
X73023Y28478D01*
X73366Y28688D02*
X73595Y28688D01*
X73480Y28288D02*
X73480Y28688D01*
X73690Y28688D02*
X73938Y28688D01*
X73804Y28535D01*
X73861Y28535D01*
X73900Y28516D01*
X73919Y28497D01*
X73938Y28459D01*
X73938Y28364D01*
X73919Y28326D01*
X73900Y28307D01*
X73861Y28288D01*
X73747Y28288D01*
X73709Y28307D01*
X73690Y28326D01*
X72623Y7538D02*
X72757Y7138D01*
X72890Y7538D01*
X73252Y7138D02*
X73119Y7328D01*
X73023Y7138D02*
X73023Y7538D01*
X73176Y7538D01*
X73214Y7519D01*
X73233Y7500D01*
X73252Y7461D01*
X73252Y7404D01*
X73233Y7366D01*
X73214Y7347D01*
X73176Y7328D01*
X73023Y7328D01*
X73366Y7538D02*
X73595Y7538D01*
X73480Y7138D02*
X73480Y7538D01*
X73900Y7404D02*
X73900Y7138D01*
X73804Y7557D02*
X73709Y7271D01*
X73957Y7271D01*
X17623Y7538D02*
X17757Y7138D01*
X17890Y7538D01*
X18252Y7138D02*
X18119Y7328D01*
X18023Y7138D02*
X18023Y7538D01*
X18176Y7538D01*
X18214Y7519D01*
X18233Y7500D01*
X18252Y7461D01*
X18252Y7404D01*
X18233Y7366D01*
X18214Y7347D01*
X18176Y7328D01*
X18023Y7328D01*
X18366Y7538D02*
X18595Y7538D01*
X18480Y7138D02*
X18480Y7538D01*
X18919Y7538D02*
X18728Y7538D01*
X18709Y7347D01*
X18728Y7366D01*
X18766Y7385D01*
X18861Y7385D01*
X18900Y7366D01*
X18919Y7347D01*
X18938Y7309D01*
X18938Y7214D01*
X18919Y7176D01*
X18900Y7157D01*
X18861Y7138D01*
X18766Y7138D01*
X18728Y7157D01*
X18709Y7176D01*
M02*
