M48
METRIC,TZ
T1C0.635
T2C0.762
T3C0.813
T4C0.813
T5C0.900
T6C1.000
T7C1.016
T8C1.143
T9C1.321
T10C1.501
T11C3.048
%
G90
G05
T1
X62230Y26670
X62484Y49530
X65024Y33528
X67310Y29210
X69850Y25400
X72644Y27940
X76073Y34671
X78486Y19304
X86360Y33782
X86360Y29210
X88900Y33782
X88900Y27940
X94234Y26670
X94488Y33782
X96520Y18796
X102616Y25400
X105664Y20320
X107442Y37084
X112522Y34544
X121666Y60960
X123190Y45974
X137414Y28956
X137541Y23114
X138938Y50292
X149860Y29845
T3
X39878Y9398
X48895Y48895
X48895Y38735
X50038Y9398
X54102Y12700
X54102Y2540
X54610Y45085
X54610Y42545
X54610Y36830
X54610Y21590
X57150Y45085
X57150Y36830
X57150Y21590
X59690Y36830
X59690Y21590
X62230Y36830
X62230Y21590
X64770Y47625
X64770Y45085
X64770Y36830
X64770Y21590
X66675Y64135
X66675Y56515
X67310Y36830
X67310Y21590
X69215Y64135
X69215Y56515
X69850Y36830
X69850Y21590
X70866Y12954
X70866Y2794
X71755Y64135
X71755Y56515
X72390Y36830
X72390Y21590
X73660Y41275
X73914Y17272
X73914Y7112
X74930Y36830
X74930Y21590
X75565Y53975
X75565Y49530
X76962Y17272
X76962Y12192
X77470Y36830
X77470Y21590
X78740Y41275
X80010Y36830
X80010Y21590
X80518Y17272
X80518Y12192
X82550Y41910
X82550Y36830
X82550Y21590
X85090Y41910
X85090Y36830
X85090Y21590
X85725Y53975
X85725Y49530
X87122Y15240
X87630Y36830
X87630Y21590
X90170Y36830
X90170Y21590
X92202Y15240
X92710Y50800
X92710Y40640
X92710Y36830
X92710Y21590
X95250Y36830
X95250Y21590
X97790Y36830
X97790Y21590
X99060Y17272
X99060Y12192
X99695Y48260
X99695Y45085
X99695Y41910
X100330Y36830
X100330Y21590
X102870Y36830
X102870Y21590
X109855Y48260
X109855Y45085
X109855Y41910
X113665Y48260
X113665Y38100
X116840Y66040
X116840Y63500
X116840Y60325
X116840Y57785
X116840Y48260
X116840Y38100
X120015Y48260
X120015Y38100
X123190Y48260
X123190Y38100
X125730Y66040
X125730Y63500
X125730Y60325
X125730Y57785
X126365Y48260
X126365Y38100
X129540Y48260
X129540Y38100
X132715Y48260
X132715Y38100
X142240Y40640
X142240Y38100
X142240Y35560
X142240Y33020
X142494Y21336
X142494Y18796
X143510Y44450
X144526Y25908
X147066Y25908
X148590Y44450
X148590Y20320
X148590Y17780
X149860Y40640
X149860Y38100
X149860Y35560
X149860Y33020
X151130Y20320
X154305Y41910
X154305Y36830
X157480Y29210
X158115Y44450
X158115Y34290
X160020Y55245
X160020Y50165
X160020Y29210
X160020Y26670
X161290Y44450
X161290Y34290
X161290Y22225
X161290Y19050
X163830Y56515
X163830Y48895
X164465Y44450
X164465Y34290
X166370Y56515
X166370Y48895
X167005Y67310
X167005Y62230
X167640Y44450
X167640Y34290
X167640Y31115
X167640Y26035
X168910Y56515
X168910Y48895
X170180Y69977
X170180Y59817
X170815Y40005
X170815Y34925
X170815Y31115
X170815Y26035
X171450Y56515
X171450Y48895
X171450Y22225
X171450Y19050
X173355Y67310
X173355Y62230
X179070Y35560
X179070Y30480
X179070Y25400
T4
X48260Y3810
X57404Y11303
X59690Y9525
X62484Y2667
X66929Y14732
X67564Y5842
X89281Y56896
T5
X11590Y46663
X11590Y21663
X16590Y46663
X16590Y21663
X21590Y46663
X26590Y46663
X26590Y21663
X31590Y46663
X31590Y21663
T6
X54610Y65024
X54610Y56896
X143510Y7493
X147066Y9017
X149606Y6477
X155194Y7493
X158750Y9017
X161290Y6477
X166878Y7493
X170434Y9017
X172974Y6477
X178562Y7493
X182118Y9017
X184658Y6477
T7
X77470Y61595
X77470Y59055
X77978Y5842
X77978Y3302
X80010Y61595
X80010Y59055
X80518Y5842
X80518Y3302
X82550Y61595
X82550Y59055
X83058Y5842
X83058Y3302
X85598Y5842
X85598Y3302
X88138Y5842
X88138Y3302
X93853Y5842
X93853Y3302
X96393Y5842
X96393Y3302
X98933Y5842
X98933Y3302
X101473Y5842
X101473Y3302
X104013Y5842
X104013Y3302
X151765Y67945
X151765Y62865
X151765Y55245
X151765Y50165
X179070Y48260
X184150Y48260
T8
X31115Y67945
X31115Y55245
X34925Y67945
X34925Y55245
X38735Y67945
X38735Y55245
X42545Y67945
X42545Y55245
X102235Y64135
X102235Y61595
X102235Y59055
X133350Y64135
X133350Y61595
X133350Y59055
T9
X10185Y7620
X15189Y7620
X23520Y7620
X28524Y7620
X182245Y62941
X182245Y57937
T10
X4366Y60198
X26368Y60198
T11
X2921Y69215
X2921Y3175
X46482Y15494
X186182Y69215
X186182Y15494
T2
X110744Y2921G85X110744Y2413
G05
X113030Y29591G85X112522Y29591
G05
X121920Y30353G85X121920Y29845
G05
X129540Y30353G85X129540Y29845
G05
X136652Y31877G85X136144Y31877
G05
X138176Y3556G85X138176Y2286
G05
T0
M30
