G04 (created by PCBNEW (2013-june-11)-stable) date St 26. únor 2014, 21:47:00 CET*
%MOIN*%
G04 Gerber Fmt 3.4, Leading zero omitted, Abs format*
%FSLAX34Y34*%
G01*
G70*
G90*
G04 APERTURE LIST*
%ADD10C,0.00590551*%
%ADD11R,0.055X0.055*%
%ADD12C,0.055*%
%ADD13C,0.06*%
%ADD14O,0.1575X0.0984*%
%ADD15R,0.09X0.062*%
%ADD16O,0.09X0.062*%
%ADD17R,0.062X0.09*%
%ADD18O,0.062X0.09*%
%ADD19C,0.07*%
%ADD20R,0.07X0.07*%
%ADD21C,0.0943*%
%ADD22R,0.0882X0.0882*%
%ADD23C,0.0882*%
%ADD24C,0.0590551*%
%ADD25R,0.0787402X0.0787402*%
%ADD26C,0.0787402*%
%ADD27R,0.06X0.06*%
%ADD28O,0.156X0.078*%
%ADD29O,0.078X0.156*%
%ADD30R,0.05X0.1*%
%ADD31R,0.03X0.1*%
%ADD32O,0.06X0.04*%
%ADD33O,0.04X0.06*%
%ADD34O,0.09X0.07*%
%ADD35O,0.07X0.13*%
%ADD36R,0.085X0.13*%
%ADD37C,0.16*%
G04 APERTURE END LIST*
G54D10*
G54D11*
X22500Y17750D03*
G54D12*
X21500Y17750D03*
X21500Y16750D03*
G54D11*
X62000Y11500D03*
G54D12*
X63000Y11500D03*
X63000Y10500D03*
G54D13*
X29750Y19500D03*
X33750Y19500D03*
X29100Y2800D03*
X29100Y6800D03*
X21300Y5000D03*
X21300Y1000D03*
X19250Y19250D03*
X19250Y15250D03*
X46000Y15000D03*
X46000Y19000D03*
X43250Y16500D03*
X39250Y16500D03*
X43250Y17750D03*
X39250Y17750D03*
X43250Y19000D03*
X39250Y19000D03*
X51000Y15000D03*
X51000Y19000D03*
X49750Y15000D03*
X49750Y19000D03*
X47250Y15000D03*
X47250Y19000D03*
X44750Y19000D03*
X44750Y15000D03*
X48500Y15000D03*
X48500Y19000D03*
X52250Y19000D03*
X52250Y15000D03*
X67000Y23550D03*
X67000Y27550D03*
X66000Y13500D03*
X66000Y17500D03*
X62250Y13500D03*
X62250Y17500D03*
X63500Y8750D03*
X67500Y8750D03*
X63500Y7500D03*
X67500Y7500D03*
X33750Y21250D03*
X29750Y21250D03*
X63500Y17500D03*
X63500Y13500D03*
X36500Y16000D03*
X36500Y20000D03*
X64750Y13500D03*
X64750Y17500D03*
G54D14*
X10381Y23700D03*
X1719Y23700D03*
G54D15*
X56000Y16000D03*
G54D16*
X56000Y15000D03*
X56000Y14000D03*
X56000Y13000D03*
X59000Y13000D03*
X59000Y14000D03*
X59000Y15000D03*
X59000Y16000D03*
G54D17*
X64500Y19250D03*
G54D18*
X65500Y19250D03*
X66500Y19250D03*
X67500Y19250D03*
X67500Y22250D03*
X66500Y22250D03*
X65500Y22250D03*
X64500Y22250D03*
G54D17*
X21500Y8500D03*
G54D18*
X22500Y8500D03*
X23500Y8500D03*
X24500Y8500D03*
X25500Y8500D03*
X26500Y8500D03*
X27500Y8500D03*
X28500Y8500D03*
X29500Y8500D03*
X30500Y8500D03*
X31500Y8500D03*
X32500Y8500D03*
X33500Y8500D03*
X34500Y8500D03*
X35500Y8500D03*
X36500Y8500D03*
X37500Y8500D03*
X38500Y8500D03*
X39500Y8500D03*
X40500Y8500D03*
X40500Y14500D03*
X39500Y14500D03*
X38500Y14500D03*
X37500Y14500D03*
X36500Y14500D03*
X35500Y14500D03*
X34500Y14500D03*
X33500Y14500D03*
X32500Y14500D03*
X31500Y14500D03*
X30500Y14500D03*
X29500Y14500D03*
X28500Y14500D03*
X27500Y14500D03*
X26500Y14500D03*
X25500Y14500D03*
X24500Y14500D03*
X23500Y14500D03*
X22500Y14500D03*
X21500Y14500D03*
G54D19*
X16750Y26750D03*
G54D20*
X16750Y21750D03*
G54D19*
X15250Y21750D03*
G54D20*
X15250Y26750D03*
G54D19*
X12250Y21750D03*
G54D20*
X12250Y26750D03*
G54D19*
X13750Y26750D03*
G54D20*
X13750Y21750D03*
X59750Y21750D03*
G54D19*
X59750Y19750D03*
G54D20*
X70500Y19000D03*
G54D19*
X72500Y19000D03*
G54D20*
X59750Y24750D03*
G54D19*
X59750Y26750D03*
G54D12*
X66000Y10250D03*
X66000Y12250D03*
X63000Y21750D03*
X63000Y19750D03*
X68250Y24500D03*
X68250Y26500D03*
X67250Y13750D03*
X67250Y15750D03*
X67250Y10250D03*
X67250Y12250D03*
X39000Y6800D03*
X39000Y4800D03*
X31700Y6800D03*
X31700Y4800D03*
X30300Y4800D03*
X30300Y6800D03*
X31000Y16250D03*
X29000Y16250D03*
G54D11*
X57900Y10200D03*
G54D12*
X56900Y10200D03*
G54D11*
X56100Y7400D03*
G54D12*
X56100Y8400D03*
G54D11*
X46000Y22750D03*
G54D12*
X46000Y23750D03*
G54D11*
X46000Y26000D03*
G54D12*
X46000Y25000D03*
X60750Y14500D03*
X60750Y16500D03*
G54D21*
X70500Y12000D03*
G54D22*
X70500Y10000D03*
G54D23*
X70500Y14000D03*
G54D12*
X65750Y24500D03*
X65750Y26500D03*
G54D11*
X59500Y8000D03*
G54D12*
X58500Y8000D03*
X58500Y7000D03*
G54D19*
X36300Y6000D03*
X34300Y6000D03*
G54D11*
X32500Y16500D03*
G54D12*
X33500Y16500D03*
G54D20*
X40250Y23250D03*
G54D19*
X40250Y25250D03*
X40250Y24250D03*
G54D11*
X49500Y22750D03*
G54D12*
X49500Y23750D03*
G54D11*
X49500Y26000D03*
G54D12*
X49500Y25000D03*
G54D20*
X52500Y23250D03*
G54D19*
X52500Y25250D03*
X52500Y24250D03*
G54D24*
X21500Y25600D03*
X21500Y22400D03*
G54D13*
X19700Y3700D03*
X15700Y3700D03*
G54D17*
X28250Y25250D03*
G54D18*
X27250Y25250D03*
X26250Y25250D03*
X26250Y22250D03*
X27250Y22250D03*
X28250Y22250D03*
G54D25*
X4562Y8528D03*
G54D26*
X6531Y8528D03*
X10468Y8528D03*
X12437Y8528D03*
X12437Y18371D03*
X10468Y18371D03*
X8500Y18371D03*
X6531Y18371D03*
X4562Y18371D03*
G54D27*
X32500Y24250D03*
G54D13*
X32500Y23250D03*
X31500Y24250D03*
X31500Y23250D03*
X30500Y24250D03*
X30500Y23250D03*
G54D28*
X71750Y22810D03*
X71750Y24780D03*
G54D29*
X9260Y3000D03*
X11230Y3000D03*
X4010Y3000D03*
X5980Y3000D03*
G54D13*
X27900Y5100D03*
X27900Y1100D03*
G54D27*
X34700Y2300D03*
G54D13*
X34700Y1300D03*
X33700Y2300D03*
X33700Y1300D03*
X32700Y2300D03*
X32700Y1300D03*
X31700Y2300D03*
X31700Y1300D03*
X30700Y2300D03*
X30700Y1300D03*
G54D27*
X40950Y2300D03*
G54D13*
X40950Y1300D03*
X39950Y2300D03*
X39950Y1300D03*
X38950Y2300D03*
X38950Y1300D03*
X37950Y2300D03*
X37950Y1300D03*
X36950Y2300D03*
X36950Y1300D03*
G54D12*
X58500Y17500D03*
X56500Y17500D03*
G54D30*
X52500Y12750D03*
X51400Y12750D03*
X50500Y12750D03*
X49500Y12750D03*
X48500Y12750D03*
X47500Y12750D03*
X46500Y12750D03*
G54D31*
X44300Y12750D03*
G54D30*
X44900Y12750D03*
X43700Y12750D03*
G54D32*
X44400Y11650D03*
G54D33*
X51000Y11850D03*
G54D34*
X53700Y12550D03*
G54D33*
X48000Y11850D03*
G54D34*
X43600Y1050D03*
G54D35*
X54400Y1150D03*
G54D30*
X45600Y12750D03*
G54D36*
X43500Y2250D03*
G54D12*
X25500Y17750D03*
X25500Y18750D03*
G54D13*
X19000Y1500D03*
G54D24*
X57900Y3550D03*
X56500Y2950D03*
X58900Y2550D03*
X62500Y3550D03*
X61100Y2950D03*
X63500Y2550D03*
X67100Y3550D03*
X65700Y2950D03*
X68100Y2550D03*
X71700Y3550D03*
X70300Y2950D03*
X72700Y2550D03*
G54D13*
X24600Y1050D03*
X26600Y2300D03*
X23500Y3750D03*
X22600Y4450D03*
X26350Y5800D03*
G54D37*
X1150Y1250D03*
X1150Y27250D03*
X73300Y27250D03*
X73300Y6100D03*
X18300Y6100D03*
M02*
