G04 (created by PCBNEW (2013-june-11)-stable) date St 26. únor 2014, 21:47:00 CET*
%MOIN*%
G04 Gerber Fmt 3.4, Leading zero omitted, Abs format*
%FSLAX34Y34*%
G01*
G70*
G90*
G04 APERTURE LIST*
%ADD10C,0.00590551*%
%ADD11C,0.00584252*%
%ADD12R,0.055X0.055*%
%ADD13C,0.055*%
%ADD14C,0.06*%
%ADD15O,0.1575X0.0984*%
%ADD16R,0.09X0.062*%
%ADD17O,0.09X0.062*%
%ADD18R,0.062X0.09*%
%ADD19O,0.062X0.09*%
%ADD20C,0.07*%
%ADD21R,0.07X0.07*%
%ADD22C,0.0943*%
%ADD23R,0.0882X0.0882*%
%ADD24C,0.0882*%
%ADD25C,0.0590551*%
%ADD26R,0.0787402X0.0787402*%
%ADD27C,0.0787402*%
%ADD28R,0.06X0.06*%
%ADD29O,0.156X0.078*%
%ADD30O,0.078X0.156*%
%ADD31R,0.05X0.1*%
%ADD32R,0.03X0.1*%
%ADD33O,0.06X0.04*%
%ADD34O,0.04X0.06*%
%ADD35O,0.09X0.07*%
%ADD36O,0.07X0.13*%
%ADD37R,0.085X0.13*%
%ADD38C,0.16*%
%ADD39C,0.045*%
%ADD40C,0.0170079*%
%ADD41C,0.0393701*%
%ADD42C,0.01*%
G04 APERTURE END LIST*
G54D10*
G54D11*
X54797Y27746D02*
X54665Y27746D01*
X54665Y27540D02*
X54665Y27934D01*
X54853Y27934D01*
X55003Y27540D02*
X55003Y27803D01*
X55003Y27728D02*
X55021Y27765D01*
X55040Y27784D01*
X55078Y27803D01*
X55115Y27803D01*
X55303Y27540D02*
X55265Y27559D01*
X55246Y27578D01*
X55228Y27615D01*
X55228Y27728D01*
X55246Y27765D01*
X55265Y27784D01*
X55303Y27803D01*
X55359Y27803D01*
X55396Y27784D01*
X55415Y27765D01*
X55434Y27728D01*
X55434Y27615D01*
X55415Y27578D01*
X55396Y27559D01*
X55359Y27540D01*
X55303Y27540D01*
X55603Y27803D02*
X55603Y27540D01*
X55603Y27765D02*
X55621Y27784D01*
X55659Y27803D01*
X55715Y27803D01*
X55753Y27784D01*
X55771Y27746D01*
X55771Y27540D01*
X55903Y27803D02*
X56053Y27803D01*
X55959Y27934D02*
X55959Y27596D01*
X55978Y27559D01*
X56015Y27540D01*
X56053Y27540D01*
X56184Y27578D02*
X56203Y27559D01*
X56184Y27540D01*
X56165Y27559D01*
X56184Y27578D01*
X56184Y27540D01*
X56596Y27578D02*
X56578Y27559D01*
X56521Y27540D01*
X56484Y27540D01*
X56428Y27559D01*
X56390Y27596D01*
X56371Y27634D01*
X56353Y27709D01*
X56353Y27765D01*
X56371Y27840D01*
X56390Y27878D01*
X56428Y27915D01*
X56484Y27934D01*
X56521Y27934D01*
X56578Y27915D01*
X56596Y27896D01*
X56934Y27803D02*
X56934Y27540D01*
X56765Y27803D02*
X56765Y27596D01*
X56784Y27559D01*
X56821Y27540D01*
X56877Y27540D01*
X56915Y27559D01*
X56934Y27578D01*
G54D12*
X22500Y17750D03*
G54D13*
X21500Y17750D03*
X21500Y16750D03*
G54D12*
X62000Y11500D03*
G54D13*
X63000Y11500D03*
X63000Y10500D03*
G54D14*
X29750Y19500D03*
X33750Y19500D03*
X29100Y2800D03*
X29100Y6800D03*
X21300Y5000D03*
X21300Y1000D03*
X19250Y19250D03*
X19250Y15250D03*
X46000Y15000D03*
X46000Y19000D03*
X43250Y16500D03*
X39250Y16500D03*
X43250Y17750D03*
X39250Y17750D03*
X43250Y19000D03*
X39250Y19000D03*
X51000Y15000D03*
X51000Y19000D03*
X49750Y15000D03*
X49750Y19000D03*
X47250Y15000D03*
X47250Y19000D03*
X44750Y19000D03*
X44750Y15000D03*
X48500Y15000D03*
X48500Y19000D03*
X52250Y19000D03*
X52250Y15000D03*
X67000Y23550D03*
X67000Y27550D03*
X66000Y13500D03*
X66000Y17500D03*
X62250Y13500D03*
X62250Y17500D03*
X63500Y8750D03*
X67500Y8750D03*
X63500Y7500D03*
X67500Y7500D03*
X33750Y21250D03*
X29750Y21250D03*
X63500Y17500D03*
X63500Y13500D03*
X36500Y16000D03*
X36500Y20000D03*
X64750Y13500D03*
X64750Y17500D03*
G54D15*
X10381Y23700D03*
X1719Y23700D03*
G54D16*
X56000Y16000D03*
G54D17*
X56000Y15000D03*
X56000Y14000D03*
X56000Y13000D03*
X59000Y13000D03*
X59000Y14000D03*
X59000Y15000D03*
X59000Y16000D03*
G54D18*
X64500Y19250D03*
G54D19*
X65500Y19250D03*
X66500Y19250D03*
X67500Y19250D03*
X67500Y22250D03*
X66500Y22250D03*
X65500Y22250D03*
X64500Y22250D03*
G54D18*
X21500Y8500D03*
G54D19*
X22500Y8500D03*
X23500Y8500D03*
X24500Y8500D03*
X25500Y8500D03*
X26500Y8500D03*
X27500Y8500D03*
X28500Y8500D03*
X29500Y8500D03*
X30500Y8500D03*
X31500Y8500D03*
X32500Y8500D03*
X33500Y8500D03*
X34500Y8500D03*
X35500Y8500D03*
X36500Y8500D03*
X37500Y8500D03*
X38500Y8500D03*
X39500Y8500D03*
X40500Y8500D03*
X40500Y14500D03*
X39500Y14500D03*
X38500Y14500D03*
X37500Y14500D03*
X36500Y14500D03*
X35500Y14500D03*
X34500Y14500D03*
X33500Y14500D03*
X32500Y14500D03*
X31500Y14500D03*
X30500Y14500D03*
X29500Y14500D03*
X28500Y14500D03*
X27500Y14500D03*
X26500Y14500D03*
X25500Y14500D03*
X24500Y14500D03*
X23500Y14500D03*
X22500Y14500D03*
X21500Y14500D03*
G54D20*
X16750Y26750D03*
G54D21*
X16750Y21750D03*
G54D20*
X15250Y21750D03*
G54D21*
X15250Y26750D03*
G54D20*
X12250Y21750D03*
G54D21*
X12250Y26750D03*
G54D20*
X13750Y26750D03*
G54D21*
X13750Y21750D03*
X59750Y21750D03*
G54D20*
X59750Y19750D03*
G54D21*
X70500Y19000D03*
G54D20*
X72500Y19000D03*
G54D21*
X59750Y24750D03*
G54D20*
X59750Y26750D03*
G54D13*
X66000Y10250D03*
X66000Y12250D03*
X63000Y21750D03*
X63000Y19750D03*
X68250Y24500D03*
X68250Y26500D03*
X67250Y13750D03*
X67250Y15750D03*
X67250Y10250D03*
X67250Y12250D03*
X39000Y6800D03*
X39000Y4800D03*
X31700Y6800D03*
X31700Y4800D03*
X30300Y4800D03*
X30300Y6800D03*
X31000Y16250D03*
X29000Y16250D03*
G54D12*
X57900Y10200D03*
G54D13*
X56900Y10200D03*
G54D12*
X56100Y7400D03*
G54D13*
X56100Y8400D03*
G54D12*
X46000Y22750D03*
G54D13*
X46000Y23750D03*
G54D12*
X46000Y26000D03*
G54D13*
X46000Y25000D03*
X60750Y14500D03*
X60750Y16500D03*
G54D22*
X70500Y12000D03*
G54D23*
X70500Y10000D03*
G54D24*
X70500Y14000D03*
G54D13*
X65750Y24500D03*
X65750Y26500D03*
G54D12*
X59500Y8000D03*
G54D13*
X58500Y8000D03*
X58500Y7000D03*
G54D20*
X36300Y6000D03*
X34300Y6000D03*
G54D12*
X32500Y16500D03*
G54D13*
X33500Y16500D03*
G54D21*
X40250Y23250D03*
G54D20*
X40250Y25250D03*
X40250Y24250D03*
G54D12*
X49500Y22750D03*
G54D13*
X49500Y23750D03*
G54D12*
X49500Y26000D03*
G54D13*
X49500Y25000D03*
G54D21*
X52500Y23250D03*
G54D20*
X52500Y25250D03*
X52500Y24250D03*
G54D25*
X21500Y25600D03*
X21500Y22400D03*
G54D14*
X19700Y3700D03*
X15700Y3700D03*
G54D18*
X28250Y25250D03*
G54D19*
X27250Y25250D03*
X26250Y25250D03*
X26250Y22250D03*
X27250Y22250D03*
X28250Y22250D03*
G54D26*
X4562Y8528D03*
G54D27*
X6531Y8528D03*
X10468Y8528D03*
X12437Y8528D03*
X12437Y18371D03*
X10468Y18371D03*
X8500Y18371D03*
X6531Y18371D03*
X4562Y18371D03*
G54D28*
X32500Y24250D03*
G54D14*
X32500Y23250D03*
X31500Y24250D03*
X31500Y23250D03*
X30500Y24250D03*
X30500Y23250D03*
G54D29*
X71750Y22810D03*
X71750Y24780D03*
G54D30*
X9260Y3000D03*
X11230Y3000D03*
X4010Y3000D03*
X5980Y3000D03*
G54D14*
X27900Y5100D03*
X27900Y1100D03*
G54D28*
X34700Y2300D03*
G54D14*
X34700Y1300D03*
X33700Y2300D03*
X33700Y1300D03*
X32700Y2300D03*
X32700Y1300D03*
X31700Y2300D03*
X31700Y1300D03*
X30700Y2300D03*
X30700Y1300D03*
G54D28*
X40950Y2300D03*
G54D14*
X40950Y1300D03*
X39950Y2300D03*
X39950Y1300D03*
X38950Y2300D03*
X38950Y1300D03*
X37950Y2300D03*
X37950Y1300D03*
X36950Y2300D03*
X36950Y1300D03*
G54D13*
X58500Y17500D03*
X56500Y17500D03*
G54D31*
X52500Y12750D03*
X51400Y12750D03*
X50500Y12750D03*
X49500Y12750D03*
X48500Y12750D03*
X47500Y12750D03*
X46500Y12750D03*
G54D32*
X44300Y12750D03*
G54D31*
X44900Y12750D03*
X43700Y12750D03*
G54D33*
X44400Y11650D03*
G54D34*
X51000Y11850D03*
G54D35*
X53700Y12550D03*
G54D34*
X48000Y11850D03*
G54D35*
X43600Y1050D03*
G54D36*
X54400Y1150D03*
G54D31*
X45600Y12750D03*
G54D37*
X43500Y2250D03*
G54D13*
X25500Y17750D03*
X25500Y18750D03*
G54D14*
X19000Y1500D03*
G54D25*
X57900Y3550D03*
X56500Y2950D03*
X58900Y2550D03*
X62500Y3550D03*
X61100Y2950D03*
X63500Y2550D03*
X67100Y3550D03*
X65700Y2950D03*
X68100Y2550D03*
X71700Y3550D03*
X70300Y2950D03*
X72700Y2550D03*
G54D14*
X24600Y1050D03*
X26600Y2300D03*
X23500Y3750D03*
X22600Y4450D03*
X26350Y5800D03*
G54D38*
X1150Y1250D03*
X1150Y27250D03*
X73300Y27250D03*
X73300Y6100D03*
X18300Y6100D03*
G54D39*
X38000Y7400D03*
X42300Y14600D03*
X41600Y8000D03*
X44300Y13600D03*
X37200Y13300D03*
X37100Y10500D03*
X24500Y10500D03*
X40400Y10000D03*
X27500Y10000D03*
X30900Y7600D03*
X26500Y11500D03*
X34000Y11500D03*
X34000Y13300D03*
X28600Y11000D03*
X35000Y11000D03*
X35000Y13300D03*
X24600Y19500D03*
X25600Y13200D03*
X54100Y11400D03*
X54150Y9100D03*
X48500Y18100D03*
G54D25*
X35150Y22400D03*
G54D39*
X54700Y19800D03*
X59000Y11750D03*
X47900Y24000D03*
X29950Y13650D03*
G54D40*
X37500Y13900D02*
X38000Y13400D01*
X38000Y13400D02*
X38000Y7500D01*
X38000Y7500D02*
X38000Y7400D01*
X37500Y13900D02*
X37500Y14500D01*
X41600Y10400D02*
X42300Y11100D01*
X42300Y11100D02*
X42300Y14600D01*
X41600Y8000D02*
X41600Y10400D01*
X24500Y8500D02*
X24500Y10500D01*
X44300Y13600D02*
X44300Y12750D01*
X37200Y10600D02*
X37200Y13300D01*
X37100Y10500D02*
X37200Y10600D01*
X35700Y15500D02*
X35700Y17550D01*
X36500Y13500D02*
X36300Y13700D01*
X36300Y13700D02*
X36100Y13700D01*
X36100Y13700D02*
X36000Y13800D01*
X36000Y13800D02*
X36000Y15200D01*
X36000Y15200D02*
X35700Y15500D01*
X36500Y8500D02*
X36500Y13500D01*
X31500Y24850D02*
X31500Y24250D01*
X31900Y25250D02*
X31500Y24850D01*
X35600Y25250D02*
X31900Y25250D01*
X37200Y23650D02*
X35600Y25250D01*
X37200Y19050D02*
X37200Y23650D01*
X35700Y17550D02*
X37200Y19050D01*
X27500Y8500D02*
X27500Y10000D01*
X46000Y15900D02*
X46000Y19000D01*
X42100Y15900D02*
X46000Y15900D01*
X41500Y15300D02*
X42100Y15900D01*
X41500Y11100D02*
X41500Y15300D01*
X40400Y10000D02*
X41500Y11100D01*
X48500Y19000D02*
X48300Y19000D01*
X48300Y19000D02*
X47500Y18200D01*
X47500Y18200D02*
X46800Y18200D01*
X46800Y18200D02*
X46000Y19000D01*
X26500Y7600D02*
X26500Y7700D01*
X26500Y7700D02*
X26500Y8500D01*
X30900Y7600D02*
X26500Y7600D01*
X26500Y11500D02*
X26500Y8500D01*
X34000Y13300D02*
X34000Y11500D01*
X28500Y10900D02*
X28500Y8500D01*
X28600Y11000D02*
X28500Y10900D01*
X35000Y13300D02*
X35000Y11000D01*
X40950Y2300D02*
X40950Y6550D01*
X39500Y9600D02*
X39500Y14500D01*
X40000Y9600D02*
X40000Y7500D01*
X39500Y9600D02*
X40000Y9600D01*
X40950Y6550D02*
X40000Y7500D01*
X39950Y2300D02*
X39950Y6650D01*
X38500Y9700D02*
X38500Y14500D01*
X39000Y9600D02*
X39000Y7600D01*
X38600Y9600D02*
X39000Y9600D01*
X38500Y9700D02*
X38600Y9600D01*
X39950Y6650D02*
X39000Y7600D01*
X29750Y19500D02*
X24600Y19500D01*
X25500Y13100D02*
X25500Y8500D01*
X25600Y13200D02*
X25500Y13100D01*
X54100Y9150D02*
X54100Y11400D01*
X54150Y9100D02*
X54100Y9150D01*
X48500Y15000D02*
X48500Y18100D01*
X48500Y12750D02*
X48500Y15000D01*
G54D41*
X67000Y27550D02*
X68980Y27550D01*
X68980Y27550D02*
X71750Y24780D01*
X65750Y26500D02*
X65950Y26500D01*
X65950Y26500D02*
X67000Y27550D01*
G54D40*
X36950Y1300D02*
X36300Y1300D01*
X35000Y4100D02*
X33000Y4100D01*
X33000Y4100D02*
X32700Y4400D01*
X32700Y4400D02*
X32700Y5800D01*
X32700Y5800D02*
X31700Y6800D01*
X35750Y3350D02*
X35000Y4100D01*
X35750Y1850D02*
X35750Y3350D01*
X36300Y1300D02*
X35750Y1850D01*
X56100Y8400D02*
X53450Y8400D01*
X53450Y11100D02*
X49500Y11100D01*
X53450Y8400D02*
X53450Y11100D01*
X49500Y11100D02*
X49500Y11050D01*
G54D41*
X31500Y23250D02*
X31500Y22450D01*
X31550Y22400D02*
X35150Y22400D01*
X31500Y22450D02*
X31550Y22400D01*
G54D40*
X58500Y17500D02*
X58500Y18000D01*
X56700Y22800D02*
X55250Y24250D01*
X56700Y19800D02*
X56700Y22800D01*
X58500Y18000D02*
X56700Y19800D01*
X56900Y10200D02*
X56900Y11050D01*
X59000Y12950D02*
X59000Y13000D01*
X59550Y12400D02*
X59000Y12950D01*
X59550Y11050D02*
X59550Y12400D01*
X56900Y11050D02*
X59550Y11050D01*
X22500Y17750D02*
X22500Y16400D01*
X22650Y16250D02*
X29000Y16250D01*
X22500Y16400D02*
X22650Y16250D01*
G54D41*
X30500Y14500D02*
X30500Y12000D01*
X30500Y12000D02*
X31500Y11000D01*
X31500Y11000D02*
X31500Y8500D01*
G54D40*
X27250Y25250D02*
X27250Y23550D01*
X27250Y23550D02*
X27300Y23500D01*
X27300Y23500D02*
X28600Y23500D01*
X28600Y23500D02*
X29700Y22400D01*
X29700Y22400D02*
X30650Y22400D01*
X30650Y22400D02*
X31500Y23250D01*
X30300Y6800D02*
X31700Y6800D01*
X39000Y6800D02*
X31700Y6800D01*
X47250Y19000D02*
X47250Y19150D01*
X48950Y19800D02*
X49750Y19000D01*
X47900Y19800D02*
X48950Y19800D01*
X47250Y19150D02*
X47900Y19800D01*
X49750Y19000D02*
X51000Y19000D01*
X49500Y12750D02*
X49500Y13800D01*
X49100Y18350D02*
X49750Y19000D01*
X49100Y14200D02*
X49100Y18350D01*
X49500Y13800D02*
X49100Y14200D01*
X49500Y12750D02*
X49500Y11050D01*
X49500Y11050D02*
X49500Y11100D01*
X49300Y10900D02*
X46400Y10900D01*
X49500Y11100D02*
X49300Y10900D01*
X43700Y12750D02*
X43700Y11000D01*
X46500Y11000D02*
X46500Y12750D01*
X46400Y10900D02*
X46500Y11000D01*
X43800Y10900D02*
X46400Y10900D01*
X43700Y11000D02*
X43800Y10900D01*
X59000Y13000D02*
X57800Y13000D01*
X57800Y13000D02*
X57800Y15100D01*
X59000Y15000D02*
X57900Y15000D01*
X57800Y16800D02*
X58500Y17500D01*
X57800Y15100D02*
X57800Y16800D01*
X57900Y15000D02*
X57800Y15100D01*
X58500Y17500D02*
X59750Y17500D01*
X59750Y17500D02*
X60750Y16500D01*
X62250Y17500D02*
X61750Y17500D01*
X61750Y17500D02*
X60750Y16500D01*
X62000Y11500D02*
X62000Y11900D01*
X62350Y12250D02*
X66000Y12250D01*
X62000Y11900D02*
X62350Y12250D01*
X67250Y12250D02*
X66000Y12250D01*
X70500Y14000D02*
X69000Y14000D01*
X69000Y14000D02*
X67250Y12250D01*
X66000Y17500D02*
X67000Y17500D01*
X67000Y17500D02*
X70500Y14000D01*
X64500Y19250D02*
X64500Y19000D01*
X64500Y19000D02*
X66000Y17500D01*
G54D41*
X59750Y19750D02*
X58000Y19750D01*
X61500Y26750D02*
X59750Y26750D01*
X61500Y23250D02*
X61500Y26750D01*
X61250Y23000D02*
X61500Y23250D01*
X58250Y23000D02*
X61250Y23000D01*
X58000Y22750D02*
X58250Y23000D01*
X58000Y19750D02*
X58000Y22750D01*
X59750Y26750D02*
X65500Y26750D01*
X65500Y26750D02*
X65750Y26500D01*
X52500Y24250D02*
X55250Y24250D01*
X55250Y24250D02*
X57750Y26750D01*
X57750Y26750D02*
X59750Y26750D01*
X63000Y19750D02*
X59750Y19750D01*
X64500Y19250D02*
X63500Y19250D01*
X63500Y19250D02*
X63000Y19750D01*
X67500Y19250D02*
X67500Y20500D01*
X64500Y20250D02*
X64500Y19250D01*
X64750Y20500D02*
X64500Y20250D01*
X67500Y20500D02*
X64750Y20500D01*
X52500Y24250D02*
X50250Y24250D01*
X50250Y24250D02*
X49500Y25000D01*
X49500Y25000D02*
X49500Y23750D01*
X46000Y25000D02*
X49500Y25000D01*
X46000Y23750D02*
X46000Y25000D01*
X40250Y24250D02*
X45500Y24250D01*
X45500Y24250D02*
X46000Y23750D01*
X21500Y25600D02*
X23350Y25600D01*
X23350Y25600D02*
X25000Y27250D01*
X27250Y27250D02*
X35750Y27250D01*
X25000Y27250D02*
X27250Y27250D01*
X35750Y27250D02*
X38750Y24250D01*
X38750Y24250D02*
X40250Y24250D01*
X16750Y26750D02*
X20350Y26750D01*
X20350Y26750D02*
X21500Y25600D01*
X13750Y26750D02*
X13750Y25250D01*
X16750Y25000D02*
X16750Y26750D01*
X14000Y25000D02*
X16750Y25000D01*
X13750Y25250D02*
X14000Y25000D01*
G54D40*
X36300Y6000D02*
X38900Y6000D01*
X39000Y5900D02*
X39000Y4800D01*
X38900Y6000D02*
X39000Y5900D01*
X36500Y20000D02*
X36500Y22950D01*
X35200Y24250D02*
X32500Y24250D01*
X36500Y22950D02*
X35200Y24250D01*
X52500Y12750D02*
X52500Y14750D01*
X52500Y14750D02*
X52250Y15000D01*
X44900Y12750D02*
X44900Y14850D01*
X44900Y14850D02*
X44750Y15000D01*
X51400Y12750D02*
X51400Y14600D01*
X51400Y14600D02*
X51000Y15000D01*
X45600Y12750D02*
X45600Y14600D01*
X45600Y14600D02*
X46000Y15000D01*
X47500Y12750D02*
X47500Y14750D01*
X47500Y14750D02*
X47250Y15000D01*
X50500Y12750D02*
X50500Y14250D01*
X50500Y14250D02*
X49750Y15000D01*
G54D41*
X65500Y22250D02*
X65500Y22750D01*
X61250Y21750D02*
X59750Y21750D01*
X63000Y23500D02*
X61250Y21750D01*
X64750Y23500D02*
X63000Y23500D01*
X65500Y22750D02*
X64750Y23500D01*
G54D40*
X54850Y11850D02*
X54950Y11750D01*
X54850Y19650D02*
X54850Y11850D01*
X54700Y19800D02*
X54850Y19650D01*
X59000Y11750D02*
X54950Y11750D01*
X59000Y16000D02*
X59500Y16000D01*
X62150Y7500D02*
X63500Y7500D01*
X60050Y9600D02*
X62150Y7500D01*
X60050Y15450D02*
X60050Y9600D01*
X59500Y16000D02*
X60050Y15450D01*
G54D41*
X21500Y22400D02*
X21600Y22400D01*
X38650Y23250D02*
X40250Y23250D01*
X35400Y26500D02*
X38650Y23250D01*
X25700Y26500D02*
X35400Y26500D01*
X21600Y22400D02*
X25700Y26500D01*
X12250Y26750D02*
X12250Y24250D01*
X19900Y24000D02*
X21500Y22400D01*
X12500Y24000D02*
X19900Y24000D01*
X12250Y24250D02*
X12500Y24000D01*
X15250Y26750D02*
X15250Y27750D01*
X12250Y27450D02*
X12250Y26750D01*
X12600Y27800D02*
X12250Y27450D01*
X15200Y27800D02*
X12600Y27800D01*
X15250Y27750D02*
X15200Y27800D01*
G54D40*
X34700Y1300D02*
X35500Y500D01*
X40150Y500D02*
X40950Y1300D01*
X35500Y500D02*
X40150Y500D01*
X29100Y850D02*
X29450Y500D01*
X29100Y2800D02*
X29100Y850D01*
X33900Y500D02*
X34700Y1300D01*
X29450Y500D02*
X33900Y500D01*
X56500Y17500D02*
X56500Y18900D01*
X47900Y21750D02*
X47900Y24000D01*
X48000Y21650D02*
X47900Y21750D01*
X55550Y21650D02*
X48000Y21650D01*
X56050Y21150D02*
X55550Y21650D01*
X56050Y19350D02*
X56050Y21150D01*
X56500Y18900D02*
X56050Y19350D01*
X19250Y19250D02*
X22400Y19250D01*
X22400Y19250D02*
X23500Y18150D01*
X23500Y18150D02*
X23500Y17300D01*
X23500Y17300D02*
X23750Y17050D01*
X23750Y17050D02*
X30200Y17050D01*
X30200Y17050D02*
X31000Y16250D01*
X30500Y9250D02*
X30500Y8500D01*
X29950Y9800D02*
X30500Y9250D01*
X29950Y13650D02*
X29950Y9800D01*
X30300Y4800D02*
X28200Y4800D01*
X28200Y4800D02*
X27900Y5100D01*
G54D10*
G36*
X73299Y8177D02*
X73100Y8048D01*
X73100Y19118D01*
X73008Y19339D01*
X72840Y19508D01*
X72800Y19525D01*
X72800Y22810D01*
X72762Y23000D01*
X72762Y24630D01*
X72762Y24929D01*
X72750Y24978D01*
X72627Y25197D01*
X72431Y25352D01*
X72190Y25420D01*
X71800Y25420D01*
X71800Y24830D01*
X72715Y24830D01*
X72762Y24929D01*
X72762Y24630D01*
X72715Y24730D01*
X71800Y24730D01*
X71800Y24140D01*
X72190Y24140D01*
X72431Y24207D01*
X72627Y24362D01*
X72750Y24581D01*
X72762Y24630D01*
X72762Y23000D01*
X72751Y23054D01*
X72612Y23262D01*
X72405Y23401D01*
X72160Y23450D01*
X71700Y23450D01*
X71700Y24140D01*
X71700Y24730D01*
X71700Y24830D01*
X71700Y25420D01*
X71310Y25420D01*
X71068Y25352D01*
X70872Y25197D01*
X70749Y24978D01*
X70737Y24929D01*
X70784Y24830D01*
X71700Y24830D01*
X71700Y24730D01*
X70784Y24730D01*
X70737Y24630D01*
X70749Y24581D01*
X70872Y24362D01*
X71068Y24207D01*
X71310Y24140D01*
X71700Y24140D01*
X71700Y23450D01*
X71339Y23450D01*
X71094Y23401D01*
X70887Y23262D01*
X70748Y23054D01*
X70699Y22810D01*
X70748Y22565D01*
X70887Y22357D01*
X71094Y22218D01*
X71339Y22170D01*
X72160Y22170D01*
X72405Y22218D01*
X72612Y22357D01*
X72751Y22565D01*
X72800Y22810D01*
X72800Y19525D01*
X72619Y19599D01*
X72381Y19600D01*
X72160Y19508D01*
X71991Y19340D01*
X71900Y19119D01*
X71899Y18881D01*
X71991Y18660D01*
X72159Y18491D01*
X72380Y18400D01*
X72618Y18399D01*
X72839Y18491D01*
X73008Y18659D01*
X73099Y18880D01*
X73100Y19118D01*
X73100Y8048D01*
X71221Y6837D01*
X71221Y12142D01*
X71195Y12207D01*
X71195Y13884D01*
X71186Y14159D01*
X71100Y14367D01*
X71100Y18699D01*
X71100Y19399D01*
X71062Y19491D01*
X70991Y19561D01*
X70899Y19599D01*
X70800Y19600D01*
X70100Y19600D01*
X70008Y19562D01*
X69938Y19491D01*
X69900Y19399D01*
X69899Y19300D01*
X69899Y18600D01*
X69937Y18508D01*
X70008Y18438D01*
X70100Y18400D01*
X70199Y18399D01*
X70899Y18399D01*
X70991Y18437D01*
X71061Y18508D01*
X71099Y18600D01*
X71100Y18699D01*
X71100Y14367D01*
X71097Y14372D01*
X70987Y14417D01*
X70917Y14346D01*
X70917Y14487D01*
X70872Y14597D01*
X70615Y14695D01*
X70340Y14686D01*
X70127Y14597D01*
X70082Y14487D01*
X70500Y14070D01*
X70917Y14487D01*
X70917Y14346D01*
X70570Y14000D01*
X70987Y13582D01*
X71097Y13627D01*
X71195Y13884D01*
X71195Y12207D01*
X71112Y12408D01*
X70917Y12603D01*
X70917Y13512D01*
X70500Y13929D01*
X70429Y13858D01*
X70429Y14000D01*
X70012Y14417D01*
X69902Y14372D01*
X69804Y14115D01*
X69813Y13840D01*
X69902Y13627D01*
X70012Y13582D01*
X70429Y14000D01*
X70429Y13858D01*
X70082Y13512D01*
X70127Y13402D01*
X70384Y13304D01*
X70659Y13313D01*
X70872Y13402D01*
X70917Y13512D01*
X70917Y12603D01*
X70909Y12611D01*
X70644Y12721D01*
X70357Y12721D01*
X70091Y12612D01*
X69888Y12409D01*
X69778Y12144D01*
X69778Y11857D01*
X69887Y11591D01*
X70090Y11388D01*
X70355Y11278D01*
X70642Y11278D01*
X70908Y11387D01*
X71111Y11590D01*
X71221Y11855D01*
X71221Y12142D01*
X71221Y6837D01*
X71191Y6818D01*
X71191Y9608D01*
X71191Y10490D01*
X71153Y10582D01*
X71082Y10652D01*
X70990Y10690D01*
X70891Y10691D01*
X70009Y10691D01*
X69917Y10653D01*
X69847Y10582D01*
X69809Y10490D01*
X69808Y10391D01*
X69808Y9509D01*
X69846Y9417D01*
X69917Y9347D01*
X70009Y9309D01*
X70108Y9308D01*
X70990Y9308D01*
X71082Y9346D01*
X71152Y9417D01*
X71190Y9509D01*
X71191Y9608D01*
X71191Y6818D01*
X71085Y6750D01*
X68775Y6750D01*
X68775Y24603D01*
X68775Y26603D01*
X68695Y26797D01*
X68547Y26944D01*
X68354Y27024D01*
X68146Y27025D01*
X67953Y26945D01*
X67805Y26797D01*
X67725Y26604D01*
X67724Y26396D01*
X67804Y26203D01*
X67952Y26055D01*
X68145Y25975D01*
X68353Y25974D01*
X68547Y26054D01*
X68694Y26202D01*
X68774Y26395D01*
X68775Y26603D01*
X68775Y24603D01*
X68695Y24797D01*
X68547Y24944D01*
X68354Y25024D01*
X68146Y25025D01*
X67953Y24945D01*
X67805Y24797D01*
X67725Y24604D01*
X67724Y24396D01*
X67804Y24203D01*
X67952Y24055D01*
X68145Y23975D01*
X68353Y23974D01*
X68547Y24054D01*
X68694Y24202D01*
X68774Y24395D01*
X68775Y24603D01*
X68775Y6750D01*
X68060Y6750D01*
X68060Y19060D01*
X68060Y19200D01*
X68060Y19300D01*
X68060Y19440D01*
X68060Y22096D01*
X68060Y22403D01*
X68017Y22618D01*
X67895Y22799D01*
X67714Y22921D01*
X67554Y22952D01*
X67554Y27468D01*
X67543Y27686D01*
X67481Y27837D01*
X67385Y27865D01*
X67315Y27794D01*
X67315Y27935D01*
X67287Y28031D01*
X67081Y28104D01*
X66863Y28093D01*
X66712Y28031D01*
X66684Y27935D01*
X67000Y27620D01*
X67315Y27935D01*
X67315Y27794D01*
X67070Y27550D01*
X67385Y27234D01*
X67481Y27262D01*
X67554Y27468D01*
X67554Y22952D01*
X67550Y22953D01*
X67550Y23658D01*
X67466Y23861D01*
X67315Y24012D01*
X67315Y27164D01*
X67000Y27479D01*
X66929Y27408D01*
X66929Y27550D01*
X66614Y27865D01*
X66518Y27837D01*
X66445Y27631D01*
X66456Y27413D01*
X66518Y27262D01*
X66614Y27234D01*
X66929Y27550D01*
X66929Y27408D01*
X66684Y27164D01*
X66712Y27068D01*
X66918Y26995D01*
X67136Y27006D01*
X67287Y27068D01*
X67315Y27164D01*
X67315Y24012D01*
X67311Y24015D01*
X67109Y24099D01*
X66891Y24100D01*
X66688Y24016D01*
X66534Y23861D01*
X66450Y23659D01*
X66449Y23441D01*
X66533Y23238D01*
X66688Y23084D01*
X66890Y23000D01*
X67108Y22999D01*
X67311Y23083D01*
X67465Y23238D01*
X67549Y23440D01*
X67550Y23658D01*
X67550Y22953D01*
X67500Y22963D01*
X67285Y22921D01*
X67104Y22799D01*
X67000Y22644D01*
X66895Y22799D01*
X66714Y22921D01*
X66500Y22963D01*
X66285Y22921D01*
X66279Y22917D01*
X66279Y26424D01*
X66268Y26632D01*
X66210Y26772D01*
X66117Y26797D01*
X66047Y26726D01*
X66047Y26867D01*
X66022Y26960D01*
X65825Y27029D01*
X65617Y27018D01*
X65477Y26960D01*
X65452Y26867D01*
X65750Y26570D01*
X66047Y26867D01*
X66047Y26726D01*
X65820Y26500D01*
X66117Y26202D01*
X66210Y26227D01*
X66279Y26424D01*
X66279Y22917D01*
X66275Y22913D01*
X66275Y24603D01*
X66195Y24797D01*
X66047Y24944D01*
X66047Y24945D01*
X66047Y26132D01*
X65750Y26429D01*
X65679Y26358D01*
X65679Y26500D01*
X65382Y26797D01*
X65289Y26772D01*
X65220Y26575D01*
X65231Y26367D01*
X65289Y26227D01*
X65382Y26202D01*
X65679Y26500D01*
X65679Y26358D01*
X65452Y26132D01*
X65477Y26039D01*
X65674Y25970D01*
X65882Y25981D01*
X66022Y26039D01*
X66047Y26132D01*
X66047Y24945D01*
X65854Y25024D01*
X65646Y25025D01*
X65453Y24945D01*
X65305Y24797D01*
X65225Y24604D01*
X65224Y24396D01*
X65304Y24203D01*
X65452Y24055D01*
X65645Y23975D01*
X65853Y23974D01*
X66047Y24054D01*
X66194Y24202D01*
X66274Y24395D01*
X66275Y24603D01*
X66275Y22913D01*
X66104Y22799D01*
X66000Y22644D01*
X65946Y22723D01*
X65946Y22750D01*
X65946Y22750D01*
X65912Y22921D01*
X65815Y23065D01*
X65815Y23065D01*
X65065Y23815D01*
X64921Y23912D01*
X64750Y23946D01*
X63000Y23946D01*
X62828Y23912D01*
X62684Y23815D01*
X61064Y22196D01*
X60354Y22196D01*
X60354Y26656D01*
X60344Y26894D01*
X60272Y27067D01*
X60172Y27101D01*
X60101Y27030D01*
X60101Y27172D01*
X60067Y27272D01*
X59843Y27354D01*
X59605Y27344D01*
X59432Y27272D01*
X59398Y27172D01*
X59750Y26820D01*
X60101Y27172D01*
X60101Y27030D01*
X59820Y26750D01*
X60172Y26398D01*
X60272Y26432D01*
X60354Y26656D01*
X60354Y22196D01*
X60350Y22196D01*
X60350Y24449D01*
X60350Y25149D01*
X60312Y25241D01*
X60241Y25311D01*
X60149Y25349D01*
X60101Y25349D01*
X60101Y26327D01*
X59750Y26679D01*
X59679Y26608D01*
X59679Y26750D01*
X59327Y27101D01*
X59227Y27067D01*
X59145Y26843D01*
X59155Y26605D01*
X59227Y26432D01*
X59327Y26398D01*
X59679Y26750D01*
X59679Y26608D01*
X59398Y26327D01*
X59432Y26227D01*
X59656Y26145D01*
X59894Y26155D01*
X60067Y26227D01*
X60101Y26327D01*
X60101Y25349D01*
X60050Y25350D01*
X59350Y25350D01*
X59258Y25312D01*
X59188Y25241D01*
X59150Y25149D01*
X59149Y25050D01*
X59149Y24350D01*
X59187Y24258D01*
X59258Y24188D01*
X59350Y24150D01*
X59449Y24149D01*
X60149Y24149D01*
X60241Y24187D01*
X60311Y24258D01*
X60349Y24350D01*
X60350Y24449D01*
X60350Y22196D01*
X60330Y22196D01*
X60312Y22241D01*
X60241Y22311D01*
X60149Y22349D01*
X60050Y22350D01*
X59350Y22350D01*
X59258Y22312D01*
X59188Y22241D01*
X59150Y22149D01*
X59149Y22050D01*
X59149Y21350D01*
X59187Y21258D01*
X59258Y21188D01*
X59350Y21150D01*
X59449Y21149D01*
X60149Y21149D01*
X60241Y21187D01*
X60311Y21258D01*
X60330Y21303D01*
X61250Y21303D01*
X61421Y21337D01*
X61421Y21337D01*
X61565Y21434D01*
X63185Y23053D01*
X64564Y23053D01*
X64692Y22925D01*
X64500Y22963D01*
X64285Y22921D01*
X64104Y22799D01*
X63982Y22618D01*
X63940Y22403D01*
X63940Y22096D01*
X63982Y21881D01*
X64104Y21700D01*
X64285Y21578D01*
X64500Y21536D01*
X64714Y21578D01*
X64895Y21700D01*
X65000Y21855D01*
X65104Y21700D01*
X65285Y21578D01*
X65500Y21536D01*
X65714Y21578D01*
X65895Y21700D01*
X66000Y21855D01*
X66104Y21700D01*
X66285Y21578D01*
X66500Y21536D01*
X66714Y21578D01*
X66895Y21700D01*
X67000Y21855D01*
X67104Y21700D01*
X67285Y21578D01*
X67500Y21536D01*
X67714Y21578D01*
X67895Y21700D01*
X68017Y21881D01*
X68060Y22096D01*
X68060Y19440D01*
X67998Y19650D01*
X67860Y19821D01*
X67668Y19926D01*
X67636Y19933D01*
X67550Y19884D01*
X67550Y19300D01*
X68060Y19300D01*
X68060Y19200D01*
X67550Y19200D01*
X67550Y18615D01*
X67636Y18566D01*
X67668Y18573D01*
X67860Y18678D01*
X67998Y18849D01*
X68060Y19060D01*
X68060Y6750D01*
X68050Y6750D01*
X68050Y7608D01*
X68050Y8858D01*
X67966Y9061D01*
X67811Y9215D01*
X67779Y9229D01*
X67779Y12174D01*
X67775Y12262D01*
X67775Y13853D01*
X67775Y15853D01*
X67695Y16047D01*
X67547Y16194D01*
X67450Y16235D01*
X67450Y18615D01*
X67450Y19200D01*
X67442Y19200D01*
X67442Y19300D01*
X67450Y19300D01*
X67450Y19884D01*
X67363Y19933D01*
X67331Y19926D01*
X67139Y19821D01*
X67001Y19650D01*
X66999Y19644D01*
X66895Y19799D01*
X66714Y19921D01*
X66500Y19963D01*
X66285Y19921D01*
X66104Y19799D01*
X66000Y19644D01*
X65895Y19799D01*
X65714Y19921D01*
X65500Y19963D01*
X65285Y19921D01*
X65104Y19799D01*
X65059Y19733D01*
X65059Y19749D01*
X65021Y19841D01*
X64951Y19912D01*
X64859Y19950D01*
X64612Y19950D01*
X64550Y19887D01*
X64550Y19300D01*
X64557Y19300D01*
X64557Y19200D01*
X64550Y19200D01*
X64550Y18612D01*
X64612Y18550D01*
X64859Y18549D01*
X64951Y18587D01*
X65021Y18658D01*
X65059Y18750D01*
X65059Y18766D01*
X65104Y18700D01*
X65285Y18578D01*
X65500Y18536D01*
X65714Y18578D01*
X65895Y18700D01*
X66000Y18855D01*
X66104Y18700D01*
X66285Y18578D01*
X66500Y18536D01*
X66714Y18578D01*
X66895Y18700D01*
X66999Y18855D01*
X67001Y18849D01*
X67139Y18678D01*
X67331Y18573D01*
X67363Y18566D01*
X67450Y18615D01*
X67450Y16235D01*
X67354Y16274D01*
X67146Y16275D01*
X66953Y16195D01*
X66805Y16047D01*
X66725Y15854D01*
X66724Y15646D01*
X66804Y15453D01*
X66952Y15305D01*
X67145Y15225D01*
X67353Y15224D01*
X67547Y15304D01*
X67694Y15452D01*
X67774Y15645D01*
X67775Y15853D01*
X67775Y13853D01*
X67695Y14047D01*
X67547Y14194D01*
X67354Y14274D01*
X67146Y14275D01*
X66953Y14195D01*
X66805Y14047D01*
X66725Y13854D01*
X66724Y13646D01*
X66804Y13453D01*
X66952Y13305D01*
X67145Y13225D01*
X67353Y13224D01*
X67547Y13304D01*
X67694Y13452D01*
X67774Y13645D01*
X67775Y13853D01*
X67775Y12262D01*
X67768Y12382D01*
X67710Y12522D01*
X67617Y12547D01*
X67547Y12476D01*
X67547Y12617D01*
X67522Y12710D01*
X67325Y12779D01*
X67117Y12768D01*
X66977Y12710D01*
X66952Y12617D01*
X67250Y12320D01*
X67547Y12617D01*
X67547Y12476D01*
X67320Y12250D01*
X67617Y11952D01*
X67710Y11977D01*
X67779Y12174D01*
X67779Y9229D01*
X67775Y9231D01*
X67775Y10353D01*
X67695Y10547D01*
X67547Y10694D01*
X67547Y10695D01*
X67547Y11882D01*
X67250Y12179D01*
X67179Y12108D01*
X67179Y12250D01*
X66882Y12547D01*
X66789Y12522D01*
X66720Y12325D01*
X66731Y12117D01*
X66789Y11977D01*
X66882Y11952D01*
X67179Y12250D01*
X67179Y12108D01*
X66952Y11882D01*
X66977Y11789D01*
X67174Y11720D01*
X67382Y11731D01*
X67522Y11789D01*
X67547Y11882D01*
X67547Y10695D01*
X67354Y10774D01*
X67146Y10775D01*
X66953Y10695D01*
X66805Y10547D01*
X66725Y10354D01*
X66724Y10146D01*
X66804Y9953D01*
X66952Y9805D01*
X67145Y9725D01*
X67353Y9724D01*
X67547Y9804D01*
X67694Y9952D01*
X67774Y10145D01*
X67775Y10353D01*
X67775Y9231D01*
X67609Y9299D01*
X67391Y9300D01*
X67188Y9216D01*
X67034Y9061D01*
X66950Y8859D01*
X66949Y8641D01*
X67033Y8438D01*
X67188Y8284D01*
X67390Y8200D01*
X67608Y8199D01*
X67811Y8283D01*
X67965Y8438D01*
X68049Y8640D01*
X68050Y8858D01*
X68050Y7608D01*
X67966Y7811D01*
X67811Y7965D01*
X67609Y8049D01*
X67391Y8050D01*
X67188Y7966D01*
X67034Y7811D01*
X66950Y7609D01*
X66949Y7391D01*
X67033Y7188D01*
X67188Y7034D01*
X67390Y6950D01*
X67608Y6949D01*
X67811Y7033D01*
X67965Y7188D01*
X68049Y7390D01*
X68050Y7608D01*
X68050Y6750D01*
X66554Y6750D01*
X66554Y17418D01*
X66543Y17636D01*
X66481Y17787D01*
X66385Y17815D01*
X66315Y17744D01*
X66315Y17885D01*
X66287Y17981D01*
X66081Y18054D01*
X65863Y18043D01*
X65712Y17981D01*
X65684Y17885D01*
X66000Y17570D01*
X66315Y17885D01*
X66315Y17744D01*
X66070Y17500D01*
X66385Y17184D01*
X66481Y17212D01*
X66554Y17418D01*
X66554Y6750D01*
X66550Y6750D01*
X66550Y13608D01*
X66466Y13811D01*
X66315Y13962D01*
X66315Y17114D01*
X66000Y17429D01*
X65929Y17358D01*
X65929Y17500D01*
X65614Y17815D01*
X65518Y17787D01*
X65445Y17581D01*
X65456Y17363D01*
X65518Y17212D01*
X65614Y17184D01*
X65929Y17500D01*
X65929Y17358D01*
X65684Y17114D01*
X65712Y17018D01*
X65918Y16945D01*
X66136Y16956D01*
X66287Y17018D01*
X66315Y17114D01*
X66315Y13962D01*
X66311Y13965D01*
X66109Y14049D01*
X65891Y14050D01*
X65688Y13966D01*
X65534Y13811D01*
X65450Y13609D01*
X65449Y13391D01*
X65533Y13188D01*
X65688Y13034D01*
X65890Y12950D01*
X66108Y12949D01*
X66311Y13033D01*
X66465Y13188D01*
X66549Y13390D01*
X66550Y13608D01*
X66550Y6750D01*
X66529Y6750D01*
X66529Y12174D01*
X66518Y12382D01*
X66460Y12522D01*
X66367Y12547D01*
X66297Y12476D01*
X66297Y12617D01*
X66272Y12710D01*
X66075Y12779D01*
X65867Y12768D01*
X65727Y12710D01*
X65702Y12617D01*
X66000Y12320D01*
X66297Y12617D01*
X66297Y12476D01*
X66070Y12250D01*
X66367Y11952D01*
X66460Y11977D01*
X66529Y12174D01*
X66529Y6750D01*
X66525Y6750D01*
X66525Y10353D01*
X66445Y10547D01*
X66297Y10694D01*
X66297Y10695D01*
X66297Y11882D01*
X66000Y12179D01*
X65929Y12108D01*
X65929Y12250D01*
X65632Y12547D01*
X65539Y12522D01*
X65470Y12325D01*
X65481Y12117D01*
X65539Y11977D01*
X65632Y11952D01*
X65929Y12250D01*
X65929Y12108D01*
X65702Y11882D01*
X65727Y11789D01*
X65924Y11720D01*
X66132Y11731D01*
X66272Y11789D01*
X66297Y11882D01*
X66297Y10695D01*
X66104Y10774D01*
X65896Y10775D01*
X65703Y10695D01*
X65555Y10547D01*
X65475Y10354D01*
X65474Y10146D01*
X65554Y9953D01*
X65702Y9805D01*
X65895Y9725D01*
X66103Y9724D01*
X66297Y9804D01*
X66444Y9952D01*
X66524Y10145D01*
X66525Y10353D01*
X66525Y6750D01*
X65300Y6750D01*
X65300Y13608D01*
X65300Y17608D01*
X65216Y17811D01*
X65061Y17965D01*
X64859Y18049D01*
X64641Y18050D01*
X64450Y17971D01*
X64450Y18612D01*
X64450Y19200D01*
X64450Y19300D01*
X64450Y19887D01*
X64387Y19950D01*
X64140Y19950D01*
X64048Y19912D01*
X63978Y19841D01*
X63940Y19749D01*
X63939Y19650D01*
X63940Y19362D01*
X64002Y19300D01*
X64450Y19300D01*
X64450Y19200D01*
X64002Y19200D01*
X63940Y19137D01*
X63939Y18849D01*
X63940Y18750D01*
X63978Y18658D01*
X64048Y18587D01*
X64140Y18549D01*
X64387Y18550D01*
X64450Y18612D01*
X64450Y17971D01*
X64438Y17966D01*
X64284Y17811D01*
X64200Y17609D01*
X64199Y17391D01*
X64283Y17188D01*
X64438Y17034D01*
X64640Y16950D01*
X64858Y16949D01*
X65061Y17033D01*
X65215Y17188D01*
X65299Y17390D01*
X65300Y17608D01*
X65300Y13608D01*
X65216Y13811D01*
X65061Y13965D01*
X64859Y14049D01*
X64641Y14050D01*
X64438Y13966D01*
X64284Y13811D01*
X64200Y13609D01*
X64199Y13391D01*
X64283Y13188D01*
X64438Y13034D01*
X64640Y12950D01*
X64858Y12949D01*
X65061Y13033D01*
X65215Y13188D01*
X65299Y13390D01*
X65300Y13608D01*
X65300Y6750D01*
X62900Y6750D01*
X62901Y7164D01*
X63057Y7164D01*
X63188Y7034D01*
X63390Y6950D01*
X63608Y6949D01*
X63811Y7033D01*
X63965Y7188D01*
X64049Y7390D01*
X64050Y7608D01*
X64050Y8858D01*
X64050Y13608D01*
X64050Y17608D01*
X63966Y17811D01*
X63811Y17965D01*
X63609Y18049D01*
X63529Y18049D01*
X63529Y19674D01*
X63525Y19762D01*
X63525Y21853D01*
X63445Y22047D01*
X63297Y22194D01*
X63104Y22274D01*
X62896Y22275D01*
X62703Y22195D01*
X62555Y22047D01*
X62475Y21854D01*
X62474Y21646D01*
X62554Y21453D01*
X62702Y21305D01*
X62895Y21225D01*
X63103Y21224D01*
X63297Y21304D01*
X63444Y21452D01*
X63524Y21645D01*
X63525Y21853D01*
X63525Y19762D01*
X63518Y19882D01*
X63460Y20022D01*
X63367Y20047D01*
X63297Y19976D01*
X63297Y20117D01*
X63272Y20210D01*
X63075Y20279D01*
X62867Y20268D01*
X62727Y20210D01*
X62702Y20117D01*
X63000Y19820D01*
X63297Y20117D01*
X63297Y19976D01*
X63070Y19750D01*
X63367Y19452D01*
X63460Y19477D01*
X63529Y19674D01*
X63529Y18049D01*
X63391Y18050D01*
X63297Y18011D01*
X63297Y19382D01*
X63000Y19679D01*
X62929Y19608D01*
X62929Y19750D01*
X62632Y20047D01*
X62539Y20022D01*
X62470Y19825D01*
X62481Y19617D01*
X62539Y19477D01*
X62632Y19452D01*
X62929Y19750D01*
X62929Y19608D01*
X62702Y19382D01*
X62727Y19289D01*
X62924Y19220D01*
X63132Y19231D01*
X63272Y19289D01*
X63297Y19382D01*
X63297Y18011D01*
X63188Y17966D01*
X63034Y17811D01*
X62950Y17609D01*
X62949Y17391D01*
X63033Y17188D01*
X63188Y17034D01*
X63390Y16950D01*
X63608Y16949D01*
X63811Y17033D01*
X63965Y17188D01*
X64049Y17390D01*
X64050Y17608D01*
X64050Y13608D01*
X63966Y13811D01*
X63811Y13965D01*
X63609Y14049D01*
X63391Y14050D01*
X63188Y13966D01*
X63034Y13811D01*
X62950Y13609D01*
X62949Y13391D01*
X63033Y13188D01*
X63188Y13034D01*
X63390Y12950D01*
X63608Y12949D01*
X63811Y13033D01*
X63965Y13188D01*
X64049Y13390D01*
X64050Y13608D01*
X64050Y8858D01*
X63966Y9061D01*
X63811Y9215D01*
X63609Y9299D01*
X63391Y9300D01*
X63188Y9216D01*
X63034Y9061D01*
X62950Y8859D01*
X62949Y8641D01*
X63033Y8438D01*
X63188Y8284D01*
X63390Y8200D01*
X63608Y8199D01*
X63811Y8283D01*
X63965Y8438D01*
X64049Y8640D01*
X64050Y8858D01*
X64050Y7608D01*
X63966Y7811D01*
X63811Y7965D01*
X63609Y8049D01*
X63391Y8050D01*
X63188Y7966D01*
X63057Y7835D01*
X62904Y7835D01*
X62913Y9975D01*
X63103Y9974D01*
X63297Y10054D01*
X63444Y10202D01*
X63524Y10395D01*
X63525Y10603D01*
X63445Y10797D01*
X63297Y10944D01*
X63164Y11000D01*
X63297Y11054D01*
X63444Y11202D01*
X63524Y11395D01*
X63525Y11603D01*
X63445Y11797D01*
X63297Y11944D01*
X63104Y12024D01*
X62922Y12025D01*
X62950Y18750D01*
X60354Y18750D01*
X60354Y19656D01*
X60344Y19894D01*
X60272Y20067D01*
X60172Y20101D01*
X60101Y20030D01*
X60101Y20172D01*
X60067Y20272D01*
X59843Y20354D01*
X59605Y20344D01*
X59432Y20272D01*
X59398Y20172D01*
X59750Y19820D01*
X60101Y20172D01*
X60101Y20030D01*
X59820Y19750D01*
X60172Y19398D01*
X60272Y19432D01*
X60354Y19656D01*
X60354Y18750D01*
X60101Y18750D01*
X60101Y19327D01*
X59750Y19679D01*
X59679Y19608D01*
X59679Y19750D01*
X59327Y20101D01*
X59227Y20067D01*
X59145Y19843D01*
X59155Y19605D01*
X59227Y19432D01*
X59327Y19398D01*
X59679Y19750D01*
X59679Y19608D01*
X59398Y19327D01*
X59432Y19227D01*
X59656Y19145D01*
X59894Y19155D01*
X60067Y19227D01*
X60101Y19327D01*
X60101Y18750D01*
X59220Y18750D01*
X57450Y20471D01*
X57450Y27450D01*
X57450Y28150D01*
X70378Y28150D01*
X73250Y25080D01*
X73299Y8177D01*
X73299Y8177D01*
G37*
G54D42*
X73299Y8177D02*
X73100Y8048D01*
X73100Y19118D01*
X73008Y19339D01*
X72840Y19508D01*
X72800Y19525D01*
X72800Y22810D01*
X72762Y23000D01*
X72762Y24630D01*
X72762Y24929D01*
X72750Y24978D01*
X72627Y25197D01*
X72431Y25352D01*
X72190Y25420D01*
X71800Y25420D01*
X71800Y24830D01*
X72715Y24830D01*
X72762Y24929D01*
X72762Y24630D01*
X72715Y24730D01*
X71800Y24730D01*
X71800Y24140D01*
X72190Y24140D01*
X72431Y24207D01*
X72627Y24362D01*
X72750Y24581D01*
X72762Y24630D01*
X72762Y23000D01*
X72751Y23054D01*
X72612Y23262D01*
X72405Y23401D01*
X72160Y23450D01*
X71700Y23450D01*
X71700Y24140D01*
X71700Y24730D01*
X71700Y24830D01*
X71700Y25420D01*
X71310Y25420D01*
X71068Y25352D01*
X70872Y25197D01*
X70749Y24978D01*
X70737Y24929D01*
X70784Y24830D01*
X71700Y24830D01*
X71700Y24730D01*
X70784Y24730D01*
X70737Y24630D01*
X70749Y24581D01*
X70872Y24362D01*
X71068Y24207D01*
X71310Y24140D01*
X71700Y24140D01*
X71700Y23450D01*
X71339Y23450D01*
X71094Y23401D01*
X70887Y23262D01*
X70748Y23054D01*
X70699Y22810D01*
X70748Y22565D01*
X70887Y22357D01*
X71094Y22218D01*
X71339Y22170D01*
X72160Y22170D01*
X72405Y22218D01*
X72612Y22357D01*
X72751Y22565D01*
X72800Y22810D01*
X72800Y19525D01*
X72619Y19599D01*
X72381Y19600D01*
X72160Y19508D01*
X71991Y19340D01*
X71900Y19119D01*
X71899Y18881D01*
X71991Y18660D01*
X72159Y18491D01*
X72380Y18400D01*
X72618Y18399D01*
X72839Y18491D01*
X73008Y18659D01*
X73099Y18880D01*
X73100Y19118D01*
X73100Y8048D01*
X71221Y6837D01*
X71221Y12142D01*
X71195Y12207D01*
X71195Y13884D01*
X71186Y14159D01*
X71100Y14367D01*
X71100Y18699D01*
X71100Y19399D01*
X71062Y19491D01*
X70991Y19561D01*
X70899Y19599D01*
X70800Y19600D01*
X70100Y19600D01*
X70008Y19562D01*
X69938Y19491D01*
X69900Y19399D01*
X69899Y19300D01*
X69899Y18600D01*
X69937Y18508D01*
X70008Y18438D01*
X70100Y18400D01*
X70199Y18399D01*
X70899Y18399D01*
X70991Y18437D01*
X71061Y18508D01*
X71099Y18600D01*
X71100Y18699D01*
X71100Y14367D01*
X71097Y14372D01*
X70987Y14417D01*
X70917Y14346D01*
X70917Y14487D01*
X70872Y14597D01*
X70615Y14695D01*
X70340Y14686D01*
X70127Y14597D01*
X70082Y14487D01*
X70500Y14070D01*
X70917Y14487D01*
X70917Y14346D01*
X70570Y14000D01*
X70987Y13582D01*
X71097Y13627D01*
X71195Y13884D01*
X71195Y12207D01*
X71112Y12408D01*
X70917Y12603D01*
X70917Y13512D01*
X70500Y13929D01*
X70429Y13858D01*
X70429Y14000D01*
X70012Y14417D01*
X69902Y14372D01*
X69804Y14115D01*
X69813Y13840D01*
X69902Y13627D01*
X70012Y13582D01*
X70429Y14000D01*
X70429Y13858D01*
X70082Y13512D01*
X70127Y13402D01*
X70384Y13304D01*
X70659Y13313D01*
X70872Y13402D01*
X70917Y13512D01*
X70917Y12603D01*
X70909Y12611D01*
X70644Y12721D01*
X70357Y12721D01*
X70091Y12612D01*
X69888Y12409D01*
X69778Y12144D01*
X69778Y11857D01*
X69887Y11591D01*
X70090Y11388D01*
X70355Y11278D01*
X70642Y11278D01*
X70908Y11387D01*
X71111Y11590D01*
X71221Y11855D01*
X71221Y12142D01*
X71221Y6837D01*
X71191Y6818D01*
X71191Y9608D01*
X71191Y10490D01*
X71153Y10582D01*
X71082Y10652D01*
X70990Y10690D01*
X70891Y10691D01*
X70009Y10691D01*
X69917Y10653D01*
X69847Y10582D01*
X69809Y10490D01*
X69808Y10391D01*
X69808Y9509D01*
X69846Y9417D01*
X69917Y9347D01*
X70009Y9309D01*
X70108Y9308D01*
X70990Y9308D01*
X71082Y9346D01*
X71152Y9417D01*
X71190Y9509D01*
X71191Y9608D01*
X71191Y6818D01*
X71085Y6750D01*
X68775Y6750D01*
X68775Y24603D01*
X68775Y26603D01*
X68695Y26797D01*
X68547Y26944D01*
X68354Y27024D01*
X68146Y27025D01*
X67953Y26945D01*
X67805Y26797D01*
X67725Y26604D01*
X67724Y26396D01*
X67804Y26203D01*
X67952Y26055D01*
X68145Y25975D01*
X68353Y25974D01*
X68547Y26054D01*
X68694Y26202D01*
X68774Y26395D01*
X68775Y26603D01*
X68775Y24603D01*
X68695Y24797D01*
X68547Y24944D01*
X68354Y25024D01*
X68146Y25025D01*
X67953Y24945D01*
X67805Y24797D01*
X67725Y24604D01*
X67724Y24396D01*
X67804Y24203D01*
X67952Y24055D01*
X68145Y23975D01*
X68353Y23974D01*
X68547Y24054D01*
X68694Y24202D01*
X68774Y24395D01*
X68775Y24603D01*
X68775Y6750D01*
X68060Y6750D01*
X68060Y19060D01*
X68060Y19200D01*
X68060Y19300D01*
X68060Y19440D01*
X68060Y22096D01*
X68060Y22403D01*
X68017Y22618D01*
X67895Y22799D01*
X67714Y22921D01*
X67554Y22952D01*
X67554Y27468D01*
X67543Y27686D01*
X67481Y27837D01*
X67385Y27865D01*
X67315Y27794D01*
X67315Y27935D01*
X67287Y28031D01*
X67081Y28104D01*
X66863Y28093D01*
X66712Y28031D01*
X66684Y27935D01*
X67000Y27620D01*
X67315Y27935D01*
X67315Y27794D01*
X67070Y27550D01*
X67385Y27234D01*
X67481Y27262D01*
X67554Y27468D01*
X67554Y22952D01*
X67550Y22953D01*
X67550Y23658D01*
X67466Y23861D01*
X67315Y24012D01*
X67315Y27164D01*
X67000Y27479D01*
X66929Y27408D01*
X66929Y27550D01*
X66614Y27865D01*
X66518Y27837D01*
X66445Y27631D01*
X66456Y27413D01*
X66518Y27262D01*
X66614Y27234D01*
X66929Y27550D01*
X66929Y27408D01*
X66684Y27164D01*
X66712Y27068D01*
X66918Y26995D01*
X67136Y27006D01*
X67287Y27068D01*
X67315Y27164D01*
X67315Y24012D01*
X67311Y24015D01*
X67109Y24099D01*
X66891Y24100D01*
X66688Y24016D01*
X66534Y23861D01*
X66450Y23659D01*
X66449Y23441D01*
X66533Y23238D01*
X66688Y23084D01*
X66890Y23000D01*
X67108Y22999D01*
X67311Y23083D01*
X67465Y23238D01*
X67549Y23440D01*
X67550Y23658D01*
X67550Y22953D01*
X67500Y22963D01*
X67285Y22921D01*
X67104Y22799D01*
X67000Y22644D01*
X66895Y22799D01*
X66714Y22921D01*
X66500Y22963D01*
X66285Y22921D01*
X66279Y22917D01*
X66279Y26424D01*
X66268Y26632D01*
X66210Y26772D01*
X66117Y26797D01*
X66047Y26726D01*
X66047Y26867D01*
X66022Y26960D01*
X65825Y27029D01*
X65617Y27018D01*
X65477Y26960D01*
X65452Y26867D01*
X65750Y26570D01*
X66047Y26867D01*
X66047Y26726D01*
X65820Y26500D01*
X66117Y26202D01*
X66210Y26227D01*
X66279Y26424D01*
X66279Y22917D01*
X66275Y22913D01*
X66275Y24603D01*
X66195Y24797D01*
X66047Y24944D01*
X66047Y24945D01*
X66047Y26132D01*
X65750Y26429D01*
X65679Y26358D01*
X65679Y26500D01*
X65382Y26797D01*
X65289Y26772D01*
X65220Y26575D01*
X65231Y26367D01*
X65289Y26227D01*
X65382Y26202D01*
X65679Y26500D01*
X65679Y26358D01*
X65452Y26132D01*
X65477Y26039D01*
X65674Y25970D01*
X65882Y25981D01*
X66022Y26039D01*
X66047Y26132D01*
X66047Y24945D01*
X65854Y25024D01*
X65646Y25025D01*
X65453Y24945D01*
X65305Y24797D01*
X65225Y24604D01*
X65224Y24396D01*
X65304Y24203D01*
X65452Y24055D01*
X65645Y23975D01*
X65853Y23974D01*
X66047Y24054D01*
X66194Y24202D01*
X66274Y24395D01*
X66275Y24603D01*
X66275Y22913D01*
X66104Y22799D01*
X66000Y22644D01*
X65946Y22723D01*
X65946Y22750D01*
X65946Y22750D01*
X65912Y22921D01*
X65815Y23065D01*
X65815Y23065D01*
X65065Y23815D01*
X64921Y23912D01*
X64750Y23946D01*
X63000Y23946D01*
X62828Y23912D01*
X62684Y23815D01*
X61064Y22196D01*
X60354Y22196D01*
X60354Y26656D01*
X60344Y26894D01*
X60272Y27067D01*
X60172Y27101D01*
X60101Y27030D01*
X60101Y27172D01*
X60067Y27272D01*
X59843Y27354D01*
X59605Y27344D01*
X59432Y27272D01*
X59398Y27172D01*
X59750Y26820D01*
X60101Y27172D01*
X60101Y27030D01*
X59820Y26750D01*
X60172Y26398D01*
X60272Y26432D01*
X60354Y26656D01*
X60354Y22196D01*
X60350Y22196D01*
X60350Y24449D01*
X60350Y25149D01*
X60312Y25241D01*
X60241Y25311D01*
X60149Y25349D01*
X60101Y25349D01*
X60101Y26327D01*
X59750Y26679D01*
X59679Y26608D01*
X59679Y26750D01*
X59327Y27101D01*
X59227Y27067D01*
X59145Y26843D01*
X59155Y26605D01*
X59227Y26432D01*
X59327Y26398D01*
X59679Y26750D01*
X59679Y26608D01*
X59398Y26327D01*
X59432Y26227D01*
X59656Y26145D01*
X59894Y26155D01*
X60067Y26227D01*
X60101Y26327D01*
X60101Y25349D01*
X60050Y25350D01*
X59350Y25350D01*
X59258Y25312D01*
X59188Y25241D01*
X59150Y25149D01*
X59149Y25050D01*
X59149Y24350D01*
X59187Y24258D01*
X59258Y24188D01*
X59350Y24150D01*
X59449Y24149D01*
X60149Y24149D01*
X60241Y24187D01*
X60311Y24258D01*
X60349Y24350D01*
X60350Y24449D01*
X60350Y22196D01*
X60330Y22196D01*
X60312Y22241D01*
X60241Y22311D01*
X60149Y22349D01*
X60050Y22350D01*
X59350Y22350D01*
X59258Y22312D01*
X59188Y22241D01*
X59150Y22149D01*
X59149Y22050D01*
X59149Y21350D01*
X59187Y21258D01*
X59258Y21188D01*
X59350Y21150D01*
X59449Y21149D01*
X60149Y21149D01*
X60241Y21187D01*
X60311Y21258D01*
X60330Y21303D01*
X61250Y21303D01*
X61421Y21337D01*
X61421Y21337D01*
X61565Y21434D01*
X63185Y23053D01*
X64564Y23053D01*
X64692Y22925D01*
X64500Y22963D01*
X64285Y22921D01*
X64104Y22799D01*
X63982Y22618D01*
X63940Y22403D01*
X63940Y22096D01*
X63982Y21881D01*
X64104Y21700D01*
X64285Y21578D01*
X64500Y21536D01*
X64714Y21578D01*
X64895Y21700D01*
X65000Y21855D01*
X65104Y21700D01*
X65285Y21578D01*
X65500Y21536D01*
X65714Y21578D01*
X65895Y21700D01*
X66000Y21855D01*
X66104Y21700D01*
X66285Y21578D01*
X66500Y21536D01*
X66714Y21578D01*
X66895Y21700D01*
X67000Y21855D01*
X67104Y21700D01*
X67285Y21578D01*
X67500Y21536D01*
X67714Y21578D01*
X67895Y21700D01*
X68017Y21881D01*
X68060Y22096D01*
X68060Y19440D01*
X67998Y19650D01*
X67860Y19821D01*
X67668Y19926D01*
X67636Y19933D01*
X67550Y19884D01*
X67550Y19300D01*
X68060Y19300D01*
X68060Y19200D01*
X67550Y19200D01*
X67550Y18615D01*
X67636Y18566D01*
X67668Y18573D01*
X67860Y18678D01*
X67998Y18849D01*
X68060Y19060D01*
X68060Y6750D01*
X68050Y6750D01*
X68050Y7608D01*
X68050Y8858D01*
X67966Y9061D01*
X67811Y9215D01*
X67779Y9229D01*
X67779Y12174D01*
X67775Y12262D01*
X67775Y13853D01*
X67775Y15853D01*
X67695Y16047D01*
X67547Y16194D01*
X67450Y16235D01*
X67450Y18615D01*
X67450Y19200D01*
X67442Y19200D01*
X67442Y19300D01*
X67450Y19300D01*
X67450Y19884D01*
X67363Y19933D01*
X67331Y19926D01*
X67139Y19821D01*
X67001Y19650D01*
X66999Y19644D01*
X66895Y19799D01*
X66714Y19921D01*
X66500Y19963D01*
X66285Y19921D01*
X66104Y19799D01*
X66000Y19644D01*
X65895Y19799D01*
X65714Y19921D01*
X65500Y19963D01*
X65285Y19921D01*
X65104Y19799D01*
X65059Y19733D01*
X65059Y19749D01*
X65021Y19841D01*
X64951Y19912D01*
X64859Y19950D01*
X64612Y19950D01*
X64550Y19887D01*
X64550Y19300D01*
X64557Y19300D01*
X64557Y19200D01*
X64550Y19200D01*
X64550Y18612D01*
X64612Y18550D01*
X64859Y18549D01*
X64951Y18587D01*
X65021Y18658D01*
X65059Y18750D01*
X65059Y18766D01*
X65104Y18700D01*
X65285Y18578D01*
X65500Y18536D01*
X65714Y18578D01*
X65895Y18700D01*
X66000Y18855D01*
X66104Y18700D01*
X66285Y18578D01*
X66500Y18536D01*
X66714Y18578D01*
X66895Y18700D01*
X66999Y18855D01*
X67001Y18849D01*
X67139Y18678D01*
X67331Y18573D01*
X67363Y18566D01*
X67450Y18615D01*
X67450Y16235D01*
X67354Y16274D01*
X67146Y16275D01*
X66953Y16195D01*
X66805Y16047D01*
X66725Y15854D01*
X66724Y15646D01*
X66804Y15453D01*
X66952Y15305D01*
X67145Y15225D01*
X67353Y15224D01*
X67547Y15304D01*
X67694Y15452D01*
X67774Y15645D01*
X67775Y15853D01*
X67775Y13853D01*
X67695Y14047D01*
X67547Y14194D01*
X67354Y14274D01*
X67146Y14275D01*
X66953Y14195D01*
X66805Y14047D01*
X66725Y13854D01*
X66724Y13646D01*
X66804Y13453D01*
X66952Y13305D01*
X67145Y13225D01*
X67353Y13224D01*
X67547Y13304D01*
X67694Y13452D01*
X67774Y13645D01*
X67775Y13853D01*
X67775Y12262D01*
X67768Y12382D01*
X67710Y12522D01*
X67617Y12547D01*
X67547Y12476D01*
X67547Y12617D01*
X67522Y12710D01*
X67325Y12779D01*
X67117Y12768D01*
X66977Y12710D01*
X66952Y12617D01*
X67250Y12320D01*
X67547Y12617D01*
X67547Y12476D01*
X67320Y12250D01*
X67617Y11952D01*
X67710Y11977D01*
X67779Y12174D01*
X67779Y9229D01*
X67775Y9231D01*
X67775Y10353D01*
X67695Y10547D01*
X67547Y10694D01*
X67547Y10695D01*
X67547Y11882D01*
X67250Y12179D01*
X67179Y12108D01*
X67179Y12250D01*
X66882Y12547D01*
X66789Y12522D01*
X66720Y12325D01*
X66731Y12117D01*
X66789Y11977D01*
X66882Y11952D01*
X67179Y12250D01*
X67179Y12108D01*
X66952Y11882D01*
X66977Y11789D01*
X67174Y11720D01*
X67382Y11731D01*
X67522Y11789D01*
X67547Y11882D01*
X67547Y10695D01*
X67354Y10774D01*
X67146Y10775D01*
X66953Y10695D01*
X66805Y10547D01*
X66725Y10354D01*
X66724Y10146D01*
X66804Y9953D01*
X66952Y9805D01*
X67145Y9725D01*
X67353Y9724D01*
X67547Y9804D01*
X67694Y9952D01*
X67774Y10145D01*
X67775Y10353D01*
X67775Y9231D01*
X67609Y9299D01*
X67391Y9300D01*
X67188Y9216D01*
X67034Y9061D01*
X66950Y8859D01*
X66949Y8641D01*
X67033Y8438D01*
X67188Y8284D01*
X67390Y8200D01*
X67608Y8199D01*
X67811Y8283D01*
X67965Y8438D01*
X68049Y8640D01*
X68050Y8858D01*
X68050Y7608D01*
X67966Y7811D01*
X67811Y7965D01*
X67609Y8049D01*
X67391Y8050D01*
X67188Y7966D01*
X67034Y7811D01*
X66950Y7609D01*
X66949Y7391D01*
X67033Y7188D01*
X67188Y7034D01*
X67390Y6950D01*
X67608Y6949D01*
X67811Y7033D01*
X67965Y7188D01*
X68049Y7390D01*
X68050Y7608D01*
X68050Y6750D01*
X66554Y6750D01*
X66554Y17418D01*
X66543Y17636D01*
X66481Y17787D01*
X66385Y17815D01*
X66315Y17744D01*
X66315Y17885D01*
X66287Y17981D01*
X66081Y18054D01*
X65863Y18043D01*
X65712Y17981D01*
X65684Y17885D01*
X66000Y17570D01*
X66315Y17885D01*
X66315Y17744D01*
X66070Y17500D01*
X66385Y17184D01*
X66481Y17212D01*
X66554Y17418D01*
X66554Y6750D01*
X66550Y6750D01*
X66550Y13608D01*
X66466Y13811D01*
X66315Y13962D01*
X66315Y17114D01*
X66000Y17429D01*
X65929Y17358D01*
X65929Y17500D01*
X65614Y17815D01*
X65518Y17787D01*
X65445Y17581D01*
X65456Y17363D01*
X65518Y17212D01*
X65614Y17184D01*
X65929Y17500D01*
X65929Y17358D01*
X65684Y17114D01*
X65712Y17018D01*
X65918Y16945D01*
X66136Y16956D01*
X66287Y17018D01*
X66315Y17114D01*
X66315Y13962D01*
X66311Y13965D01*
X66109Y14049D01*
X65891Y14050D01*
X65688Y13966D01*
X65534Y13811D01*
X65450Y13609D01*
X65449Y13391D01*
X65533Y13188D01*
X65688Y13034D01*
X65890Y12950D01*
X66108Y12949D01*
X66311Y13033D01*
X66465Y13188D01*
X66549Y13390D01*
X66550Y13608D01*
X66550Y6750D01*
X66529Y6750D01*
X66529Y12174D01*
X66518Y12382D01*
X66460Y12522D01*
X66367Y12547D01*
X66297Y12476D01*
X66297Y12617D01*
X66272Y12710D01*
X66075Y12779D01*
X65867Y12768D01*
X65727Y12710D01*
X65702Y12617D01*
X66000Y12320D01*
X66297Y12617D01*
X66297Y12476D01*
X66070Y12250D01*
X66367Y11952D01*
X66460Y11977D01*
X66529Y12174D01*
X66529Y6750D01*
X66525Y6750D01*
X66525Y10353D01*
X66445Y10547D01*
X66297Y10694D01*
X66297Y10695D01*
X66297Y11882D01*
X66000Y12179D01*
X65929Y12108D01*
X65929Y12250D01*
X65632Y12547D01*
X65539Y12522D01*
X65470Y12325D01*
X65481Y12117D01*
X65539Y11977D01*
X65632Y11952D01*
X65929Y12250D01*
X65929Y12108D01*
X65702Y11882D01*
X65727Y11789D01*
X65924Y11720D01*
X66132Y11731D01*
X66272Y11789D01*
X66297Y11882D01*
X66297Y10695D01*
X66104Y10774D01*
X65896Y10775D01*
X65703Y10695D01*
X65555Y10547D01*
X65475Y10354D01*
X65474Y10146D01*
X65554Y9953D01*
X65702Y9805D01*
X65895Y9725D01*
X66103Y9724D01*
X66297Y9804D01*
X66444Y9952D01*
X66524Y10145D01*
X66525Y10353D01*
X66525Y6750D01*
X65300Y6750D01*
X65300Y13608D01*
X65300Y17608D01*
X65216Y17811D01*
X65061Y17965D01*
X64859Y18049D01*
X64641Y18050D01*
X64450Y17971D01*
X64450Y18612D01*
X64450Y19200D01*
X64450Y19300D01*
X64450Y19887D01*
X64387Y19950D01*
X64140Y19950D01*
X64048Y19912D01*
X63978Y19841D01*
X63940Y19749D01*
X63939Y19650D01*
X63940Y19362D01*
X64002Y19300D01*
X64450Y19300D01*
X64450Y19200D01*
X64002Y19200D01*
X63940Y19137D01*
X63939Y18849D01*
X63940Y18750D01*
X63978Y18658D01*
X64048Y18587D01*
X64140Y18549D01*
X64387Y18550D01*
X64450Y18612D01*
X64450Y17971D01*
X64438Y17966D01*
X64284Y17811D01*
X64200Y17609D01*
X64199Y17391D01*
X64283Y17188D01*
X64438Y17034D01*
X64640Y16950D01*
X64858Y16949D01*
X65061Y17033D01*
X65215Y17188D01*
X65299Y17390D01*
X65300Y17608D01*
X65300Y13608D01*
X65216Y13811D01*
X65061Y13965D01*
X64859Y14049D01*
X64641Y14050D01*
X64438Y13966D01*
X64284Y13811D01*
X64200Y13609D01*
X64199Y13391D01*
X64283Y13188D01*
X64438Y13034D01*
X64640Y12950D01*
X64858Y12949D01*
X65061Y13033D01*
X65215Y13188D01*
X65299Y13390D01*
X65300Y13608D01*
X65300Y6750D01*
X62900Y6750D01*
X62901Y7164D01*
X63057Y7164D01*
X63188Y7034D01*
X63390Y6950D01*
X63608Y6949D01*
X63811Y7033D01*
X63965Y7188D01*
X64049Y7390D01*
X64050Y7608D01*
X64050Y8858D01*
X64050Y13608D01*
X64050Y17608D01*
X63966Y17811D01*
X63811Y17965D01*
X63609Y18049D01*
X63529Y18049D01*
X63529Y19674D01*
X63525Y19762D01*
X63525Y21853D01*
X63445Y22047D01*
X63297Y22194D01*
X63104Y22274D01*
X62896Y22275D01*
X62703Y22195D01*
X62555Y22047D01*
X62475Y21854D01*
X62474Y21646D01*
X62554Y21453D01*
X62702Y21305D01*
X62895Y21225D01*
X63103Y21224D01*
X63297Y21304D01*
X63444Y21452D01*
X63524Y21645D01*
X63525Y21853D01*
X63525Y19762D01*
X63518Y19882D01*
X63460Y20022D01*
X63367Y20047D01*
X63297Y19976D01*
X63297Y20117D01*
X63272Y20210D01*
X63075Y20279D01*
X62867Y20268D01*
X62727Y20210D01*
X62702Y20117D01*
X63000Y19820D01*
X63297Y20117D01*
X63297Y19976D01*
X63070Y19750D01*
X63367Y19452D01*
X63460Y19477D01*
X63529Y19674D01*
X63529Y18049D01*
X63391Y18050D01*
X63297Y18011D01*
X63297Y19382D01*
X63000Y19679D01*
X62929Y19608D01*
X62929Y19750D01*
X62632Y20047D01*
X62539Y20022D01*
X62470Y19825D01*
X62481Y19617D01*
X62539Y19477D01*
X62632Y19452D01*
X62929Y19750D01*
X62929Y19608D01*
X62702Y19382D01*
X62727Y19289D01*
X62924Y19220D01*
X63132Y19231D01*
X63272Y19289D01*
X63297Y19382D01*
X63297Y18011D01*
X63188Y17966D01*
X63034Y17811D01*
X62950Y17609D01*
X62949Y17391D01*
X63033Y17188D01*
X63188Y17034D01*
X63390Y16950D01*
X63608Y16949D01*
X63811Y17033D01*
X63965Y17188D01*
X64049Y17390D01*
X64050Y17608D01*
X64050Y13608D01*
X63966Y13811D01*
X63811Y13965D01*
X63609Y14049D01*
X63391Y14050D01*
X63188Y13966D01*
X63034Y13811D01*
X62950Y13609D01*
X62949Y13391D01*
X63033Y13188D01*
X63188Y13034D01*
X63390Y12950D01*
X63608Y12949D01*
X63811Y13033D01*
X63965Y13188D01*
X64049Y13390D01*
X64050Y13608D01*
X64050Y8858D01*
X63966Y9061D01*
X63811Y9215D01*
X63609Y9299D01*
X63391Y9300D01*
X63188Y9216D01*
X63034Y9061D01*
X62950Y8859D01*
X62949Y8641D01*
X63033Y8438D01*
X63188Y8284D01*
X63390Y8200D01*
X63608Y8199D01*
X63811Y8283D01*
X63965Y8438D01*
X64049Y8640D01*
X64050Y8858D01*
X64050Y7608D01*
X63966Y7811D01*
X63811Y7965D01*
X63609Y8049D01*
X63391Y8050D01*
X63188Y7966D01*
X63057Y7835D01*
X62904Y7835D01*
X62913Y9975D01*
X63103Y9974D01*
X63297Y10054D01*
X63444Y10202D01*
X63524Y10395D01*
X63525Y10603D01*
X63445Y10797D01*
X63297Y10944D01*
X63164Y11000D01*
X63297Y11054D01*
X63444Y11202D01*
X63524Y11395D01*
X63525Y11603D01*
X63445Y11797D01*
X63297Y11944D01*
X63104Y12024D01*
X62922Y12025D01*
X62950Y18750D01*
X60354Y18750D01*
X60354Y19656D01*
X60344Y19894D01*
X60272Y20067D01*
X60172Y20101D01*
X60101Y20030D01*
X60101Y20172D01*
X60067Y20272D01*
X59843Y20354D01*
X59605Y20344D01*
X59432Y20272D01*
X59398Y20172D01*
X59750Y19820D01*
X60101Y20172D01*
X60101Y20030D01*
X59820Y19750D01*
X60172Y19398D01*
X60272Y19432D01*
X60354Y19656D01*
X60354Y18750D01*
X60101Y18750D01*
X60101Y19327D01*
X59750Y19679D01*
X59679Y19608D01*
X59679Y19750D01*
X59327Y20101D01*
X59227Y20067D01*
X59145Y19843D01*
X59155Y19605D01*
X59227Y19432D01*
X59327Y19398D01*
X59679Y19750D01*
X59679Y19608D01*
X59398Y19327D01*
X59432Y19227D01*
X59656Y19145D01*
X59894Y19155D01*
X60067Y19227D01*
X60101Y19327D01*
X60101Y18750D01*
X59220Y18750D01*
X57450Y20471D01*
X57450Y27450D01*
X57450Y28150D01*
X70378Y28150D01*
X73250Y25080D01*
X73299Y8177D01*
M02*
