G04 (Genere par PCBnew (20080825c)) le 18/8/2009-19:22:28*
G01*
G70*
G90*
%MOIN*%
G04 Gerber Fmt 3.4, Leading zero omitted, Abs format*
%FSLAX34Y34*%
G04 APERTURE LIST*
%ADD10C,0.015000*%
%ADD11C,0.012000*%
%ADD12C,0.070000*%
%ADD13R,0.062000X0.090000*%
%ADD14O,0.062000X0.090000*%
%ADD15C,0.055000*%
%ADD16R,0.070000X0.070000*%
%ADD17R,0.055000X0.055000*%
%ADD18C,0.060000*%
%ADD19C,0.160000*%
%ADD20C,0.080000*%
%ADD21C,0.045000*%
%ADD22C,0.017000*%
%ADD23C,0.005000*%
%ADD24C,0.001000*%
%ADD25C,0.008000*%
%ADD26C,0.010000*%
%ADD27C,0.090000*%
%ADD28R,0.082000X0.110000*%
%ADD29O,0.082000X0.110000*%
%ADD30C,0.075000*%
%ADD31R,0.090000X0.090000*%
%ADD32R,0.075000X0.075000*%
%ADD33C,0.180000*%
%ADD34C,0.100000*%
G04 APERTURE END LIST*
G54D10*
X96500Y-57250D02*
X96750Y-57250D01*
X89750Y-57250D02*
X96500Y-57250D01*
X71250Y-18750D02*
X96750Y-18750D01*
X11750Y-18750D02*
X12250Y-18750D01*
X11750Y-57250D02*
X11750Y-18750D01*
X12250Y-57250D02*
X11750Y-57250D01*
X96750Y-18750D02*
X96750Y-57250D01*
X69189Y-20500D02*
X69096Y-20844D01*
X69096Y-20844D02*
X68844Y-21096D01*
X68844Y-21096D02*
X68500Y-21189D01*
X68500Y-21189D02*
X68156Y-21096D01*
X68156Y-21096D02*
X67904Y-20844D01*
X67904Y-20844D02*
X67811Y-20500D01*
X67811Y-20500D02*
X67904Y-20156D01*
X67904Y-20156D02*
X68156Y-19904D01*
X68156Y-19904D02*
X68500Y-19811D01*
X68500Y-19811D02*
X68844Y-19904D01*
X68844Y-19904D02*
X69096Y-20156D01*
X69096Y-20156D02*
X69189Y-20500D01*
X67122Y-20500D02*
X69878Y-20500D01*
X68500Y-19122D02*
X68500Y-21878D01*
G54D11*
X47698Y-21400D02*
X47698Y-20600D01*
X47698Y-20600D02*
X47173Y-21400D01*
X47173Y-21400D02*
X47173Y-20600D01*
X46912Y-20867D02*
X46912Y-21223D01*
X46912Y-21223D02*
X46762Y-21400D01*
X46762Y-21400D02*
X46537Y-21400D01*
X46537Y-21400D02*
X46387Y-21223D01*
X46387Y-21223D02*
X46387Y-20867D01*
X46051Y-21400D02*
X46051Y-20600D01*
X46051Y-21134D02*
X45976Y-21134D01*
X45976Y-21134D02*
X45601Y-20867D01*
X45976Y-21134D02*
X45601Y-21400D01*
X45340Y-20867D02*
X44890Y-20867D01*
X44890Y-20867D02*
X44815Y-20956D01*
X44815Y-20956D02*
X44815Y-21400D01*
X44815Y-21400D02*
X45265Y-21400D01*
X45265Y-21400D02*
X45340Y-21312D01*
X45340Y-21312D02*
X45340Y-21223D01*
X45340Y-21223D02*
X45265Y-21134D01*
X45265Y-21134D02*
X44815Y-21134D01*
X44029Y-21312D02*
X44104Y-21400D01*
X44104Y-21400D02*
X44479Y-21400D01*
X44479Y-21400D02*
X44554Y-21312D01*
X44554Y-21312D02*
X44554Y-20689D01*
X44554Y-20689D02*
X44479Y-20600D01*
X44479Y-20600D02*
X44104Y-20600D01*
X44104Y-20600D02*
X44029Y-20689D01*
X43618Y-20600D02*
X43543Y-20600D01*
X43543Y-20600D02*
X43543Y-21400D01*
X43618Y-21400D02*
X43468Y-21400D01*
X42907Y-21400D02*
X42982Y-21312D01*
X42982Y-21312D02*
X42982Y-20956D01*
X42982Y-20956D02*
X42907Y-20867D01*
X42907Y-20867D02*
X42532Y-20867D01*
X42532Y-20867D02*
X42457Y-20956D01*
X42457Y-20956D02*
X42457Y-21312D01*
X42457Y-21312D02*
X42532Y-21400D01*
X42532Y-21400D02*
X42907Y-21400D01*
X41671Y-21312D02*
X41746Y-21400D01*
X41746Y-21400D02*
X42121Y-21400D01*
X42121Y-21400D02*
X42196Y-21312D01*
X42196Y-21312D02*
X42196Y-20956D01*
X42196Y-20956D02*
X42121Y-20867D01*
X42121Y-20867D02*
X41746Y-20867D01*
X41746Y-20867D02*
X41671Y-20956D01*
X41335Y-21400D02*
X41335Y-20600D01*
X41335Y-21134D02*
X41260Y-21134D01*
X41260Y-21134D02*
X40885Y-20867D01*
X41260Y-21134D02*
X40885Y-21400D01*
X40549Y-21400D02*
X40249Y-20600D01*
X39838Y-21400D02*
X39838Y-20600D01*
X39838Y-20600D02*
X39313Y-21400D01*
X39313Y-21400D02*
X39313Y-20600D01*
X38827Y-20600D02*
X38827Y-20689D01*
X38827Y-20956D02*
X38827Y-21312D01*
X38827Y-21312D02*
X38752Y-21400D01*
X38752Y-21400D02*
X38677Y-21400D01*
X38266Y-21400D02*
X37741Y-20867D01*
X38266Y-20867D02*
X37741Y-21400D01*
X37255Y-20600D02*
X37255Y-20689D01*
X37255Y-20956D02*
X37255Y-21312D01*
X37255Y-21312D02*
X37180Y-21400D01*
X37180Y-21400D02*
X37105Y-21400D01*
X36694Y-21134D02*
X36169Y-21134D01*
X36169Y-21134D02*
X36169Y-20956D01*
X36169Y-20956D02*
X36244Y-20867D01*
X36244Y-20867D02*
X36619Y-20867D01*
X36619Y-20867D02*
X36694Y-20956D01*
X36694Y-20956D02*
X36694Y-21312D01*
X36694Y-21312D02*
X36619Y-21400D01*
X36619Y-21400D02*
X36244Y-21400D01*
X36244Y-21400D02*
X36169Y-21312D01*
X35908Y-20600D02*
X35908Y-21400D01*
X35908Y-21400D02*
X35383Y-21400D01*
X35383Y-21400D02*
X35383Y-21045D01*
X35383Y-21045D02*
X35458Y-20956D01*
X35458Y-20956D02*
X35908Y-20956D01*
X35047Y-21400D02*
X35122Y-21312D01*
X35122Y-21312D02*
X35122Y-20956D01*
X35122Y-20956D02*
X35047Y-20867D01*
X35047Y-20867D02*
X34672Y-20867D01*
X34672Y-20867D02*
X34597Y-20956D01*
X34597Y-20956D02*
X34597Y-21312D01*
X34597Y-21312D02*
X34672Y-21400D01*
X34672Y-21400D02*
X35047Y-21400D01*
X34336Y-20867D02*
X33886Y-20867D01*
X33886Y-20867D02*
X33811Y-20956D01*
X33811Y-20956D02*
X33811Y-21400D01*
X33811Y-21400D02*
X34261Y-21400D01*
X34261Y-21400D02*
X34336Y-21312D01*
X34336Y-21312D02*
X34336Y-21223D01*
X34336Y-21223D02*
X34261Y-21134D01*
X34261Y-21134D02*
X33811Y-21134D01*
X33550Y-21400D02*
X33550Y-20867D01*
X33550Y-21045D02*
X33400Y-20867D01*
X33400Y-20867D02*
X33175Y-20867D01*
X33175Y-20867D02*
X33025Y-21045D01*
X32239Y-20600D02*
X32239Y-21400D01*
X32239Y-21400D02*
X32689Y-21400D01*
X32689Y-21400D02*
X32764Y-21312D01*
X32764Y-21312D02*
X32764Y-20956D01*
X32764Y-20956D02*
X32689Y-20867D01*
X32689Y-20867D02*
X32239Y-20867D01*
X81722Y-20900D02*
X81797Y-20723D01*
X81797Y-20723D02*
X81797Y-20278D01*
X81797Y-20278D02*
X81722Y-20100D01*
X80636Y-20812D02*
X80711Y-20900D01*
X80711Y-20900D02*
X81086Y-20900D01*
X81086Y-20900D02*
X81161Y-20812D01*
X81161Y-20812D02*
X81161Y-20456D01*
X81161Y-20456D02*
X81086Y-20367D01*
X81086Y-20367D02*
X80711Y-20367D01*
X80711Y-20367D02*
X80636Y-20456D01*
X80300Y-20900D02*
X80375Y-20812D01*
X80375Y-20812D02*
X80375Y-20456D01*
X80375Y-20456D02*
X80300Y-20367D01*
X80300Y-20367D02*
X79925Y-20367D01*
X79925Y-20367D02*
X79850Y-20456D01*
X79850Y-20456D02*
X79850Y-20812D01*
X79850Y-20812D02*
X79925Y-20900D01*
X79925Y-20900D02*
X80300Y-20900D01*
X79589Y-21166D02*
X79589Y-20367D01*
X79589Y-20456D02*
X79514Y-20367D01*
X79514Y-20367D02*
X79139Y-20367D01*
X79139Y-20367D02*
X79064Y-20456D01*
X79064Y-20456D02*
X79064Y-20812D01*
X79064Y-20812D02*
X79139Y-20900D01*
X79139Y-20900D02*
X79514Y-20900D01*
X79514Y-20900D02*
X79589Y-20812D01*
X78803Y-21166D02*
X78803Y-20367D01*
X78803Y-20456D02*
X78728Y-20367D01*
X78728Y-20367D02*
X78353Y-20367D01*
X78353Y-20367D02*
X78278Y-20456D01*
X78278Y-20456D02*
X78278Y-20812D01*
X78278Y-20812D02*
X78353Y-20900D01*
X78353Y-20900D02*
X78728Y-20900D01*
X78728Y-20900D02*
X78803Y-20812D01*
X78017Y-20634D02*
X77492Y-20634D01*
X77492Y-20634D02*
X77492Y-20456D01*
X77492Y-20456D02*
X77567Y-20367D01*
X77567Y-20367D02*
X77942Y-20367D01*
X77942Y-20367D02*
X78017Y-20456D01*
X78017Y-20456D02*
X78017Y-20812D01*
X78017Y-20812D02*
X77942Y-20900D01*
X77942Y-20900D02*
X77567Y-20900D01*
X77567Y-20900D02*
X77492Y-20812D01*
X77231Y-20900D02*
X77231Y-20367D01*
X77231Y-20545D02*
X77081Y-20367D01*
X77081Y-20367D02*
X76856Y-20367D01*
X76856Y-20367D02*
X76706Y-20545D01*
X75659Y-20812D02*
X75584Y-20900D01*
X75584Y-20900D02*
X75209Y-20900D01*
X75209Y-20900D02*
X75134Y-20812D01*
X75134Y-20812D02*
X75134Y-20723D01*
X75134Y-20723D02*
X75209Y-20634D01*
X75209Y-20634D02*
X75584Y-20634D01*
X75584Y-20634D02*
X75659Y-20545D01*
X75659Y-20545D02*
X75659Y-20456D01*
X75659Y-20456D02*
X75584Y-20367D01*
X75584Y-20367D02*
X75209Y-20367D01*
X75209Y-20367D02*
X75134Y-20456D01*
X74648Y-20100D02*
X74648Y-20189D01*
X74648Y-20456D02*
X74648Y-20812D01*
X74648Y-20812D02*
X74573Y-20900D01*
X74573Y-20900D02*
X74498Y-20900D01*
X73562Y-20100D02*
X73562Y-20900D01*
X73562Y-20900D02*
X74012Y-20900D01*
X74012Y-20900D02*
X74087Y-20812D01*
X74087Y-20812D02*
X74087Y-20456D01*
X74087Y-20456D02*
X74012Y-20367D01*
X74012Y-20367D02*
X73562Y-20367D01*
X73301Y-20634D02*
X72776Y-20634D01*
X72776Y-20634D02*
X72776Y-20456D01*
X72776Y-20456D02*
X72851Y-20367D01*
X72851Y-20367D02*
X73226Y-20367D01*
X73226Y-20367D02*
X73301Y-20456D01*
X73301Y-20456D02*
X73301Y-20812D01*
X73301Y-20812D02*
X73226Y-20900D01*
X73226Y-20900D02*
X72851Y-20900D01*
X72851Y-20900D02*
X72776Y-20812D01*
X72290Y-20900D02*
X72215Y-20723D01*
X72215Y-20723D02*
X72215Y-20278D01*
X72215Y-20278D02*
X72290Y-20100D01*
X79196Y-22400D02*
X79196Y-21867D01*
X79196Y-22045D02*
X79046Y-21867D01*
X79046Y-21867D02*
X78821Y-21867D01*
X78821Y-21867D02*
X78671Y-22045D01*
X78410Y-22134D02*
X77885Y-22134D01*
X77885Y-22134D02*
X77885Y-21956D01*
X77885Y-21956D02*
X77960Y-21867D01*
X77960Y-21867D02*
X78335Y-21867D01*
X78335Y-21867D02*
X78410Y-21956D01*
X78410Y-21956D02*
X78410Y-22312D01*
X78410Y-22312D02*
X78335Y-22400D01*
X78335Y-22400D02*
X77960Y-22400D01*
X77960Y-22400D02*
X77885Y-22312D01*
X77624Y-21867D02*
X77624Y-22134D01*
X77624Y-22134D02*
X77399Y-22400D01*
X77399Y-22400D02*
X77174Y-22134D01*
X77174Y-22134D02*
X77174Y-21867D01*
X76613Y-22400D02*
X76613Y-22312D01*
X75266Y-22400D02*
X75266Y-21778D01*
X75266Y-21778D02*
X75116Y-21600D01*
X75116Y-21600D02*
X74891Y-21600D01*
X74891Y-21600D02*
X74741Y-21778D01*
X74741Y-21778D02*
X74741Y-22400D01*
X75266Y-21956D02*
X74741Y-21956D01*
G54D10*
X14189Y-20500D02*
X14096Y-20844D01*
X14096Y-20844D02*
X13844Y-21096D01*
X13844Y-21096D02*
X13500Y-21189D01*
X13500Y-21189D02*
X13156Y-21096D01*
X13156Y-21096D02*
X12904Y-20844D01*
X12904Y-20844D02*
X12811Y-20500D01*
X12811Y-20500D02*
X12904Y-20156D01*
X12904Y-20156D02*
X13156Y-19904D01*
X13156Y-19904D02*
X13500Y-19811D01*
X13500Y-19811D02*
X13844Y-19904D01*
X13844Y-19904D02*
X14096Y-20156D01*
X14096Y-20156D02*
X14189Y-20500D01*
X12122Y-20500D02*
X14878Y-20500D01*
X13500Y-19122D02*
X13500Y-21878D01*
X14189Y-55250D02*
X14096Y-55594D01*
X14096Y-55594D02*
X13844Y-55846D01*
X13844Y-55846D02*
X13500Y-55939D01*
X13500Y-55939D02*
X13156Y-55846D01*
X13156Y-55846D02*
X12904Y-55594D01*
X12904Y-55594D02*
X12811Y-55250D01*
X12811Y-55250D02*
X12904Y-54906D01*
X12904Y-54906D02*
X13156Y-54654D01*
X13156Y-54654D02*
X13500Y-54561D01*
X13500Y-54561D02*
X13844Y-54654D01*
X13844Y-54654D02*
X14096Y-54906D01*
X14096Y-54906D02*
X14189Y-55250D01*
X12122Y-55250D02*
X14878Y-55250D01*
X13500Y-53872D02*
X13500Y-56628D01*
X95439Y-20500D02*
X95346Y-20844D01*
X95346Y-20844D02*
X95094Y-21096D01*
X95094Y-21096D02*
X94750Y-21189D01*
X94750Y-21189D02*
X94406Y-21096D01*
X94406Y-21096D02*
X94154Y-20844D01*
X94154Y-20844D02*
X94061Y-20500D01*
X94061Y-20500D02*
X94154Y-20156D01*
X94154Y-20156D02*
X94406Y-19904D01*
X94406Y-19904D02*
X94750Y-19811D01*
X94750Y-19811D02*
X95094Y-19904D01*
X95094Y-19904D02*
X95346Y-20156D01*
X95346Y-20156D02*
X95439Y-20500D01*
X93372Y-20500D02*
X96128Y-20500D01*
X94750Y-19122D02*
X94750Y-21878D01*
X95439Y-55250D02*
X95346Y-55594D01*
X95346Y-55594D02*
X95094Y-55846D01*
X95094Y-55846D02*
X94750Y-55939D01*
X94750Y-55939D02*
X94406Y-55846D01*
X94406Y-55846D02*
X94154Y-55594D01*
X94154Y-55594D02*
X94061Y-55250D01*
X94061Y-55250D02*
X94154Y-54906D01*
X94154Y-54906D02*
X94406Y-54654D01*
X94406Y-54654D02*
X94750Y-54561D01*
X94750Y-54561D02*
X95094Y-54654D01*
X95094Y-54654D02*
X95346Y-54906D01*
X95346Y-54906D02*
X95439Y-55250D01*
X93372Y-55250D02*
X96128Y-55250D01*
X94750Y-53872D02*
X94750Y-56628D01*
X37750Y-57250D02*
X12250Y-57250D01*
X63250Y-57250D02*
X37750Y-57250D01*
X69000Y-57250D02*
X63250Y-57250D01*
X77750Y-57250D02*
X69000Y-57250D01*
X89750Y-57250D02*
X77750Y-57250D01*
X36000Y-18750D02*
X12250Y-18750D01*
X71250Y-18750D02*
X36000Y-18750D01*
G54D12*
X70000Y-46500D03*
X66000Y-46500D03*
X64500Y-48000D03*
X64500Y-49500D03*
X64500Y-51000D03*
X64500Y-52500D03*
X66000Y-54000D03*
X68000Y-55000D03*
X70000Y-54000D03*
X71500Y-52500D03*
X71500Y-51000D03*
X71500Y-49500D03*
X71500Y-48000D03*
X60000Y-46500D03*
X56000Y-46500D03*
X54500Y-48000D03*
X54500Y-49500D03*
X54500Y-51000D03*
X54500Y-52500D03*
X56000Y-54000D03*
X58000Y-55000D03*
X60000Y-54000D03*
X61500Y-52500D03*
X61500Y-51000D03*
X61500Y-49500D03*
X61500Y-48000D03*
X50000Y-46500D03*
X46000Y-46500D03*
X44500Y-48000D03*
X44500Y-49500D03*
X44500Y-51000D03*
X44500Y-52500D03*
X46000Y-54000D03*
X48000Y-55000D03*
X50000Y-54000D03*
X51500Y-52500D03*
X51500Y-51000D03*
X51500Y-49500D03*
X51500Y-48000D03*
X40000Y-46500D03*
X36000Y-46500D03*
X34500Y-48000D03*
X34500Y-49500D03*
X34500Y-51000D03*
X34500Y-52500D03*
X36000Y-54000D03*
X38000Y-55000D03*
X40000Y-54000D03*
X41500Y-52500D03*
X41500Y-51000D03*
X41500Y-49500D03*
X41500Y-48000D03*
X30000Y-46500D03*
X26000Y-46500D03*
X24500Y-48000D03*
X24500Y-49500D03*
X24500Y-51000D03*
X24500Y-52500D03*
X26000Y-54000D03*
X28000Y-55000D03*
X30000Y-54000D03*
X31500Y-52500D03*
X31500Y-51000D03*
X31500Y-49500D03*
X31500Y-48000D03*
X20000Y-46500D03*
X16000Y-46500D03*
X14500Y-48000D03*
X14500Y-49500D03*
X14500Y-51000D03*
X14500Y-52500D03*
X16000Y-54000D03*
X18000Y-55000D03*
X20000Y-54000D03*
X21500Y-52500D03*
X21500Y-51000D03*
X21500Y-49500D03*
X21500Y-48000D03*
G54D13*
X28750Y-29250D03*
G54D14*
X29750Y-29250D03*
X30750Y-29250D03*
X31750Y-29250D03*
X32750Y-29250D03*
X33750Y-29250D03*
X34750Y-29250D03*
X35750Y-29250D03*
X35750Y-26250D03*
X34750Y-26250D03*
X33750Y-26250D03*
X32750Y-26250D03*
X31750Y-26250D03*
X30750Y-26250D03*
X29750Y-26250D03*
X28750Y-26250D03*
G54D13*
X46000Y-29250D03*
G54D14*
X47000Y-29250D03*
X48000Y-29250D03*
X49000Y-29250D03*
X50000Y-29250D03*
X51000Y-29250D03*
X52000Y-29250D03*
X53000Y-29250D03*
X53000Y-26250D03*
X52000Y-26250D03*
X51000Y-26250D03*
X50000Y-26250D03*
X49000Y-26250D03*
X48000Y-26250D03*
X47000Y-26250D03*
X46000Y-26250D03*
G54D13*
X58000Y-24500D03*
G54D14*
X59000Y-24500D03*
X60000Y-24500D03*
X61000Y-24500D03*
X62000Y-24500D03*
X63000Y-24500D03*
X64000Y-24500D03*
X65000Y-24500D03*
X65000Y-21500D03*
X64000Y-21500D03*
X63000Y-21500D03*
X62000Y-21500D03*
X61000Y-21500D03*
X60000Y-21500D03*
X59000Y-21500D03*
X58000Y-21500D03*
G54D13*
X64000Y-26250D03*
G54D14*
X63000Y-26250D03*
X62000Y-26250D03*
X61000Y-26250D03*
X60000Y-26250D03*
X59000Y-26250D03*
X58000Y-26250D03*
X57000Y-26250D03*
X57000Y-29250D03*
X58000Y-29250D03*
X59000Y-29250D03*
X60000Y-29250D03*
X61000Y-29250D03*
X62000Y-29250D03*
X63000Y-29250D03*
X64000Y-29250D03*
G54D15*
X27750Y-37250D03*
X27750Y-35250D03*
X37750Y-37250D03*
X37750Y-35250D03*
X47500Y-37250D03*
X47500Y-35250D03*
X57750Y-37250D03*
X57750Y-35250D03*
X68000Y-37250D03*
X68000Y-35250D03*
X73250Y-35000D03*
X71250Y-35000D03*
X37750Y-27000D03*
X37750Y-29000D03*
X54750Y-26750D03*
X54750Y-28750D03*
X66750Y-22000D03*
X66750Y-24000D03*
X78000Y-29250D03*
X80000Y-29250D03*
X20250Y-33250D03*
X20250Y-31250D03*
G54D12*
X81000Y-46000D03*
G54D16*
X77000Y-46000D03*
G54D12*
X90000Y-40000D03*
G54D16*
X90000Y-35000D03*
G54D12*
X88000Y-42000D03*
G54D16*
X88000Y-47000D03*
G54D12*
X90000Y-48750D03*
G54D16*
X90000Y-53750D03*
G54D12*
X88000Y-35000D03*
G54D16*
X88000Y-40000D03*
G54D12*
X90000Y-42000D03*
G54D16*
X90000Y-47000D03*
G54D12*
X88000Y-53750D03*
G54D16*
X88000Y-48750D03*
G54D17*
X75750Y-54250D03*
G54D15*
X76750Y-54250D03*
G54D17*
X67500Y-51000D03*
G54D15*
X68500Y-51000D03*
G54D17*
X57500Y-51000D03*
G54D15*
X58500Y-51000D03*
G54D17*
X47500Y-51000D03*
G54D15*
X48500Y-51000D03*
G54D17*
X37500Y-51000D03*
G54D15*
X38500Y-51000D03*
G54D17*
X27500Y-51000D03*
G54D15*
X28500Y-51000D03*
G54D17*
X17750Y-51000D03*
G54D15*
X18750Y-51000D03*
G54D17*
X85750Y-54250D03*
G54D15*
X84750Y-54250D03*
G54D18*
X16750Y-35250D03*
X16750Y-39250D03*
X25250Y-35250D03*
X25250Y-39250D03*
X26500Y-35250D03*
X26500Y-39250D03*
X35250Y-35250D03*
X35250Y-39250D03*
X36500Y-35250D03*
X36500Y-39250D03*
X45250Y-35250D03*
X45250Y-39250D03*
X46500Y-35250D03*
X46500Y-39250D03*
X55250Y-35250D03*
X55250Y-39250D03*
X56500Y-35250D03*
X56500Y-39250D03*
X65500Y-35250D03*
X65500Y-39250D03*
X66750Y-35250D03*
X66750Y-39250D03*
X20000Y-36250D03*
X24000Y-36250D03*
X24000Y-37500D03*
X20000Y-37500D03*
X30000Y-36250D03*
X34000Y-36250D03*
X34000Y-37500D03*
X30000Y-37500D03*
X40000Y-36250D03*
X44000Y-36250D03*
X44000Y-37500D03*
X40000Y-37500D03*
X50250Y-36250D03*
X54250Y-36250D03*
X54250Y-37500D03*
X50250Y-37500D03*
X60250Y-36250D03*
X64250Y-36250D03*
X64250Y-37500D03*
X60250Y-37500D03*
X70250Y-36250D03*
X74250Y-36250D03*
X74250Y-37500D03*
X70250Y-37500D03*
X21750Y-23750D03*
X17750Y-23750D03*
X21750Y-22500D03*
X17750Y-22500D03*
X25250Y-27250D03*
X25250Y-23250D03*
X70500Y-29250D03*
X66500Y-29250D03*
X69000Y-39250D03*
X69000Y-35250D03*
X58750Y-39250D03*
X58750Y-35250D03*
X48500Y-39250D03*
X48500Y-35250D03*
X38750Y-39250D03*
X38750Y-35250D03*
X28750Y-39250D03*
X28750Y-35250D03*
X18500Y-39250D03*
X18500Y-35250D03*
X21750Y-30250D03*
X21750Y-34250D03*
X20250Y-30250D03*
X16250Y-30250D03*
X20000Y-40750D03*
X20000Y-44750D03*
X30000Y-40750D03*
X30000Y-44750D03*
X40000Y-40750D03*
X40000Y-44750D03*
X50000Y-40750D03*
X50000Y-44750D03*
X60000Y-40750D03*
X60000Y-44750D03*
X70250Y-40750D03*
X70250Y-44750D03*
X81000Y-47500D03*
X77000Y-47500D03*
X77000Y-30500D03*
X81000Y-30500D03*
G54D17*
X17000Y-43250D03*
G54D15*
X16000Y-43250D03*
X16000Y-44250D03*
G54D17*
X24500Y-43250D03*
G54D15*
X23500Y-43250D03*
X23500Y-44250D03*
G54D17*
X27750Y-43250D03*
G54D15*
X26750Y-43250D03*
X26750Y-44250D03*
G54D17*
X33750Y-43250D03*
G54D15*
X32750Y-43250D03*
X32750Y-44250D03*
G54D17*
X36750Y-43250D03*
G54D15*
X35750Y-43250D03*
X35750Y-44250D03*
G54D17*
X44000Y-43250D03*
G54D15*
X43000Y-43250D03*
X43000Y-44250D03*
G54D17*
X47250Y-43250D03*
G54D15*
X46250Y-43250D03*
X46250Y-44250D03*
G54D17*
X54250Y-43250D03*
G54D15*
X53250Y-43250D03*
X53250Y-44250D03*
G54D17*
X57500Y-43250D03*
G54D15*
X56500Y-43250D03*
X56500Y-44250D03*
G54D17*
X64750Y-43250D03*
G54D15*
X63750Y-43250D03*
X63750Y-44250D03*
G54D17*
X68000Y-43250D03*
G54D15*
X67000Y-43250D03*
X67000Y-44250D03*
G54D17*
X22750Y-39750D03*
G54D15*
X21750Y-39750D03*
X21750Y-40750D03*
G54D17*
X32750Y-39750D03*
G54D15*
X31750Y-39750D03*
X31750Y-40750D03*
G54D17*
X42750Y-39750D03*
G54D15*
X41750Y-39750D03*
X41750Y-40750D03*
G54D17*
X52750Y-39750D03*
G54D15*
X51750Y-39750D03*
X51750Y-40750D03*
G54D17*
X62750Y-39750D03*
G54D15*
X61750Y-39750D03*
X61750Y-40750D03*
G54D17*
X73000Y-39750D03*
G54D15*
X72000Y-39750D03*
X72000Y-40750D03*
G54D17*
X79000Y-38750D03*
G54D15*
X79000Y-39750D03*
X80000Y-39750D03*
G54D12*
X84750Y-24250D03*
X92750Y-24250D03*
X92750Y-32250D03*
X90750Y-32250D03*
X84750Y-32250D03*
X86750Y-32250D03*
G54D19*
X90000Y-20500D03*
X84750Y-20500D03*
G54D15*
X79000Y-27000D03*
X78000Y-27000D03*
G54D17*
X78000Y-43250D03*
G54D15*
X79500Y-43250D03*
G54D17*
X16750Y-27000D03*
G54D15*
X16750Y-26000D03*
G54D16*
X83500Y-47500D03*
G54D12*
X85500Y-47500D03*
G54D16*
X83500Y-42750D03*
G54D12*
X85500Y-42750D03*
G54D16*
X83500Y-37750D03*
G54D12*
X85500Y-37750D03*
G54D16*
X92500Y-47750D03*
G54D12*
X94500Y-47750D03*
G54D16*
X92500Y-42750D03*
G54D12*
X94500Y-42750D03*
G54D16*
X92500Y-37750D03*
G54D12*
X94500Y-37750D03*
G54D17*
X84750Y-51500D03*
G54D15*
X85750Y-51500D03*
G54D17*
X80000Y-24500D03*
G54D15*
X79000Y-24500D03*
X78000Y-24500D03*
G54D17*
X79250Y-51500D03*
G54D15*
X80250Y-51500D03*
X81250Y-51500D03*
X82250Y-51500D03*
G54D17*
X79250Y-54250D03*
G54D15*
X80250Y-54250D03*
X81250Y-54250D03*
X82250Y-54250D03*
G54D20*
X79750Y-32750D03*
X78750Y-36750D03*
X77750Y-32750D03*
G54D13*
X20750Y-28500D03*
G54D14*
X20750Y-25500D03*
X21750Y-28500D03*
X21750Y-25500D03*
X22750Y-28500D03*
X22750Y-25500D03*
G54D21*
X27750Y-49500D03*
X43000Y-55750D03*
X45250Y-53250D03*
X66500Y-50250D03*
X57500Y-48750D03*
X63750Y-47250D03*
X31750Y-28250D03*
X49000Y-28250D03*
X61000Y-23250D03*
X15500Y-28250D03*
X73500Y-43250D03*
X32750Y-23750D03*
G54D22*
X70250Y-44750D02*
X70250Y-46250D01*
X70250Y-46250D02*
X70000Y-46500D01*
X16000Y-46500D02*
X17250Y-46500D01*
X21750Y-46500D02*
X26000Y-46500D01*
X20750Y-47500D02*
X21750Y-46500D01*
X18250Y-47500D02*
X20750Y-47500D01*
X17250Y-46500D02*
X18250Y-47500D01*
X26000Y-46500D02*
X28750Y-46500D01*
X33250Y-46500D02*
X36000Y-46500D01*
X32500Y-47250D02*
X33250Y-46500D01*
X29500Y-47250D02*
X32500Y-47250D01*
X28750Y-46500D02*
X29500Y-47250D01*
X36000Y-46500D02*
X38500Y-46500D01*
X41750Y-46500D02*
X46000Y-46500D01*
X41000Y-47250D02*
X41750Y-46500D01*
X39250Y-47250D02*
X41000Y-47250D01*
X38500Y-46500D02*
X39250Y-47250D01*
X46000Y-46500D02*
X48750Y-46500D01*
X53500Y-46500D02*
X56000Y-46500D01*
X52750Y-47250D02*
X53500Y-46500D01*
X49500Y-47250D02*
X52750Y-47250D01*
X48750Y-46500D02*
X49500Y-47250D01*
X56000Y-46500D02*
X58500Y-46500D01*
X63500Y-46500D02*
X66000Y-46500D01*
X62750Y-47250D02*
X63500Y-46500D01*
X59250Y-47250D02*
X62750Y-47250D01*
X58500Y-46500D02*
X59250Y-47250D01*
X16000Y-44250D02*
X16000Y-46500D01*
X24500Y-48000D02*
X23250Y-48000D01*
X17250Y-48000D02*
X14500Y-48000D01*
X18000Y-48750D02*
X17250Y-48000D01*
X18250Y-48750D02*
X18000Y-48750D01*
X23250Y-48000D02*
X22500Y-48750D01*
X22500Y-48750D02*
X18250Y-48750D01*
X24500Y-48000D02*
X28750Y-48000D01*
X33250Y-48000D02*
X34500Y-48000D01*
X32500Y-48750D02*
X33250Y-48000D01*
X29500Y-48750D02*
X32500Y-48750D01*
X28750Y-48000D02*
X29500Y-48750D01*
X34500Y-48000D02*
X38500Y-48000D01*
X43500Y-48000D02*
X44500Y-48000D01*
X42750Y-48750D02*
X43500Y-48000D01*
X39250Y-48750D02*
X42750Y-48750D01*
X38500Y-48000D02*
X39250Y-48750D01*
X44500Y-48000D02*
X48750Y-48000D01*
X53500Y-48000D02*
X54500Y-48000D01*
X52750Y-48750D02*
X53500Y-48000D01*
X49500Y-48750D02*
X52750Y-48750D01*
X48750Y-48000D02*
X49500Y-48750D01*
X54500Y-48000D02*
X58500Y-48000D01*
X63500Y-48000D02*
X64500Y-48000D01*
X62750Y-48750D02*
X63500Y-48000D01*
X59250Y-48750D02*
X62750Y-48750D01*
X58500Y-48000D02*
X59250Y-48750D01*
X24500Y-49500D02*
X27750Y-49500D01*
X27750Y-49500D02*
X28750Y-49500D01*
X33500Y-49500D02*
X34500Y-49500D01*
X32750Y-50250D02*
X33500Y-49500D01*
X29500Y-50250D02*
X32750Y-50250D01*
X28750Y-49500D02*
X29500Y-50250D01*
X24500Y-49500D02*
X23250Y-49500D01*
X17500Y-49500D02*
X14500Y-49500D01*
X18250Y-50250D02*
X17500Y-49500D01*
X22500Y-50250D02*
X18250Y-50250D01*
X23250Y-49500D02*
X22500Y-50250D01*
X34500Y-49500D02*
X38500Y-49500D01*
X43500Y-49500D02*
X44500Y-49500D01*
X42750Y-50250D02*
X43500Y-49500D01*
X39250Y-50250D02*
X42750Y-50250D01*
X38500Y-49500D02*
X39250Y-50250D01*
X44500Y-49500D02*
X48750Y-49500D01*
X53500Y-49500D02*
X54500Y-49500D01*
X52750Y-50250D02*
X53500Y-49500D01*
X49500Y-50250D02*
X52750Y-50250D01*
X48750Y-49500D02*
X49500Y-50250D01*
X54500Y-49500D02*
X58500Y-49500D01*
X63500Y-49500D02*
X64500Y-49500D01*
X62750Y-50250D02*
X63500Y-49500D01*
X59250Y-50250D02*
X62750Y-50250D01*
X58500Y-49500D02*
X59250Y-50250D01*
X24500Y-52500D02*
X23750Y-52500D01*
X17250Y-52500D02*
X14500Y-52500D01*
X18000Y-53250D02*
X17250Y-52500D01*
X23000Y-53250D02*
X18000Y-53250D01*
X23750Y-52500D02*
X23000Y-53250D01*
X24500Y-52500D02*
X28250Y-52500D01*
X33500Y-52500D02*
X34500Y-52500D01*
X32750Y-53250D02*
X33500Y-52500D01*
X29000Y-53250D02*
X32750Y-53250D01*
X28250Y-52500D02*
X29000Y-53250D01*
X34500Y-52500D02*
X38000Y-52500D01*
X43500Y-52500D02*
X44500Y-52500D01*
X42750Y-53250D02*
X43500Y-52500D01*
X38750Y-53250D02*
X42750Y-53250D01*
X38000Y-52500D02*
X38750Y-53250D01*
X44500Y-52500D02*
X47750Y-52500D01*
X53500Y-52500D02*
X54500Y-52500D01*
X52750Y-53250D02*
X53500Y-52500D01*
X48500Y-53250D02*
X52750Y-53250D01*
X47750Y-52500D02*
X48500Y-53250D01*
X54500Y-52500D02*
X57500Y-52500D01*
X63500Y-52500D02*
X64500Y-52500D01*
X62750Y-53250D02*
X63500Y-52500D01*
X58250Y-53250D02*
X62750Y-53250D01*
X57500Y-52500D02*
X58250Y-53250D01*
X16000Y-54000D02*
X16500Y-54000D01*
X25000Y-55000D02*
X26000Y-54000D01*
X19750Y-55000D02*
X25000Y-55000D01*
X18500Y-53750D02*
X19750Y-55000D01*
X16750Y-53750D02*
X18500Y-53750D01*
X16500Y-54000D02*
X16750Y-53750D01*
X26000Y-54000D02*
X28000Y-54000D01*
X35250Y-54750D02*
X36000Y-54000D01*
X28750Y-54750D02*
X35250Y-54750D01*
X28000Y-54000D02*
X28750Y-54750D01*
X36000Y-54000D02*
X37750Y-54000D01*
X45000Y-55000D02*
X46000Y-54000D01*
X39500Y-55000D02*
X45000Y-55000D01*
X38750Y-54250D02*
X39500Y-55000D01*
X38000Y-54250D02*
X38750Y-54250D01*
X37750Y-54000D02*
X38000Y-54250D01*
X46000Y-54000D02*
X47750Y-54000D01*
X55000Y-55000D02*
X56000Y-54000D01*
X49500Y-55000D02*
X55000Y-55000D01*
X48750Y-54250D02*
X49500Y-55000D01*
X48000Y-54250D02*
X48750Y-54250D01*
X47750Y-54000D02*
X48000Y-54250D01*
X56000Y-54000D02*
X57500Y-54000D01*
X65000Y-55000D02*
X66000Y-54000D01*
X59750Y-55000D02*
X65000Y-55000D01*
X59000Y-54250D02*
X59750Y-55000D01*
X57750Y-54250D02*
X59000Y-54250D01*
X57500Y-54000D02*
X57750Y-54250D01*
X18000Y-55000D02*
X18000Y-55750D01*
X28000Y-55750D02*
X28000Y-55000D01*
X18000Y-55750D02*
X28000Y-55750D01*
X28000Y-55750D02*
X35750Y-55750D01*
X38000Y-55750D02*
X38000Y-55000D01*
X35750Y-55750D02*
X38000Y-55750D01*
X38000Y-55750D02*
X43000Y-55750D01*
X43000Y-55750D02*
X43250Y-55750D01*
X43250Y-55750D02*
X44500Y-55750D01*
X48000Y-55750D02*
X48000Y-55000D01*
X44500Y-55750D02*
X48000Y-55750D01*
X48000Y-55750D02*
X52500Y-55750D01*
X58000Y-55750D02*
X58000Y-55000D01*
X52500Y-55750D02*
X58000Y-55750D01*
X58000Y-55750D02*
X68000Y-55750D01*
X68000Y-55750D02*
X68000Y-55000D01*
X20000Y-54000D02*
X23000Y-54000D01*
X28750Y-54000D02*
X30000Y-54000D01*
X28000Y-53250D02*
X28750Y-54000D01*
X23750Y-53250D02*
X28000Y-53250D01*
X23000Y-54000D02*
X23750Y-53250D01*
X40000Y-54000D02*
X42750Y-54000D01*
X42750Y-54000D02*
X43500Y-53250D01*
X43500Y-53250D02*
X45250Y-53250D01*
X45250Y-53250D02*
X47750Y-53250D01*
X47750Y-53250D02*
X48250Y-53750D01*
X48250Y-53750D02*
X49750Y-53750D01*
X49750Y-53750D02*
X50000Y-54000D01*
X50000Y-54000D02*
X52750Y-54000D01*
X59750Y-53750D02*
X60000Y-54000D01*
X58000Y-53750D02*
X59750Y-53750D01*
X57500Y-53250D02*
X58000Y-53750D01*
X53500Y-53250D02*
X57500Y-53250D01*
X52750Y-54000D02*
X53500Y-53250D01*
X60000Y-54000D02*
X64500Y-54000D01*
X69750Y-53750D02*
X70000Y-54000D01*
X68500Y-53750D02*
X69750Y-53750D01*
X67750Y-53000D02*
X68500Y-53750D01*
X65500Y-53000D02*
X67750Y-53000D01*
X64500Y-54000D02*
X65500Y-53000D01*
X30000Y-54000D02*
X32750Y-54000D01*
X39750Y-53750D02*
X40000Y-54000D01*
X38500Y-53750D02*
X39750Y-53750D01*
X38000Y-53250D02*
X38500Y-53750D01*
X33500Y-53250D02*
X38000Y-53250D01*
X32750Y-54000D02*
X33500Y-53250D01*
X21500Y-52500D02*
X23000Y-52500D01*
X29000Y-52500D02*
X31500Y-52500D01*
X28250Y-51750D02*
X29000Y-52500D01*
X23750Y-51750D02*
X28250Y-51750D01*
X23000Y-52500D02*
X23750Y-51750D01*
X31500Y-52500D02*
X32750Y-52500D01*
X38750Y-52500D02*
X41500Y-52500D01*
X38000Y-51750D02*
X38750Y-52500D01*
X33500Y-51750D02*
X38000Y-51750D01*
X32750Y-52500D02*
X33500Y-51750D01*
X41500Y-52500D02*
X42750Y-52500D01*
X48500Y-52500D02*
X51500Y-52500D01*
X47750Y-51750D02*
X48500Y-52500D01*
X43500Y-51750D02*
X47750Y-51750D01*
X42750Y-52500D02*
X43500Y-51750D01*
X51500Y-52500D02*
X52750Y-52500D01*
X58250Y-52500D02*
X61500Y-52500D01*
X57500Y-51750D02*
X58250Y-52500D01*
X53500Y-51750D02*
X57500Y-51750D01*
X52750Y-52500D02*
X53500Y-51750D01*
X61500Y-52500D02*
X62750Y-52500D01*
X68500Y-52500D02*
X71500Y-52500D01*
X67750Y-51750D02*
X68500Y-52500D01*
X63500Y-51750D02*
X67750Y-51750D01*
X62750Y-52500D02*
X63500Y-51750D01*
X31500Y-51000D02*
X29500Y-51000D01*
X22500Y-51000D02*
X21500Y-51000D01*
X28750Y-50250D02*
X29500Y-51000D01*
X23250Y-50250D02*
X28750Y-50250D01*
X23250Y-50250D02*
X22500Y-51000D01*
X31500Y-51000D02*
X32750Y-51000D01*
X39250Y-51000D02*
X41500Y-51000D01*
X38500Y-50250D02*
X39250Y-51000D01*
X33500Y-50250D02*
X38500Y-50250D01*
X32750Y-51000D02*
X33500Y-50250D01*
X41500Y-51000D02*
X42750Y-51000D01*
X49500Y-51000D02*
X51500Y-51000D01*
X48750Y-50250D02*
X49500Y-51000D01*
X43500Y-50250D02*
X48750Y-50250D01*
X42750Y-51000D02*
X43500Y-50250D01*
X51500Y-51000D02*
X52750Y-51000D01*
X59250Y-51000D02*
X61500Y-51000D01*
X58500Y-50250D02*
X59250Y-51000D01*
X53500Y-50250D02*
X58500Y-50250D01*
X52750Y-51000D02*
X53500Y-50250D01*
X61500Y-51000D02*
X62750Y-51000D01*
X69250Y-51000D02*
X71500Y-51000D01*
X68750Y-50250D02*
X69250Y-51000D01*
X63500Y-50250D02*
X66250Y-50250D01*
X66250Y-50250D02*
X66500Y-50250D01*
X66500Y-50250D02*
X68750Y-50250D01*
X62750Y-51000D02*
X63500Y-50250D01*
X21500Y-49500D02*
X22500Y-49500D01*
X29500Y-49500D02*
X31500Y-49500D01*
X28750Y-48750D02*
X29500Y-49500D01*
X23250Y-48750D02*
X28750Y-48750D01*
X22500Y-49500D02*
X23250Y-48750D01*
X31500Y-49500D02*
X32500Y-49500D01*
X39250Y-49500D02*
X41500Y-49500D01*
X38500Y-48750D02*
X39250Y-49500D01*
X33250Y-48750D02*
X38500Y-48750D01*
X32500Y-49500D02*
X33250Y-48750D01*
X41500Y-49500D02*
X42750Y-49500D01*
X49500Y-49500D02*
X51500Y-49500D01*
X48750Y-48750D02*
X49500Y-49500D01*
X43500Y-48750D02*
X48750Y-48750D01*
X42750Y-49500D02*
X43500Y-48750D01*
X51500Y-49500D02*
X52750Y-49500D01*
X59250Y-49500D02*
X61500Y-49500D01*
X58500Y-48750D02*
X59250Y-49500D01*
X53500Y-48750D02*
X57250Y-48750D01*
X57250Y-48750D02*
X57500Y-48750D01*
X57500Y-48750D02*
X58500Y-48750D01*
X52750Y-49500D02*
X53500Y-48750D01*
X61500Y-49500D02*
X62750Y-49500D01*
X68500Y-49500D02*
X71500Y-49500D01*
X67750Y-48750D02*
X68500Y-49500D01*
X63500Y-48750D02*
X67750Y-48750D01*
X62750Y-49500D02*
X63500Y-48750D01*
X21500Y-48000D02*
X22500Y-48000D01*
X29500Y-48000D02*
X31500Y-48000D01*
X28750Y-47250D02*
X29500Y-48000D01*
X23250Y-47250D02*
X28750Y-47250D01*
X22500Y-48000D02*
X23250Y-47250D01*
X31500Y-48000D02*
X32500Y-48000D01*
X39250Y-48000D02*
X41500Y-48000D01*
X38500Y-47250D02*
X39250Y-48000D01*
X33250Y-47250D02*
X38500Y-47250D01*
X32500Y-48000D02*
X33250Y-47250D01*
X41500Y-48000D02*
X42750Y-48000D01*
X49500Y-48000D02*
X51500Y-48000D01*
X48750Y-47250D02*
X49500Y-48000D01*
X43500Y-47250D02*
X48750Y-47250D01*
X42750Y-48000D02*
X43500Y-47250D01*
X51500Y-48000D02*
X52750Y-48000D01*
X59250Y-48000D02*
X61500Y-48000D01*
X58500Y-47250D02*
X59250Y-48000D01*
X53500Y-47250D02*
X58500Y-47250D01*
X52750Y-48000D02*
X53500Y-47250D01*
X61500Y-48000D02*
X62750Y-48000D01*
X68500Y-48000D02*
X71500Y-48000D01*
X67750Y-47250D02*
X68500Y-48000D01*
X63500Y-47250D02*
X63750Y-47250D01*
X63750Y-47250D02*
X67750Y-47250D01*
X62750Y-48000D02*
X63500Y-47250D01*
X60000Y-44750D02*
X60000Y-46500D01*
X50000Y-44750D02*
X50000Y-46500D01*
X40000Y-44750D02*
X40000Y-46500D01*
X30000Y-44750D02*
X30000Y-46500D01*
X20000Y-44750D02*
X20000Y-46500D01*
X28750Y-29250D02*
X28750Y-32500D01*
X25250Y-32500D02*
X25250Y-35250D01*
X28750Y-32500D02*
X25250Y-32500D01*
X29750Y-29250D02*
X29750Y-33000D01*
X26500Y-33000D02*
X26500Y-35250D01*
X29750Y-33000D02*
X26500Y-33000D01*
X30750Y-29250D02*
X30750Y-33500D01*
X27750Y-33500D02*
X27750Y-35250D01*
X30750Y-33500D02*
X27750Y-33500D01*
X31750Y-29250D02*
X31750Y-32000D01*
X35250Y-32000D02*
X35250Y-35250D01*
X31750Y-32000D02*
X35250Y-32000D01*
X32750Y-29250D02*
X32750Y-31500D01*
X36500Y-31500D02*
X36500Y-35250D01*
X32750Y-31500D02*
X36500Y-31500D01*
X33750Y-29250D02*
X33750Y-31000D01*
X37750Y-31000D02*
X37750Y-35250D01*
X33750Y-31000D02*
X37750Y-31000D01*
X34750Y-29250D02*
X34750Y-30500D01*
X44750Y-35250D02*
X45250Y-35250D01*
X43750Y-34250D02*
X44750Y-35250D01*
X43750Y-30500D02*
X43750Y-34250D01*
X34750Y-30500D02*
X43750Y-30500D01*
X81000Y-46000D02*
X81000Y-44750D01*
X81000Y-44750D02*
X79500Y-43250D01*
X85500Y-37750D02*
X87750Y-37750D01*
X87750Y-37750D02*
X90000Y-40000D01*
X84750Y-32250D02*
X84750Y-37000D01*
X84750Y-37000D02*
X85500Y-37750D01*
X17000Y-43250D02*
X17000Y-42000D01*
X24500Y-42000D02*
X24500Y-43250D01*
X17000Y-42000D02*
X24500Y-42000D01*
X24500Y-42000D02*
X27750Y-42000D01*
X27750Y-42000D02*
X27750Y-43250D01*
X27750Y-42000D02*
X33750Y-42000D01*
X33750Y-42000D02*
X33750Y-43250D01*
X33750Y-42000D02*
X36750Y-42000D01*
X36750Y-42000D02*
X44000Y-42000D01*
X44000Y-42000D02*
X44250Y-42000D01*
X47250Y-42000D02*
X47250Y-43250D01*
X44250Y-42000D02*
X47250Y-42000D01*
X36750Y-43250D02*
X36750Y-42000D01*
X44000Y-43250D02*
X44000Y-42000D01*
X47250Y-42000D02*
X54250Y-42000D01*
X54250Y-42000D02*
X54250Y-43250D01*
X54250Y-42000D02*
X57500Y-42000D01*
X57500Y-42000D02*
X57500Y-43250D01*
X57500Y-42000D02*
X64500Y-42000D01*
X64500Y-42000D02*
X64750Y-42000D01*
X64750Y-42000D02*
X68000Y-42000D01*
X68000Y-42000D02*
X68000Y-43250D01*
X64750Y-43250D02*
X64750Y-42000D01*
X17000Y-42000D02*
X15500Y-42000D01*
X15500Y-42000D02*
X15500Y-31250D01*
X15500Y-31250D02*
X15500Y-30500D01*
X31750Y-26250D02*
X31750Y-28250D01*
X49000Y-26250D02*
X49000Y-28250D01*
X61000Y-21500D02*
X61000Y-23250D01*
X17750Y-23750D02*
X17750Y-25500D01*
X17750Y-25500D02*
X17750Y-26000D01*
X17750Y-26000D02*
X16750Y-26000D01*
X20750Y-25500D02*
X17750Y-25500D01*
X16750Y-26000D02*
X15500Y-26000D01*
X15500Y-26000D02*
X15500Y-28250D01*
X15500Y-28250D02*
X15500Y-30250D01*
X15500Y-30250D02*
X15500Y-30500D01*
X17750Y-22500D02*
X17750Y-23750D01*
X25250Y-23250D02*
X25250Y-21750D01*
X17750Y-21750D02*
X17750Y-22500D01*
X25250Y-21750D02*
X17750Y-21750D01*
X16250Y-30250D02*
X15500Y-30250D01*
X20250Y-31250D02*
X15500Y-31250D01*
X68000Y-43250D02*
X73500Y-43250D01*
X84750Y-32250D02*
X82750Y-32250D01*
X82750Y-32250D02*
X81000Y-30500D01*
X81000Y-30500D02*
X81000Y-30250D01*
X81000Y-30250D02*
X80000Y-29250D01*
X79000Y-24500D02*
X79000Y-23500D01*
X81000Y-28250D02*
X80000Y-29250D01*
X81000Y-23500D02*
X81000Y-28250D01*
X79000Y-23500D02*
X81000Y-23500D01*
X35750Y-26250D02*
X35750Y-24750D01*
X48000Y-24750D02*
X48000Y-26250D01*
X35750Y-24750D02*
X48000Y-24750D01*
X16750Y-27000D02*
X16750Y-28500D01*
X16750Y-28500D02*
X20750Y-28500D01*
X33750Y-26250D02*
X33750Y-24250D01*
X51000Y-24250D02*
X51000Y-26250D01*
X33750Y-24250D02*
X51000Y-24250D01*
X63000Y-21500D02*
X63000Y-20000D01*
X51000Y-20000D02*
X51000Y-24250D01*
X63000Y-20000D02*
X51000Y-20000D01*
X22750Y-28500D02*
X25250Y-28500D01*
X25250Y-28500D02*
X26500Y-28500D01*
X26500Y-24250D02*
X33750Y-24250D01*
X26500Y-28500D02*
X26500Y-24250D01*
X25250Y-27250D02*
X25250Y-28500D01*
X22750Y-25500D02*
X26000Y-25500D01*
X26000Y-23750D02*
X32750Y-23750D01*
X26000Y-25500D02*
X26000Y-23750D01*
X21750Y-22500D02*
X22750Y-22500D01*
X22750Y-22500D02*
X22750Y-25500D01*
X29750Y-26250D02*
X29750Y-25000D01*
X16750Y-32000D02*
X16750Y-35250D01*
X27000Y-32000D02*
X16750Y-32000D01*
X27000Y-25000D02*
X27000Y-32000D01*
X29750Y-25000D02*
X27000Y-25000D01*
X46000Y-29250D02*
X46000Y-33500D01*
X47500Y-33500D02*
X47500Y-35250D01*
X46000Y-33500D02*
X47500Y-33500D01*
X47000Y-29250D02*
X47000Y-33000D01*
X55250Y-33000D02*
X55250Y-35250D01*
X47000Y-33000D02*
X55250Y-33000D01*
X48000Y-29250D02*
X48000Y-32500D01*
X56500Y-32500D02*
X56500Y-35250D01*
X48000Y-32500D02*
X56500Y-32500D01*
X49000Y-29250D02*
X49000Y-32000D01*
X57750Y-32000D02*
X57750Y-35250D01*
X49000Y-32000D02*
X57750Y-32000D01*
X50000Y-29250D02*
X50000Y-31500D01*
X65500Y-31500D02*
X65500Y-35250D01*
X50000Y-31500D02*
X65500Y-31500D01*
X51000Y-29250D02*
X51000Y-31000D01*
X66750Y-31000D02*
X66750Y-35250D01*
X51000Y-31000D02*
X66750Y-31000D01*
X52000Y-29250D02*
X52000Y-30500D01*
X68000Y-30500D02*
X68000Y-35250D01*
X52000Y-30500D02*
X68000Y-30500D01*
X53000Y-26250D02*
X53000Y-20500D01*
X60000Y-20500D02*
X60000Y-21500D01*
X53000Y-20500D02*
X60000Y-20500D01*
X46500Y-35250D02*
X46500Y-34750D01*
X47000Y-25250D02*
X47000Y-26250D01*
X44500Y-25250D02*
X47000Y-25250D01*
X44250Y-25500D02*
X44500Y-25250D01*
X44250Y-33500D02*
X44250Y-25500D01*
X44250Y-33500D02*
X45250Y-33500D01*
X45250Y-33500D02*
X46500Y-34750D01*
X58000Y-24500D02*
X58000Y-26250D01*
X59000Y-24500D02*
X59000Y-26250D01*
X60000Y-24500D02*
X60000Y-26250D01*
X61000Y-24500D02*
X61000Y-26250D01*
X62000Y-24500D02*
X62000Y-26250D01*
X63000Y-24500D02*
X63000Y-26250D01*
X64000Y-24500D02*
X64000Y-26250D01*
X59000Y-21500D02*
X59000Y-22750D01*
X71250Y-33500D02*
X71250Y-35000D01*
X69000Y-33500D02*
X71250Y-33500D01*
X69000Y-27750D02*
X69000Y-33500D01*
X56000Y-27750D02*
X69000Y-27750D01*
X56000Y-22750D02*
X56000Y-27750D01*
X59000Y-22750D02*
X56000Y-22750D01*
X64000Y-29250D02*
X66500Y-29250D01*
X24000Y-36250D02*
X26750Y-36250D01*
X26750Y-36250D02*
X27750Y-37250D01*
X34000Y-36250D02*
X36750Y-36250D01*
X36750Y-36250D02*
X37750Y-37250D01*
X44000Y-36250D02*
X46500Y-36250D01*
X46500Y-36250D02*
X47500Y-37250D01*
X54250Y-36250D02*
X56750Y-36250D01*
X56750Y-36250D02*
X57750Y-37250D01*
X64250Y-36250D02*
X67000Y-36250D01*
X67000Y-36250D02*
X68000Y-37250D01*
X73250Y-35000D02*
X73250Y-35250D01*
X73250Y-35250D02*
X74250Y-36250D01*
X79000Y-38750D02*
X81500Y-36250D01*
X81500Y-32750D02*
X78000Y-29250D01*
X81500Y-36250D02*
X81500Y-32750D01*
X78000Y-29250D02*
X79000Y-28250D01*
X79000Y-28250D02*
X79000Y-27000D01*
X79000Y-27000D02*
X80000Y-26000D01*
X80000Y-26000D02*
X80000Y-24500D01*
X78000Y-24500D02*
X78000Y-27000D01*
X77000Y-46000D02*
X77000Y-47500D01*
X78000Y-43250D02*
X78000Y-45000D01*
X78000Y-45000D02*
X77000Y-46000D01*
X77750Y-32750D02*
X77000Y-32750D01*
X76750Y-42000D02*
X78000Y-43250D01*
X76750Y-33000D02*
X76750Y-42000D01*
X77000Y-32750D02*
X76750Y-33000D01*
X92500Y-37750D02*
X92500Y-40750D01*
X92500Y-40750D02*
X94500Y-42750D01*
X88000Y-35000D02*
X90000Y-35000D01*
X90000Y-35000D02*
X90000Y-35250D01*
X90000Y-35250D02*
X92500Y-37750D01*
X85500Y-42750D02*
X87250Y-42750D01*
X87250Y-42750D02*
X88000Y-42000D01*
X88000Y-40000D02*
X88000Y-42000D01*
X88000Y-40000D02*
X85750Y-40000D01*
X85750Y-40000D02*
X83500Y-37750D01*
X92500Y-42750D02*
X92500Y-45750D01*
X92500Y-45750D02*
X94500Y-47750D01*
X88000Y-47000D02*
X88000Y-44000D01*
X88000Y-44000D02*
X90000Y-42000D01*
X90000Y-42000D02*
X91750Y-42000D01*
X91750Y-42000D02*
X92500Y-42750D01*
X90000Y-48750D02*
X90000Y-48000D01*
X90000Y-48000D02*
X90000Y-47000D01*
X85500Y-47500D02*
X86000Y-47500D01*
X86500Y-48000D02*
X90000Y-48000D01*
X86000Y-47500D02*
X86500Y-48000D01*
X83500Y-42750D02*
X83500Y-45500D01*
X83500Y-45500D02*
X85500Y-47500D01*
X92500Y-47750D02*
X92500Y-51250D01*
X92500Y-51250D02*
X90000Y-53750D01*
X90000Y-53750D02*
X88000Y-53750D01*
X88000Y-48750D02*
X84750Y-48750D01*
X84750Y-48750D02*
X83500Y-47500D01*
X81000Y-47500D02*
X82000Y-47500D01*
X82000Y-47500D02*
X83500Y-47500D01*
X80000Y-39750D02*
X82000Y-39750D01*
X82000Y-39750D02*
X82000Y-47500D01*
X70500Y-29250D02*
X75250Y-29250D01*
X76750Y-53250D02*
X76750Y-54250D01*
X75250Y-51750D02*
X76750Y-53250D01*
X75250Y-45250D02*
X75250Y-51750D01*
X75250Y-35750D02*
X75250Y-45250D01*
X75250Y-29250D02*
X75250Y-35750D01*
X85750Y-54250D02*
X85750Y-51500D01*
X84750Y-51500D02*
X84750Y-54250D01*
X20000Y-36250D02*
X20000Y-37500D01*
X20000Y-37500D02*
X20000Y-38000D01*
X20000Y-38000D02*
X21750Y-39750D01*
X30000Y-37500D02*
X30000Y-38000D01*
X30000Y-38000D02*
X31750Y-39750D01*
X30000Y-36250D02*
X30000Y-37500D01*
X40000Y-36250D02*
X40000Y-37500D01*
X40000Y-37500D02*
X40000Y-38000D01*
X40000Y-38000D02*
X41750Y-39750D01*
X50250Y-36250D02*
X50250Y-37500D01*
X50250Y-37500D02*
X50250Y-38250D01*
X50250Y-38250D02*
X51750Y-39750D01*
X60250Y-36250D02*
X60250Y-37500D01*
X60250Y-37500D02*
X60250Y-38250D01*
X60250Y-38250D02*
X61750Y-39750D01*
X70250Y-36250D02*
X70250Y-37500D01*
X70250Y-37500D02*
X70250Y-38000D01*
X70250Y-38000D02*
X72000Y-39750D01*
X20250Y-30250D02*
X21750Y-30250D01*
X21750Y-30250D02*
X21750Y-28500D01*
X20000Y-40750D02*
X21750Y-40750D01*
X30000Y-40750D02*
X31750Y-40750D01*
X40000Y-40750D02*
X41750Y-40750D01*
X50000Y-40750D02*
X51750Y-40750D01*
X60000Y-40750D02*
X61750Y-40750D01*
X70250Y-40750D02*
X72000Y-40750D01*
X77000Y-30500D02*
X78250Y-30500D01*
X79750Y-32000D02*
X79750Y-32750D01*
X78250Y-30500D02*
X79750Y-32000D01*
X79000Y-39750D02*
X77750Y-39750D01*
X77750Y-37750D02*
X78750Y-36750D01*
X77750Y-39750D02*
X77750Y-37750D01*
X84750Y-20500D02*
X84750Y-24250D01*
X90000Y-20500D02*
X90000Y-21500D01*
X90000Y-21500D02*
X92750Y-24250D01*
X94500Y-37750D02*
X94500Y-34000D01*
X94500Y-34000D02*
X92750Y-32250D01*
X86750Y-32250D02*
X90750Y-32250D01*
X79250Y-51500D02*
X79250Y-54250D01*
X80250Y-54250D02*
X80250Y-51500D01*
X81250Y-51500D02*
X81250Y-54250D01*
X82250Y-54250D02*
X82250Y-51500D01*
M02*
