M48
INCH,TZ
T1C0.025
T2C0.032
T3C0.040
T4C0.045
T5C0.050
T6C0.120
%
G05
T1
X15500Y-28250
X27750Y-49500
X31750Y-28250
X32750Y-23750
X43000Y-55750
X45250Y-53250
X49000Y-28250
X57500Y-48750
X61000Y-23250
X63750Y-47250
X66500Y-50250
X73500Y-43250
T2
X16000Y-43250
X16000Y-44250
X16250Y-30250
X16750Y-26000
X16750Y-27000
X16750Y-35250
X16750Y-39250
X17000Y-43250
X17750Y-22500
X17750Y-23750
X17750Y-51000
X18500Y-35250
X18500Y-39250
X18750Y-51000
X20000Y-36250
X20000Y-37500
X20000Y-40750
X20000Y-44750
X20250Y-30250
X20250Y-31250
X20250Y-33250
X20750Y-25500
X20750Y-28500
X21750Y-22500
X21750Y-23750
X21750Y-25500
X21750Y-28500
X21750Y-30250
X21750Y-34250
X21750Y-39750
X21750Y-40750
X22750Y-25500
X22750Y-28500
X22750Y-39750
X23500Y-43250
X23500Y-44250
X24000Y-36250
X24000Y-37500
X24500Y-43250
X25250Y-23250
X25250Y-27250
X25250Y-35250
X25250Y-39250
X26500Y-35250
X26500Y-39250
X26750Y-43250
X26750Y-44250
X27500Y-51000
X27750Y-35250
X27750Y-37250
X27750Y-43250
X28500Y-51000
X28750Y-26250
X28750Y-29250
X28750Y-35250
X28750Y-39250
X29750Y-26250
X29750Y-29250
X30000Y-36250
X30000Y-37500
X30000Y-40750
X30000Y-44750
X30750Y-26250
X30750Y-29250
X31750Y-26250
X31750Y-29250
X31750Y-39750
X31750Y-40750
X32750Y-26250
X32750Y-29250
X32750Y-39750
X32750Y-43250
X32750Y-44250
X33750Y-26250
X33750Y-29250
X33750Y-43250
X34000Y-36250
X34000Y-37500
X34750Y-26250
X34750Y-29250
X35250Y-35250
X35250Y-39250
X35750Y-26250
X35750Y-29250
X35750Y-43250
X35750Y-44250
X36500Y-35250
X36500Y-39250
X36750Y-43250
X37500Y-51000
X37750Y-27000
X37750Y-29000
X37750Y-35250
X37750Y-37250
X38500Y-51000
X38750Y-35250
X38750Y-39250
X40000Y-36250
X40000Y-37500
X40000Y-40750
X40000Y-44750
X41750Y-39750
X41750Y-40750
X42750Y-39750
X43000Y-43250
X43000Y-44250
X44000Y-36250
X44000Y-37500
X44000Y-43250
X45250Y-35250
X45250Y-39250
X46000Y-26250
X46000Y-29250
X46250Y-43250
X46250Y-44250
X46500Y-35250
X46500Y-39250
X47000Y-26250
X47000Y-29250
X47250Y-43250
X47500Y-35250
X47500Y-37250
X47500Y-51000
X48000Y-26250
X48000Y-29250
X48500Y-35250
X48500Y-39250
X48500Y-51000
X49000Y-26250
X49000Y-29250
X50000Y-26250
X50000Y-29250
X50000Y-40750
X50000Y-44750
X50250Y-36250
X50250Y-37500
X51000Y-26250
X51000Y-29250
X51750Y-39750
X51750Y-40750
X52000Y-26250
X52000Y-29250
X52750Y-39750
X53000Y-26250
X53000Y-29250
X53250Y-43250
X53250Y-44250
X54250Y-36250
X54250Y-37500
X54250Y-43250
X54750Y-26750
X54750Y-28750
X55250Y-35250
X55250Y-39250
X56500Y-35250
X56500Y-39250
X56500Y-43250
X56500Y-44250
X57000Y-26250
X57000Y-29250
X57500Y-43250
X57500Y-51000
X57750Y-35250
X57750Y-37250
X58000Y-21500
X58000Y-24500
X58000Y-26250
X58000Y-29250
X58500Y-51000
X58750Y-35250
X58750Y-39250
X59000Y-21500
X59000Y-24500
X59000Y-26250
X59000Y-29250
X60000Y-21500
X60000Y-24500
X60000Y-26250
X60000Y-29250
X60000Y-40750
X60000Y-44750
X60250Y-36250
X60250Y-37500
X61000Y-21500
X61000Y-24500
X61000Y-26250
X61000Y-29250
X61750Y-39750
X61750Y-40750
X62000Y-21500
X62000Y-24500
X62000Y-26250
X62000Y-29250
X62750Y-39750
X63000Y-21500
X63000Y-24500
X63000Y-26250
X63000Y-29250
X63750Y-43250
X63750Y-44250
X64000Y-21500
X64000Y-24500
X64000Y-26250
X64000Y-29250
X64250Y-36250
X64250Y-37500
X64750Y-43250
X65000Y-21500
X65000Y-24500
X65500Y-35250
X65500Y-39250
X66500Y-29250
X66750Y-22000
X66750Y-24000
X66750Y-35250
X66750Y-39250
X67000Y-43250
X67000Y-44250
X67500Y-51000
X68000Y-35250
X68000Y-37250
X68000Y-43250
X68500Y-51000
X69000Y-35250
X69000Y-39250
X70250Y-36250
X70250Y-37500
X70250Y-40750
X70250Y-44750
X70500Y-29250
X71250Y-35000
X72000Y-39750
X72000Y-40750
X73000Y-39750
X73250Y-35000
X74250Y-36250
X74250Y-37500
X75750Y-54250
X76750Y-54250
X77000Y-30500
X77000Y-47500
X78000Y-24500
X78000Y-27000
X78000Y-29250
X78000Y-43250
X79000Y-24500
X79000Y-27000
X79000Y-38750
X79000Y-39750
X79250Y-51500
X79250Y-54250
X79500Y-43250
X80000Y-24500
X80000Y-29250
X80000Y-39750
X80250Y-51500
X80250Y-54250
X81000Y-30500
X81000Y-47500
X81250Y-51500
X81250Y-54250
X82250Y-51500
X82250Y-54250
X84750Y-51500
X84750Y-54250
X85750Y-51500
X85750Y-54250
T3
X77000Y-46000
X81000Y-46000
X83500Y-37750
X83500Y-42750
X83500Y-47500
X85500Y-37750
X85500Y-42750
X85500Y-47500
X92500Y-37750
X92500Y-42750
X92500Y-47750
X94500Y-37750
X94500Y-42750
X94500Y-47750
T4
X14500Y-48000
X14500Y-49500
X14500Y-51000
X14500Y-52500
X16000Y-46500
X16000Y-54000
X18000Y-55000
X20000Y-46500
X20000Y-54000
X21500Y-48000
X21500Y-49500
X21500Y-51000
X21500Y-52500
X24500Y-48000
X24500Y-49500
X24500Y-51000
X24500Y-52500
X26000Y-46500
X26000Y-54000
X28000Y-55000
X30000Y-46500
X30000Y-54000
X31500Y-48000
X31500Y-49500
X31500Y-51000
X31500Y-52500
X34500Y-48000
X34500Y-49500
X34500Y-51000
X34500Y-52500
X36000Y-46500
X36000Y-54000
X38000Y-55000
X40000Y-46500
X40000Y-54000
X41500Y-48000
X41500Y-49500
X41500Y-51000
X41500Y-52500
X44500Y-48000
X44500Y-49500
X44500Y-51000
X44500Y-52500
X46000Y-46500
X46000Y-54000
X48000Y-55000
X50000Y-46500
X50000Y-54000
X51500Y-48000
X51500Y-49500
X51500Y-51000
X51500Y-52500
X54500Y-48000
X54500Y-49500
X54500Y-51000
X54500Y-52500
X56000Y-46500
X56000Y-54000
X58000Y-55000
X60000Y-46500
X60000Y-54000
X61500Y-48000
X61500Y-49500
X61500Y-51000
X61500Y-52500
X64500Y-48000
X64500Y-49500
X64500Y-51000
X64500Y-52500
X66000Y-46500
X66000Y-54000
X68000Y-55000
X70000Y-46500
X70000Y-54000
X71500Y-48000
X71500Y-49500
X71500Y-51000
X71500Y-52500
X84750Y-24250
X84750Y-32250
X86750Y-32250
X88000Y-35000
X88000Y-40000
X88000Y-42000
X88000Y-47000
X88000Y-48750
X88000Y-53750
X90000Y-35000
X90000Y-40000
X90000Y-42000
X90000Y-47000
X90000Y-48750
X90000Y-53750
X90750Y-32250
X92750Y-24250
X92750Y-32250
T5
X77750Y-32750
X78750Y-36750
X79750Y-32750
T6
X84750Y-20500
X90000Y-20500
T0
M30
