G04 (Genere par PCBnew (20080825c)) le 18/8/2009-19:22:28*
G01*
G70*
G90*
%MOIN*%
G04 Gerber Fmt 3.4, Leading zero omitted, Abs format*
%FSLAX34Y34*%
G04 APERTURE LIST*
%ADD10C,0.015000*%
%ADD11C,0.012000*%
%ADD12C,0.070000*%
%ADD13R,0.062000X0.090000*%
%ADD14O,0.062000X0.090000*%
%ADD15C,0.055000*%
%ADD16R,0.070000X0.070000*%
%ADD17R,0.055000X0.055000*%
%ADD18C,0.060000*%
%ADD19C,0.160000*%
%ADD20C,0.080000*%
%ADD21C,0.045000*%
%ADD22C,0.017000*%
%ADD23C,0.005000*%
%ADD24C,0.001000*%
%ADD25C,0.008000*%
%ADD26C,0.010000*%
%ADD27C,0.090000*%
%ADD28R,0.082000X0.110000*%
%ADD29O,0.082000X0.110000*%
%ADD30C,0.075000*%
%ADD31R,0.090000X0.090000*%
%ADD32R,0.075000X0.075000*%
%ADD33C,0.180000*%
%ADD34C,0.100000*%
G04 APERTURE END LIST*
G54D10*
X96500Y-57250D02*
X96750Y-57250D01*
X89750Y-57250D02*
X96500Y-57250D01*
X71250Y-18750D02*
X96750Y-18750D01*
X11750Y-18750D02*
X12250Y-18750D01*
X11750Y-57250D02*
X11750Y-18750D01*
X12250Y-57250D02*
X11750Y-57250D01*
X96750Y-18750D02*
X96750Y-57250D01*
X69189Y-20500D02*
X69096Y-20844D01*
X69096Y-20844D02*
X68844Y-21096D01*
X68844Y-21096D02*
X68500Y-21189D01*
X68500Y-21189D02*
X68156Y-21096D01*
X68156Y-21096D02*
X67904Y-20844D01*
X67904Y-20844D02*
X67811Y-20500D01*
X67811Y-20500D02*
X67904Y-20156D01*
X67904Y-20156D02*
X68156Y-19904D01*
X68156Y-19904D02*
X68500Y-19811D01*
X68500Y-19811D02*
X68844Y-19904D01*
X68844Y-19904D02*
X69096Y-20156D01*
X69096Y-20156D02*
X69189Y-20500D01*
X67122Y-20500D02*
X69878Y-20500D01*
X68500Y-19122D02*
X68500Y-21878D01*
G54D11*
X70599Y-20900D02*
X70524Y-20723D01*
X70524Y-20723D02*
X70524Y-20278D01*
X70524Y-20278D02*
X70599Y-20100D01*
X71685Y-20812D02*
X71610Y-20900D01*
X71610Y-20900D02*
X71235Y-20900D01*
X71235Y-20900D02*
X71160Y-20812D01*
X71160Y-20812D02*
X71160Y-20456D01*
X71160Y-20456D02*
X71235Y-20367D01*
X71235Y-20367D02*
X71610Y-20367D01*
X71610Y-20367D02*
X71685Y-20456D01*
X72021Y-20900D02*
X71946Y-20812D01*
X71946Y-20812D02*
X71946Y-20456D01*
X71946Y-20456D02*
X72021Y-20367D01*
X72021Y-20367D02*
X72396Y-20367D01*
X72396Y-20367D02*
X72471Y-20456D01*
X72471Y-20456D02*
X72471Y-20812D01*
X72471Y-20812D02*
X72396Y-20900D01*
X72396Y-20900D02*
X72021Y-20900D01*
X72732Y-20900D02*
X72732Y-20367D01*
X72732Y-20456D02*
X72807Y-20367D01*
X72807Y-20367D02*
X72957Y-20367D01*
X72957Y-20367D02*
X73032Y-20456D01*
X73032Y-20456D02*
X73032Y-20900D01*
X73032Y-20456D02*
X73107Y-20367D01*
X73107Y-20367D02*
X73257Y-20367D01*
X73257Y-20367D02*
X73332Y-20456D01*
X73332Y-20456D02*
X73332Y-20900D01*
X73518Y-21166D02*
X73518Y-20367D01*
X73518Y-20456D02*
X73593Y-20367D01*
X73593Y-20367D02*
X73968Y-20367D01*
X73968Y-20367D02*
X74043Y-20456D01*
X74043Y-20456D02*
X74043Y-20812D01*
X74043Y-20812D02*
X73968Y-20900D01*
X73968Y-20900D02*
X73593Y-20900D01*
X73593Y-20900D02*
X73518Y-20812D01*
X74379Y-20900D02*
X74304Y-20812D01*
X74304Y-20812D02*
X74304Y-20456D01*
X74304Y-20456D02*
X74379Y-20367D01*
X74379Y-20367D02*
X74754Y-20367D01*
X74754Y-20367D02*
X74829Y-20456D01*
X74829Y-20456D02*
X74829Y-20812D01*
X74829Y-20812D02*
X74754Y-20900D01*
X74754Y-20900D02*
X74379Y-20900D01*
X75090Y-20900D02*
X75090Y-20367D01*
X75090Y-20456D02*
X75165Y-20367D01*
X75165Y-20367D02*
X75465Y-20367D01*
X75465Y-20367D02*
X75540Y-20456D01*
X75540Y-20456D02*
X75540Y-20900D01*
X75876Y-20634D02*
X76401Y-20634D01*
X76401Y-20634D02*
X76401Y-20456D01*
X76401Y-20456D02*
X76326Y-20367D01*
X76326Y-20367D02*
X75951Y-20367D01*
X75951Y-20367D02*
X75876Y-20456D01*
X75876Y-20456D02*
X75876Y-20812D01*
X75876Y-20812D02*
X75951Y-20900D01*
X75951Y-20900D02*
X76326Y-20900D01*
X76326Y-20900D02*
X76401Y-20812D01*
X76662Y-20900D02*
X76662Y-20367D01*
X76662Y-20456D02*
X76737Y-20367D01*
X76737Y-20367D02*
X77037Y-20367D01*
X77037Y-20367D02*
X77112Y-20456D01*
X77112Y-20456D02*
X77112Y-20900D01*
X77898Y-20812D02*
X77823Y-20900D01*
X77823Y-20900D02*
X77598Y-20900D01*
X77598Y-20900D02*
X77523Y-20812D01*
X77523Y-20812D02*
X77523Y-20100D01*
X77523Y-20367D02*
X77748Y-20367D01*
X79020Y-20812D02*
X79095Y-20900D01*
X79095Y-20900D02*
X79470Y-20900D01*
X79470Y-20900D02*
X79545Y-20812D01*
X79545Y-20812D02*
X79545Y-20723D01*
X79545Y-20723D02*
X79470Y-20634D01*
X79470Y-20634D02*
X79095Y-20634D01*
X79095Y-20634D02*
X79020Y-20545D01*
X79020Y-20545D02*
X79020Y-20456D01*
X79020Y-20456D02*
X79095Y-20367D01*
X79095Y-20367D02*
X79470Y-20367D01*
X79470Y-20367D02*
X79545Y-20456D01*
X80031Y-20100D02*
X80031Y-20189D01*
X80031Y-20456D02*
X80031Y-20812D01*
X80031Y-20812D02*
X80106Y-20900D01*
X80106Y-20900D02*
X80181Y-20900D01*
X81117Y-20100D02*
X81117Y-20900D01*
X81117Y-20900D02*
X80667Y-20900D01*
X80667Y-20900D02*
X80592Y-20812D01*
X80592Y-20812D02*
X80592Y-20456D01*
X80592Y-20456D02*
X80667Y-20367D01*
X80667Y-20367D02*
X81117Y-20367D01*
X81378Y-20634D02*
X81903Y-20634D01*
X81903Y-20634D02*
X81903Y-20456D01*
X81903Y-20456D02*
X81828Y-20367D01*
X81828Y-20367D02*
X81453Y-20367D01*
X81453Y-20367D02*
X81378Y-20456D01*
X81378Y-20456D02*
X81378Y-20812D01*
X81378Y-20812D02*
X81453Y-20900D01*
X81453Y-20900D02*
X81828Y-20900D01*
X81828Y-20900D02*
X81903Y-20812D01*
X82389Y-20900D02*
X82464Y-20723D01*
X82464Y-20723D02*
X82464Y-20278D01*
X82464Y-20278D02*
X82389Y-20100D01*
X75054Y-22400D02*
X75054Y-21867D01*
X75054Y-22045D02*
X75204Y-21867D01*
X75204Y-21867D02*
X75429Y-21867D01*
X75429Y-21867D02*
X75579Y-22045D01*
X75840Y-22134D02*
X76365Y-22134D01*
X76365Y-22134D02*
X76365Y-21956D01*
X76365Y-21956D02*
X76290Y-21867D01*
X76290Y-21867D02*
X75915Y-21867D01*
X75915Y-21867D02*
X75840Y-21956D01*
X75840Y-21956D02*
X75840Y-22312D01*
X75840Y-22312D02*
X75915Y-22400D01*
X75915Y-22400D02*
X76290Y-22400D01*
X76290Y-22400D02*
X76365Y-22312D01*
X76626Y-21867D02*
X76626Y-22134D01*
X76626Y-22134D02*
X76851Y-22400D01*
X76851Y-22400D02*
X77076Y-22134D01*
X77076Y-22134D02*
X77076Y-21867D01*
X77637Y-22400D02*
X77637Y-22312D01*
X78984Y-22400D02*
X78984Y-21778D01*
X78984Y-21778D02*
X79134Y-21600D01*
X79134Y-21600D02*
X79359Y-21600D01*
X79359Y-21600D02*
X79509Y-21778D01*
X79509Y-21778D02*
X79509Y-22400D01*
X78984Y-21956D02*
X79509Y-21956D01*
G54D10*
X14189Y-20500D02*
X14096Y-20844D01*
X14096Y-20844D02*
X13844Y-21096D01*
X13844Y-21096D02*
X13500Y-21189D01*
X13500Y-21189D02*
X13156Y-21096D01*
X13156Y-21096D02*
X12904Y-20844D01*
X12904Y-20844D02*
X12811Y-20500D01*
X12811Y-20500D02*
X12904Y-20156D01*
X12904Y-20156D02*
X13156Y-19904D01*
X13156Y-19904D02*
X13500Y-19811D01*
X13500Y-19811D02*
X13844Y-19904D01*
X13844Y-19904D02*
X14096Y-20156D01*
X14096Y-20156D02*
X14189Y-20500D01*
X12122Y-20500D02*
X14878Y-20500D01*
X13500Y-19122D02*
X13500Y-21878D01*
X14189Y-55250D02*
X14096Y-55594D01*
X14096Y-55594D02*
X13844Y-55846D01*
X13844Y-55846D02*
X13500Y-55939D01*
X13500Y-55939D02*
X13156Y-55846D01*
X13156Y-55846D02*
X12904Y-55594D01*
X12904Y-55594D02*
X12811Y-55250D01*
X12811Y-55250D02*
X12904Y-54906D01*
X12904Y-54906D02*
X13156Y-54654D01*
X13156Y-54654D02*
X13500Y-54561D01*
X13500Y-54561D02*
X13844Y-54654D01*
X13844Y-54654D02*
X14096Y-54906D01*
X14096Y-54906D02*
X14189Y-55250D01*
X12122Y-55250D02*
X14878Y-55250D01*
X13500Y-53872D02*
X13500Y-56628D01*
X95439Y-20500D02*
X95346Y-20844D01*
X95346Y-20844D02*
X95094Y-21096D01*
X95094Y-21096D02*
X94750Y-21189D01*
X94750Y-21189D02*
X94406Y-21096D01*
X94406Y-21096D02*
X94154Y-20844D01*
X94154Y-20844D02*
X94061Y-20500D01*
X94061Y-20500D02*
X94154Y-20156D01*
X94154Y-20156D02*
X94406Y-19904D01*
X94406Y-19904D02*
X94750Y-19811D01*
X94750Y-19811D02*
X95094Y-19904D01*
X95094Y-19904D02*
X95346Y-20156D01*
X95346Y-20156D02*
X95439Y-20500D01*
X93372Y-20500D02*
X96128Y-20500D01*
X94750Y-19122D02*
X94750Y-21878D01*
X95439Y-55250D02*
X95346Y-55594D01*
X95346Y-55594D02*
X95094Y-55846D01*
X95094Y-55846D02*
X94750Y-55939D01*
X94750Y-55939D02*
X94406Y-55846D01*
X94406Y-55846D02*
X94154Y-55594D01*
X94154Y-55594D02*
X94061Y-55250D01*
X94061Y-55250D02*
X94154Y-54906D01*
X94154Y-54906D02*
X94406Y-54654D01*
X94406Y-54654D02*
X94750Y-54561D01*
X94750Y-54561D02*
X95094Y-54654D01*
X95094Y-54654D02*
X95346Y-54906D01*
X95346Y-54906D02*
X95439Y-55250D01*
X93372Y-55250D02*
X96128Y-55250D01*
X94750Y-53872D02*
X94750Y-56628D01*
X37750Y-57250D02*
X12250Y-57250D01*
X63250Y-57250D02*
X37750Y-57250D01*
X69000Y-57250D02*
X63250Y-57250D01*
X77750Y-57250D02*
X69000Y-57250D01*
X89750Y-57250D02*
X77750Y-57250D01*
X36000Y-18750D02*
X12250Y-18750D01*
X71250Y-18750D02*
X36000Y-18750D01*
G54D12*
X70000Y-46500D03*
X66000Y-46500D03*
X64500Y-48000D03*
X64500Y-49500D03*
X64500Y-51000D03*
X64500Y-52500D03*
X66000Y-54000D03*
X68000Y-55000D03*
X70000Y-54000D03*
X71500Y-52500D03*
X71500Y-51000D03*
X71500Y-49500D03*
X71500Y-48000D03*
X60000Y-46500D03*
X56000Y-46500D03*
X54500Y-48000D03*
X54500Y-49500D03*
X54500Y-51000D03*
X54500Y-52500D03*
X56000Y-54000D03*
X58000Y-55000D03*
X60000Y-54000D03*
X61500Y-52500D03*
X61500Y-51000D03*
X61500Y-49500D03*
X61500Y-48000D03*
X50000Y-46500D03*
X46000Y-46500D03*
X44500Y-48000D03*
X44500Y-49500D03*
X44500Y-51000D03*
X44500Y-52500D03*
X46000Y-54000D03*
X48000Y-55000D03*
X50000Y-54000D03*
X51500Y-52500D03*
X51500Y-51000D03*
X51500Y-49500D03*
X51500Y-48000D03*
X40000Y-46500D03*
X36000Y-46500D03*
X34500Y-48000D03*
X34500Y-49500D03*
X34500Y-51000D03*
X34500Y-52500D03*
X36000Y-54000D03*
X38000Y-55000D03*
X40000Y-54000D03*
X41500Y-52500D03*
X41500Y-51000D03*
X41500Y-49500D03*
X41500Y-48000D03*
X30000Y-46500D03*
X26000Y-46500D03*
X24500Y-48000D03*
X24500Y-49500D03*
X24500Y-51000D03*
X24500Y-52500D03*
X26000Y-54000D03*
X28000Y-55000D03*
X30000Y-54000D03*
X31500Y-52500D03*
X31500Y-51000D03*
X31500Y-49500D03*
X31500Y-48000D03*
X20000Y-46500D03*
X16000Y-46500D03*
X14500Y-48000D03*
X14500Y-49500D03*
X14500Y-51000D03*
X14500Y-52500D03*
X16000Y-54000D03*
X18000Y-55000D03*
X20000Y-54000D03*
X21500Y-52500D03*
X21500Y-51000D03*
X21500Y-49500D03*
X21500Y-48000D03*
G54D13*
X28750Y-29250D03*
G54D14*
X29750Y-29250D03*
X30750Y-29250D03*
X31750Y-29250D03*
X32750Y-29250D03*
X33750Y-29250D03*
X34750Y-29250D03*
X35750Y-29250D03*
X35750Y-26250D03*
X34750Y-26250D03*
X33750Y-26250D03*
X32750Y-26250D03*
X31750Y-26250D03*
X30750Y-26250D03*
X29750Y-26250D03*
X28750Y-26250D03*
G54D13*
X46000Y-29250D03*
G54D14*
X47000Y-29250D03*
X48000Y-29250D03*
X49000Y-29250D03*
X50000Y-29250D03*
X51000Y-29250D03*
X52000Y-29250D03*
X53000Y-29250D03*
X53000Y-26250D03*
X52000Y-26250D03*
X51000Y-26250D03*
X50000Y-26250D03*
X49000Y-26250D03*
X48000Y-26250D03*
X47000Y-26250D03*
X46000Y-26250D03*
G54D13*
X58000Y-24500D03*
G54D14*
X59000Y-24500D03*
X60000Y-24500D03*
X61000Y-24500D03*
X62000Y-24500D03*
X63000Y-24500D03*
X64000Y-24500D03*
X65000Y-24500D03*
X65000Y-21500D03*
X64000Y-21500D03*
X63000Y-21500D03*
X62000Y-21500D03*
X61000Y-21500D03*
X60000Y-21500D03*
X59000Y-21500D03*
X58000Y-21500D03*
G54D13*
X64000Y-26250D03*
G54D14*
X63000Y-26250D03*
X62000Y-26250D03*
X61000Y-26250D03*
X60000Y-26250D03*
X59000Y-26250D03*
X58000Y-26250D03*
X57000Y-26250D03*
X57000Y-29250D03*
X58000Y-29250D03*
X59000Y-29250D03*
X60000Y-29250D03*
X61000Y-29250D03*
X62000Y-29250D03*
X63000Y-29250D03*
X64000Y-29250D03*
G54D15*
X27750Y-37250D03*
X27750Y-35250D03*
X37750Y-37250D03*
X37750Y-35250D03*
X47500Y-37250D03*
X47500Y-35250D03*
X57750Y-37250D03*
X57750Y-35250D03*
X68000Y-37250D03*
X68000Y-35250D03*
X73250Y-35000D03*
X71250Y-35000D03*
X37750Y-27000D03*
X37750Y-29000D03*
X54750Y-26750D03*
X54750Y-28750D03*
X66750Y-22000D03*
X66750Y-24000D03*
X78000Y-29250D03*
X80000Y-29250D03*
X20250Y-33250D03*
X20250Y-31250D03*
G54D12*
X81000Y-46000D03*
G54D16*
X77000Y-46000D03*
G54D12*
X90000Y-40000D03*
G54D16*
X90000Y-35000D03*
G54D12*
X88000Y-42000D03*
G54D16*
X88000Y-47000D03*
G54D12*
X90000Y-48750D03*
G54D16*
X90000Y-53750D03*
G54D12*
X88000Y-35000D03*
G54D16*
X88000Y-40000D03*
G54D12*
X90000Y-42000D03*
G54D16*
X90000Y-47000D03*
G54D12*
X88000Y-53750D03*
G54D16*
X88000Y-48750D03*
G54D17*
X75750Y-54250D03*
G54D15*
X76750Y-54250D03*
G54D17*
X67500Y-51000D03*
G54D15*
X68500Y-51000D03*
G54D17*
X57500Y-51000D03*
G54D15*
X58500Y-51000D03*
G54D17*
X47500Y-51000D03*
G54D15*
X48500Y-51000D03*
G54D17*
X37500Y-51000D03*
G54D15*
X38500Y-51000D03*
G54D17*
X27500Y-51000D03*
G54D15*
X28500Y-51000D03*
G54D17*
X17750Y-51000D03*
G54D15*
X18750Y-51000D03*
G54D17*
X85750Y-54250D03*
G54D15*
X84750Y-54250D03*
G54D18*
X16750Y-35250D03*
X16750Y-39250D03*
X25250Y-35250D03*
X25250Y-39250D03*
X26500Y-35250D03*
X26500Y-39250D03*
X35250Y-35250D03*
X35250Y-39250D03*
X36500Y-35250D03*
X36500Y-39250D03*
X45250Y-35250D03*
X45250Y-39250D03*
X46500Y-35250D03*
X46500Y-39250D03*
X55250Y-35250D03*
X55250Y-39250D03*
X56500Y-35250D03*
X56500Y-39250D03*
X65500Y-35250D03*
X65500Y-39250D03*
X66750Y-35250D03*
X66750Y-39250D03*
X20000Y-36250D03*
X24000Y-36250D03*
X24000Y-37500D03*
X20000Y-37500D03*
X30000Y-36250D03*
X34000Y-36250D03*
X34000Y-37500D03*
X30000Y-37500D03*
X40000Y-36250D03*
X44000Y-36250D03*
X44000Y-37500D03*
X40000Y-37500D03*
X50250Y-36250D03*
X54250Y-36250D03*
X54250Y-37500D03*
X50250Y-37500D03*
X60250Y-36250D03*
X64250Y-36250D03*
X64250Y-37500D03*
X60250Y-37500D03*
X70250Y-36250D03*
X74250Y-36250D03*
X74250Y-37500D03*
X70250Y-37500D03*
X21750Y-23750D03*
X17750Y-23750D03*
X21750Y-22500D03*
X17750Y-22500D03*
X25250Y-27250D03*
X25250Y-23250D03*
X70500Y-29250D03*
X66500Y-29250D03*
X69000Y-39250D03*
X69000Y-35250D03*
X58750Y-39250D03*
X58750Y-35250D03*
X48500Y-39250D03*
X48500Y-35250D03*
X38750Y-39250D03*
X38750Y-35250D03*
X28750Y-39250D03*
X28750Y-35250D03*
X18500Y-39250D03*
X18500Y-35250D03*
X21750Y-30250D03*
X21750Y-34250D03*
X20250Y-30250D03*
X16250Y-30250D03*
X20000Y-40750D03*
X20000Y-44750D03*
X30000Y-40750D03*
X30000Y-44750D03*
X40000Y-40750D03*
X40000Y-44750D03*
X50000Y-40750D03*
X50000Y-44750D03*
X60000Y-40750D03*
X60000Y-44750D03*
X70250Y-40750D03*
X70250Y-44750D03*
X81000Y-47500D03*
X77000Y-47500D03*
X77000Y-30500D03*
X81000Y-30500D03*
G54D17*
X17000Y-43250D03*
G54D15*
X16000Y-43250D03*
X16000Y-44250D03*
G54D17*
X24500Y-43250D03*
G54D15*
X23500Y-43250D03*
X23500Y-44250D03*
G54D17*
X27750Y-43250D03*
G54D15*
X26750Y-43250D03*
X26750Y-44250D03*
G54D17*
X33750Y-43250D03*
G54D15*
X32750Y-43250D03*
X32750Y-44250D03*
G54D17*
X36750Y-43250D03*
G54D15*
X35750Y-43250D03*
X35750Y-44250D03*
G54D17*
X44000Y-43250D03*
G54D15*
X43000Y-43250D03*
X43000Y-44250D03*
G54D17*
X47250Y-43250D03*
G54D15*
X46250Y-43250D03*
X46250Y-44250D03*
G54D17*
X54250Y-43250D03*
G54D15*
X53250Y-43250D03*
X53250Y-44250D03*
G54D17*
X57500Y-43250D03*
G54D15*
X56500Y-43250D03*
X56500Y-44250D03*
G54D17*
X64750Y-43250D03*
G54D15*
X63750Y-43250D03*
X63750Y-44250D03*
G54D17*
X68000Y-43250D03*
G54D15*
X67000Y-43250D03*
X67000Y-44250D03*
G54D17*
X22750Y-39750D03*
G54D15*
X21750Y-39750D03*
X21750Y-40750D03*
G54D17*
X32750Y-39750D03*
G54D15*
X31750Y-39750D03*
X31750Y-40750D03*
G54D17*
X42750Y-39750D03*
G54D15*
X41750Y-39750D03*
X41750Y-40750D03*
G54D17*
X52750Y-39750D03*
G54D15*
X51750Y-39750D03*
X51750Y-40750D03*
G54D17*
X62750Y-39750D03*
G54D15*
X61750Y-39750D03*
X61750Y-40750D03*
G54D17*
X73000Y-39750D03*
G54D15*
X72000Y-39750D03*
X72000Y-40750D03*
G54D17*
X79000Y-38750D03*
G54D15*
X79000Y-39750D03*
X80000Y-39750D03*
G54D12*
X84750Y-24250D03*
X92750Y-24250D03*
X92750Y-32250D03*
X90750Y-32250D03*
X84750Y-32250D03*
X86750Y-32250D03*
G54D19*
X90000Y-20500D03*
X84750Y-20500D03*
G54D15*
X79000Y-27000D03*
X78000Y-27000D03*
G54D17*
X78000Y-43250D03*
G54D15*
X79500Y-43250D03*
G54D17*
X16750Y-27000D03*
G54D15*
X16750Y-26000D03*
G54D16*
X83500Y-47500D03*
G54D12*
X85500Y-47500D03*
G54D16*
X83500Y-42750D03*
G54D12*
X85500Y-42750D03*
G54D16*
X83500Y-37750D03*
G54D12*
X85500Y-37750D03*
G54D16*
X92500Y-47750D03*
G54D12*
X94500Y-47750D03*
G54D16*
X92500Y-42750D03*
G54D12*
X94500Y-42750D03*
G54D16*
X92500Y-37750D03*
G54D12*
X94500Y-37750D03*
G54D17*
X84750Y-51500D03*
G54D15*
X85750Y-51500D03*
G54D17*
X80000Y-24500D03*
G54D15*
X79000Y-24500D03*
X78000Y-24500D03*
G54D17*
X79250Y-51500D03*
G54D15*
X80250Y-51500D03*
X81250Y-51500D03*
X82250Y-51500D03*
G54D17*
X79250Y-54250D03*
G54D15*
X80250Y-54250D03*
X81250Y-54250D03*
X82250Y-54250D03*
G54D20*
X79750Y-32750D03*
X78750Y-36750D03*
X77750Y-32750D03*
G54D13*
X20750Y-28500D03*
G54D14*
X20750Y-25500D03*
X21750Y-28500D03*
X21750Y-25500D03*
X22750Y-28500D03*
X22750Y-25500D03*
G54D21*
X27750Y-49500D03*
X43000Y-55750D03*
X45250Y-53250D03*
X66500Y-50250D03*
X57500Y-48750D03*
X63750Y-47250D03*
X31750Y-28250D03*
X49000Y-28250D03*
X61000Y-23250D03*
X15500Y-28250D03*
X73500Y-43250D03*
X32750Y-23750D03*
G54D22*
X23500Y-44250D02*
X23500Y-48000D01*
X23500Y-48000D02*
X24500Y-48000D01*
X26750Y-44250D02*
X27250Y-44250D01*
X27750Y-44750D02*
X27750Y-49500D01*
X27250Y-44250D02*
X27750Y-44750D01*
X32750Y-44250D02*
X32750Y-52500D01*
X32750Y-52500D02*
X34500Y-52500D01*
X36000Y-54000D02*
X35250Y-53250D01*
X35750Y-45250D02*
X35750Y-44250D01*
X35750Y-45250D02*
X35250Y-45750D01*
X35250Y-45750D02*
X35250Y-53250D01*
X43000Y-44250D02*
X43000Y-55750D01*
X46250Y-44250D02*
X45250Y-45250D01*
X45250Y-45250D02*
X45250Y-53250D01*
X53250Y-44250D02*
X53250Y-52000D01*
X52750Y-52500D02*
X51500Y-52500D01*
X53250Y-52000D02*
X52750Y-52500D01*
X67000Y-44250D02*
X67000Y-49000D01*
X66500Y-49500D02*
X66500Y-50250D01*
X67000Y-49000D02*
X66500Y-49500D01*
X56500Y-44250D02*
X57250Y-44250D01*
X57500Y-44500D02*
X57500Y-48750D01*
X57250Y-44250D02*
X57500Y-44500D01*
X63750Y-44250D02*
X63750Y-47250D01*
X79500Y-43250D02*
X80000Y-43250D01*
X80000Y-43250D02*
X85500Y-37750D01*
X35750Y-29250D02*
X35750Y-28250D01*
X35750Y-28250D02*
X31750Y-28250D01*
X35750Y-28250D02*
X37000Y-28250D01*
X37000Y-28250D02*
X37750Y-29000D01*
X37750Y-29000D02*
X38500Y-28250D01*
X53000Y-28250D02*
X53000Y-29250D01*
X38500Y-28250D02*
X49000Y-28250D01*
X49000Y-28250D02*
X53000Y-28250D01*
X53000Y-28250D02*
X54250Y-28250D01*
X54250Y-28250D02*
X54750Y-28750D01*
X54750Y-28750D02*
X54750Y-28500D01*
X54750Y-28500D02*
X57000Y-26250D01*
X57000Y-26250D02*
X57000Y-23250D01*
X65000Y-23250D02*
X65000Y-24500D01*
X57000Y-23250D02*
X61000Y-23250D01*
X61000Y-23250D02*
X65000Y-23250D01*
X65000Y-23250D02*
X66000Y-23250D01*
X66000Y-23250D02*
X66750Y-24000D01*
X31750Y-28250D02*
X24750Y-28250D01*
X17750Y-28250D02*
X15500Y-28250D01*
X24750Y-28250D02*
X24000Y-27500D01*
X24000Y-27500D02*
X18500Y-27500D01*
X18500Y-27500D02*
X17750Y-28250D01*
X76000Y-28250D02*
X79250Y-28250D01*
X76000Y-36750D02*
X76000Y-28250D01*
X76000Y-43250D02*
X76000Y-36750D01*
X75750Y-43250D02*
X76000Y-43250D01*
X73500Y-43250D02*
X75750Y-43250D01*
X79250Y-28250D02*
X80000Y-29000D01*
X80000Y-29000D02*
X80000Y-29250D01*
X37750Y-27000D02*
X37500Y-27000D01*
X28750Y-27500D02*
X28750Y-26250D01*
X37000Y-27500D02*
X34750Y-27500D01*
X34750Y-27500D02*
X28750Y-27500D01*
X37500Y-27000D02*
X37000Y-27500D01*
X34750Y-26250D02*
X34750Y-27500D01*
X54750Y-26750D02*
X54750Y-27000D01*
X54750Y-27000D02*
X54250Y-27500D01*
X54250Y-27500D02*
X52000Y-27500D01*
X52000Y-27500D02*
X46000Y-27500D01*
X46000Y-27500D02*
X46000Y-26250D01*
X37750Y-27000D02*
X38000Y-27000D01*
X38500Y-27500D02*
X46000Y-27500D01*
X38000Y-27000D02*
X38500Y-27500D01*
X52000Y-26250D02*
X52000Y-27500D01*
X54750Y-26750D02*
X54750Y-22500D01*
X58000Y-22500D02*
X58000Y-21500D01*
X54750Y-22500D02*
X58000Y-22500D01*
X58000Y-22500D02*
X64000Y-22500D01*
X64000Y-22500D02*
X64000Y-21500D01*
X64000Y-22500D02*
X66250Y-22500D01*
X66250Y-22500D02*
X66750Y-22000D01*
X28750Y-26250D02*
X24500Y-26250D01*
X24500Y-26250D02*
X24000Y-26750D01*
X24000Y-26750D02*
X17000Y-26750D01*
X17000Y-26750D02*
X16750Y-27000D01*
X25750Y-56250D02*
X26250Y-56250D01*
X17000Y-56250D02*
X25750Y-56250D01*
X26250Y-56250D02*
X27000Y-56250D01*
X27000Y-56250D02*
X36250Y-56250D01*
X36250Y-56250D02*
X37000Y-56250D01*
X37000Y-56250D02*
X46500Y-56250D01*
X46500Y-56250D02*
X47000Y-56250D01*
X47000Y-56250D02*
X57000Y-56250D01*
X57500Y-51500D02*
X57500Y-51000D01*
X57000Y-52000D02*
X57500Y-51500D01*
X57000Y-56250D02*
X57000Y-52000D01*
X57000Y-56250D02*
X67000Y-56250D01*
X67500Y-51500D02*
X67500Y-51000D01*
X67000Y-52000D02*
X67500Y-51500D01*
X67000Y-56250D02*
X67000Y-52000D01*
X67000Y-56250D02*
X75750Y-56250D01*
X75750Y-56250D02*
X75750Y-54250D01*
X47000Y-56250D02*
X47000Y-51500D01*
X47000Y-51500D02*
X47500Y-51000D01*
X37000Y-56250D02*
X37000Y-51500D01*
X37000Y-51500D02*
X37500Y-51000D01*
X27000Y-56250D02*
X27000Y-51500D01*
X27000Y-51500D02*
X27500Y-51000D01*
X17000Y-56250D02*
X17000Y-51750D01*
X17000Y-51750D02*
X17750Y-51000D01*
X17750Y-51000D02*
X17750Y-49750D01*
X14500Y-27000D02*
X16750Y-27000D01*
X14500Y-29250D02*
X14500Y-27000D01*
X17750Y-49750D02*
X14500Y-46500D01*
X14500Y-46500D02*
X14500Y-29250D01*
X32750Y-26250D02*
X32750Y-25250D01*
X50000Y-25250D02*
X50000Y-26250D01*
X32750Y-25250D02*
X50000Y-25250D01*
X62000Y-21500D02*
X62000Y-20500D01*
X50000Y-20500D02*
X50000Y-25250D01*
X62000Y-20500D02*
X50000Y-20500D01*
X32750Y-23750D02*
X32750Y-25250D01*
X21750Y-25500D02*
X21750Y-24250D01*
X30750Y-24250D02*
X30750Y-26250D01*
X21750Y-24250D02*
X30750Y-24250D01*
X21750Y-23750D02*
X21750Y-24250D01*
X18500Y-35250D02*
X18500Y-32500D01*
X58000Y-32500D02*
X58000Y-29250D01*
X54750Y-32500D02*
X58000Y-32500D01*
X54750Y-32500D02*
X44250Y-32500D01*
X44250Y-32500D02*
X30750Y-32500D01*
X30750Y-32500D02*
X18500Y-32500D01*
X28750Y-35250D02*
X28750Y-33000D01*
X59000Y-33000D02*
X59000Y-29250D01*
X55750Y-33000D02*
X59000Y-33000D01*
X55750Y-33000D02*
X46250Y-33000D01*
X46250Y-33000D02*
X32750Y-33000D01*
X32750Y-33000D02*
X28750Y-33000D01*
X38750Y-35250D02*
X38750Y-33500D01*
X60000Y-33500D02*
X60000Y-29250D01*
X56750Y-33500D02*
X60000Y-33500D01*
X56750Y-33500D02*
X48750Y-33500D01*
X48750Y-33500D02*
X38750Y-33500D01*
X48500Y-35250D02*
X48500Y-34000D01*
X61000Y-33750D02*
X61000Y-29250D01*
X60750Y-34000D02*
X61000Y-33750D01*
X57750Y-34000D02*
X60750Y-34000D01*
X57750Y-34000D02*
X48500Y-34000D01*
X58750Y-35250D02*
X62000Y-35250D01*
X62000Y-35250D02*
X62000Y-29250D01*
X63000Y-29250D02*
X63000Y-34000D01*
X69000Y-34000D02*
X69000Y-35250D01*
X63000Y-34000D02*
X69000Y-34000D01*
X22750Y-39750D02*
X22750Y-38750D01*
X22750Y-38750D02*
X24000Y-37500D01*
X24000Y-37500D02*
X26500Y-37500D01*
X26500Y-37500D02*
X27250Y-38250D01*
X27250Y-38250D02*
X29500Y-38250D01*
X29500Y-38250D02*
X30000Y-38750D01*
X30000Y-38750D02*
X32750Y-38750D01*
X32750Y-38750D02*
X32750Y-39750D01*
X32750Y-38750D02*
X34000Y-37500D01*
X34000Y-37500D02*
X36500Y-37500D01*
X41500Y-38500D02*
X42750Y-39750D01*
X37500Y-38500D02*
X41500Y-38500D01*
X36500Y-37500D02*
X37500Y-38500D01*
X41500Y-38500D02*
X43000Y-38500D01*
X43000Y-38500D02*
X44000Y-37500D01*
X44000Y-37500D02*
X46500Y-37500D01*
X52750Y-38750D02*
X52750Y-39750D01*
X50000Y-38750D02*
X52750Y-38750D01*
X49500Y-38250D02*
X50000Y-38750D01*
X47250Y-38250D02*
X49500Y-38250D01*
X46500Y-37500D02*
X47250Y-38250D01*
X52750Y-38750D02*
X53000Y-38750D01*
X53000Y-38750D02*
X54250Y-37500D01*
X54250Y-37500D02*
X56500Y-37500D01*
X62750Y-38750D02*
X62750Y-39750D01*
X60250Y-38750D02*
X62750Y-38750D01*
X59750Y-38250D02*
X60250Y-38750D01*
X57250Y-38250D02*
X59750Y-38250D01*
X56500Y-37500D02*
X57250Y-38250D01*
X62750Y-38750D02*
X63000Y-38750D01*
X63000Y-38750D02*
X64250Y-37500D01*
X64250Y-37500D02*
X66250Y-37500D01*
X73000Y-38750D02*
X73000Y-39750D01*
X70250Y-38750D02*
X73000Y-38750D01*
X69750Y-38250D02*
X70250Y-38750D01*
X67000Y-38250D02*
X69750Y-38250D01*
X66250Y-37500D02*
X67000Y-38250D01*
X73000Y-38750D02*
X74250Y-37500D01*
X20250Y-33250D02*
X20250Y-34250D01*
X20250Y-34250D02*
X21750Y-34250D01*
X21750Y-34250D02*
X21750Y-37500D01*
X21750Y-37500D02*
X24000Y-37500D01*
X74250Y-37500D02*
X75250Y-37500D01*
X75250Y-27000D02*
X78000Y-27000D01*
X75250Y-37500D02*
X75250Y-27000D01*
X69000Y-39250D02*
X69000Y-50500D01*
X69000Y-50500D02*
X68500Y-51000D01*
X58750Y-39250D02*
X58750Y-50750D01*
X58750Y-50750D02*
X58500Y-51000D01*
X48500Y-39250D02*
X48500Y-51000D01*
X38500Y-51000D02*
X38500Y-39500D01*
X38500Y-39500D02*
X38750Y-39250D01*
X28750Y-39250D02*
X28750Y-50750D01*
X28750Y-50750D02*
X28500Y-51000D01*
X18500Y-39250D02*
X18500Y-50750D01*
X18500Y-50750D02*
X18750Y-51000D01*
X16750Y-39250D02*
X16750Y-40500D01*
X16000Y-41250D02*
X16000Y-43250D01*
X16750Y-40500D02*
X16000Y-41250D01*
X25250Y-39250D02*
X25250Y-40000D01*
X23500Y-41750D02*
X23500Y-43250D01*
X25250Y-40000D02*
X23500Y-41750D01*
X26500Y-39250D02*
X26500Y-43000D01*
X26500Y-43000D02*
X26750Y-43250D01*
X35250Y-39250D02*
X32750Y-41750D01*
X32750Y-41750D02*
X32750Y-43250D01*
X36500Y-39250D02*
X36500Y-40500D01*
X35750Y-41250D02*
X35750Y-43250D01*
X36500Y-40500D02*
X35750Y-41250D01*
X43000Y-43250D02*
X43000Y-41500D01*
X43000Y-41500D02*
X45250Y-39250D01*
X46250Y-43250D02*
X46250Y-39500D01*
X46250Y-39500D02*
X46500Y-39250D01*
X53250Y-43250D02*
X53250Y-41250D01*
X53250Y-41250D02*
X55250Y-39250D01*
X56500Y-39250D02*
X56500Y-43250D01*
X63750Y-43250D02*
X63750Y-41000D01*
X63750Y-41000D02*
X65500Y-39250D01*
X67000Y-43250D02*
X67000Y-39500D01*
X67000Y-39500D02*
X66750Y-39250D01*
M02*
